G04 #@! TF.GenerationSoftware,KiCad,Pcbnew,8.0.3-8.0.3-0~ubuntu20.04.1*
G04 #@! TF.CreationDate,2025-01-28T06:04:03-03:00*
G04 #@! TF.ProjectId,hv_pulse_controller,68765f70-756c-4736-955f-636f6e74726f,rev?*
G04 #@! TF.SameCoordinates,Original*
G04 #@! TF.FileFunction,Soldermask,Top*
G04 #@! TF.FilePolarity,Negative*
%FSLAX46Y46*%
G04 Gerber Fmt 4.6, Leading zero omitted, Abs format (unit mm)*
G04 Created by KiCad (PCBNEW 8.0.3-8.0.3-0~ubuntu20.04.1) date 2025-01-28 06:04:03*
%MOMM*%
%LPD*%
G01*
G04 APERTURE LIST*
G04 Aperture macros list*
%AMRoundRect*
0 Rectangle with rounded corners*
0 $1 Rounding radius*
0 $2 $3 $4 $5 $6 $7 $8 $9 X,Y pos of 4 corners*
0 Add a 4 corners polygon primitive as box body*
4,1,4,$2,$3,$4,$5,$6,$7,$8,$9,$2,$3,0*
0 Add four circle primitives for the rounded corners*
1,1,$1+$1,$2,$3*
1,1,$1+$1,$4,$5*
1,1,$1+$1,$6,$7*
1,1,$1+$1,$8,$9*
0 Add four rect primitives between the rounded corners*
20,1,$1+$1,$2,$3,$4,$5,0*
20,1,$1+$1,$4,$5,$6,$7,0*
20,1,$1+$1,$6,$7,$8,$9,0*
20,1,$1+$1,$8,$9,$2,$3,0*%
G04 Aperture macros list end*
%ADD10R,1.700000X1.700000*%
%ADD11O,1.700000X1.700000*%
%ADD12RoundRect,0.150000X0.150000X-0.512500X0.150000X0.512500X-0.150000X0.512500X-0.150000X-0.512500X0*%
%ADD13RoundRect,0.200000X-0.200000X-0.275000X0.200000X-0.275000X0.200000X0.275000X-0.200000X0.275000X0*%
%ADD14RoundRect,0.250000X-1.800000X1.330000X-1.800000X-1.330000X1.800000X-1.330000X1.800000X1.330000X0*%
%ADD15O,4.100000X3.160000*%
%ADD16RoundRect,0.250000X0.475000X-0.250000X0.475000X0.250000X-0.475000X0.250000X-0.475000X-0.250000X0*%
%ADD17RoundRect,0.250000X-0.250000X-0.475000X0.250000X-0.475000X0.250000X0.475000X-0.250000X0.475000X0*%
%ADD18RoundRect,0.200000X0.200000X0.275000X-0.200000X0.275000X-0.200000X-0.275000X0.200000X-0.275000X0*%
%ADD19RoundRect,0.125000X0.125000X-0.125000X0.125000X0.125000X-0.125000X0.125000X-0.125000X-0.125000X0*%
%ADD20RoundRect,0.250000X0.375000X0.625000X-0.375000X0.625000X-0.375000X-0.625000X0.375000X-0.625000X0*%
%ADD21RoundRect,0.250000X0.250000X0.475000X-0.250000X0.475000X-0.250000X-0.475000X0.250000X-0.475000X0*%
%ADD22RoundRect,0.175000X0.325000X0.175000X-0.325000X0.175000X-0.325000X-0.175000X0.325000X-0.175000X0*%
%ADD23RoundRect,0.225000X0.375000X-0.225000X0.375000X0.225000X-0.375000X0.225000X-0.375000X-0.225000X0*%
%ADD24RoundRect,0.250000X0.450000X-0.262500X0.450000X0.262500X-0.450000X0.262500X-0.450000X-0.262500X0*%
%ADD25RoundRect,0.250000X-0.475000X0.250000X-0.475000X-0.250000X0.475000X-0.250000X0.475000X0.250000X0*%
%ADD26RoundRect,0.150000X-0.750000X-0.150000X0.750000X-0.150000X0.750000X0.150000X-0.750000X0.150000X0*%
%ADD27RoundRect,0.150000X-0.875000X-0.150000X0.875000X-0.150000X0.875000X0.150000X-0.875000X0.150000X0*%
%ADD28RoundRect,0.250000X-0.262500X-0.450000X0.262500X-0.450000X0.262500X0.450000X-0.262500X0.450000X0*%
%ADD29RoundRect,0.312500X0.937500X-0.312500X0.937500X0.312500X-0.937500X0.312500X-0.937500X-0.312500X0*%
%ADD30RoundRect,0.312500X-0.937500X0.312500X-0.937500X-0.312500X0.937500X-0.312500X0.937500X0.312500X0*%
%ADD31RoundRect,0.250000X-0.250000X0.500000X-0.250000X-0.500000X0.250000X-0.500000X0.250000X0.500000X0*%
%ADD32RoundRect,0.100000X-0.225000X-0.100000X0.225000X-0.100000X0.225000X0.100000X-0.225000X0.100000X0*%
%ADD33RoundRect,0.250000X-0.625000X0.312500X-0.625000X-0.312500X0.625000X-0.312500X0.625000X0.312500X0*%
%ADD34RoundRect,0.100000X-0.100000X0.680000X-0.100000X-0.680000X0.100000X-0.680000X0.100000X0.680000X0*%
%ADD35R,0.510000X0.700000*%
%ADD36R,1.090000X1.830000*%
%ADD37RoundRect,0.054500X0.490500X-0.860500X0.490500X0.860500X-0.490500X0.860500X-0.490500X-0.860500X0*%
%ADD38RoundRect,0.250000X-0.350000X0.850000X-0.350000X-0.850000X0.350000X-0.850000X0.350000X0.850000X0*%
%ADD39RoundRect,0.249997X-2.650003X2.950003X-2.650003X-2.950003X2.650003X-2.950003X2.650003X2.950003X0*%
%ADD40O,2.000000X4.000000*%
%ADD41RoundRect,0.162500X-0.162500X0.617500X-0.162500X-0.617500X0.162500X-0.617500X0.162500X0.617500X0*%
%ADD42RoundRect,0.250000X-0.450000X0.262500X-0.450000X-0.262500X0.450000X-0.262500X0.450000X0.262500X0*%
%ADD43RoundRect,0.250000X-0.600000X-0.750000X0.600000X-0.750000X0.600000X0.750000X-0.600000X0.750000X0*%
%ADD44O,1.700000X2.000000*%
%ADD45RoundRect,0.375000X0.375000X-0.625000X0.375000X0.625000X-0.375000X0.625000X-0.375000X-0.625000X0*%
%ADD46RoundRect,0.500000X1.400000X-0.500000X1.400000X0.500000X-1.400000X0.500000X-1.400000X-0.500000X0*%
%ADD47R,2.000000X1.200000*%
%ADD48O,2.000000X1.200000*%
G04 APERTURE END LIST*
D10*
X102500000Y-109820000D03*
D11*
X102500000Y-112360000D03*
X102500000Y-114900000D03*
D12*
X156075000Y-95612500D03*
X157975000Y-95612500D03*
X157025000Y-93337500D03*
D13*
X160875000Y-73200000D03*
X162525000Y-73200000D03*
D14*
X167500000Y-138410000D03*
D15*
X167500000Y-142370000D03*
D16*
X160025000Y-95600000D03*
X160025000Y-93700000D03*
D14*
X167500000Y-116000000D03*
D15*
X167500000Y-119960000D03*
D17*
X162250000Y-81050000D03*
X164150000Y-81050000D03*
D14*
X179000000Y-116000000D03*
D15*
X179000000Y-119960000D03*
D18*
X162575000Y-74700000D03*
X160925000Y-74700000D03*
D10*
X170000000Y-124500000D03*
D11*
X172540000Y-124500000D03*
X170000000Y-127040000D03*
X172540000Y-127040000D03*
X170000000Y-129580000D03*
X172540000Y-129580000D03*
X170000000Y-132120000D03*
X172540000Y-132120000D03*
D19*
X125200000Y-82175000D03*
X125200000Y-79975000D03*
D10*
X170000000Y-80500000D03*
D11*
X172540000Y-80500000D03*
X170000000Y-83040000D03*
X172540000Y-83040000D03*
X170000000Y-85580000D03*
X172540000Y-85580000D03*
X170000000Y-88120000D03*
X172540000Y-88120000D03*
D16*
X165950000Y-75150000D03*
X165950000Y-73250000D03*
D20*
X149900000Y-84000000D03*
X147100000Y-84000000D03*
D18*
X152082500Y-72200000D03*
X150432500Y-72200000D03*
D12*
X156325000Y-124225000D03*
X158225000Y-124225000D03*
X157275000Y-121950000D03*
D16*
X153425000Y-95525000D03*
X153425000Y-93625000D03*
D10*
X143925000Y-85925000D03*
D11*
X143925000Y-83385000D03*
D21*
X111525000Y-147600000D03*
X109625000Y-147600000D03*
D17*
X144482500Y-73800000D03*
X146382500Y-73800000D03*
D16*
X111500000Y-94900000D03*
X111500000Y-93000000D03*
D10*
X179000000Y-80460000D03*
D11*
X181540000Y-80460000D03*
X179000000Y-83000000D03*
X181540000Y-83000000D03*
X179000000Y-85540000D03*
X181540000Y-85540000D03*
X179000000Y-88080000D03*
X181540000Y-88080000D03*
D12*
X151000000Y-69812500D03*
X152900000Y-69812500D03*
X151950000Y-67537500D03*
D13*
X147675000Y-86000000D03*
X149325000Y-86000000D03*
D22*
X108000000Y-86937500D03*
X108000000Y-85987500D03*
X108000000Y-85037500D03*
X105400000Y-85037500D03*
X105400000Y-85987500D03*
X105400000Y-86937500D03*
D23*
X141650000Y-69700000D03*
X141650000Y-66400000D03*
D24*
X114950000Y-104862500D03*
X114950000Y-103037500D03*
D25*
X132980000Y-82750000D03*
X132980000Y-84650000D03*
D18*
X163975000Y-79250000D03*
X162325000Y-79250000D03*
D26*
X144050000Y-76400000D03*
X144050000Y-77670000D03*
X144050000Y-78940000D03*
X144050000Y-80210000D03*
X154700000Y-80210000D03*
X154700000Y-78940000D03*
X154700000Y-77670000D03*
X154700000Y-76400000D03*
D14*
X178895000Y-138410000D03*
D15*
X178895000Y-142370000D03*
D27*
X148350000Y-102210000D03*
X148350000Y-103480000D03*
X148350000Y-104750000D03*
X148350000Y-106020000D03*
X148350000Y-107290000D03*
X148350000Y-108560000D03*
X148350000Y-109830000D03*
X148350000Y-111100000D03*
X157650000Y-111100000D03*
X157650000Y-109830000D03*
X157650000Y-108560000D03*
X157650000Y-107290000D03*
X157650000Y-106020000D03*
X157650000Y-104750000D03*
X157650000Y-103480000D03*
X157650000Y-102210000D03*
D28*
X147962500Y-115150000D03*
X149787500Y-115150000D03*
D16*
X101850000Y-95150000D03*
X101850000Y-93250000D03*
D29*
X111200000Y-114800000D03*
X111200000Y-112300000D03*
X111200000Y-109800000D03*
D30*
X105700000Y-114800000D03*
D29*
X105700000Y-112300000D03*
X105700000Y-109800000D03*
D10*
X179000000Y-124500000D03*
D11*
X181540000Y-124500000D03*
X179000000Y-127040000D03*
X181540000Y-127040000D03*
X179000000Y-129580000D03*
X181540000Y-129580000D03*
X179000000Y-132120000D03*
X181540000Y-132120000D03*
D23*
X143950000Y-69750000D03*
X143950000Y-66450000D03*
D16*
X148775000Y-69775000D03*
X148775000Y-67875000D03*
D21*
X174350000Y-73500000D03*
X172450000Y-73500000D03*
D16*
X110550000Y-104850000D03*
X110550000Y-102950000D03*
X112800000Y-104850000D03*
X112800000Y-102950000D03*
X160175000Y-124275000D03*
X160175000Y-122375000D03*
X146375000Y-69775000D03*
X146375000Y-67875000D03*
D17*
X156850000Y-73055000D03*
X158750000Y-73055000D03*
D31*
X106650000Y-98800000D03*
X106650000Y-106300000D03*
D16*
X154250000Y-124200000D03*
X154250000Y-122300000D03*
D28*
X147987500Y-117425000D03*
X149812500Y-117425000D03*
D10*
X111000000Y-138500000D03*
D11*
X111000000Y-135960000D03*
X111000000Y-133420000D03*
X111000000Y-130880000D03*
X111000000Y-128340000D03*
X111000000Y-125800000D03*
X111000000Y-123260000D03*
D32*
X162050000Y-76450000D03*
X162050000Y-77100000D03*
X162050000Y-77750000D03*
X163950000Y-77750000D03*
X163950000Y-76450000D03*
D25*
X139280000Y-82800000D03*
X139280000Y-84700000D03*
X110450000Y-85150000D03*
X110450000Y-87050000D03*
D33*
X102650000Y-83137500D03*
X102650000Y-86062500D03*
D14*
X167895000Y-93660000D03*
D15*
X167895000Y-97620000D03*
D18*
X170725000Y-73600000D03*
X169075000Y-73600000D03*
D14*
X179000000Y-93660000D03*
D15*
X179000000Y-97620000D03*
D17*
X148450000Y-126850000D03*
X150350000Y-126850000D03*
D10*
X103450000Y-123210000D03*
D11*
X103450000Y-125750000D03*
X103450000Y-128290000D03*
X103450000Y-130830000D03*
X103450000Y-133370000D03*
X103450000Y-135910000D03*
X103450000Y-138450000D03*
D16*
X158900000Y-69900000D03*
X158900000Y-68000000D03*
D34*
X110080000Y-78675000D03*
X109430000Y-78675000D03*
X108770000Y-78675000D03*
X108120000Y-78675000D03*
X108120000Y-81375000D03*
X108770000Y-81375000D03*
X109430000Y-81375000D03*
X110080000Y-81375000D03*
D35*
X103050000Y-81185000D03*
X104000000Y-81185000D03*
X104950000Y-81185000D03*
X104950000Y-78865000D03*
X104000000Y-78865000D03*
X103050000Y-78865000D03*
D10*
X170000000Y-102960000D03*
D11*
X172540000Y-102960000D03*
X170000000Y-105500000D03*
X172540000Y-105500000D03*
X170000000Y-108040000D03*
X172540000Y-108040000D03*
X170000000Y-110580000D03*
X172540000Y-110580000D03*
D36*
X133085000Y-77870000D03*
D37*
X135625000Y-77870000D03*
X138165000Y-77870000D03*
X138165000Y-66630000D03*
X135625000Y-66630000D03*
X133085000Y-66630000D03*
D38*
X122567500Y-76825000D03*
X120287500Y-76825000D03*
D39*
X120287500Y-83125000D03*
D38*
X118007500Y-76825000D03*
D40*
X118050000Y-69200000D03*
X123050000Y-69200000D03*
D17*
X150432500Y-74000000D03*
X152332500Y-74000000D03*
D41*
X136950000Y-82200000D03*
X136000000Y-82200000D03*
X135050000Y-82200000D03*
X135050000Y-84900000D03*
X136950000Y-84900000D03*
D21*
X111550000Y-145550000D03*
X109650000Y-145550000D03*
D16*
X154900000Y-69900000D03*
X154900000Y-68000000D03*
D17*
X155900000Y-127250000D03*
X157800000Y-127250000D03*
D13*
X158875000Y-78650000D03*
X160525000Y-78650000D03*
D10*
X179000000Y-102960000D03*
D11*
X181540000Y-102960000D03*
X179000000Y-105500000D03*
X181540000Y-105500000D03*
X179000000Y-108040000D03*
X181540000Y-108040000D03*
X179000000Y-110580000D03*
X181540000Y-110580000D03*
D17*
X155875000Y-99210000D03*
X157775000Y-99210000D03*
D42*
X125200000Y-76012500D03*
X125200000Y-77837500D03*
D43*
X163550000Y-68400000D03*
D44*
X166050000Y-68400000D03*
D17*
X156850000Y-75055000D03*
X158750000Y-75055000D03*
D45*
X104450000Y-96300000D03*
X106750000Y-96300000D03*
D46*
X106750000Y-90000000D03*
D45*
X109050000Y-96300000D03*
D21*
X149900000Y-99900000D03*
X148000000Y-99900000D03*
D43*
X172100000Y-68375000D03*
D44*
X174600000Y-68375000D03*
D16*
X156925000Y-69900000D03*
X156925000Y-68000000D03*
D47*
X118725000Y-102871560D03*
D48*
X118725000Y-105411560D03*
X118725000Y-107951560D03*
X118725000Y-110491560D03*
X118725000Y-113031560D03*
X118725000Y-115571560D03*
X118725000Y-118111560D03*
X118725000Y-120651560D03*
X118725000Y-123191560D03*
X118725000Y-125731560D03*
X118725000Y-128271560D03*
X118725000Y-130811560D03*
X118725000Y-133351560D03*
X118725000Y-135891560D03*
X118725000Y-138431560D03*
X118725000Y-140971560D03*
X118725000Y-143511560D03*
X118725000Y-146051560D03*
X118725000Y-148591560D03*
X144121320Y-148588840D03*
X144121320Y-146048840D03*
X144125000Y-143511560D03*
X144125000Y-140971560D03*
X144125000Y-138431560D03*
X144125000Y-135891560D03*
X144125000Y-133351560D03*
X144125000Y-130811560D03*
X144125000Y-128271560D03*
X144125000Y-125731560D03*
X144125000Y-123191560D03*
X144125000Y-120651560D03*
X144125000Y-118111560D03*
X144125000Y-115571560D03*
X144125000Y-113031560D03*
X144125000Y-110491560D03*
X144125000Y-107951560D03*
X144125000Y-105411560D03*
X144125000Y-102871560D03*
D13*
X158875000Y-76950000D03*
X160525000Y-76950000D03*
D27*
X148350000Y-129860000D03*
X148350000Y-131130000D03*
X148350000Y-132400000D03*
X148350000Y-133670000D03*
X148350000Y-134940000D03*
X148350000Y-136210000D03*
X148350000Y-137480000D03*
X148350000Y-138750000D03*
X157650000Y-138750000D03*
X157650000Y-137480000D03*
X157650000Y-136210000D03*
X157650000Y-134940000D03*
X157650000Y-133670000D03*
X157650000Y-132400000D03*
X157650000Y-131130000D03*
X157650000Y-129860000D03*
D40*
X107900000Y-69200000D03*
X112900000Y-69200000D03*
M02*
