G04 #@! TF.GenerationSoftware,KiCad,Pcbnew,8.0.3-8.0.3-0~ubuntu20.04.1*
G04 #@! TF.CreationDate,2025-01-28T06:04:02-03:00*
G04 #@! TF.ProjectId,hv_pulse_controller,68765f70-756c-4736-955f-636f6e74726f,rev?*
G04 #@! TF.SameCoordinates,Original*
G04 #@! TF.FileFunction,Paste,Top*
G04 #@! TF.FilePolarity,Positive*
%FSLAX46Y46*%
G04 Gerber Fmt 4.6, Leading zero omitted, Abs format (unit mm)*
G04 Created by KiCad (PCBNEW 8.0.3-8.0.3-0~ubuntu20.04.1) date 2025-01-28 06:04:02*
%MOMM*%
%LPD*%
G01*
G04 APERTURE LIST*
G04 Aperture macros list*
%AMRoundRect*
0 Rectangle with rounded corners*
0 $1 Rounding radius*
0 $2 $3 $4 $5 $6 $7 $8 $9 X,Y pos of 4 corners*
0 Add a 4 corners polygon primitive as box body*
4,1,4,$2,$3,$4,$5,$6,$7,$8,$9,$2,$3,0*
0 Add four circle primitives for the rounded corners*
1,1,$1+$1,$2,$3*
1,1,$1+$1,$4,$5*
1,1,$1+$1,$6,$7*
1,1,$1+$1,$8,$9*
0 Add four rect primitives between the rounded corners*
20,1,$1+$1,$2,$3,$4,$5,0*
20,1,$1+$1,$4,$5,$6,$7,0*
20,1,$1+$1,$6,$7,$8,$9,0*
20,1,$1+$1,$8,$9,$2,$3,0*%
G04 Aperture macros list end*
%ADD10RoundRect,0.150000X0.150000X-0.512500X0.150000X0.512500X-0.150000X0.512500X-0.150000X-0.512500X0*%
%ADD11RoundRect,0.200000X-0.200000X-0.275000X0.200000X-0.275000X0.200000X0.275000X-0.200000X0.275000X0*%
%ADD12RoundRect,0.250000X0.475000X-0.250000X0.475000X0.250000X-0.475000X0.250000X-0.475000X-0.250000X0*%
%ADD13RoundRect,0.250000X-0.250000X-0.475000X0.250000X-0.475000X0.250000X0.475000X-0.250000X0.475000X0*%
%ADD14RoundRect,0.200000X0.200000X0.275000X-0.200000X0.275000X-0.200000X-0.275000X0.200000X-0.275000X0*%
%ADD15RoundRect,0.125000X0.125000X-0.125000X0.125000X0.125000X-0.125000X0.125000X-0.125000X-0.125000X0*%
%ADD16RoundRect,0.250000X0.375000X0.625000X-0.375000X0.625000X-0.375000X-0.625000X0.375000X-0.625000X0*%
%ADD17RoundRect,0.250000X0.250000X0.475000X-0.250000X0.475000X-0.250000X-0.475000X0.250000X-0.475000X0*%
%ADD18RoundRect,0.175000X0.325000X0.175000X-0.325000X0.175000X-0.325000X-0.175000X0.325000X-0.175000X0*%
%ADD19RoundRect,0.225000X0.375000X-0.225000X0.375000X0.225000X-0.375000X0.225000X-0.375000X-0.225000X0*%
%ADD20RoundRect,0.250000X0.450000X-0.262500X0.450000X0.262500X-0.450000X0.262500X-0.450000X-0.262500X0*%
%ADD21RoundRect,0.250000X-0.475000X0.250000X-0.475000X-0.250000X0.475000X-0.250000X0.475000X0.250000X0*%
%ADD22RoundRect,0.150000X-0.750000X-0.150000X0.750000X-0.150000X0.750000X0.150000X-0.750000X0.150000X0*%
%ADD23RoundRect,0.150000X-0.875000X-0.150000X0.875000X-0.150000X0.875000X0.150000X-0.875000X0.150000X0*%
%ADD24RoundRect,0.250000X-0.262500X-0.450000X0.262500X-0.450000X0.262500X0.450000X-0.262500X0.450000X0*%
%ADD25RoundRect,0.312500X0.937500X-0.312500X0.937500X0.312500X-0.937500X0.312500X-0.937500X-0.312500X0*%
%ADD26RoundRect,0.312500X-0.937500X0.312500X-0.937500X-0.312500X0.937500X-0.312500X0.937500X0.312500X0*%
%ADD27RoundRect,0.250000X-0.250000X0.500000X-0.250000X-0.500000X0.250000X-0.500000X0.250000X0.500000X0*%
%ADD28RoundRect,0.100000X-0.225000X-0.100000X0.225000X-0.100000X0.225000X0.100000X-0.225000X0.100000X0*%
%ADD29RoundRect,0.250000X-0.625000X0.312500X-0.625000X-0.312500X0.625000X-0.312500X0.625000X0.312500X0*%
%ADD30RoundRect,0.100000X-0.100000X0.680000X-0.100000X-0.680000X0.100000X-0.680000X0.100000X0.680000X0*%
%ADD31R,0.510000X0.700000*%
%ADD32R,1.090000X1.830000*%
%ADD33RoundRect,0.054500X0.490500X-0.860500X0.490500X0.860500X-0.490500X0.860500X-0.490500X-0.860500X0*%
%ADD34RoundRect,0.250000X-0.350000X0.850000X-0.350000X-0.850000X0.350000X-0.850000X0.350000X0.850000X0*%
%ADD35RoundRect,0.250000X-1.125000X1.275000X-1.125000X-1.275000X1.125000X-1.275000X1.125000X1.275000X0*%
%ADD36RoundRect,0.162500X-0.162500X0.617500X-0.162500X-0.617500X0.162500X-0.617500X0.162500X0.617500X0*%
%ADD37RoundRect,0.250000X-0.450000X0.262500X-0.450000X-0.262500X0.450000X-0.262500X0.450000X0.262500X0*%
%ADD38RoundRect,0.375000X0.375000X-0.625000X0.375000X0.625000X-0.375000X0.625000X-0.375000X-0.625000X0*%
%ADD39RoundRect,0.500000X1.400000X-0.500000X1.400000X0.500000X-1.400000X0.500000X-1.400000X-0.500000X0*%
G04 APERTURE END LIST*
D10*
X156075000Y-95612500D03*
X157975000Y-95612500D03*
X157025000Y-93337500D03*
D11*
X160875000Y-73200000D03*
X162525000Y-73200000D03*
D12*
X160025000Y-95600000D03*
X160025000Y-93700000D03*
D13*
X162250000Y-81050000D03*
X164150000Y-81050000D03*
D14*
X162575000Y-74700000D03*
X160925000Y-74700000D03*
D15*
X125200000Y-82175000D03*
X125200000Y-79975000D03*
D12*
X165950000Y-75150000D03*
X165950000Y-73250000D03*
D16*
X149900000Y-84000000D03*
X147100000Y-84000000D03*
D14*
X152082500Y-72200000D03*
X150432500Y-72200000D03*
D10*
X156325000Y-124225000D03*
X158225000Y-124225000D03*
X157275000Y-121950000D03*
D12*
X153425000Y-95525000D03*
X153425000Y-93625000D03*
D17*
X111525000Y-147600000D03*
X109625000Y-147600000D03*
D13*
X144482500Y-73800000D03*
X146382500Y-73800000D03*
D12*
X111500000Y-94900000D03*
X111500000Y-93000000D03*
D10*
X151000000Y-69812500D03*
X152900000Y-69812500D03*
X151950000Y-67537500D03*
D11*
X147675000Y-86000000D03*
X149325000Y-86000000D03*
D18*
X108000000Y-86937500D03*
X108000000Y-85987500D03*
X108000000Y-85037500D03*
X105400000Y-85037500D03*
X105400000Y-85987500D03*
X105400000Y-86937500D03*
D19*
X141650000Y-69700000D03*
X141650000Y-66400000D03*
D20*
X114950000Y-104862500D03*
X114950000Y-103037500D03*
D21*
X132980000Y-82750000D03*
X132980000Y-84650000D03*
D14*
X163975000Y-79250000D03*
X162325000Y-79250000D03*
D22*
X144050000Y-76400000D03*
X144050000Y-77670000D03*
X144050000Y-78940000D03*
X144050000Y-80210000D03*
X154700000Y-80210000D03*
X154700000Y-78940000D03*
X154700000Y-77670000D03*
X154700000Y-76400000D03*
D23*
X148350000Y-102210000D03*
X148350000Y-103480000D03*
X148350000Y-104750000D03*
X148350000Y-106020000D03*
X148350000Y-107290000D03*
X148350000Y-108560000D03*
X148350000Y-109830000D03*
X148350000Y-111100000D03*
X157650000Y-111100000D03*
X157650000Y-109830000D03*
X157650000Y-108560000D03*
X157650000Y-107290000D03*
X157650000Y-106020000D03*
X157650000Y-104750000D03*
X157650000Y-103480000D03*
X157650000Y-102210000D03*
D24*
X147962500Y-115150000D03*
X149787500Y-115150000D03*
D12*
X101850000Y-95150000D03*
X101850000Y-93250000D03*
D25*
X111200000Y-114800000D03*
X111200000Y-112300000D03*
X111200000Y-109800000D03*
D26*
X105700000Y-114800000D03*
D25*
X105700000Y-112300000D03*
X105700000Y-109800000D03*
D19*
X143950000Y-69750000D03*
X143950000Y-66450000D03*
D12*
X148775000Y-69775000D03*
X148775000Y-67875000D03*
D17*
X174350000Y-73500000D03*
X172450000Y-73500000D03*
D12*
X110550000Y-104850000D03*
X110550000Y-102950000D03*
X112800000Y-104850000D03*
X112800000Y-102950000D03*
X160175000Y-124275000D03*
X160175000Y-122375000D03*
X146375000Y-69775000D03*
X146375000Y-67875000D03*
D13*
X156850000Y-73055000D03*
X158750000Y-73055000D03*
D27*
X106650000Y-98800000D03*
X106650000Y-106300000D03*
D12*
X154250000Y-124200000D03*
X154250000Y-122300000D03*
D24*
X147987500Y-117425000D03*
X149812500Y-117425000D03*
D28*
X162050000Y-76450000D03*
X162050000Y-77100000D03*
X162050000Y-77750000D03*
X163950000Y-77750000D03*
X163950000Y-76450000D03*
D21*
X139280000Y-82800000D03*
X139280000Y-84700000D03*
X110450000Y-85150000D03*
X110450000Y-87050000D03*
D29*
X102650000Y-83137500D03*
X102650000Y-86062500D03*
D14*
X170725000Y-73600000D03*
X169075000Y-73600000D03*
D13*
X148450000Y-126850000D03*
X150350000Y-126850000D03*
D12*
X158900000Y-69900000D03*
X158900000Y-68000000D03*
D30*
X110080000Y-78675000D03*
X109430000Y-78675000D03*
X108770000Y-78675000D03*
X108120000Y-78675000D03*
X108120000Y-81375000D03*
X108770000Y-81375000D03*
X109430000Y-81375000D03*
X110080000Y-81375000D03*
D31*
X103050000Y-81185000D03*
X104000000Y-81185000D03*
X104950000Y-81185000D03*
X104950000Y-78865000D03*
X104000000Y-78865000D03*
X103050000Y-78865000D03*
D32*
X133085000Y-77870000D03*
D33*
X135625000Y-77870000D03*
X138165000Y-77870000D03*
X138165000Y-66630000D03*
X135625000Y-66630000D03*
X133085000Y-66630000D03*
D34*
X122567500Y-76825000D03*
X120287500Y-76825000D03*
D35*
X121812500Y-81450000D03*
X118762500Y-81450000D03*
X121812500Y-84800000D03*
X118762500Y-84800000D03*
D34*
X118007500Y-76825000D03*
D13*
X150432500Y-74000000D03*
X152332500Y-74000000D03*
D36*
X136950000Y-82200000D03*
X136000000Y-82200000D03*
X135050000Y-82200000D03*
X135050000Y-84900000D03*
X136950000Y-84900000D03*
D17*
X111550000Y-145550000D03*
X109650000Y-145550000D03*
D12*
X154900000Y-69900000D03*
X154900000Y-68000000D03*
D13*
X155900000Y-127250000D03*
X157800000Y-127250000D03*
D11*
X158875000Y-78650000D03*
X160525000Y-78650000D03*
D13*
X155875000Y-99210000D03*
X157775000Y-99210000D03*
D37*
X125200000Y-76012500D03*
X125200000Y-77837500D03*
D13*
X156850000Y-75055000D03*
X158750000Y-75055000D03*
D38*
X104450000Y-96300000D03*
X106750000Y-96300000D03*
D39*
X106750000Y-90000000D03*
D38*
X109050000Y-96300000D03*
D17*
X149900000Y-99900000D03*
X148000000Y-99900000D03*
D12*
X156925000Y-69900000D03*
X156925000Y-68000000D03*
D11*
X158875000Y-76950000D03*
X160525000Y-76950000D03*
D23*
X148350000Y-129860000D03*
X148350000Y-131130000D03*
X148350000Y-132400000D03*
X148350000Y-133670000D03*
X148350000Y-134940000D03*
X148350000Y-136210000D03*
X148350000Y-137480000D03*
X148350000Y-138750000D03*
X157650000Y-138750000D03*
X157650000Y-137480000D03*
X157650000Y-136210000D03*
X157650000Y-134940000D03*
X157650000Y-133670000D03*
X157650000Y-132400000D03*
X157650000Y-131130000D03*
X157650000Y-129860000D03*
M02*
