G04 #@! TF.GenerationSoftware,KiCad,Pcbnew,8.0.3-8.0.3-0~ubuntu20.04.1*
G04 #@! TF.CreationDate,2025-01-28T06:04:02-03:00*
G04 #@! TF.ProjectId,hv_pulse_controller,68765f70-756c-4736-955f-636f6e74726f,rev?*
G04 #@! TF.SameCoordinates,Original*
G04 #@! TF.FileFunction,Copper,L3,Inr*
G04 #@! TF.FilePolarity,Positive*
%FSLAX46Y46*%
G04 Gerber Fmt 4.6, Leading zero omitted, Abs format (unit mm)*
G04 Created by KiCad (PCBNEW 8.0.3-8.0.3-0~ubuntu20.04.1) date 2025-01-28 06:04:02*
%MOMM*%
%LPD*%
G01*
G04 APERTURE LIST*
G04 Aperture macros list*
%AMRoundRect*
0 Rectangle with rounded corners*
0 $1 Rounding radius*
0 $2 $3 $4 $5 $6 $7 $8 $9 X,Y pos of 4 corners*
0 Add a 4 corners polygon primitive as box body*
4,1,4,$2,$3,$4,$5,$6,$7,$8,$9,$2,$3,0*
0 Add four circle primitives for the rounded corners*
1,1,$1+$1,$2,$3*
1,1,$1+$1,$4,$5*
1,1,$1+$1,$6,$7*
1,1,$1+$1,$8,$9*
0 Add four rect primitives between the rounded corners*
20,1,$1+$1,$2,$3,$4,$5,0*
20,1,$1+$1,$4,$5,$6,$7,0*
20,1,$1+$1,$6,$7,$8,$9,0*
20,1,$1+$1,$8,$9,$2,$3,0*%
G04 Aperture macros list end*
G04 #@! TA.AperFunction,ComponentPad*
%ADD10R,1.700000X1.700000*%
G04 #@! TD*
G04 #@! TA.AperFunction,ComponentPad*
%ADD11O,1.700000X1.700000*%
G04 #@! TD*
G04 #@! TA.AperFunction,ComponentPad*
%ADD12RoundRect,0.250000X-1.800000X1.330000X-1.800000X-1.330000X1.800000X-1.330000X1.800000X1.330000X0*%
G04 #@! TD*
G04 #@! TA.AperFunction,ComponentPad*
%ADD13O,4.100000X3.160000*%
G04 #@! TD*
G04 #@! TA.AperFunction,ComponentPad*
%ADD14O,2.000000X4.000000*%
G04 #@! TD*
G04 #@! TA.AperFunction,ComponentPad*
%ADD15RoundRect,0.250000X-0.600000X-0.750000X0.600000X-0.750000X0.600000X0.750000X-0.600000X0.750000X0*%
G04 #@! TD*
G04 #@! TA.AperFunction,ComponentPad*
%ADD16O,1.700000X2.000000*%
G04 #@! TD*
G04 #@! TA.AperFunction,ComponentPad*
%ADD17R,2.000000X1.200000*%
G04 #@! TD*
G04 #@! TA.AperFunction,ComponentPad*
%ADD18O,2.000000X1.200000*%
G04 #@! TD*
G04 #@! TA.AperFunction,ViaPad*
%ADD19C,0.600000*%
G04 #@! TD*
G04 APERTURE END LIST*
D10*
X102500000Y-109820000D03*
D11*
X102500000Y-112360000D03*
X102500000Y-114900000D03*
D12*
X167500000Y-138410000D03*
D13*
X167500000Y-142370000D03*
D12*
X167500000Y-116000000D03*
D13*
X167500000Y-119960000D03*
D12*
X179000000Y-116000000D03*
D13*
X179000000Y-119960000D03*
D10*
X170000000Y-124500000D03*
D11*
X172540000Y-124500000D03*
X170000000Y-127040000D03*
X172540000Y-127040000D03*
X170000000Y-129580000D03*
X172540000Y-129580000D03*
X170000000Y-132120000D03*
X172540000Y-132120000D03*
D10*
X170000000Y-80500000D03*
D11*
X172540000Y-80500000D03*
X170000000Y-83040000D03*
X172540000Y-83040000D03*
X170000000Y-85580000D03*
X172540000Y-85580000D03*
X170000000Y-88120000D03*
X172540000Y-88120000D03*
D10*
X143925000Y-85925000D03*
D11*
X143925000Y-83385000D03*
D10*
X179000000Y-80460000D03*
D11*
X181540000Y-80460000D03*
X179000000Y-83000000D03*
X181540000Y-83000000D03*
X179000000Y-85540000D03*
X181540000Y-85540000D03*
X179000000Y-88080000D03*
X181540000Y-88080000D03*
D12*
X178895000Y-138410000D03*
D13*
X178895000Y-142370000D03*
D10*
X179000000Y-124500000D03*
D11*
X181540000Y-124500000D03*
X179000000Y-127040000D03*
X181540000Y-127040000D03*
X179000000Y-129580000D03*
X181540000Y-129580000D03*
X179000000Y-132120000D03*
X181540000Y-132120000D03*
D10*
X111000000Y-138500000D03*
D11*
X111000000Y-135960000D03*
X111000000Y-133420000D03*
X111000000Y-130880000D03*
X111000000Y-128340000D03*
X111000000Y-125800000D03*
X111000000Y-123260000D03*
D12*
X167895000Y-93660000D03*
D13*
X167895000Y-97620000D03*
D12*
X179000000Y-93660000D03*
D13*
X179000000Y-97620000D03*
D10*
X103450000Y-123210000D03*
D11*
X103450000Y-125750000D03*
X103450000Y-128290000D03*
X103450000Y-130830000D03*
X103450000Y-133370000D03*
X103450000Y-135910000D03*
X103450000Y-138450000D03*
D10*
X170000000Y-102960000D03*
D11*
X172540000Y-102960000D03*
X170000000Y-105500000D03*
X172540000Y-105500000D03*
X170000000Y-108040000D03*
X172540000Y-108040000D03*
X170000000Y-110580000D03*
X172540000Y-110580000D03*
D14*
X118050000Y-69200000D03*
X123050000Y-69200000D03*
D10*
X179000000Y-102960000D03*
D11*
X181540000Y-102960000D03*
X179000000Y-105500000D03*
X181540000Y-105500000D03*
X179000000Y-108040000D03*
X181540000Y-108040000D03*
X179000000Y-110580000D03*
X181540000Y-110580000D03*
D15*
X163550000Y-68400000D03*
D16*
X166050000Y-68400000D03*
D15*
X172100000Y-68375000D03*
D16*
X174600000Y-68375000D03*
D17*
X118725000Y-102871560D03*
D18*
X118725000Y-105411560D03*
X118725000Y-107951560D03*
X118725000Y-110491560D03*
X118725000Y-113031560D03*
X118725000Y-115571560D03*
X118725000Y-118111560D03*
X118725000Y-120651560D03*
X118725000Y-123191560D03*
X118725000Y-125731560D03*
X118725000Y-128271560D03*
X118725000Y-130811560D03*
X118725000Y-133351560D03*
X118725000Y-135891560D03*
X118725000Y-138431560D03*
X118725000Y-140971560D03*
X118725000Y-143511560D03*
X118725000Y-146051560D03*
X118725000Y-148591560D03*
X144121320Y-148588840D03*
X144121320Y-146048840D03*
X144125000Y-143511560D03*
X144125000Y-140971560D03*
X144125000Y-138431560D03*
X144125000Y-135891560D03*
X144125000Y-133351560D03*
X144125000Y-130811560D03*
X144125000Y-128271560D03*
X144125000Y-125731560D03*
X144125000Y-123191560D03*
X144125000Y-120651560D03*
X144125000Y-118111560D03*
X144125000Y-115571560D03*
X144125000Y-113031560D03*
X144125000Y-110491560D03*
X144125000Y-107951560D03*
X144125000Y-105411560D03*
X144125000Y-102871560D03*
D14*
X107900000Y-69200000D03*
X112900000Y-69200000D03*
D19*
X163800000Y-75750000D03*
X156850000Y-76650000D03*
X155850000Y-73900000D03*
X159950000Y-73050000D03*
X127700000Y-136400000D03*
X152850000Y-80200000D03*
X107850000Y-77350000D03*
X177469056Y-146323561D03*
X128600000Y-104100000D03*
X150500000Y-82500000D03*
X115700000Y-137700000D03*
X151200000Y-78000000D03*
X106650000Y-102550000D03*
X147300000Y-145100000D03*
X183300000Y-110200000D03*
X116300000Y-98500000D03*
X151400000Y-124600000D03*
X172300000Y-75400000D03*
X152000000Y-87300000D03*
X115200000Y-107800000D03*
X175100000Y-148100000D03*
X138100000Y-117900000D03*
X150800000Y-131900000D03*
X183400000Y-133900000D03*
X101800000Y-71700000D03*
X101300000Y-137300000D03*
X136200000Y-145700000D03*
X182900000Y-129800000D03*
X183000000Y-107700000D03*
X182000000Y-74300000D03*
X132700000Y-106000000D03*
X170300000Y-146200000D03*
X138000000Y-85500000D03*
X114600000Y-146500000D03*
X127400000Y-114900000D03*
X116600000Y-114600000D03*
X104700000Y-106800000D03*
X174400000Y-129700000D03*
X103500000Y-143800000D03*
X111700000Y-86850000D03*
X106750000Y-94600000D03*
X149800000Y-111175000D03*
X106800000Y-91700000D03*
X125600000Y-148200000D03*
X147450000Y-101100000D03*
X133500000Y-85500000D03*
X146500000Y-87400000D03*
X104200000Y-88100000D03*
X159750000Y-74000000D03*
X102200000Y-119500000D03*
X116100000Y-121800000D03*
X108100000Y-137200000D03*
X123900000Y-132100000D03*
X104600000Y-80100000D03*
X146600000Y-122300000D03*
X105400000Y-76300000D03*
X101800000Y-76000000D03*
X167100000Y-72850000D03*
X114300000Y-141900000D03*
X150400000Y-107900000D03*
X135600000Y-121100000D03*
X101200000Y-81600000D03*
X101900000Y-89200000D03*
X155700000Y-146600000D03*
X101200000Y-130000000D03*
X178700000Y-68100000D03*
X183200000Y-85600000D03*
X115800000Y-130900000D03*
X113700000Y-112100000D03*
X174800000Y-108200000D03*
X130200000Y-81500000D03*
X150000000Y-139000000D03*
X111700000Y-82100000D03*
X174500000Y-85800000D03*
X110350000Y-77300000D03*
X114600000Y-119300000D03*
X101900000Y-92000000D03*
X163100000Y-77000000D03*
X150600000Y-120000000D03*
X141500000Y-122000000D03*
X109400000Y-102200000D03*
X111500000Y-91500000D03*
X151100000Y-147700000D03*
X135600000Y-129600000D03*
X164600000Y-148000000D03*
X175200000Y-74450000D03*
X150425000Y-128125000D03*
X101100000Y-104800000D03*
X160150000Y-74900000D03*
X108200000Y-148775000D03*
X157200000Y-80800000D03*
X183700000Y-88800000D03*
X115200000Y-117100000D03*
X105300000Y-98400000D03*
X113550000Y-97100000D03*
X146500000Y-72600000D03*
X152200000Y-66650000D03*
X146050000Y-80100000D03*
X154000000Y-67300000D03*
X151775000Y-75175000D03*
X135650000Y-68050000D03*
X149700000Y-67400000D03*
X152650000Y-70800000D03*
X145800000Y-78800000D03*
X110550000Y-84050000D03*
X103750000Y-93750000D03*
X107200000Y-85950000D03*
X109400000Y-77250000D03*
X150700000Y-105350000D03*
X110500000Y-97900000D03*
X114700000Y-85200000D03*
X160600000Y-84800000D03*
X173800000Y-137400000D03*
X159600000Y-121150000D03*
X174500000Y-103400000D03*
X171800000Y-93300000D03*
X182500000Y-120200000D03*
X117900000Y-94300000D03*
X171400000Y-120700000D03*
X163800000Y-126800000D03*
X176400000Y-100500000D03*
X154700000Y-116200000D03*
X126800000Y-83600000D03*
X182800000Y-122500000D03*
X155400000Y-111000000D03*
X160100000Y-114600000D03*
X172000000Y-142300000D03*
X168200000Y-105700000D03*
X173600000Y-95600000D03*
X137400000Y-91300000D03*
X126800000Y-90100000D03*
X154425000Y-93000000D03*
X168400000Y-127500000D03*
X165700000Y-102300000D03*
X155800000Y-84700000D03*
X158800000Y-99150000D03*
X167100000Y-135100000D03*
X159350000Y-139000000D03*
X158950000Y-111125000D03*
X161325000Y-93550000D03*
X125200000Y-74925000D03*
X157950000Y-92950000D03*
X174400000Y-105700000D03*
X118100000Y-90300000D03*
X177400000Y-105300000D03*
X174260000Y-83040000D03*
X155500000Y-105500000D03*
X177400000Y-82800000D03*
X161600000Y-105800000D03*
X120600000Y-72200000D03*
X155100000Y-141700000D03*
X154250000Y-121050000D03*
X165500000Y-85200000D03*
X166600000Y-110300000D03*
X177500000Y-78000000D03*
X176900000Y-122900000D03*
X177200000Y-126500000D03*
X182700000Y-116300000D03*
X143600000Y-97900000D03*
X167100000Y-77900000D03*
X174400000Y-127800000D03*
X159000000Y-127550000D03*
X158050000Y-121650000D03*
X171200000Y-115000000D03*
X168000000Y-124300000D03*
X154800000Y-135800000D03*
X115000000Y-79200000D03*
X147400000Y-91500000D03*
X168300000Y-83400000D03*
X130000000Y-97300000D03*
X167300000Y-88800000D03*
X120625000Y-85800000D03*
X119450000Y-85775000D03*
X124300000Y-84800000D03*
X124200000Y-86500000D03*
X154500000Y-125500000D03*
X125200000Y-86500000D03*
X152200000Y-95725000D03*
X125200000Y-83800000D03*
X124300000Y-85600000D03*
X124300000Y-83800000D03*
X122025000Y-85800000D03*
X125200000Y-84800000D03*
X125200000Y-85600000D03*
X118300000Y-85800000D03*
X108600000Y-113400000D03*
X146550000Y-117425000D03*
X146750000Y-113750000D03*
X130600000Y-122900000D03*
X106450000Y-81500000D03*
X105700000Y-78650000D03*
G04 #@! TA.AperFunction,Conductor*
G36*
X117710473Y-66519685D02*
G01*
X117756228Y-66572489D01*
X117766172Y-66641647D01*
X117737147Y-66705203D01*
X117681753Y-66741931D01*
X117474003Y-66809433D01*
X117263566Y-66916657D01*
X117185408Y-66973443D01*
X117072490Y-67055483D01*
X117072488Y-67055485D01*
X117072487Y-67055485D01*
X116905485Y-67222487D01*
X116905485Y-67222488D01*
X116905483Y-67222490D01*
X116874865Y-67264632D01*
X116766657Y-67413566D01*
X116659433Y-67624003D01*
X116586446Y-67848631D01*
X116549500Y-68081902D01*
X116549500Y-70318097D01*
X116586446Y-70551368D01*
X116659433Y-70775996D01*
X116763000Y-70979255D01*
X116766657Y-70986433D01*
X116905483Y-71177510D01*
X117072490Y-71344517D01*
X117263567Y-71483343D01*
X117346872Y-71525789D01*
X117474003Y-71590566D01*
X117474005Y-71590566D01*
X117474008Y-71590568D01*
X117594412Y-71629689D01*
X117698631Y-71663553D01*
X117931903Y-71700500D01*
X117931908Y-71700500D01*
X118168097Y-71700500D01*
X118401368Y-71663553D01*
X118625992Y-71590568D01*
X118836433Y-71483343D01*
X119027510Y-71344517D01*
X119194517Y-71177510D01*
X119333343Y-70986433D01*
X119440568Y-70775992D01*
X119513553Y-70551368D01*
X119550500Y-70318097D01*
X119550500Y-68081902D01*
X119513553Y-67848631D01*
X119440566Y-67624003D01*
X119366813Y-67479255D01*
X119333343Y-67413567D01*
X119194517Y-67222490D01*
X119027510Y-67055483D01*
X118836433Y-66916657D01*
X118813928Y-66905190D01*
X118625996Y-66809433D01*
X118418247Y-66741931D01*
X118360572Y-66702493D01*
X118333374Y-66638134D01*
X118345289Y-66569288D01*
X118392533Y-66517812D01*
X118456566Y-66500000D01*
X122643434Y-66500000D01*
X122710473Y-66519685D01*
X122756228Y-66572489D01*
X122766172Y-66641647D01*
X122737147Y-66705203D01*
X122681753Y-66741931D01*
X122474003Y-66809433D01*
X122263566Y-66916657D01*
X122185408Y-66973443D01*
X122072490Y-67055483D01*
X122072488Y-67055485D01*
X122072487Y-67055485D01*
X121905485Y-67222487D01*
X121905485Y-67222488D01*
X121905483Y-67222490D01*
X121874865Y-67264632D01*
X121766657Y-67413566D01*
X121659433Y-67624003D01*
X121586446Y-67848631D01*
X121549500Y-68081902D01*
X121549500Y-70318097D01*
X121586446Y-70551368D01*
X121659433Y-70775996D01*
X121763000Y-70979255D01*
X121766657Y-70986433D01*
X121905483Y-71177510D01*
X122072490Y-71344517D01*
X122263567Y-71483343D01*
X122346872Y-71525789D01*
X122474003Y-71590566D01*
X122474005Y-71590566D01*
X122474008Y-71590568D01*
X122594412Y-71629689D01*
X122698631Y-71663553D01*
X122931903Y-71700500D01*
X122931908Y-71700500D01*
X123168097Y-71700500D01*
X123401368Y-71663553D01*
X123625992Y-71590568D01*
X123836433Y-71483343D01*
X124027510Y-71344517D01*
X124194517Y-71177510D01*
X124333343Y-70986433D01*
X124440568Y-70775992D01*
X124513553Y-70551368D01*
X124550500Y-70318097D01*
X124550500Y-68081902D01*
X124513553Y-67848631D01*
X124440566Y-67624003D01*
X124366813Y-67479255D01*
X124333343Y-67413567D01*
X124194517Y-67222490D01*
X124027510Y-67055483D01*
X123836433Y-66916657D01*
X123813928Y-66905190D01*
X123625996Y-66809433D01*
X123418247Y-66741931D01*
X123360572Y-66702493D01*
X123333374Y-66638134D01*
X123345289Y-66569288D01*
X123392533Y-66517812D01*
X123456566Y-66500000D01*
X123948638Y-66500000D01*
X124015677Y-66519685D01*
X124036319Y-66536319D01*
X124963681Y-67463681D01*
X124997166Y-67525004D01*
X125000000Y-67551362D01*
X125000000Y-72500000D01*
X127963681Y-75463681D01*
X127997166Y-75525004D01*
X128000000Y-75551362D01*
X128000000Y-85500000D01*
X131000000Y-88500000D01*
X153000000Y-88500000D01*
X154000000Y-87500000D01*
X154000000Y-84699996D01*
X154994435Y-84699996D01*
X154994435Y-84700003D01*
X155014630Y-84879249D01*
X155014631Y-84879254D01*
X155074211Y-85049523D01*
X155137045Y-85149522D01*
X155170184Y-85202262D01*
X155297738Y-85329816D01*
X155321254Y-85344592D01*
X155442450Y-85420745D01*
X155450478Y-85425789D01*
X155620745Y-85485368D01*
X155620750Y-85485369D01*
X155799996Y-85505565D01*
X155800000Y-85505565D01*
X155800004Y-85505565D01*
X155979249Y-85485369D01*
X155979252Y-85485368D01*
X155979255Y-85485368D01*
X156149522Y-85425789D01*
X156302262Y-85329816D01*
X156429816Y-85202262D01*
X156525789Y-85049522D01*
X156585368Y-84879255D01*
X156585369Y-84879249D01*
X156594299Y-84799996D01*
X159794435Y-84799996D01*
X159794435Y-84800003D01*
X159814630Y-84979249D01*
X159814631Y-84979254D01*
X159874211Y-85149523D01*
X159937646Y-85250478D01*
X159970184Y-85302262D01*
X160097738Y-85429816D01*
X160250478Y-85525789D01*
X160318306Y-85549523D01*
X160420745Y-85585368D01*
X160420750Y-85585369D01*
X160599996Y-85605565D01*
X160600000Y-85605565D01*
X160600004Y-85605565D01*
X160779249Y-85585369D01*
X160779252Y-85585368D01*
X160779255Y-85585368D01*
X160949522Y-85525789D01*
X161102262Y-85429816D01*
X161229816Y-85302262D01*
X161294074Y-85199996D01*
X164694435Y-85199996D01*
X164694435Y-85200003D01*
X164714630Y-85379249D01*
X164714631Y-85379254D01*
X164774211Y-85549523D01*
X164796735Y-85585369D01*
X164870184Y-85702262D01*
X164997738Y-85829816D01*
X165150478Y-85925789D01*
X165303275Y-85979255D01*
X165320745Y-85985368D01*
X165320750Y-85985369D01*
X165499996Y-86005565D01*
X165500000Y-86005565D01*
X165500004Y-86005565D01*
X165679249Y-85985369D01*
X165679252Y-85985368D01*
X165679255Y-85985368D01*
X165849522Y-85925789D01*
X166002262Y-85829816D01*
X166129816Y-85702262D01*
X166225789Y-85549522D01*
X166285368Y-85379255D01*
X166285369Y-85379249D01*
X166305565Y-85200003D01*
X166305565Y-85199996D01*
X166285369Y-85020750D01*
X166285368Y-85020745D01*
X166283229Y-85014632D01*
X166225789Y-84850478D01*
X166203265Y-84814632D01*
X166131237Y-84700000D01*
X166129816Y-84697738D01*
X166002262Y-84570184D01*
X165849523Y-84474211D01*
X165679254Y-84414631D01*
X165679249Y-84414630D01*
X165500004Y-84394435D01*
X165499996Y-84394435D01*
X165320750Y-84414630D01*
X165320745Y-84414631D01*
X165150476Y-84474211D01*
X164997737Y-84570184D01*
X164870184Y-84697737D01*
X164774211Y-84850476D01*
X164714631Y-85020745D01*
X164714630Y-85020750D01*
X164694435Y-85199996D01*
X161294074Y-85199996D01*
X161325789Y-85149522D01*
X161385368Y-84979255D01*
X161386691Y-84967517D01*
X161405565Y-84800003D01*
X161405565Y-84799996D01*
X161385369Y-84620750D01*
X161385368Y-84620745D01*
X161371429Y-84580909D01*
X161325789Y-84450478D01*
X161308834Y-84423495D01*
X161272686Y-84365965D01*
X161229816Y-84297738D01*
X161102262Y-84170184D01*
X161031608Y-84125789D01*
X160949523Y-84074211D01*
X160779254Y-84014631D01*
X160779249Y-84014630D01*
X160600004Y-83994435D01*
X160599996Y-83994435D01*
X160420750Y-84014630D01*
X160420745Y-84014631D01*
X160250476Y-84074211D01*
X160097737Y-84170184D01*
X159970184Y-84297737D01*
X159874211Y-84450476D01*
X159814631Y-84620745D01*
X159814630Y-84620750D01*
X159794435Y-84799996D01*
X156594299Y-84799996D01*
X156605565Y-84700003D01*
X156605565Y-84699996D01*
X156585369Y-84520750D01*
X156585368Y-84520745D01*
X156565400Y-84463681D01*
X156525789Y-84350478D01*
X156429816Y-84197738D01*
X156302262Y-84070184D01*
X156251834Y-84038498D01*
X156149523Y-83974211D01*
X155979254Y-83914631D01*
X155979249Y-83914630D01*
X155800004Y-83894435D01*
X155799996Y-83894435D01*
X155620750Y-83914630D01*
X155620745Y-83914631D01*
X155450476Y-83974211D01*
X155297737Y-84070184D01*
X155170184Y-84197737D01*
X155074211Y-84350476D01*
X155014631Y-84520745D01*
X155014630Y-84520750D01*
X154994435Y-84699996D01*
X154000000Y-84699996D01*
X154000000Y-83551362D01*
X154019685Y-83484323D01*
X154036319Y-83463681D01*
X154963681Y-82536319D01*
X155025004Y-82502834D01*
X155051362Y-82500000D01*
X164500000Y-82500000D01*
X165500000Y-81500000D01*
X165500000Y-78551361D01*
X165519685Y-78484322D01*
X165536314Y-78463685D01*
X166092677Y-77907322D01*
X166153996Y-77873840D01*
X166223687Y-77878824D01*
X166279621Y-77920695D01*
X166303574Y-77981122D01*
X166314630Y-78079250D01*
X166314631Y-78079254D01*
X166374211Y-78249523D01*
X166404507Y-78297738D01*
X166470184Y-78402262D01*
X166597738Y-78529816D01*
X166632027Y-78551361D01*
X166742450Y-78620745D01*
X166750478Y-78625789D01*
X166761984Y-78629815D01*
X166920745Y-78685368D01*
X166920750Y-78685369D01*
X167099996Y-78705565D01*
X167100000Y-78705565D01*
X167100004Y-78705565D01*
X167279249Y-78685369D01*
X167279252Y-78685368D01*
X167279255Y-78685368D01*
X167449522Y-78625789D01*
X167602262Y-78529816D01*
X167729816Y-78402262D01*
X167825789Y-78249522D01*
X167885368Y-78079255D01*
X167885369Y-78079249D01*
X167894299Y-77999996D01*
X176694435Y-77999996D01*
X176694435Y-78000003D01*
X176714630Y-78179249D01*
X176714631Y-78179254D01*
X176774211Y-78349523D01*
X176870184Y-78502262D01*
X176997738Y-78629816D01*
X177086148Y-78685368D01*
X177105833Y-78697737D01*
X177150478Y-78725789D01*
X177320745Y-78785368D01*
X177320750Y-78785369D01*
X177499996Y-78805565D01*
X177500000Y-78805565D01*
X177500004Y-78805565D01*
X177679249Y-78785369D01*
X177679252Y-78785368D01*
X177679255Y-78785368D01*
X177849522Y-78725789D01*
X178002262Y-78629816D01*
X178129816Y-78502262D01*
X178225789Y-78349522D01*
X178285368Y-78179255D01*
X178286390Y-78170184D01*
X178305565Y-78000003D01*
X178305565Y-77999996D01*
X178285369Y-77820750D01*
X178285368Y-77820745D01*
X178225788Y-77650476D01*
X178162955Y-77550478D01*
X178129816Y-77497738D01*
X178002262Y-77370184D01*
X177969379Y-77349522D01*
X177849523Y-77274211D01*
X177679254Y-77214631D01*
X177679249Y-77214630D01*
X177500004Y-77194435D01*
X177499996Y-77194435D01*
X177320750Y-77214630D01*
X177320745Y-77214631D01*
X177150476Y-77274211D01*
X176997737Y-77370184D01*
X176870184Y-77497737D01*
X176774211Y-77650476D01*
X176714631Y-77820745D01*
X176714630Y-77820750D01*
X176694435Y-77999996D01*
X167894299Y-77999996D01*
X167905565Y-77900003D01*
X167905565Y-77899996D01*
X167885369Y-77720750D01*
X167885368Y-77720745D01*
X167825789Y-77550478D01*
X167729816Y-77397738D01*
X167602262Y-77270184D01*
X167513852Y-77214632D01*
X167449523Y-77174211D01*
X167279254Y-77114631D01*
X167279250Y-77114630D01*
X167181122Y-77103574D01*
X167116708Y-77076507D01*
X167077153Y-77018912D01*
X167075016Y-76949075D01*
X167107322Y-76892677D01*
X167463681Y-76536319D01*
X167525004Y-76502834D01*
X167551362Y-76500000D01*
X182448638Y-76500000D01*
X182515677Y-76519685D01*
X182536319Y-76536319D01*
X183463681Y-77463681D01*
X183497166Y-77525004D01*
X183500000Y-77551362D01*
X183500000Y-83448638D01*
X183480315Y-83515677D01*
X183463681Y-83536319D01*
X182536319Y-84463681D01*
X182474996Y-84497166D01*
X182448638Y-84500000D01*
X182448349Y-84500000D01*
X182381310Y-84480315D01*
X182377226Y-84477575D01*
X182225842Y-84371575D01*
X182182217Y-84316998D01*
X182175023Y-84247500D01*
X182206546Y-84185145D01*
X182225842Y-84168425D01*
X182320332Y-84102262D01*
X182411401Y-84038495D01*
X182578495Y-83871401D01*
X182714035Y-83677830D01*
X182813903Y-83463663D01*
X182875063Y-83235408D01*
X182895659Y-83000000D01*
X182893843Y-82979249D01*
X182886712Y-82897737D01*
X182875063Y-82764592D01*
X182822378Y-82567967D01*
X182813905Y-82536344D01*
X182813904Y-82536343D01*
X182813903Y-82536337D01*
X182714035Y-82322171D01*
X182711081Y-82317951D01*
X182578494Y-82128597D01*
X182411402Y-81961506D01*
X182411396Y-81961501D01*
X182225842Y-81831575D01*
X182182217Y-81776998D01*
X182175023Y-81707500D01*
X182206546Y-81645145D01*
X182225842Y-81628425D01*
X182277394Y-81592328D01*
X182411401Y-81498495D01*
X182578495Y-81331401D01*
X182714035Y-81137830D01*
X182813903Y-80923663D01*
X182875063Y-80695408D01*
X182895659Y-80460000D01*
X182875063Y-80224592D01*
X182813903Y-79996337D01*
X182714035Y-79782171D01*
X182691844Y-79750478D01*
X182578494Y-79588597D01*
X182411402Y-79421506D01*
X182411395Y-79421501D01*
X182217834Y-79285967D01*
X182217830Y-79285965D01*
X182217828Y-79285964D01*
X182003663Y-79186097D01*
X182003659Y-79186096D01*
X182003655Y-79186094D01*
X181775413Y-79124938D01*
X181775403Y-79124936D01*
X181540001Y-79104341D01*
X181539999Y-79104341D01*
X181304596Y-79124936D01*
X181304586Y-79124938D01*
X181076344Y-79186094D01*
X181076335Y-79186098D01*
X180862171Y-79285964D01*
X180862169Y-79285965D01*
X180668600Y-79421503D01*
X180546673Y-79543430D01*
X180485350Y-79576914D01*
X180415658Y-79571930D01*
X180359725Y-79530058D01*
X180342810Y-79499081D01*
X180293797Y-79367671D01*
X180293793Y-79367664D01*
X180207547Y-79252455D01*
X180207544Y-79252452D01*
X180092335Y-79166206D01*
X180092328Y-79166202D01*
X179957482Y-79115908D01*
X179957483Y-79115908D01*
X179897883Y-79109501D01*
X179897881Y-79109500D01*
X179897873Y-79109500D01*
X179897864Y-79109500D01*
X178102129Y-79109500D01*
X178102123Y-79109501D01*
X178042516Y-79115908D01*
X177907671Y-79166202D01*
X177907664Y-79166206D01*
X177792455Y-79252452D01*
X177792452Y-79252455D01*
X177706206Y-79367664D01*
X177706202Y-79367671D01*
X177655908Y-79502517D01*
X177649501Y-79562116D01*
X177649500Y-79562135D01*
X177649500Y-81357870D01*
X177649501Y-81357876D01*
X177655908Y-81417483D01*
X177706202Y-81552328D01*
X177706206Y-81552335D01*
X177792452Y-81667544D01*
X177792455Y-81667547D01*
X177907664Y-81753793D01*
X177907671Y-81753797D01*
X178039082Y-81802810D01*
X178095016Y-81844681D01*
X178119433Y-81910145D01*
X178104582Y-81978418D01*
X178083430Y-82006673D01*
X177983029Y-82107074D01*
X177921706Y-82140559D01*
X177852014Y-82135575D01*
X177829375Y-82124386D01*
X177749524Y-82074211D01*
X177579254Y-82014631D01*
X177579249Y-82014630D01*
X177400004Y-81994435D01*
X177399996Y-81994435D01*
X177220750Y-82014630D01*
X177220745Y-82014631D01*
X177050476Y-82074211D01*
X176897737Y-82170184D01*
X176770184Y-82297737D01*
X176674211Y-82450476D01*
X176614631Y-82620745D01*
X176614630Y-82620750D01*
X176594435Y-82799996D01*
X176594435Y-82800003D01*
X176614630Y-82979249D01*
X176614631Y-82979254D01*
X176674211Y-83149523D01*
X176737646Y-83250478D01*
X176770184Y-83302262D01*
X176897738Y-83429816D01*
X177050478Y-83525789D01*
X177203258Y-83579249D01*
X177220745Y-83585368D01*
X177220750Y-83585369D01*
X177399996Y-83605565D01*
X177400000Y-83605565D01*
X177400004Y-83605565D01*
X177579249Y-83585369D01*
X177579251Y-83585368D01*
X177579255Y-83585368D01*
X177648374Y-83561181D01*
X177718151Y-83557619D01*
X177778779Y-83592347D01*
X177801711Y-83625818D01*
X177825964Y-83677829D01*
X177825965Y-83677831D01*
X177929272Y-83825368D01*
X177961501Y-83871396D01*
X177961506Y-83871402D01*
X178128597Y-84038493D01*
X178128603Y-84038498D01*
X178314158Y-84168425D01*
X178357783Y-84223002D01*
X178364977Y-84292500D01*
X178333454Y-84354855D01*
X178314158Y-84371575D01*
X178162773Y-84477575D01*
X178096570Y-84499902D01*
X178091652Y-84500000D01*
X173391223Y-84500000D01*
X173324184Y-84480315D01*
X173320100Y-84477575D01*
X173225842Y-84411575D01*
X173182217Y-84356998D01*
X173175023Y-84287500D01*
X173206546Y-84225145D01*
X173225842Y-84208425D01*
X173343858Y-84125789D01*
X173411401Y-84078495D01*
X173578495Y-83911401D01*
X173683074Y-83762045D01*
X173737648Y-83718423D01*
X173807147Y-83711229D01*
X173850618Y-83728176D01*
X173910478Y-83765789D01*
X174080745Y-83825368D01*
X174080750Y-83825369D01*
X174259996Y-83845565D01*
X174260000Y-83845565D01*
X174260004Y-83845565D01*
X174439249Y-83825369D01*
X174439252Y-83825368D01*
X174439255Y-83825368D01*
X174609522Y-83765789D01*
X174762262Y-83669816D01*
X174889816Y-83542262D01*
X174985789Y-83389522D01*
X175045368Y-83219255D01*
X175053225Y-83149522D01*
X175065565Y-83040003D01*
X175065565Y-83039996D01*
X175045369Y-82860750D01*
X175045368Y-82860745D01*
X175011724Y-82764596D01*
X174985789Y-82690478D01*
X174958139Y-82646474D01*
X174925441Y-82594435D01*
X174889816Y-82537738D01*
X174762262Y-82410184D01*
X174685847Y-82362169D01*
X174609523Y-82314211D01*
X174439254Y-82254631D01*
X174439249Y-82254630D01*
X174260004Y-82234435D01*
X174259996Y-82234435D01*
X174080750Y-82254630D01*
X174080745Y-82254631D01*
X173910474Y-82314212D01*
X173850618Y-82351822D01*
X173783381Y-82370822D01*
X173716546Y-82350454D01*
X173683072Y-82317951D01*
X173578494Y-82168597D01*
X173411402Y-82001506D01*
X173411396Y-82001501D01*
X173225842Y-81871575D01*
X173182217Y-81816998D01*
X173175023Y-81747500D01*
X173206546Y-81685145D01*
X173225842Y-81668425D01*
X173315615Y-81605565D01*
X173411401Y-81538495D01*
X173578495Y-81371401D01*
X173714035Y-81177830D01*
X173813903Y-80963663D01*
X173875063Y-80735408D01*
X173895659Y-80500000D01*
X173875063Y-80264592D01*
X173813903Y-80036337D01*
X173714035Y-79822171D01*
X173686026Y-79782169D01*
X173578494Y-79628597D01*
X173411402Y-79461506D01*
X173411395Y-79461501D01*
X173217834Y-79325967D01*
X173217830Y-79325965D01*
X173166999Y-79302262D01*
X173003663Y-79226097D01*
X173003659Y-79226096D01*
X173003655Y-79226094D01*
X172775413Y-79164938D01*
X172775403Y-79164936D01*
X172540001Y-79144341D01*
X172539999Y-79144341D01*
X172304596Y-79164936D01*
X172304586Y-79164938D01*
X172076344Y-79226094D01*
X172076335Y-79226098D01*
X171862171Y-79325964D01*
X171862169Y-79325965D01*
X171668600Y-79461503D01*
X171546673Y-79583430D01*
X171485350Y-79616914D01*
X171415658Y-79611930D01*
X171359725Y-79570058D01*
X171342810Y-79539081D01*
X171293797Y-79407671D01*
X171293793Y-79407664D01*
X171207547Y-79292455D01*
X171207544Y-79292452D01*
X171092335Y-79206206D01*
X171092328Y-79206202D01*
X170957482Y-79155908D01*
X170957483Y-79155908D01*
X170897883Y-79149501D01*
X170897881Y-79149500D01*
X170897873Y-79149500D01*
X170897864Y-79149500D01*
X169102129Y-79149500D01*
X169102123Y-79149501D01*
X169042516Y-79155908D01*
X168907671Y-79206202D01*
X168907664Y-79206206D01*
X168792455Y-79292452D01*
X168792452Y-79292455D01*
X168706206Y-79407664D01*
X168706202Y-79407671D01*
X168655908Y-79542517D01*
X168649501Y-79602116D01*
X168649500Y-79602135D01*
X168649500Y-81397870D01*
X168649501Y-81397876D01*
X168655908Y-81457483D01*
X168706202Y-81592328D01*
X168706206Y-81592335D01*
X168792452Y-81707544D01*
X168792455Y-81707547D01*
X168907664Y-81793793D01*
X168907671Y-81793797D01*
X169039081Y-81842810D01*
X169095015Y-81884681D01*
X169119432Y-81950145D01*
X169104580Y-82018418D01*
X169083430Y-82046673D01*
X168961503Y-82168600D01*
X168825965Y-82362169D01*
X168825964Y-82362171D01*
X168723809Y-82581244D01*
X168721615Y-82580221D01*
X168686134Y-82628237D01*
X168620823Y-82653059D01*
X168570256Y-82646474D01*
X168479257Y-82614632D01*
X168479249Y-82614630D01*
X168300004Y-82594435D01*
X168299996Y-82594435D01*
X168120750Y-82614630D01*
X168120745Y-82614631D01*
X167950476Y-82674211D01*
X167797737Y-82770184D01*
X167670184Y-82897737D01*
X167574211Y-83050476D01*
X167514631Y-83220745D01*
X167514630Y-83220750D01*
X167494435Y-83399996D01*
X167494435Y-83400003D01*
X167514630Y-83579249D01*
X167514631Y-83579254D01*
X167574211Y-83749523D01*
X167650793Y-83871401D01*
X167670184Y-83902262D01*
X167797738Y-84029816D01*
X167950478Y-84125789D01*
X168072325Y-84168425D01*
X168120745Y-84185368D01*
X168120750Y-84185369D01*
X168299996Y-84205565D01*
X168300000Y-84205565D01*
X168300004Y-84205565D01*
X168479249Y-84185369D01*
X168479252Y-84185368D01*
X168479255Y-84185368D01*
X168649522Y-84125789D01*
X168802262Y-84029816D01*
X168853410Y-83978668D01*
X168914733Y-83945183D01*
X168984425Y-83950167D01*
X169028772Y-83978668D01*
X169128597Y-84078493D01*
X169128603Y-84078498D01*
X169314158Y-84208425D01*
X169357783Y-84263002D01*
X169364977Y-84332500D01*
X169333454Y-84394855D01*
X169314158Y-84411575D01*
X169128597Y-84541505D01*
X168961505Y-84708597D01*
X168825965Y-84902169D01*
X168825964Y-84902171D01*
X168726098Y-85116335D01*
X168726095Y-85116342D01*
X168677023Y-85299481D01*
X168644930Y-85355067D01*
X168500000Y-85499999D01*
X168500000Y-85500000D01*
X168500000Y-90000000D01*
X169500000Y-91000000D01*
X182448638Y-91000000D01*
X182515677Y-91019685D01*
X182536319Y-91036319D01*
X183463681Y-91963681D01*
X183497166Y-92025004D01*
X183500000Y-92051362D01*
X183500000Y-105948638D01*
X183480315Y-106015677D01*
X183463681Y-106036319D01*
X182536319Y-106963681D01*
X182474996Y-106997166D01*
X182448638Y-107000000D01*
X182448349Y-107000000D01*
X182381310Y-106980315D01*
X182377226Y-106977575D01*
X182225842Y-106871575D01*
X182182217Y-106816998D01*
X182175023Y-106747500D01*
X182206546Y-106685145D01*
X182225842Y-106668425D01*
X182344459Y-106585368D01*
X182411401Y-106538495D01*
X182578495Y-106371401D01*
X182714035Y-106177830D01*
X182813903Y-105963663D01*
X182875063Y-105735408D01*
X182895659Y-105500000D01*
X182893843Y-105479249D01*
X182882535Y-105350000D01*
X182875063Y-105264592D01*
X182813903Y-105036337D01*
X182714035Y-104822171D01*
X182708425Y-104814158D01*
X182578494Y-104628597D01*
X182411402Y-104461506D01*
X182411396Y-104461501D01*
X182225842Y-104331575D01*
X182182217Y-104276998D01*
X182175023Y-104207500D01*
X182206546Y-104145145D01*
X182225842Y-104128425D01*
X182266437Y-104100000D01*
X182411401Y-103998495D01*
X182578495Y-103831401D01*
X182714035Y-103637830D01*
X182813903Y-103423663D01*
X182875063Y-103195408D01*
X182895659Y-102960000D01*
X182875063Y-102724592D01*
X182813903Y-102496337D01*
X182714035Y-102282171D01*
X182673085Y-102223687D01*
X182578494Y-102088597D01*
X182411402Y-101921506D01*
X182411395Y-101921501D01*
X182217834Y-101785967D01*
X182217830Y-101785965D01*
X182185866Y-101771060D01*
X182003663Y-101686097D01*
X182003659Y-101686096D01*
X182003655Y-101686094D01*
X181775413Y-101624938D01*
X181775403Y-101624936D01*
X181540001Y-101604341D01*
X181539999Y-101604341D01*
X181304596Y-101624936D01*
X181304586Y-101624938D01*
X181076344Y-101686094D01*
X181076335Y-101686098D01*
X180862171Y-101785964D01*
X180862169Y-101785965D01*
X180668600Y-101921503D01*
X180546673Y-102043430D01*
X180485350Y-102076914D01*
X180415658Y-102071930D01*
X180359725Y-102030058D01*
X180342810Y-101999081D01*
X180293797Y-101867671D01*
X180293793Y-101867664D01*
X180207547Y-101752455D01*
X180207544Y-101752452D01*
X180092335Y-101666206D01*
X180092328Y-101666202D01*
X179957482Y-101615908D01*
X179957483Y-101615908D01*
X179897883Y-101609501D01*
X179897881Y-101609500D01*
X179897873Y-101609500D01*
X179897864Y-101609500D01*
X178102129Y-101609500D01*
X178102123Y-101609501D01*
X178042516Y-101615908D01*
X177907671Y-101666202D01*
X177907664Y-101666206D01*
X177792455Y-101752452D01*
X177792452Y-101752455D01*
X177706206Y-101867664D01*
X177706202Y-101867671D01*
X177655908Y-102002517D01*
X177649501Y-102062116D01*
X177649500Y-102062135D01*
X177649500Y-103857870D01*
X177649501Y-103857876D01*
X177655908Y-103917483D01*
X177706202Y-104052328D01*
X177706206Y-104052335D01*
X177792452Y-104167544D01*
X177792455Y-104167547D01*
X177907664Y-104253793D01*
X177907671Y-104253797D01*
X178039082Y-104302810D01*
X178095016Y-104344681D01*
X178119433Y-104410145D01*
X178104582Y-104478418D01*
X178083430Y-104506673D01*
X177983029Y-104607074D01*
X177921706Y-104640559D01*
X177852014Y-104635575D01*
X177829375Y-104624386D01*
X177749524Y-104574211D01*
X177579254Y-104514631D01*
X177579249Y-104514630D01*
X177400004Y-104494435D01*
X177399996Y-104494435D01*
X177220750Y-104514630D01*
X177220745Y-104514631D01*
X177050476Y-104574211D01*
X176897737Y-104670184D01*
X176770184Y-104797737D01*
X176674211Y-104950476D01*
X176614631Y-105120745D01*
X176614630Y-105120750D01*
X176594435Y-105299996D01*
X176594435Y-105300003D01*
X176614630Y-105479249D01*
X176614631Y-105479254D01*
X176674211Y-105649523D01*
X176728177Y-105735408D01*
X176770184Y-105802262D01*
X176897738Y-105929816D01*
X177050478Y-106025789D01*
X177193370Y-106075789D01*
X177220745Y-106085368D01*
X177220750Y-106085369D01*
X177399996Y-106105565D01*
X177400000Y-106105565D01*
X177400004Y-106105565D01*
X177579249Y-106085369D01*
X177579251Y-106085368D01*
X177579255Y-106085368D01*
X177648374Y-106061181D01*
X177718151Y-106057619D01*
X177778779Y-106092347D01*
X177801711Y-106125818D01*
X177825964Y-106177829D01*
X177825965Y-106177831D01*
X177910781Y-106298960D01*
X177961501Y-106371396D01*
X177961506Y-106371402D01*
X178128597Y-106538493D01*
X178128603Y-106538498D01*
X178314158Y-106668425D01*
X178357783Y-106723002D01*
X178364977Y-106792500D01*
X178333454Y-106854855D01*
X178314158Y-106871575D01*
X178162773Y-106977575D01*
X178096570Y-106999902D01*
X178091652Y-107000000D01*
X173448349Y-107000000D01*
X173381310Y-106980315D01*
X173377226Y-106977575D01*
X173225842Y-106871575D01*
X173182217Y-106816998D01*
X173175023Y-106747500D01*
X173206546Y-106685145D01*
X173225842Y-106668425D01*
X173344459Y-106585368D01*
X173411401Y-106538495D01*
X173578495Y-106371401D01*
X173642336Y-106280225D01*
X173696911Y-106236602D01*
X173766409Y-106229408D01*
X173828764Y-106260930D01*
X173831591Y-106263669D01*
X173897738Y-106329816D01*
X174050478Y-106425789D01*
X174061984Y-106429815D01*
X174220745Y-106485368D01*
X174220750Y-106485369D01*
X174399996Y-106505565D01*
X174400000Y-106505565D01*
X174400004Y-106505565D01*
X174579249Y-106485369D01*
X174579252Y-106485368D01*
X174579255Y-106485368D01*
X174749522Y-106425789D01*
X174902262Y-106329816D01*
X175029816Y-106202262D01*
X175125789Y-106049522D01*
X175185368Y-105879255D01*
X175185369Y-105879249D01*
X175205565Y-105700003D01*
X175205565Y-105699996D01*
X175185369Y-105520750D01*
X175185368Y-105520745D01*
X175177469Y-105498171D01*
X175125789Y-105350478D01*
X175107106Y-105320745D01*
X175029815Y-105197737D01*
X174902262Y-105070184D01*
X174749523Y-104974211D01*
X174579254Y-104914631D01*
X174579249Y-104914630D01*
X174400004Y-104894435D01*
X174399996Y-104894435D01*
X174220750Y-104914630D01*
X174220745Y-104914631D01*
X174050476Y-104974211D01*
X173964079Y-105028499D01*
X173896842Y-105047499D01*
X173830007Y-105027131D01*
X173785725Y-104975910D01*
X173772128Y-104946752D01*
X173714035Y-104822171D01*
X173708425Y-104814158D01*
X173578494Y-104628597D01*
X173411402Y-104461506D01*
X173411396Y-104461501D01*
X173225842Y-104331575D01*
X173182217Y-104276998D01*
X173175023Y-104207500D01*
X173206546Y-104145145D01*
X173225842Y-104128425D01*
X173266437Y-104100000D01*
X173411401Y-103998495D01*
X173578495Y-103831401D01*
X173601596Y-103798408D01*
X173656172Y-103754784D01*
X173725670Y-103747590D01*
X173788025Y-103779112D01*
X173808164Y-103803560D01*
X173870179Y-103902256D01*
X173870184Y-103902262D01*
X173997738Y-104029816D01*
X174150478Y-104125789D01*
X174269807Y-104167544D01*
X174320745Y-104185368D01*
X174320750Y-104185369D01*
X174499996Y-104205565D01*
X174500000Y-104205565D01*
X174500004Y-104205565D01*
X174679249Y-104185369D01*
X174679252Y-104185368D01*
X174679255Y-104185368D01*
X174849522Y-104125789D01*
X175002262Y-104029816D01*
X175129816Y-103902262D01*
X175225789Y-103749522D01*
X175285368Y-103579255D01*
X175285392Y-103579043D01*
X175305565Y-103400003D01*
X175305565Y-103399996D01*
X175285369Y-103220750D01*
X175285368Y-103220745D01*
X175237998Y-103085369D01*
X175225789Y-103050478D01*
X175129816Y-102897738D01*
X175002262Y-102770184D01*
X174849523Y-102674211D01*
X174679254Y-102614631D01*
X174679249Y-102614630D01*
X174500004Y-102594435D01*
X174499996Y-102594435D01*
X174320750Y-102614630D01*
X174320745Y-102614631D01*
X174150476Y-102674211D01*
X174045458Y-102740199D01*
X173978221Y-102759199D01*
X173911386Y-102738831D01*
X173866172Y-102685563D01*
X173859711Y-102667298D01*
X173854948Y-102649523D01*
X173813903Y-102496337D01*
X173714035Y-102282171D01*
X173673085Y-102223687D01*
X173578494Y-102088597D01*
X173411402Y-101921506D01*
X173411395Y-101921501D01*
X173217834Y-101785967D01*
X173217830Y-101785965D01*
X173185866Y-101771060D01*
X173003663Y-101686097D01*
X173003659Y-101686096D01*
X173003655Y-101686094D01*
X172775413Y-101624938D01*
X172775403Y-101624936D01*
X172540001Y-101604341D01*
X172539999Y-101604341D01*
X172304596Y-101624936D01*
X172304586Y-101624938D01*
X172076344Y-101686094D01*
X172076335Y-101686098D01*
X171862171Y-101785964D01*
X171862169Y-101785965D01*
X171668600Y-101921503D01*
X171546673Y-102043430D01*
X171485350Y-102076914D01*
X171415658Y-102071930D01*
X171359725Y-102030058D01*
X171342810Y-101999081D01*
X171293797Y-101867671D01*
X171293793Y-101867664D01*
X171207547Y-101752455D01*
X171207544Y-101752452D01*
X171092335Y-101666206D01*
X171092328Y-101666202D01*
X170957482Y-101615908D01*
X170957483Y-101615908D01*
X170897883Y-101609501D01*
X170897881Y-101609500D01*
X170897873Y-101609500D01*
X170897864Y-101609500D01*
X169102129Y-101609500D01*
X169102123Y-101609501D01*
X169042516Y-101615908D01*
X168907671Y-101666202D01*
X168907664Y-101666206D01*
X168792455Y-101752452D01*
X168792452Y-101752455D01*
X168706206Y-101867664D01*
X168706202Y-101867671D01*
X168655908Y-102002517D01*
X168649501Y-102062116D01*
X168649500Y-102062135D01*
X168649500Y-103857870D01*
X168649501Y-103857876D01*
X168655908Y-103917483D01*
X168706202Y-104052328D01*
X168706206Y-104052335D01*
X168792452Y-104167544D01*
X168792455Y-104167547D01*
X168907664Y-104253793D01*
X168907671Y-104253797D01*
X169039081Y-104302810D01*
X169095015Y-104344681D01*
X169119432Y-104410145D01*
X169104580Y-104478418D01*
X169083430Y-104506673D01*
X168961503Y-104628600D01*
X168825965Y-104822169D01*
X168825964Y-104822171D01*
X168767871Y-104946752D01*
X168721698Y-104999191D01*
X168654505Y-105018343D01*
X168589517Y-104999341D01*
X168549523Y-104974211D01*
X168379254Y-104914631D01*
X168379249Y-104914630D01*
X168200004Y-104894435D01*
X168199996Y-104894435D01*
X168020750Y-104914630D01*
X168020745Y-104914631D01*
X167850476Y-104974211D01*
X167697737Y-105070184D01*
X167570184Y-105197737D01*
X167474211Y-105350476D01*
X167414631Y-105520745D01*
X167414630Y-105520750D01*
X167394435Y-105699996D01*
X167394435Y-105700003D01*
X167414630Y-105879249D01*
X167414631Y-105879254D01*
X167474211Y-106049523D01*
X167531414Y-106140560D01*
X167570184Y-106202262D01*
X167697738Y-106329816D01*
X167850478Y-106425789D01*
X167861984Y-106429815D01*
X168020745Y-106485368D01*
X168020750Y-106485369D01*
X168199996Y-106505565D01*
X168200000Y-106505565D01*
X168200004Y-106505565D01*
X168379249Y-106485369D01*
X168379252Y-106485368D01*
X168379255Y-106485368D01*
X168549522Y-106425789D01*
X168702262Y-106329816D01*
X168733119Y-106298958D01*
X168794439Y-106265474D01*
X168864131Y-106270458D01*
X168920065Y-106312328D01*
X168922373Y-106315515D01*
X168961505Y-106371401D01*
X168961506Y-106371402D01*
X168961507Y-106371403D01*
X169128597Y-106538493D01*
X169128603Y-106538498D01*
X169314158Y-106668425D01*
X169357783Y-106723002D01*
X169364977Y-106792500D01*
X169333454Y-106854855D01*
X169314158Y-106871575D01*
X169162773Y-106977575D01*
X169096570Y-106999902D01*
X169091652Y-107000000D01*
X168999999Y-107000000D01*
X168000000Y-107999999D01*
X168000000Y-108000000D01*
X168000000Y-112000000D01*
X169000000Y-113000000D01*
X182448638Y-113000000D01*
X182515677Y-113019685D01*
X182536319Y-113036319D01*
X183463681Y-113963681D01*
X183497166Y-114025004D01*
X183500000Y-114051362D01*
X183500000Y-115668560D01*
X183480315Y-115735599D01*
X183427511Y-115781354D01*
X183358353Y-115791298D01*
X183294797Y-115762273D01*
X183288319Y-115756241D01*
X183202262Y-115670184D01*
X183049523Y-115574211D01*
X182879254Y-115514631D01*
X182879249Y-115514630D01*
X182700004Y-115494435D01*
X182699996Y-115494435D01*
X182520750Y-115514630D01*
X182520745Y-115514631D01*
X182350476Y-115574211D01*
X182197737Y-115670184D01*
X182070184Y-115797737D01*
X181974211Y-115950476D01*
X181914631Y-116120745D01*
X181914630Y-116120750D01*
X181894435Y-116299996D01*
X181894435Y-116300003D01*
X181914630Y-116479249D01*
X181914631Y-116479254D01*
X181974211Y-116649523D01*
X182037646Y-116750478D01*
X182070184Y-116802262D01*
X182197738Y-116929816D01*
X182350478Y-117025789D01*
X182385827Y-117038158D01*
X182520745Y-117085368D01*
X182520750Y-117085369D01*
X182699996Y-117105565D01*
X182700000Y-117105565D01*
X182700004Y-117105565D01*
X182879249Y-117085369D01*
X182879252Y-117085368D01*
X182879255Y-117085368D01*
X183049522Y-117025789D01*
X183202262Y-116929816D01*
X183288319Y-116843759D01*
X183349642Y-116810274D01*
X183419334Y-116815258D01*
X183475267Y-116857130D01*
X183499684Y-116922594D01*
X183500000Y-116931440D01*
X183500000Y-119904314D01*
X183480315Y-119971353D01*
X183427511Y-120017108D01*
X183358353Y-120027052D01*
X183294797Y-119998027D01*
X183258959Y-119945269D01*
X183225790Y-119850480D01*
X183225789Y-119850478D01*
X183129816Y-119697738D01*
X183002262Y-119570184D01*
X182975302Y-119553244D01*
X182849523Y-119474211D01*
X182679254Y-119414631D01*
X182679249Y-119414630D01*
X182500004Y-119394435D01*
X182499996Y-119394435D01*
X182320750Y-119414630D01*
X182320745Y-119414631D01*
X182150476Y-119474211D01*
X181997737Y-119570184D01*
X181870182Y-119697739D01*
X181775203Y-119848897D01*
X181722869Y-119895187D01*
X181653815Y-119905835D01*
X181589967Y-119877460D01*
X181551595Y-119819070D01*
X181547271Y-119799109D01*
X181514902Y-119553245D01*
X181495077Y-119479255D01*
X181444315Y-119289810D01*
X181339947Y-119037844D01*
X181203584Y-118801656D01*
X181037559Y-118585288D01*
X181037554Y-118585282D01*
X180844717Y-118392445D01*
X180844710Y-118392439D01*
X180727336Y-118302375D01*
X180686133Y-118245947D01*
X180681978Y-118176201D01*
X180716190Y-118115281D01*
X180777907Y-118082528D01*
X180802822Y-118079999D01*
X180849972Y-118079999D01*
X180849986Y-118079998D01*
X180952697Y-118069505D01*
X181119119Y-118014358D01*
X181119124Y-118014356D01*
X181268345Y-117922315D01*
X181392315Y-117798345D01*
X181484356Y-117649124D01*
X181484358Y-117649119D01*
X181539505Y-117482697D01*
X181539506Y-117482690D01*
X181549999Y-117379986D01*
X181550000Y-117379973D01*
X181550000Y-116250000D01*
X179816480Y-116250000D01*
X179817335Y-116247936D01*
X179850000Y-116083718D01*
X179850000Y-115916282D01*
X179817335Y-115752064D01*
X179816480Y-115750000D01*
X181549999Y-115750000D01*
X181549999Y-114620028D01*
X181549998Y-114620013D01*
X181539505Y-114517302D01*
X181484358Y-114350880D01*
X181484356Y-114350875D01*
X181392315Y-114201654D01*
X181268345Y-114077684D01*
X181119124Y-113985643D01*
X181119119Y-113985641D01*
X180952697Y-113930494D01*
X180952690Y-113930493D01*
X180849986Y-113920000D01*
X179250000Y-113920000D01*
X179250000Y-115183519D01*
X179247936Y-115182665D01*
X179083718Y-115150000D01*
X178916282Y-115150000D01*
X178752064Y-115182665D01*
X178750000Y-115183519D01*
X178750000Y-113920000D01*
X177150028Y-113920000D01*
X177150012Y-113920001D01*
X177047302Y-113930494D01*
X176880880Y-113985641D01*
X176880875Y-113985643D01*
X176731654Y-114077684D01*
X176607684Y-114201654D01*
X176515643Y-114350875D01*
X176515641Y-114350880D01*
X176460494Y-114517302D01*
X176460493Y-114517309D01*
X176450000Y-114620013D01*
X176450000Y-115750000D01*
X178183520Y-115750000D01*
X178182665Y-115752064D01*
X178150000Y-115916282D01*
X178150000Y-116083718D01*
X178182665Y-116247936D01*
X178183520Y-116250000D01*
X176450001Y-116250000D01*
X176450001Y-117379986D01*
X176460494Y-117482697D01*
X176515641Y-117649119D01*
X176515643Y-117649124D01*
X176607684Y-117798345D01*
X176731654Y-117922315D01*
X176880875Y-118014356D01*
X176880880Y-118014358D01*
X177047302Y-118069505D01*
X177047309Y-118069506D01*
X177150019Y-118079999D01*
X177197174Y-118079999D01*
X177264213Y-118099682D01*
X177309969Y-118152485D01*
X177319914Y-118221644D01*
X177290891Y-118285200D01*
X177272663Y-118302374D01*
X177155292Y-118392437D01*
X177155282Y-118392445D01*
X176962445Y-118585282D01*
X176962439Y-118585289D01*
X176796415Y-118801656D01*
X176660054Y-119037840D01*
X176660047Y-119037855D01*
X176555684Y-119289811D01*
X176485097Y-119553245D01*
X176449501Y-119823627D01*
X176449500Y-119823643D01*
X176449500Y-120096356D01*
X176449501Y-120096372D01*
X176485097Y-120366754D01*
X176555684Y-120630188D01*
X176660047Y-120882144D01*
X176660054Y-120882159D01*
X176796415Y-121118343D01*
X176962439Y-121334710D01*
X176962445Y-121334717D01*
X177155282Y-121527554D01*
X177155289Y-121527560D01*
X177371656Y-121693584D01*
X177607840Y-121829945D01*
X177607855Y-121829952D01*
X177738154Y-121883923D01*
X177859810Y-121934315D01*
X178123244Y-122004902D01*
X178393637Y-122040500D01*
X178393644Y-122040500D01*
X179606356Y-122040500D01*
X179606363Y-122040500D01*
X179876756Y-122004902D01*
X180140190Y-121934315D01*
X180392156Y-121829947D01*
X180628344Y-121693584D01*
X180844712Y-121527559D01*
X181037559Y-121334712D01*
X181203584Y-121118344D01*
X181339947Y-120882156D01*
X181444315Y-120630190D01*
X181495578Y-120438873D01*
X181531941Y-120379216D01*
X181594787Y-120348687D01*
X181664163Y-120356981D01*
X181718041Y-120401467D01*
X181732392Y-120430015D01*
X181774209Y-120549519D01*
X181774211Y-120549522D01*
X181870184Y-120702262D01*
X181997738Y-120829816D01*
X182062876Y-120870745D01*
X182147966Y-120924211D01*
X182150478Y-120925789D01*
X182278969Y-120970750D01*
X182320745Y-120985368D01*
X182320750Y-120985369D01*
X182499996Y-121005565D01*
X182500000Y-121005565D01*
X182500004Y-121005565D01*
X182679249Y-120985369D01*
X182679252Y-120985368D01*
X182679255Y-120985368D01*
X182849522Y-120925789D01*
X183002262Y-120829816D01*
X183129816Y-120702262D01*
X183225789Y-120549522D01*
X183258958Y-120454731D01*
X183299680Y-120397954D01*
X183364633Y-120372207D01*
X183433194Y-120385663D01*
X183483597Y-120434050D01*
X183500000Y-120495685D01*
X183500000Y-121770386D01*
X183480315Y-121837425D01*
X183427511Y-121883180D01*
X183358353Y-121893124D01*
X183309373Y-121871954D01*
X183308158Y-121873889D01*
X183149523Y-121774211D01*
X182979254Y-121714631D01*
X182979249Y-121714630D01*
X182800004Y-121694435D01*
X182799996Y-121694435D01*
X182620750Y-121714630D01*
X182620745Y-121714631D01*
X182450476Y-121774211D01*
X182297737Y-121870184D01*
X182170184Y-121997737D01*
X182074211Y-122150476D01*
X182014631Y-122320745D01*
X182014630Y-122320750D01*
X181994435Y-122499996D01*
X181994435Y-122500003D01*
X182014630Y-122679249D01*
X182014631Y-122679254D01*
X182074211Y-122849523D01*
X182170184Y-123002262D01*
X182237824Y-123069902D01*
X182271309Y-123131225D01*
X182266325Y-123200917D01*
X182224453Y-123256850D01*
X182158989Y-123281267D01*
X182097738Y-123269965D01*
X182094446Y-123268430D01*
X182003663Y-123226097D01*
X182003659Y-123226096D01*
X182003655Y-123226094D01*
X181775413Y-123164938D01*
X181775403Y-123164936D01*
X181540001Y-123144341D01*
X181539999Y-123144341D01*
X181304596Y-123164936D01*
X181304586Y-123164938D01*
X181076344Y-123226094D01*
X181076335Y-123226098D01*
X180862171Y-123325964D01*
X180862169Y-123325965D01*
X180668600Y-123461503D01*
X180546673Y-123583430D01*
X180485350Y-123616914D01*
X180415658Y-123611930D01*
X180359725Y-123570058D01*
X180342810Y-123539081D01*
X180293797Y-123407671D01*
X180293793Y-123407664D01*
X180207547Y-123292455D01*
X180207544Y-123292452D01*
X180092335Y-123206206D01*
X180092328Y-123206202D01*
X179957482Y-123155908D01*
X179957483Y-123155908D01*
X179897883Y-123149501D01*
X179897881Y-123149500D01*
X179897873Y-123149500D01*
X179897864Y-123149500D01*
X178102129Y-123149500D01*
X178102123Y-123149501D01*
X178042516Y-123155908D01*
X177907671Y-123206202D01*
X177907665Y-123206205D01*
X177872027Y-123232884D01*
X177806563Y-123257300D01*
X177738290Y-123242448D01*
X177688885Y-123193042D01*
X177674034Y-123124769D01*
X177680676Y-123092661D01*
X177685368Y-123079255D01*
X177705565Y-122900000D01*
X177692649Y-122785368D01*
X177685369Y-122720750D01*
X177685368Y-122720745D01*
X177660446Y-122649522D01*
X177625789Y-122550478D01*
X177529816Y-122397738D01*
X177402262Y-122270184D01*
X177249523Y-122174211D01*
X177079254Y-122114631D01*
X177079249Y-122114630D01*
X176900004Y-122094435D01*
X176899996Y-122094435D01*
X176720750Y-122114630D01*
X176720745Y-122114631D01*
X176550476Y-122174211D01*
X176397737Y-122270184D01*
X176270184Y-122397737D01*
X176174211Y-122550476D01*
X176114631Y-122720745D01*
X176114630Y-122720750D01*
X176094435Y-122899996D01*
X176094435Y-122900003D01*
X176114630Y-123079249D01*
X176114631Y-123079254D01*
X176174211Y-123249523D01*
X176225420Y-123331021D01*
X176270184Y-123402262D01*
X176397738Y-123529816D01*
X176461783Y-123570058D01*
X176540884Y-123619761D01*
X176550478Y-123625789D01*
X176647130Y-123659609D01*
X176720745Y-123685368D01*
X176720750Y-123685369D01*
X176899996Y-123705565D01*
X176900000Y-123705565D01*
X176900004Y-123705565D01*
X177079249Y-123685369D01*
X177079252Y-123685368D01*
X177079255Y-123685368D01*
X177249522Y-123625789D01*
X177402262Y-123529816D01*
X177439451Y-123492626D01*
X177500771Y-123459142D01*
X177570463Y-123464126D01*
X177626397Y-123505996D01*
X177650815Y-123571460D01*
X177650421Y-123593557D01*
X177649500Y-123602119D01*
X177649500Y-125397870D01*
X177649501Y-125397876D01*
X177655908Y-125457483D01*
X177706202Y-125592328D01*
X177710454Y-125600114D01*
X177708158Y-125601367D01*
X177727798Y-125654026D01*
X177712946Y-125722299D01*
X177663540Y-125771704D01*
X177595267Y-125786555D01*
X177556217Y-125776162D01*
X177556095Y-125776511D01*
X177551542Y-125774918D01*
X177550310Y-125774590D01*
X177549525Y-125774212D01*
X177379254Y-125714631D01*
X177379249Y-125714630D01*
X177200004Y-125694435D01*
X177199996Y-125694435D01*
X177020750Y-125714630D01*
X177020745Y-125714631D01*
X176850476Y-125774211D01*
X176697737Y-125870184D01*
X176570184Y-125997737D01*
X176474211Y-126150476D01*
X176414631Y-126320745D01*
X176414630Y-126320750D01*
X176394435Y-126499996D01*
X176394435Y-126500003D01*
X176414630Y-126679249D01*
X176414631Y-126679254D01*
X176474211Y-126849523D01*
X176518611Y-126920184D01*
X176570184Y-127002262D01*
X176697738Y-127129816D01*
X176785474Y-127184944D01*
X176810192Y-127200476D01*
X176850478Y-127225789D01*
X176972319Y-127268423D01*
X177020745Y-127285368D01*
X177020750Y-127285369D01*
X177199996Y-127305565D01*
X177200000Y-127305565D01*
X177200004Y-127305565D01*
X177379249Y-127285369D01*
X177379252Y-127285368D01*
X177379255Y-127285368D01*
X177379256Y-127285367D01*
X177379259Y-127285367D01*
X177427681Y-127268423D01*
X177516748Y-127237256D01*
X177586524Y-127233694D01*
X177647152Y-127268423D01*
X177677476Y-127322205D01*
X177726094Y-127503655D01*
X177726096Y-127503659D01*
X177726097Y-127503663D01*
X177780696Y-127620750D01*
X177825965Y-127717830D01*
X177825967Y-127717834D01*
X177934281Y-127872521D01*
X177961501Y-127911396D01*
X177961506Y-127911402D01*
X178128597Y-128078493D01*
X178128603Y-128078498D01*
X178314158Y-128208425D01*
X178357783Y-128263002D01*
X178364977Y-128332500D01*
X178333454Y-128394855D01*
X178314158Y-128411575D01*
X178219899Y-128477575D01*
X178153696Y-128499902D01*
X178148778Y-128500000D01*
X175129614Y-128500000D01*
X175062575Y-128480315D01*
X175016820Y-128427511D01*
X175006876Y-128358353D01*
X175028045Y-128309373D01*
X175026111Y-128308158D01*
X175029816Y-128302262D01*
X175125789Y-128149522D01*
X175185368Y-127979255D01*
X175193013Y-127911402D01*
X175205565Y-127800003D01*
X175205565Y-127799996D01*
X175185369Y-127620750D01*
X175185368Y-127620745D01*
X175148603Y-127515677D01*
X175125789Y-127450478D01*
X175029816Y-127297738D01*
X174902262Y-127170184D01*
X174838017Y-127129816D01*
X174749523Y-127074211D01*
X174579254Y-127014631D01*
X174579249Y-127014630D01*
X174400004Y-126994435D01*
X174399996Y-126994435D01*
X174220750Y-127014630D01*
X174220742Y-127014632D01*
X174053739Y-127073069D01*
X173983960Y-127076630D01*
X173923333Y-127041901D01*
X173891106Y-126979908D01*
X173889258Y-126966846D01*
X173875063Y-126804592D01*
X173813903Y-126576337D01*
X173714035Y-126362171D01*
X173708425Y-126354158D01*
X173578494Y-126168597D01*
X173411402Y-126001506D01*
X173411396Y-126001501D01*
X173225842Y-125871575D01*
X173182217Y-125816998D01*
X173175023Y-125747500D01*
X173206546Y-125685145D01*
X173225842Y-125668425D01*
X173259369Y-125644949D01*
X173411401Y-125538495D01*
X173578495Y-125371401D01*
X173714035Y-125177830D01*
X173813903Y-124963663D01*
X173875063Y-124735408D01*
X173895659Y-124500000D01*
X173893843Y-124479249D01*
X173878161Y-124300000D01*
X173875063Y-124264592D01*
X173813903Y-124036337D01*
X173714035Y-123822171D01*
X173708757Y-123814632D01*
X173578494Y-123628597D01*
X173411402Y-123461506D01*
X173411395Y-123461501D01*
X173217834Y-123325967D01*
X173217830Y-123325965D01*
X173174082Y-123305565D01*
X173003663Y-123226097D01*
X173003659Y-123226096D01*
X173003655Y-123226094D01*
X172775413Y-123164938D01*
X172775403Y-123164936D01*
X172540001Y-123144341D01*
X172539999Y-123144341D01*
X172304596Y-123164936D01*
X172304586Y-123164938D01*
X172076344Y-123226094D01*
X172076335Y-123226098D01*
X171862171Y-123325964D01*
X171862169Y-123325965D01*
X171668600Y-123461503D01*
X171546673Y-123583430D01*
X171485350Y-123616914D01*
X171415658Y-123611930D01*
X171359725Y-123570058D01*
X171342810Y-123539081D01*
X171293797Y-123407671D01*
X171293793Y-123407664D01*
X171207547Y-123292455D01*
X171207544Y-123292452D01*
X171092335Y-123206206D01*
X171092328Y-123206202D01*
X170957482Y-123155908D01*
X170957483Y-123155908D01*
X170897883Y-123149501D01*
X170897881Y-123149500D01*
X170897873Y-123149500D01*
X170897864Y-123149500D01*
X169102129Y-123149500D01*
X169102123Y-123149501D01*
X169042516Y-123155908D01*
X168907671Y-123206202D01*
X168907664Y-123206206D01*
X168792455Y-123292452D01*
X168792452Y-123292455D01*
X168706206Y-123407664D01*
X168706202Y-123407671D01*
X168655908Y-123542516D01*
X168654544Y-123555210D01*
X168627806Y-123619761D01*
X168570413Y-123659609D01*
X168500588Y-123662102D01*
X168465283Y-123646948D01*
X168349523Y-123574211D01*
X168179254Y-123514631D01*
X168179249Y-123514630D01*
X168000004Y-123494435D01*
X167999996Y-123494435D01*
X167820750Y-123514630D01*
X167820745Y-123514631D01*
X167650476Y-123574211D01*
X167497737Y-123670184D01*
X167370184Y-123797737D01*
X167274211Y-123950476D01*
X167214631Y-124120745D01*
X167214630Y-124120750D01*
X167194435Y-124299996D01*
X167194435Y-124300003D01*
X167214630Y-124479249D01*
X167214631Y-124479254D01*
X167274211Y-124649523D01*
X167328177Y-124735408D01*
X167370184Y-124802262D01*
X167497738Y-124929816D01*
X167551605Y-124963663D01*
X167632721Y-125014632D01*
X167650478Y-125025789D01*
X167820745Y-125085368D01*
X167820750Y-125085369D01*
X167999996Y-125105565D01*
X168000000Y-125105565D01*
X168000004Y-125105565D01*
X168179249Y-125085369D01*
X168179252Y-125085368D01*
X168179255Y-125085368D01*
X168349522Y-125025789D01*
X168367279Y-125014632D01*
X168448395Y-124963663D01*
X168459527Y-124956667D01*
X168526764Y-124937667D01*
X168593599Y-124958034D01*
X168638814Y-125011302D01*
X168649500Y-125061661D01*
X168649500Y-125397869D01*
X168649501Y-125397876D01*
X168655908Y-125457483D01*
X168706202Y-125592328D01*
X168706206Y-125592335D01*
X168792452Y-125707544D01*
X168792455Y-125707547D01*
X168907664Y-125793793D01*
X168907671Y-125793797D01*
X169039081Y-125842810D01*
X169095015Y-125884681D01*
X169119432Y-125950145D01*
X169104580Y-126018418D01*
X169083430Y-126046673D01*
X168961503Y-126168600D01*
X168825965Y-126362169D01*
X168825964Y-126362171D01*
X168726098Y-126576335D01*
X168726096Y-126576339D01*
X168713442Y-126623565D01*
X168677076Y-126683225D01*
X168614229Y-126713753D01*
X168579784Y-126714690D01*
X168400004Y-126694435D01*
X168399996Y-126694435D01*
X168220750Y-126714630D01*
X168220745Y-126714631D01*
X168050476Y-126774211D01*
X167897737Y-126870184D01*
X167770184Y-126997737D01*
X167674211Y-127150476D01*
X167614631Y-127320745D01*
X167614630Y-127320750D01*
X167594435Y-127499996D01*
X167594435Y-127500003D01*
X167614630Y-127679249D01*
X167614631Y-127679254D01*
X167674211Y-127849523D01*
X167734672Y-127945745D01*
X167770184Y-128002262D01*
X167897738Y-128129816D01*
X167985482Y-128184949D01*
X168031771Y-128214035D01*
X168050478Y-128225789D01*
X168156827Y-128263002D01*
X168220745Y-128285368D01*
X168220750Y-128285369D01*
X168399996Y-128305565D01*
X168400000Y-128305565D01*
X168400004Y-128305565D01*
X168579249Y-128285369D01*
X168579252Y-128285368D01*
X168579255Y-128285368D01*
X168749522Y-128225789D01*
X168902262Y-128129816D01*
X168953410Y-128078668D01*
X169014733Y-128045183D01*
X169084425Y-128050167D01*
X169123978Y-128075587D01*
X169124456Y-128075018D01*
X169128603Y-128078498D01*
X169314158Y-128208425D01*
X169357783Y-128263002D01*
X169364977Y-128332500D01*
X169333454Y-128394855D01*
X169314158Y-128411575D01*
X169219899Y-128477575D01*
X169153696Y-128499902D01*
X169148778Y-128500000D01*
X168999999Y-128500000D01*
X168000000Y-129499999D01*
X168000000Y-129500000D01*
X168000000Y-134000000D01*
X169000000Y-135000000D01*
X181948638Y-135000000D01*
X182015677Y-135019685D01*
X182036319Y-135036319D01*
X182963681Y-135963681D01*
X182997166Y-136025004D01*
X183000000Y-136051362D01*
X183000000Y-142948638D01*
X182980315Y-143015677D01*
X182963681Y-143036319D01*
X182036319Y-143963681D01*
X181974996Y-143997166D01*
X181948638Y-144000000D01*
X180976634Y-144000000D01*
X180909595Y-143980315D01*
X180863840Y-143927511D01*
X180853896Y-143858353D01*
X180882921Y-143794797D01*
X180888953Y-143788319D01*
X180932554Y-143744717D01*
X180932559Y-143744712D01*
X181098584Y-143528344D01*
X181234947Y-143292156D01*
X181339315Y-143040190D01*
X181409902Y-142776756D01*
X181445500Y-142506363D01*
X181445500Y-142233637D01*
X181409902Y-141963244D01*
X181339315Y-141699810D01*
X181234947Y-141447844D01*
X181206018Y-141397738D01*
X181098584Y-141211656D01*
X180932560Y-140995289D01*
X180932554Y-140995282D01*
X180739717Y-140802445D01*
X180739710Y-140802439D01*
X180622336Y-140712375D01*
X180581133Y-140655947D01*
X180576978Y-140586201D01*
X180611190Y-140525281D01*
X180672907Y-140492528D01*
X180697822Y-140489999D01*
X180744972Y-140489999D01*
X180744986Y-140489998D01*
X180847697Y-140479505D01*
X181014119Y-140424358D01*
X181014124Y-140424356D01*
X181163345Y-140332315D01*
X181287315Y-140208345D01*
X181379356Y-140059124D01*
X181379358Y-140059119D01*
X181434505Y-139892697D01*
X181434506Y-139892690D01*
X181444999Y-139789986D01*
X181445000Y-139789973D01*
X181445000Y-138660000D01*
X179711480Y-138660000D01*
X179712335Y-138657936D01*
X179745000Y-138493718D01*
X179745000Y-138326282D01*
X179712335Y-138162064D01*
X179711480Y-138160000D01*
X181444999Y-138160000D01*
X181444999Y-137030028D01*
X181444998Y-137030013D01*
X181434505Y-136927302D01*
X181379358Y-136760880D01*
X181379356Y-136760875D01*
X181287315Y-136611654D01*
X181163345Y-136487684D01*
X181014124Y-136395643D01*
X181014119Y-136395641D01*
X180847697Y-136340494D01*
X180847690Y-136340493D01*
X180744986Y-136330000D01*
X179145000Y-136330000D01*
X179145000Y-137593519D01*
X179142936Y-137592665D01*
X178978718Y-137560000D01*
X178811282Y-137560000D01*
X178647064Y-137592665D01*
X178645000Y-137593519D01*
X178645000Y-136330000D01*
X177045028Y-136330000D01*
X177045012Y-136330001D01*
X176942302Y-136340494D01*
X176775880Y-136395641D01*
X176775875Y-136395643D01*
X176626654Y-136487684D01*
X176502684Y-136611654D01*
X176410643Y-136760875D01*
X176410641Y-136760880D01*
X176355494Y-136927302D01*
X176355493Y-136927309D01*
X176345000Y-137030013D01*
X176345000Y-138160000D01*
X178078520Y-138160000D01*
X178077665Y-138162064D01*
X178045000Y-138326282D01*
X178045000Y-138493718D01*
X178077665Y-138657936D01*
X178078520Y-138660000D01*
X176345001Y-138660000D01*
X176345001Y-139789986D01*
X176355494Y-139892697D01*
X176410641Y-140059119D01*
X176410643Y-140059124D01*
X176502684Y-140208345D01*
X176626654Y-140332315D01*
X176775875Y-140424356D01*
X176775880Y-140424358D01*
X176942302Y-140479505D01*
X176942309Y-140479506D01*
X177045019Y-140489999D01*
X177092174Y-140489999D01*
X177159213Y-140509682D01*
X177204969Y-140562485D01*
X177214914Y-140631644D01*
X177185891Y-140695200D01*
X177167663Y-140712374D01*
X177050292Y-140802437D01*
X177050282Y-140802445D01*
X176857445Y-140995282D01*
X176857439Y-140995289D01*
X176691415Y-141211656D01*
X176555054Y-141447840D01*
X176555047Y-141447855D01*
X176450684Y-141699811D01*
X176380097Y-141963245D01*
X176344501Y-142233627D01*
X176344500Y-142233643D01*
X176344500Y-142506356D01*
X176344501Y-142506372D01*
X176380097Y-142776754D01*
X176450684Y-143040188D01*
X176555047Y-143292144D01*
X176555054Y-143292159D01*
X176691415Y-143528343D01*
X176857439Y-143744710D01*
X176857445Y-143744717D01*
X176901047Y-143788319D01*
X176934532Y-143849642D01*
X176929548Y-143919334D01*
X176887676Y-143975267D01*
X176822212Y-143999684D01*
X176813366Y-144000000D01*
X169581634Y-144000000D01*
X169514595Y-143980315D01*
X169468840Y-143927511D01*
X169458896Y-143858353D01*
X169487921Y-143794797D01*
X169493953Y-143788319D01*
X169537554Y-143744717D01*
X169537559Y-143744712D01*
X169703584Y-143528344D01*
X169839947Y-143292156D01*
X169944315Y-143040190D01*
X170014902Y-142776756D01*
X170050500Y-142506363D01*
X170050500Y-142299996D01*
X171194435Y-142299996D01*
X171194435Y-142300003D01*
X171214630Y-142479249D01*
X171214631Y-142479254D01*
X171274211Y-142649523D01*
X171365390Y-142794632D01*
X171370184Y-142802262D01*
X171497738Y-142929816D01*
X171650478Y-143025789D01*
X171691634Y-143040190D01*
X171820745Y-143085368D01*
X171820750Y-143085369D01*
X171999996Y-143105565D01*
X172000000Y-143105565D01*
X172000004Y-143105565D01*
X172179249Y-143085369D01*
X172179252Y-143085368D01*
X172179255Y-143085368D01*
X172349522Y-143025789D01*
X172502262Y-142929816D01*
X172629816Y-142802262D01*
X172725789Y-142649522D01*
X172785368Y-142479255D01*
X172785369Y-142479249D01*
X172805565Y-142300003D01*
X172805565Y-142299996D01*
X172785369Y-142120750D01*
X172785368Y-142120745D01*
X172725788Y-141950476D01*
X172681033Y-141879249D01*
X172629816Y-141797738D01*
X172502262Y-141670184D01*
X172349523Y-141574211D01*
X172179254Y-141514631D01*
X172179249Y-141514630D01*
X172000004Y-141494435D01*
X171999996Y-141494435D01*
X171820750Y-141514630D01*
X171820745Y-141514631D01*
X171650476Y-141574211D01*
X171497737Y-141670184D01*
X171370184Y-141797737D01*
X171274211Y-141950476D01*
X171214631Y-142120745D01*
X171214630Y-142120750D01*
X171194435Y-142299996D01*
X170050500Y-142299996D01*
X170050500Y-142233637D01*
X170014902Y-141963244D01*
X169944315Y-141699810D01*
X169839947Y-141447844D01*
X169811018Y-141397738D01*
X169703584Y-141211656D01*
X169537560Y-140995289D01*
X169537554Y-140995282D01*
X169344717Y-140802445D01*
X169344710Y-140802439D01*
X169227336Y-140712375D01*
X169186133Y-140655947D01*
X169181978Y-140586201D01*
X169216190Y-140525281D01*
X169277907Y-140492528D01*
X169302822Y-140489999D01*
X169349972Y-140489999D01*
X169349986Y-140489998D01*
X169452697Y-140479505D01*
X169619119Y-140424358D01*
X169619124Y-140424356D01*
X169768345Y-140332315D01*
X169892315Y-140208345D01*
X169984356Y-140059124D01*
X169984358Y-140059119D01*
X170039505Y-139892697D01*
X170039506Y-139892690D01*
X170049999Y-139789986D01*
X170050000Y-139789973D01*
X170050000Y-138660000D01*
X168316480Y-138660000D01*
X168317335Y-138657936D01*
X168350000Y-138493718D01*
X168350000Y-138326282D01*
X168317335Y-138162064D01*
X168316480Y-138160000D01*
X170049999Y-138160000D01*
X170049999Y-137399996D01*
X172994435Y-137399996D01*
X172994435Y-137400003D01*
X173014630Y-137579249D01*
X173014631Y-137579254D01*
X173074211Y-137749523D01*
X173140344Y-137854772D01*
X173170184Y-137902262D01*
X173297738Y-138029816D01*
X173450478Y-138125789D01*
X173554146Y-138162064D01*
X173620745Y-138185368D01*
X173620750Y-138185369D01*
X173799996Y-138205565D01*
X173800000Y-138205565D01*
X173800004Y-138205565D01*
X173979249Y-138185369D01*
X173979252Y-138185368D01*
X173979255Y-138185368D01*
X174149522Y-138125789D01*
X174302262Y-138029816D01*
X174429816Y-137902262D01*
X174525789Y-137749522D01*
X174585368Y-137579255D01*
X174585369Y-137579249D01*
X174605565Y-137400003D01*
X174605565Y-137399996D01*
X174585369Y-137220750D01*
X174585368Y-137220745D01*
X174580056Y-137205565D01*
X174525789Y-137050478D01*
X174512939Y-137030028D01*
X174472056Y-136964962D01*
X174429816Y-136897738D01*
X174302262Y-136770184D01*
X174239860Y-136730974D01*
X174149523Y-136674211D01*
X173979254Y-136614631D01*
X173979249Y-136614630D01*
X173800004Y-136594435D01*
X173799996Y-136594435D01*
X173620750Y-136614630D01*
X173620745Y-136614631D01*
X173450476Y-136674211D01*
X173297737Y-136770184D01*
X173170184Y-136897737D01*
X173074211Y-137050476D01*
X173014631Y-137220745D01*
X173014630Y-137220750D01*
X172994435Y-137399996D01*
X170049999Y-137399996D01*
X170049999Y-137030028D01*
X170049998Y-137030013D01*
X170039505Y-136927302D01*
X169984358Y-136760880D01*
X169984356Y-136760875D01*
X169892315Y-136611654D01*
X169768345Y-136487684D01*
X169619124Y-136395643D01*
X169619119Y-136395641D01*
X169452697Y-136340494D01*
X169452690Y-136340493D01*
X169349986Y-136330000D01*
X167750000Y-136330000D01*
X167750000Y-137593519D01*
X167747936Y-137592665D01*
X167583718Y-137560000D01*
X167416282Y-137560000D01*
X167252064Y-137592665D01*
X167250000Y-137593519D01*
X167250000Y-136330000D01*
X165650028Y-136330000D01*
X165650012Y-136330001D01*
X165547302Y-136340494D01*
X165380880Y-136395641D01*
X165380875Y-136395643D01*
X165231654Y-136487684D01*
X165107684Y-136611654D01*
X165015643Y-136760875D01*
X165015641Y-136760880D01*
X164960494Y-136927302D01*
X164960493Y-136927309D01*
X164950000Y-137030013D01*
X164950000Y-138160000D01*
X166683520Y-138160000D01*
X166682665Y-138162064D01*
X166650000Y-138326282D01*
X166650000Y-138493718D01*
X166682665Y-138657936D01*
X166683520Y-138660000D01*
X164950001Y-138660000D01*
X164950001Y-139789986D01*
X164960494Y-139892697D01*
X165015641Y-140059119D01*
X165015643Y-140059124D01*
X165107684Y-140208345D01*
X165231654Y-140332315D01*
X165380875Y-140424356D01*
X165380880Y-140424358D01*
X165547302Y-140479505D01*
X165547309Y-140479506D01*
X165650019Y-140489999D01*
X165697174Y-140489999D01*
X165764213Y-140509682D01*
X165809969Y-140562485D01*
X165819914Y-140631644D01*
X165790891Y-140695200D01*
X165772663Y-140712374D01*
X165655292Y-140802437D01*
X165655282Y-140802445D01*
X165462445Y-140995282D01*
X165462439Y-140995289D01*
X165296415Y-141211656D01*
X165160054Y-141447840D01*
X165160047Y-141447855D01*
X165055684Y-141699811D01*
X164985097Y-141963245D01*
X164949501Y-142233627D01*
X164949500Y-142233643D01*
X164949500Y-142506356D01*
X164949501Y-142506372D01*
X164985097Y-142776754D01*
X165055684Y-143040188D01*
X165160047Y-143292144D01*
X165160054Y-143292159D01*
X165296415Y-143528343D01*
X165462439Y-143744710D01*
X165462445Y-143744717D01*
X165506047Y-143788319D01*
X165539532Y-143849642D01*
X165534548Y-143919334D01*
X165492676Y-143975267D01*
X165427212Y-143999684D01*
X165418366Y-144000000D01*
X154551362Y-144000000D01*
X154484323Y-143980315D01*
X154463681Y-143963681D01*
X152536319Y-142036319D01*
X152502834Y-141974996D01*
X152500000Y-141948638D01*
X152500000Y-141699996D01*
X154294435Y-141699996D01*
X154294435Y-141700003D01*
X154314630Y-141879249D01*
X154314631Y-141879254D01*
X154374211Y-142049523D01*
X154470184Y-142202262D01*
X154597738Y-142329816D01*
X154750478Y-142425789D01*
X154785827Y-142438158D01*
X154920745Y-142485368D01*
X154920750Y-142485369D01*
X155099996Y-142505565D01*
X155100000Y-142505565D01*
X155100004Y-142505565D01*
X155279249Y-142485369D01*
X155279252Y-142485368D01*
X155279255Y-142485368D01*
X155449522Y-142425789D01*
X155602262Y-142329816D01*
X155729816Y-142202262D01*
X155825789Y-142049522D01*
X155885368Y-141879255D01*
X155885369Y-141879249D01*
X155905565Y-141700003D01*
X155905565Y-141699996D01*
X155885369Y-141520750D01*
X155885368Y-141520745D01*
X155825788Y-141350476D01*
X155729815Y-141197737D01*
X155602262Y-141070184D01*
X155449523Y-140974211D01*
X155279254Y-140914631D01*
X155279249Y-140914630D01*
X155100004Y-140894435D01*
X155099996Y-140894435D01*
X154920750Y-140914630D01*
X154920745Y-140914631D01*
X154750476Y-140974211D01*
X154597737Y-141070184D01*
X154470184Y-141197737D01*
X154374211Y-141350476D01*
X154314631Y-141520745D01*
X154314630Y-141520750D01*
X154294435Y-141699996D01*
X152500000Y-141699996D01*
X152500000Y-138999996D01*
X158544435Y-138999996D01*
X158544435Y-139000003D01*
X158564630Y-139179249D01*
X158564631Y-139179254D01*
X158624211Y-139349523D01*
X158688246Y-139451433D01*
X158720184Y-139502262D01*
X158847738Y-139629816D01*
X159000478Y-139725789D01*
X159170745Y-139785368D01*
X159170750Y-139785369D01*
X159349996Y-139805565D01*
X159350000Y-139805565D01*
X159350004Y-139805565D01*
X159529249Y-139785369D01*
X159529252Y-139785368D01*
X159529255Y-139785368D01*
X159699522Y-139725789D01*
X159852262Y-139629816D01*
X159979816Y-139502262D01*
X160075789Y-139349522D01*
X160135368Y-139179255D01*
X160135369Y-139179249D01*
X160155565Y-139000003D01*
X160155565Y-138999996D01*
X160135369Y-138820750D01*
X160135368Y-138820745D01*
X160079121Y-138660000D01*
X160075789Y-138650478D01*
X159979816Y-138497738D01*
X159852262Y-138370184D01*
X159788017Y-138329816D01*
X159699523Y-138274211D01*
X159529254Y-138214631D01*
X159529249Y-138214630D01*
X159350004Y-138194435D01*
X159349996Y-138194435D01*
X159170750Y-138214630D01*
X159170745Y-138214631D01*
X159000476Y-138274211D01*
X158847737Y-138370184D01*
X158720184Y-138497737D01*
X158624211Y-138650476D01*
X158564631Y-138820745D01*
X158564630Y-138820750D01*
X158544435Y-138999996D01*
X152500000Y-138999996D01*
X152500000Y-135799996D01*
X153994435Y-135799996D01*
X153994435Y-135800003D01*
X154014630Y-135979249D01*
X154014631Y-135979254D01*
X154074211Y-136149523D01*
X154118963Y-136220745D01*
X154170184Y-136302262D01*
X154297738Y-136429816D01*
X154450478Y-136525789D01*
X154603275Y-136579255D01*
X154620745Y-136585368D01*
X154620750Y-136585369D01*
X154799996Y-136605565D01*
X154800000Y-136605565D01*
X154800004Y-136605565D01*
X154979249Y-136585369D01*
X154979252Y-136585368D01*
X154979255Y-136585368D01*
X155149522Y-136525789D01*
X155302262Y-136429816D01*
X155429816Y-136302262D01*
X155525789Y-136149522D01*
X155585368Y-135979255D01*
X155594553Y-135897738D01*
X155605565Y-135800003D01*
X155605565Y-135799996D01*
X155585369Y-135620750D01*
X155585368Y-135620745D01*
X155583229Y-135614632D01*
X155525789Y-135450478D01*
X155525188Y-135449522D01*
X155429815Y-135297737D01*
X155302262Y-135170184D01*
X155190559Y-135099996D01*
X166294435Y-135099996D01*
X166294435Y-135100003D01*
X166314630Y-135279249D01*
X166314631Y-135279254D01*
X166374211Y-135449523D01*
X166386522Y-135469115D01*
X166470184Y-135602262D01*
X166597738Y-135729816D01*
X166750478Y-135825789D01*
X166920745Y-135885368D01*
X166920750Y-135885369D01*
X167099996Y-135905565D01*
X167100000Y-135905565D01*
X167100004Y-135905565D01*
X167279249Y-135885369D01*
X167279252Y-135885368D01*
X167279255Y-135885368D01*
X167449522Y-135825789D01*
X167602262Y-135729816D01*
X167729816Y-135602262D01*
X167825789Y-135449522D01*
X167885368Y-135279255D01*
X167897156Y-135174632D01*
X167905565Y-135100003D01*
X167905565Y-135099996D01*
X167885369Y-134920750D01*
X167885368Y-134920745D01*
X167825788Y-134750476D01*
X167784878Y-134685368D01*
X167729816Y-134597738D01*
X167602262Y-134470184D01*
X167530292Y-134424962D01*
X167449523Y-134374211D01*
X167279254Y-134314631D01*
X167279249Y-134314630D01*
X167100004Y-134294435D01*
X167099996Y-134294435D01*
X166920750Y-134314630D01*
X166920745Y-134314631D01*
X166750476Y-134374211D01*
X166597737Y-134470184D01*
X166470184Y-134597737D01*
X166374211Y-134750476D01*
X166314631Y-134920745D01*
X166314630Y-134920750D01*
X166294435Y-135099996D01*
X155190559Y-135099996D01*
X155149523Y-135074211D01*
X154979254Y-135014631D01*
X154979249Y-135014630D01*
X154800004Y-134994435D01*
X154799996Y-134994435D01*
X154620750Y-135014630D01*
X154620745Y-135014631D01*
X154450476Y-135074211D01*
X154297737Y-135170184D01*
X154170184Y-135297737D01*
X154074211Y-135450476D01*
X154014631Y-135620745D01*
X154014630Y-135620750D01*
X153994435Y-135799996D01*
X152500000Y-135799996D01*
X152500000Y-127549996D01*
X158194435Y-127549996D01*
X158194435Y-127550003D01*
X158214630Y-127729249D01*
X158214631Y-127729254D01*
X158274211Y-127899523D01*
X158346054Y-128013859D01*
X158370184Y-128052262D01*
X158497738Y-128179816D01*
X158543269Y-128208425D01*
X158630127Y-128263002D01*
X158650478Y-128275789D01*
X158812549Y-128332500D01*
X158820745Y-128335368D01*
X158820750Y-128335369D01*
X158999996Y-128355565D01*
X159000000Y-128355565D01*
X159000004Y-128355565D01*
X159179249Y-128335369D01*
X159179252Y-128335368D01*
X159179255Y-128335368D01*
X159349522Y-128275789D01*
X159502262Y-128179816D01*
X159629816Y-128052262D01*
X159725789Y-127899522D01*
X159785368Y-127729255D01*
X159786655Y-127717834D01*
X159805565Y-127550003D01*
X159805565Y-127549996D01*
X159785369Y-127370750D01*
X159785368Y-127370745D01*
X159767414Y-127319435D01*
X159725789Y-127200478D01*
X159716028Y-127184944D01*
X159646450Y-127074211D01*
X159629816Y-127047738D01*
X159502262Y-126920184D01*
X159422688Y-126870184D01*
X159349523Y-126824211D01*
X159280321Y-126799996D01*
X162994435Y-126799996D01*
X162994435Y-126800003D01*
X163014630Y-126979249D01*
X163014631Y-126979254D01*
X163074211Y-127149523D01*
X163153307Y-127275403D01*
X163170184Y-127302262D01*
X163297738Y-127429816D01*
X163450478Y-127525789D01*
X163519678Y-127550003D01*
X163620745Y-127585368D01*
X163620750Y-127585369D01*
X163799996Y-127605565D01*
X163800000Y-127605565D01*
X163800004Y-127605565D01*
X163979249Y-127585369D01*
X163979252Y-127585368D01*
X163979255Y-127585368D01*
X164149522Y-127525789D01*
X164302262Y-127429816D01*
X164429816Y-127302262D01*
X164525789Y-127149522D01*
X164585368Y-126979255D01*
X164585369Y-126979249D01*
X164605565Y-126800003D01*
X164605565Y-126799996D01*
X164585369Y-126620750D01*
X164585368Y-126620745D01*
X164566900Y-126567967D01*
X164525789Y-126450478D01*
X164429816Y-126297738D01*
X164302262Y-126170184D01*
X164299741Y-126168600D01*
X164149523Y-126074211D01*
X163979254Y-126014631D01*
X163979249Y-126014630D01*
X163800004Y-125994435D01*
X163799996Y-125994435D01*
X163620750Y-126014630D01*
X163620745Y-126014631D01*
X163450476Y-126074211D01*
X163297737Y-126170184D01*
X163170184Y-126297737D01*
X163074211Y-126450476D01*
X163014631Y-126620745D01*
X163014630Y-126620750D01*
X162994435Y-126799996D01*
X159280321Y-126799996D01*
X159179254Y-126764631D01*
X159179249Y-126764630D01*
X159000004Y-126744435D01*
X158999996Y-126744435D01*
X158820750Y-126764630D01*
X158820745Y-126764631D01*
X158650476Y-126824211D01*
X158497737Y-126920184D01*
X158370184Y-127047737D01*
X158274211Y-127200476D01*
X158214631Y-127370745D01*
X158214630Y-127370750D01*
X158194435Y-127549996D01*
X152500000Y-127549996D01*
X152500000Y-121049996D01*
X153444435Y-121049996D01*
X153444435Y-121050003D01*
X153464630Y-121229249D01*
X153464631Y-121229254D01*
X153524211Y-121399523D01*
X153578152Y-121485369D01*
X153620184Y-121552262D01*
X153747738Y-121679816D01*
X153829343Y-121731092D01*
X153897966Y-121774211D01*
X153900478Y-121775789D01*
X154028955Y-121820745D01*
X154070745Y-121835368D01*
X154070750Y-121835369D01*
X154249996Y-121855565D01*
X154250000Y-121855565D01*
X154250004Y-121855565D01*
X154429249Y-121835369D01*
X154429252Y-121835368D01*
X154429255Y-121835368D01*
X154599522Y-121775789D01*
X154752262Y-121679816D01*
X154782082Y-121649996D01*
X157244435Y-121649996D01*
X157244435Y-121650003D01*
X157264630Y-121829249D01*
X157264631Y-121829254D01*
X157324211Y-121999523D01*
X157418462Y-122149522D01*
X157420184Y-122152262D01*
X157547738Y-122279816D01*
X157700478Y-122375789D01*
X157763202Y-122397737D01*
X157870745Y-122435368D01*
X157870750Y-122435369D01*
X158049996Y-122455565D01*
X158050000Y-122455565D01*
X158050004Y-122455565D01*
X158229249Y-122435369D01*
X158229252Y-122435368D01*
X158229255Y-122435368D01*
X158399522Y-122375789D01*
X158552262Y-122279816D01*
X158679816Y-122152262D01*
X158775789Y-121999522D01*
X158835368Y-121829255D01*
X158838113Y-121804890D01*
X158865177Y-121740478D01*
X158922771Y-121700922D01*
X158992608Y-121698782D01*
X159049014Y-121731092D01*
X159097738Y-121779816D01*
X159126261Y-121797738D01*
X159244374Y-121871954D01*
X159250478Y-121875789D01*
X159300019Y-121893124D01*
X159420745Y-121935368D01*
X159420750Y-121935369D01*
X159599996Y-121955565D01*
X159600000Y-121955565D01*
X159600004Y-121955565D01*
X159779249Y-121935369D01*
X159779252Y-121935368D01*
X159779255Y-121935368D01*
X159949522Y-121875789D01*
X160102262Y-121779816D01*
X160229816Y-121652262D01*
X160325789Y-121499522D01*
X160385368Y-121329255D01*
X160385369Y-121329249D01*
X160405565Y-121150003D01*
X160405565Y-121149996D01*
X160385369Y-120970750D01*
X160385368Y-120970745D01*
X160325788Y-120800476D01*
X160262955Y-120700478D01*
X160229816Y-120647738D01*
X160102262Y-120520184D01*
X159949523Y-120424211D01*
X159779254Y-120364631D01*
X159779249Y-120364630D01*
X159600004Y-120344435D01*
X159599996Y-120344435D01*
X159420750Y-120364630D01*
X159420745Y-120364631D01*
X159250476Y-120424211D01*
X159097737Y-120520184D01*
X158970184Y-120647737D01*
X158874211Y-120800476D01*
X158814631Y-120970745D01*
X158814630Y-120970749D01*
X158811886Y-120995110D01*
X158784819Y-121059524D01*
X158727224Y-121099079D01*
X158657387Y-121101216D01*
X158600985Y-121068907D01*
X158552262Y-121020184D01*
X158399523Y-120924211D01*
X158229254Y-120864631D01*
X158229249Y-120864630D01*
X158050004Y-120844435D01*
X158049996Y-120844435D01*
X157870750Y-120864630D01*
X157870745Y-120864631D01*
X157700476Y-120924211D01*
X157547737Y-121020184D01*
X157420184Y-121147737D01*
X157324211Y-121300476D01*
X157264631Y-121470745D01*
X157264630Y-121470750D01*
X157244435Y-121649996D01*
X154782082Y-121649996D01*
X154879816Y-121552262D01*
X154975789Y-121399522D01*
X155035368Y-121229255D01*
X155035369Y-121229249D01*
X155055565Y-121050003D01*
X155055565Y-121049996D01*
X155035369Y-120870750D01*
X155035368Y-120870745D01*
X155021046Y-120829815D01*
X154975789Y-120700478D01*
X154879816Y-120547738D01*
X154752262Y-120420184D01*
X154710366Y-120393859D01*
X154599523Y-120324211D01*
X154429254Y-120264631D01*
X154429249Y-120264630D01*
X154250004Y-120244435D01*
X154249996Y-120244435D01*
X154070750Y-120264630D01*
X154070745Y-120264631D01*
X153900476Y-120324211D01*
X153747737Y-120420184D01*
X153620184Y-120547737D01*
X153524211Y-120700476D01*
X153464631Y-120870745D01*
X153464630Y-120870750D01*
X153444435Y-121049996D01*
X152500000Y-121049996D01*
X152500000Y-119823643D01*
X164949500Y-119823643D01*
X164949500Y-120096356D01*
X164949501Y-120096372D01*
X164985097Y-120366754D01*
X165055684Y-120630188D01*
X165160047Y-120882144D01*
X165160054Y-120882159D01*
X165296415Y-121118343D01*
X165462439Y-121334710D01*
X165462445Y-121334717D01*
X165655282Y-121527554D01*
X165655289Y-121527560D01*
X165871656Y-121693584D01*
X166107840Y-121829945D01*
X166107855Y-121829952D01*
X166238154Y-121883923D01*
X166359810Y-121934315D01*
X166623244Y-122004902D01*
X166893637Y-122040500D01*
X166893644Y-122040500D01*
X168106356Y-122040500D01*
X168106363Y-122040500D01*
X168376756Y-122004902D01*
X168640190Y-121934315D01*
X168892156Y-121829947D01*
X169128344Y-121693584D01*
X169344712Y-121527559D01*
X169537559Y-121334712D01*
X169703584Y-121118344D01*
X169839947Y-120882156D01*
X169915400Y-120699996D01*
X170594435Y-120699996D01*
X170594435Y-120700003D01*
X170614630Y-120879249D01*
X170614631Y-120879254D01*
X170674211Y-121049523D01*
X170737347Y-121150003D01*
X170770184Y-121202262D01*
X170897738Y-121329816D01*
X171050478Y-121425789D01*
X171178955Y-121470745D01*
X171220745Y-121485368D01*
X171220750Y-121485369D01*
X171399996Y-121505565D01*
X171400000Y-121505565D01*
X171400004Y-121505565D01*
X171579249Y-121485369D01*
X171579252Y-121485368D01*
X171579255Y-121485368D01*
X171749522Y-121425789D01*
X171902262Y-121329816D01*
X172029816Y-121202262D01*
X172125789Y-121049522D01*
X172185368Y-120879255D01*
X172185369Y-120879249D01*
X172205565Y-120700003D01*
X172205565Y-120699996D01*
X172185369Y-120520750D01*
X172185368Y-120520745D01*
X172185172Y-120520184D01*
X172125789Y-120350478D01*
X172125188Y-120349522D01*
X172029815Y-120197737D01*
X171902262Y-120070184D01*
X171749523Y-119974211D01*
X171579254Y-119914631D01*
X171579249Y-119914630D01*
X171400004Y-119894435D01*
X171399996Y-119894435D01*
X171220750Y-119914630D01*
X171220745Y-119914631D01*
X171050476Y-119974211D01*
X170897737Y-120070184D01*
X170770184Y-120197737D01*
X170674211Y-120350476D01*
X170614631Y-120520745D01*
X170614630Y-120520750D01*
X170594435Y-120699996D01*
X169915400Y-120699996D01*
X169944315Y-120630190D01*
X170014902Y-120366756D01*
X170050500Y-120096363D01*
X170050500Y-119823637D01*
X170014902Y-119553244D01*
X169944315Y-119289810D01*
X169839947Y-119037844D01*
X169703584Y-118801656D01*
X169537559Y-118585288D01*
X169537554Y-118585282D01*
X169344717Y-118392445D01*
X169344710Y-118392439D01*
X169227336Y-118302375D01*
X169186133Y-118245947D01*
X169181978Y-118176201D01*
X169216190Y-118115281D01*
X169277907Y-118082528D01*
X169302822Y-118079999D01*
X169349972Y-118079999D01*
X169349986Y-118079998D01*
X169452697Y-118069505D01*
X169619119Y-118014358D01*
X169619124Y-118014356D01*
X169768345Y-117922315D01*
X169892315Y-117798345D01*
X169984356Y-117649124D01*
X169984358Y-117649119D01*
X170039505Y-117482697D01*
X170039506Y-117482690D01*
X170049999Y-117379986D01*
X170050000Y-117379973D01*
X170050000Y-116250000D01*
X168316480Y-116250000D01*
X168317335Y-116247936D01*
X168350000Y-116083718D01*
X168350000Y-115916282D01*
X168317335Y-115752064D01*
X168316480Y-115750000D01*
X170049999Y-115750000D01*
X170049999Y-114999996D01*
X170394435Y-114999996D01*
X170394435Y-115000003D01*
X170414630Y-115179249D01*
X170414631Y-115179254D01*
X170474211Y-115349523D01*
X170565266Y-115494435D01*
X170570184Y-115502262D01*
X170697738Y-115629816D01*
X170742865Y-115658171D01*
X170805833Y-115697737D01*
X170850478Y-115725789D01*
X171009274Y-115781354D01*
X171020745Y-115785368D01*
X171020750Y-115785369D01*
X171199996Y-115805565D01*
X171200000Y-115805565D01*
X171200004Y-115805565D01*
X171379249Y-115785369D01*
X171379252Y-115785368D01*
X171379255Y-115785368D01*
X171549522Y-115725789D01*
X171702262Y-115629816D01*
X171829816Y-115502262D01*
X171925789Y-115349522D01*
X171985368Y-115179255D01*
X171985369Y-115179249D01*
X172005565Y-115000003D01*
X172005565Y-114999996D01*
X171985369Y-114820750D01*
X171985368Y-114820745D01*
X171925788Y-114650476D01*
X171862955Y-114550478D01*
X171829816Y-114497738D01*
X171702262Y-114370184D01*
X171671532Y-114350875D01*
X171549523Y-114274211D01*
X171379254Y-114214631D01*
X171379249Y-114214630D01*
X171200004Y-114194435D01*
X171199996Y-114194435D01*
X171020750Y-114214630D01*
X171020745Y-114214631D01*
X170850476Y-114274211D01*
X170697737Y-114370184D01*
X170570184Y-114497737D01*
X170474211Y-114650476D01*
X170414631Y-114820745D01*
X170414630Y-114820750D01*
X170394435Y-114999996D01*
X170049999Y-114999996D01*
X170049999Y-114620028D01*
X170049998Y-114620013D01*
X170039505Y-114517302D01*
X169984358Y-114350880D01*
X169984356Y-114350875D01*
X169892315Y-114201654D01*
X169768345Y-114077684D01*
X169619124Y-113985643D01*
X169619119Y-113985641D01*
X169452697Y-113930494D01*
X169452690Y-113930493D01*
X169349986Y-113920000D01*
X167750000Y-113920000D01*
X167750000Y-115183519D01*
X167747936Y-115182665D01*
X167583718Y-115150000D01*
X167416282Y-115150000D01*
X167252064Y-115182665D01*
X167250000Y-115183519D01*
X167250000Y-113920000D01*
X165650028Y-113920000D01*
X165650012Y-113920001D01*
X165547302Y-113930494D01*
X165380880Y-113985641D01*
X165380875Y-113985643D01*
X165231654Y-114077684D01*
X165107684Y-114201654D01*
X165015643Y-114350875D01*
X165015641Y-114350880D01*
X164960494Y-114517302D01*
X164960493Y-114517309D01*
X164950000Y-114620013D01*
X164950000Y-115750000D01*
X166683520Y-115750000D01*
X166682665Y-115752064D01*
X166650000Y-115916282D01*
X166650000Y-116083718D01*
X166682665Y-116247936D01*
X166683520Y-116250000D01*
X164950001Y-116250000D01*
X164950001Y-117379986D01*
X164960494Y-117482697D01*
X165015641Y-117649119D01*
X165015643Y-117649124D01*
X165107684Y-117798345D01*
X165231654Y-117922315D01*
X165380875Y-118014356D01*
X165380880Y-118014358D01*
X165547302Y-118069505D01*
X165547309Y-118069506D01*
X165650019Y-118079999D01*
X165697174Y-118079999D01*
X165764213Y-118099682D01*
X165809969Y-118152485D01*
X165819914Y-118221644D01*
X165790891Y-118285200D01*
X165772663Y-118302374D01*
X165655292Y-118392437D01*
X165655282Y-118392445D01*
X165462445Y-118585282D01*
X165462439Y-118585289D01*
X165296415Y-118801656D01*
X165160054Y-119037840D01*
X165160047Y-119037855D01*
X165055684Y-119289811D01*
X164985097Y-119553245D01*
X164949501Y-119823627D01*
X164949500Y-119823643D01*
X152500000Y-119823643D01*
X152500000Y-116199996D01*
X153894435Y-116199996D01*
X153894435Y-116200003D01*
X153914630Y-116379249D01*
X153914631Y-116379254D01*
X153974211Y-116549523D01*
X154051207Y-116672060D01*
X154070184Y-116702262D01*
X154197738Y-116829816D01*
X154229861Y-116850000D01*
X154342450Y-116920745D01*
X154350478Y-116925789D01*
X154361984Y-116929815D01*
X154520745Y-116985368D01*
X154520750Y-116985369D01*
X154699996Y-117005565D01*
X154700000Y-117005565D01*
X154700004Y-117005565D01*
X154879249Y-116985369D01*
X154879252Y-116985368D01*
X154879255Y-116985368D01*
X155049522Y-116925789D01*
X155202262Y-116829816D01*
X155329816Y-116702262D01*
X155425789Y-116549522D01*
X155485368Y-116379255D01*
X155485369Y-116379249D01*
X155505565Y-116200003D01*
X155505565Y-116199996D01*
X155485369Y-116020750D01*
X155485368Y-116020745D01*
X155476011Y-115994005D01*
X155425789Y-115850478D01*
X155412457Y-115829261D01*
X155362654Y-115750000D01*
X155329816Y-115697738D01*
X155202262Y-115570184D01*
X155113852Y-115514632D01*
X155049523Y-115474211D01*
X154879254Y-115414631D01*
X154879249Y-115414630D01*
X154700004Y-115394435D01*
X154699996Y-115394435D01*
X154520750Y-115414630D01*
X154520745Y-115414631D01*
X154350476Y-115474211D01*
X154197737Y-115570184D01*
X154070184Y-115697737D01*
X153974211Y-115850476D01*
X153914631Y-116020745D01*
X153914630Y-116020750D01*
X153894435Y-116199996D01*
X152500000Y-116199996D01*
X152500000Y-114599996D01*
X159294435Y-114599996D01*
X159294435Y-114600003D01*
X159314630Y-114779249D01*
X159314631Y-114779254D01*
X159374211Y-114949523D01*
X159402643Y-114994772D01*
X159470184Y-115102262D01*
X159597738Y-115229816D01*
X159629100Y-115249522D01*
X159731491Y-115313859D01*
X159750478Y-115325789D01*
X159818306Y-115349523D01*
X159920745Y-115385368D01*
X159920750Y-115385369D01*
X160099996Y-115405565D01*
X160100000Y-115405565D01*
X160100004Y-115405565D01*
X160279249Y-115385369D01*
X160279252Y-115385368D01*
X160279255Y-115385368D01*
X160449522Y-115325789D01*
X160602262Y-115229816D01*
X160729816Y-115102262D01*
X160825789Y-114949522D01*
X160885368Y-114779255D01*
X160890676Y-114732146D01*
X160905565Y-114600003D01*
X160905565Y-114599996D01*
X160885369Y-114420750D01*
X160885368Y-114420745D01*
X160825789Y-114250478D01*
X160803265Y-114214632D01*
X160729815Y-114097737D01*
X160602262Y-113970184D01*
X160449523Y-113874211D01*
X160279254Y-113814631D01*
X160279249Y-113814630D01*
X160100004Y-113794435D01*
X160099996Y-113794435D01*
X159920750Y-113814630D01*
X159920745Y-113814631D01*
X159750476Y-113874211D01*
X159597737Y-113970184D01*
X159470184Y-114097737D01*
X159374211Y-114250476D01*
X159314631Y-114420745D01*
X159314630Y-114420750D01*
X159294435Y-114599996D01*
X152500000Y-114599996D01*
X152500000Y-110999996D01*
X154594435Y-110999996D01*
X154594435Y-111000003D01*
X154614630Y-111179249D01*
X154614631Y-111179254D01*
X154674211Y-111349523D01*
X154689724Y-111374211D01*
X154770184Y-111502262D01*
X154897738Y-111629816D01*
X155050478Y-111725789D01*
X155220745Y-111785368D01*
X155220750Y-111785369D01*
X155399996Y-111805565D01*
X155400000Y-111805565D01*
X155400004Y-111805565D01*
X155579249Y-111785369D01*
X155579252Y-111785368D01*
X155579255Y-111785368D01*
X155749522Y-111725789D01*
X155902262Y-111629816D01*
X156029816Y-111502262D01*
X156125789Y-111349522D01*
X156185368Y-111179255D01*
X156185369Y-111179249D01*
X156191482Y-111124996D01*
X158144435Y-111124996D01*
X158144435Y-111125003D01*
X158164630Y-111304249D01*
X158164631Y-111304254D01*
X158224211Y-111474523D01*
X158255628Y-111524522D01*
X158320184Y-111627262D01*
X158447738Y-111754816D01*
X158600478Y-111850789D01*
X158743370Y-111900789D01*
X158770745Y-111910368D01*
X158770750Y-111910369D01*
X158949996Y-111930565D01*
X158950000Y-111930565D01*
X158950004Y-111930565D01*
X159129249Y-111910369D01*
X159129252Y-111910368D01*
X159129255Y-111910368D01*
X159299522Y-111850789D01*
X159452262Y-111754816D01*
X159579816Y-111627262D01*
X159675789Y-111474522D01*
X159735368Y-111304255D01*
X159735369Y-111304249D01*
X159755565Y-111125003D01*
X159755565Y-111124996D01*
X159735369Y-110945750D01*
X159735368Y-110945745D01*
X159708627Y-110869325D01*
X159675789Y-110775478D01*
X159579816Y-110622738D01*
X159452262Y-110495184D01*
X159426902Y-110479249D01*
X159299523Y-110399211D01*
X159129254Y-110339631D01*
X159129249Y-110339630D01*
X158950004Y-110319435D01*
X158949996Y-110319435D01*
X158770750Y-110339630D01*
X158770745Y-110339631D01*
X158600476Y-110399211D01*
X158447737Y-110495184D01*
X158320184Y-110622737D01*
X158224211Y-110775476D01*
X158164631Y-110945745D01*
X158164630Y-110945750D01*
X158144435Y-111124996D01*
X156191482Y-111124996D01*
X156205565Y-111000003D01*
X156205565Y-110999996D01*
X156185369Y-110820750D01*
X156185368Y-110820745D01*
X156125789Y-110650478D01*
X156125188Y-110649522D01*
X156029815Y-110497737D01*
X155902262Y-110370184D01*
X155790559Y-110299996D01*
X165794435Y-110299996D01*
X165794435Y-110300003D01*
X165814630Y-110479249D01*
X165814631Y-110479254D01*
X165874211Y-110649523D01*
X165936881Y-110749261D01*
X165970184Y-110802262D01*
X166097738Y-110929816D01*
X166250478Y-111025789D01*
X166372105Y-111068348D01*
X166420745Y-111085368D01*
X166420750Y-111085369D01*
X166599996Y-111105565D01*
X166600000Y-111105565D01*
X166600004Y-111105565D01*
X166779249Y-111085369D01*
X166779252Y-111085368D01*
X166779255Y-111085368D01*
X166949522Y-111025789D01*
X167102262Y-110929816D01*
X167229816Y-110802262D01*
X167325789Y-110649522D01*
X167385368Y-110479255D01*
X167388753Y-110449211D01*
X167405565Y-110300003D01*
X167405565Y-110299996D01*
X167385369Y-110120750D01*
X167385368Y-110120745D01*
X167325788Y-109950476D01*
X167229815Y-109797737D01*
X167102262Y-109670184D01*
X166949523Y-109574211D01*
X166779254Y-109514631D01*
X166779249Y-109514630D01*
X166600004Y-109494435D01*
X166599996Y-109494435D01*
X166420750Y-109514630D01*
X166420745Y-109514631D01*
X166250476Y-109574211D01*
X166097737Y-109670184D01*
X165970184Y-109797737D01*
X165874211Y-109950476D01*
X165814631Y-110120745D01*
X165814630Y-110120750D01*
X165794435Y-110299996D01*
X155790559Y-110299996D01*
X155749523Y-110274211D01*
X155579254Y-110214631D01*
X155579249Y-110214630D01*
X155400004Y-110194435D01*
X155399996Y-110194435D01*
X155220750Y-110214630D01*
X155220745Y-110214631D01*
X155050476Y-110274211D01*
X154897737Y-110370184D01*
X154770184Y-110497737D01*
X154674211Y-110650476D01*
X154614631Y-110820745D01*
X154614630Y-110820750D01*
X154594435Y-110999996D01*
X152500000Y-110999996D01*
X152500000Y-105499996D01*
X154694435Y-105499996D01*
X154694435Y-105500003D01*
X154714630Y-105679249D01*
X154714631Y-105679254D01*
X154774211Y-105849523D01*
X154845931Y-105963664D01*
X154870184Y-106002262D01*
X154997738Y-106129816D01*
X155150478Y-106225789D01*
X155278135Y-106270458D01*
X155320745Y-106285368D01*
X155320750Y-106285369D01*
X155499996Y-106305565D01*
X155500000Y-106305565D01*
X155500004Y-106305565D01*
X155679249Y-106285369D01*
X155679252Y-106285368D01*
X155679255Y-106285368D01*
X155849522Y-106225789D01*
X156002262Y-106129816D01*
X156129816Y-106002262D01*
X156225789Y-105849522D01*
X156243119Y-105799996D01*
X160794435Y-105799996D01*
X160794435Y-105800003D01*
X160814630Y-105979249D01*
X160814631Y-105979254D01*
X160874211Y-106149523D01*
X160950200Y-106270458D01*
X160970184Y-106302262D01*
X161097738Y-106429816D01*
X161250478Y-106525789D01*
X161420745Y-106585368D01*
X161420750Y-106585369D01*
X161599996Y-106605565D01*
X161600000Y-106605565D01*
X161600004Y-106605565D01*
X161779249Y-106585369D01*
X161779252Y-106585368D01*
X161779255Y-106585368D01*
X161949522Y-106525789D01*
X162102262Y-106429816D01*
X162229816Y-106302262D01*
X162325789Y-106149522D01*
X162385368Y-105979255D01*
X162388818Y-105948638D01*
X162405565Y-105800003D01*
X162405565Y-105799996D01*
X162385369Y-105620750D01*
X162385368Y-105620745D01*
X162350376Y-105520745D01*
X162325789Y-105450478D01*
X162229816Y-105297738D01*
X162102262Y-105170184D01*
X162036957Y-105129150D01*
X161949523Y-105074211D01*
X161779254Y-105014631D01*
X161779249Y-105014630D01*
X161600004Y-104994435D01*
X161599996Y-104994435D01*
X161420750Y-105014630D01*
X161420745Y-105014631D01*
X161250476Y-105074211D01*
X161097737Y-105170184D01*
X160970184Y-105297737D01*
X160874211Y-105450476D01*
X160814631Y-105620745D01*
X160814630Y-105620750D01*
X160794435Y-105799996D01*
X156243119Y-105799996D01*
X156285368Y-105679255D01*
X156286494Y-105669261D01*
X156305565Y-105500003D01*
X156305565Y-105499996D01*
X156285369Y-105320750D01*
X156285368Y-105320745D01*
X156278108Y-105299996D01*
X156225789Y-105150478D01*
X156207106Y-105120745D01*
X156140431Y-105014632D01*
X156129816Y-104997738D01*
X156002262Y-104870184D01*
X155982526Y-104857783D01*
X155849523Y-104774211D01*
X155679254Y-104714631D01*
X155679249Y-104714630D01*
X155500004Y-104694435D01*
X155499996Y-104694435D01*
X155320750Y-104714630D01*
X155320745Y-104714631D01*
X155150476Y-104774211D01*
X154997737Y-104870184D01*
X154870184Y-104997737D01*
X154774211Y-105150476D01*
X154714631Y-105320745D01*
X154714630Y-105320750D01*
X154694435Y-105499996D01*
X152500000Y-105499996D01*
X152500000Y-103500000D01*
X151299996Y-102299996D01*
X164894435Y-102299996D01*
X164894435Y-102300003D01*
X164914630Y-102479249D01*
X164914631Y-102479254D01*
X164974211Y-102649523D01*
X165070184Y-102802262D01*
X165197738Y-102929816D01*
X165350478Y-103025789D01*
X165520745Y-103085368D01*
X165520750Y-103085369D01*
X165699996Y-103105565D01*
X165700000Y-103105565D01*
X165700004Y-103105565D01*
X165879249Y-103085369D01*
X165879252Y-103085368D01*
X165879255Y-103085368D01*
X166049522Y-103025789D01*
X166202262Y-102929816D01*
X166329816Y-102802262D01*
X166425789Y-102649522D01*
X166485368Y-102479255D01*
X166505565Y-102300000D01*
X166503556Y-102282171D01*
X166485369Y-102120750D01*
X166485368Y-102120745D01*
X166425788Y-101950476D01*
X166363714Y-101851687D01*
X166329816Y-101797738D01*
X166202262Y-101670184D01*
X166195925Y-101666202D01*
X166049523Y-101574211D01*
X165879254Y-101514631D01*
X165879249Y-101514630D01*
X165700004Y-101494435D01*
X165699996Y-101494435D01*
X165520750Y-101514630D01*
X165520745Y-101514631D01*
X165350476Y-101574211D01*
X165197737Y-101670184D01*
X165070184Y-101797737D01*
X164974211Y-101950476D01*
X164914631Y-102120745D01*
X164914630Y-102120750D01*
X164894435Y-102299996D01*
X151299996Y-102299996D01*
X149499996Y-100499996D01*
X175594435Y-100499996D01*
X175594435Y-100500003D01*
X175614630Y-100679249D01*
X175614631Y-100679254D01*
X175674211Y-100849523D01*
X175718963Y-100920745D01*
X175770184Y-101002262D01*
X175897738Y-101129816D01*
X176050478Y-101225789D01*
X176203275Y-101279255D01*
X176220745Y-101285368D01*
X176220750Y-101285369D01*
X176399996Y-101305565D01*
X176400000Y-101305565D01*
X176400004Y-101305565D01*
X176579249Y-101285369D01*
X176579252Y-101285368D01*
X176579255Y-101285368D01*
X176749522Y-101225789D01*
X176902262Y-101129816D01*
X177029816Y-101002262D01*
X177125789Y-100849522D01*
X177185368Y-100679255D01*
X177205565Y-100500000D01*
X177191392Y-100374211D01*
X177185369Y-100320750D01*
X177185368Y-100320745D01*
X177125788Y-100150476D01*
X177029815Y-99997737D01*
X176902262Y-99870184D01*
X176749523Y-99774211D01*
X176579254Y-99714631D01*
X176579249Y-99714630D01*
X176400004Y-99694435D01*
X176399996Y-99694435D01*
X176220750Y-99714630D01*
X176220745Y-99714631D01*
X176050476Y-99774211D01*
X175897737Y-99870184D01*
X175770184Y-99997737D01*
X175674211Y-100150476D01*
X175614631Y-100320745D01*
X175614630Y-100320750D01*
X175594435Y-100499996D01*
X149499996Y-100499996D01*
X148500000Y-99500000D01*
X120543497Y-99500000D01*
X120476458Y-99480315D01*
X120466035Y-99472828D01*
X120062495Y-99149996D01*
X157994435Y-99149996D01*
X157994435Y-99150003D01*
X158014630Y-99329249D01*
X158014631Y-99329254D01*
X158074211Y-99499523D01*
X158074511Y-99500000D01*
X158170184Y-99652262D01*
X158297738Y-99779816D01*
X158388080Y-99836582D01*
X158441557Y-99870184D01*
X158450478Y-99875789D01*
X158620745Y-99935368D01*
X158620750Y-99935369D01*
X158799996Y-99955565D01*
X158800000Y-99955565D01*
X158800004Y-99955565D01*
X158979249Y-99935369D01*
X158979252Y-99935368D01*
X158979255Y-99935368D01*
X159149522Y-99875789D01*
X159302262Y-99779816D01*
X159429816Y-99652262D01*
X159525789Y-99499522D01*
X159585368Y-99329255D01*
X159585369Y-99329249D01*
X159605565Y-99150003D01*
X159605565Y-99149996D01*
X159585369Y-98970750D01*
X159585368Y-98970745D01*
X159525788Y-98800476D01*
X159453461Y-98685369D01*
X159429816Y-98647738D01*
X159302262Y-98520184D01*
X159149523Y-98424211D01*
X158979254Y-98364631D01*
X158979249Y-98364630D01*
X158800004Y-98344435D01*
X158799996Y-98344435D01*
X158620750Y-98364630D01*
X158620745Y-98364631D01*
X158450476Y-98424211D01*
X158297737Y-98520184D01*
X158170184Y-98647737D01*
X158074211Y-98800476D01*
X158014631Y-98970745D01*
X158014630Y-98970750D01*
X157994435Y-99149996D01*
X120062495Y-99149996D01*
X117749995Y-97299996D01*
X129194435Y-97299996D01*
X129194435Y-97300003D01*
X129214630Y-97479249D01*
X129214631Y-97479254D01*
X129274211Y-97649523D01*
X129324663Y-97729816D01*
X129370184Y-97802262D01*
X129497738Y-97929816D01*
X129650478Y-98025789D01*
X129653242Y-98026756D01*
X129820745Y-98085368D01*
X129820750Y-98085369D01*
X129999996Y-98105565D01*
X130000000Y-98105565D01*
X130000004Y-98105565D01*
X130179249Y-98085369D01*
X130179252Y-98085368D01*
X130179255Y-98085368D01*
X130349522Y-98025789D01*
X130502262Y-97929816D01*
X130532082Y-97899996D01*
X142794435Y-97899996D01*
X142794435Y-97900003D01*
X142814630Y-98079249D01*
X142814631Y-98079254D01*
X142874211Y-98249523D01*
X142899763Y-98290188D01*
X142970184Y-98402262D01*
X143097738Y-98529816D01*
X143250478Y-98625789D01*
X143313202Y-98647737D01*
X143420745Y-98685368D01*
X143420750Y-98685369D01*
X143599996Y-98705565D01*
X143600000Y-98705565D01*
X143600004Y-98705565D01*
X143779249Y-98685369D01*
X143779252Y-98685368D01*
X143779255Y-98685368D01*
X143949522Y-98625789D01*
X144102262Y-98529816D01*
X144229816Y-98402262D01*
X144325789Y-98249522D01*
X144385368Y-98079255D01*
X144391283Y-98026756D01*
X144405565Y-97900003D01*
X144405565Y-97899996D01*
X144385369Y-97720750D01*
X144385368Y-97720745D01*
X144325788Y-97550476D01*
X144283794Y-97483643D01*
X165344500Y-97483643D01*
X165344500Y-97756356D01*
X165344501Y-97756372D01*
X165380097Y-98026754D01*
X165450684Y-98290188D01*
X165555047Y-98542144D01*
X165555054Y-98542159D01*
X165691415Y-98778343D01*
X165857439Y-98994710D01*
X165857445Y-98994717D01*
X166050282Y-99187554D01*
X166050289Y-99187560D01*
X166266656Y-99353584D01*
X166502840Y-99489945D01*
X166502855Y-99489952D01*
X166633154Y-99543923D01*
X166754810Y-99594315D01*
X167018244Y-99664902D01*
X167288637Y-99700500D01*
X167288644Y-99700500D01*
X168501356Y-99700500D01*
X168501363Y-99700500D01*
X168771756Y-99664902D01*
X169035190Y-99594315D01*
X169287156Y-99489947D01*
X169523344Y-99353584D01*
X169739712Y-99187559D01*
X169932559Y-98994712D01*
X170098584Y-98778344D01*
X170234947Y-98542156D01*
X170339315Y-98290190D01*
X170409902Y-98026756D01*
X170445500Y-97756363D01*
X170445500Y-97483643D01*
X176449500Y-97483643D01*
X176449500Y-97756356D01*
X176449501Y-97756372D01*
X176485097Y-98026754D01*
X176555684Y-98290188D01*
X176660047Y-98542144D01*
X176660054Y-98542159D01*
X176796415Y-98778343D01*
X176962439Y-98994710D01*
X176962445Y-98994717D01*
X177155282Y-99187554D01*
X177155289Y-99187560D01*
X177371656Y-99353584D01*
X177607840Y-99489945D01*
X177607855Y-99489952D01*
X177738154Y-99543923D01*
X177859810Y-99594315D01*
X178123244Y-99664902D01*
X178393637Y-99700500D01*
X178393644Y-99700500D01*
X179606356Y-99700500D01*
X179606363Y-99700500D01*
X179876756Y-99664902D01*
X180140190Y-99594315D01*
X180392156Y-99489947D01*
X180628344Y-99353584D01*
X180844712Y-99187559D01*
X181037559Y-98994712D01*
X181203584Y-98778344D01*
X181339947Y-98542156D01*
X181444315Y-98290190D01*
X181514902Y-98026756D01*
X181550500Y-97756363D01*
X181550500Y-97483637D01*
X181514902Y-97213244D01*
X181444315Y-96949810D01*
X181339947Y-96697844D01*
X181203584Y-96461656D01*
X181037559Y-96245288D01*
X181037554Y-96245282D01*
X180844717Y-96052445D01*
X180844710Y-96052439D01*
X180727336Y-95962375D01*
X180686133Y-95905947D01*
X180681978Y-95836201D01*
X180716190Y-95775281D01*
X180777907Y-95742528D01*
X180802822Y-95739999D01*
X180849972Y-95739999D01*
X180849986Y-95739998D01*
X180952697Y-95729505D01*
X181119119Y-95674358D01*
X181119124Y-95674356D01*
X181268345Y-95582315D01*
X181392315Y-95458345D01*
X181484356Y-95309124D01*
X181484358Y-95309119D01*
X181539505Y-95142697D01*
X181539506Y-95142690D01*
X181549999Y-95039986D01*
X181550000Y-95039973D01*
X181550000Y-93910000D01*
X179816480Y-93910000D01*
X179817335Y-93907936D01*
X179850000Y-93743718D01*
X179850000Y-93576282D01*
X179817335Y-93412064D01*
X179816480Y-93410000D01*
X181549999Y-93410000D01*
X181549999Y-92280028D01*
X181549998Y-92280013D01*
X181539505Y-92177302D01*
X181484358Y-92010880D01*
X181484356Y-92010875D01*
X181392315Y-91861654D01*
X181268345Y-91737684D01*
X181119124Y-91645643D01*
X181119119Y-91645641D01*
X180952697Y-91590494D01*
X180952690Y-91590493D01*
X180849986Y-91580000D01*
X179250000Y-91580000D01*
X179250000Y-92843519D01*
X179247936Y-92842665D01*
X179083718Y-92810000D01*
X178916282Y-92810000D01*
X178752064Y-92842665D01*
X178750000Y-92843519D01*
X178750000Y-91580000D01*
X177150028Y-91580000D01*
X177150012Y-91580001D01*
X177047302Y-91590494D01*
X176880880Y-91645641D01*
X176880875Y-91645643D01*
X176731654Y-91737684D01*
X176607684Y-91861654D01*
X176515643Y-92010875D01*
X176515641Y-92010880D01*
X176460494Y-92177302D01*
X176460493Y-92177309D01*
X176450000Y-92280013D01*
X176450000Y-93410000D01*
X178183520Y-93410000D01*
X178182665Y-93412064D01*
X178150000Y-93576282D01*
X178150000Y-93743718D01*
X178182665Y-93907936D01*
X178183520Y-93910000D01*
X176450001Y-93910000D01*
X176450001Y-95039986D01*
X176460494Y-95142697D01*
X176515641Y-95309119D01*
X176515643Y-95309124D01*
X176607684Y-95458345D01*
X176731654Y-95582315D01*
X176880875Y-95674356D01*
X176880880Y-95674358D01*
X177047302Y-95729505D01*
X177047309Y-95729506D01*
X177150019Y-95739999D01*
X177197174Y-95739999D01*
X177264213Y-95759682D01*
X177309969Y-95812485D01*
X177319914Y-95881644D01*
X177290891Y-95945200D01*
X177272663Y-95962374D01*
X177155292Y-96052437D01*
X177155282Y-96052445D01*
X176962445Y-96245282D01*
X176962439Y-96245289D01*
X176796415Y-96461656D01*
X176660054Y-96697840D01*
X176660047Y-96697855D01*
X176555684Y-96949811D01*
X176485097Y-97213245D01*
X176449501Y-97483627D01*
X176449500Y-97483643D01*
X170445500Y-97483643D01*
X170445500Y-97483637D01*
X170409902Y-97213244D01*
X170339315Y-96949810D01*
X170234947Y-96697844D01*
X170098584Y-96461656D01*
X169932559Y-96245288D01*
X169932554Y-96245282D01*
X169739717Y-96052445D01*
X169739710Y-96052439D01*
X169622336Y-95962375D01*
X169581133Y-95905947D01*
X169576978Y-95836201D01*
X169611190Y-95775281D01*
X169672907Y-95742528D01*
X169697822Y-95739999D01*
X169744972Y-95739999D01*
X169744986Y-95739998D01*
X169847697Y-95729505D01*
X170014119Y-95674358D01*
X170014124Y-95674356D01*
X170134680Y-95599996D01*
X172794435Y-95599996D01*
X172794435Y-95600003D01*
X172814630Y-95779249D01*
X172814631Y-95779254D01*
X172874211Y-95949523D01*
X172882286Y-95962374D01*
X172970184Y-96102262D01*
X173097738Y-96229816D01*
X173188080Y-96286582D01*
X173232721Y-96314632D01*
X173250478Y-96325789D01*
X173388860Y-96374211D01*
X173420745Y-96385368D01*
X173420750Y-96385369D01*
X173599996Y-96405565D01*
X173600000Y-96405565D01*
X173600004Y-96405565D01*
X173779249Y-96385369D01*
X173779252Y-96385368D01*
X173779255Y-96385368D01*
X173949522Y-96325789D01*
X174102262Y-96229816D01*
X174229816Y-96102262D01*
X174325789Y-95949522D01*
X174385368Y-95779255D01*
X174385816Y-95775281D01*
X174405565Y-95600003D01*
X174405565Y-95599996D01*
X174385369Y-95420750D01*
X174385368Y-95420745D01*
X174325788Y-95250476D01*
X174286582Y-95188080D01*
X174229816Y-95097738D01*
X174102262Y-94970184D01*
X174038017Y-94929816D01*
X173949523Y-94874211D01*
X173779254Y-94814631D01*
X173779249Y-94814630D01*
X173600004Y-94794435D01*
X173599996Y-94794435D01*
X173420750Y-94814630D01*
X173420745Y-94814631D01*
X173250476Y-94874211D01*
X173097737Y-94970184D01*
X172970184Y-95097737D01*
X172874211Y-95250476D01*
X172814631Y-95420745D01*
X172814630Y-95420750D01*
X172794435Y-95599996D01*
X170134680Y-95599996D01*
X170163345Y-95582315D01*
X170287315Y-95458345D01*
X170379356Y-95309124D01*
X170379358Y-95309119D01*
X170434505Y-95142697D01*
X170434506Y-95142690D01*
X170444999Y-95039986D01*
X170445000Y-95039973D01*
X170445000Y-93910000D01*
X168711480Y-93910000D01*
X168712335Y-93907936D01*
X168745000Y-93743718D01*
X168745000Y-93576282D01*
X168712335Y-93412064D01*
X168711480Y-93410000D01*
X170444999Y-93410000D01*
X170444999Y-93299996D01*
X170994435Y-93299996D01*
X170994435Y-93300003D01*
X171014630Y-93479249D01*
X171014631Y-93479254D01*
X171074211Y-93649523D01*
X171128152Y-93735369D01*
X171170184Y-93802262D01*
X171297738Y-93929816D01*
X171450478Y-94025789D01*
X171555752Y-94062626D01*
X171620745Y-94085368D01*
X171620750Y-94085369D01*
X171799996Y-94105565D01*
X171800000Y-94105565D01*
X171800004Y-94105565D01*
X171979249Y-94085369D01*
X171979252Y-94085368D01*
X171979255Y-94085368D01*
X172149522Y-94025789D01*
X172302262Y-93929816D01*
X172429816Y-93802262D01*
X172525789Y-93649522D01*
X172585368Y-93479255D01*
X172585369Y-93479249D01*
X172605565Y-93300003D01*
X172605565Y-93299996D01*
X172585369Y-93120750D01*
X172585368Y-93120745D01*
X172559821Y-93047737D01*
X172525789Y-92950478D01*
X172429816Y-92797738D01*
X172302262Y-92670184D01*
X172191326Y-92600478D01*
X172149523Y-92574211D01*
X171979254Y-92514631D01*
X171979249Y-92514630D01*
X171800004Y-92494435D01*
X171799996Y-92494435D01*
X171620750Y-92514630D01*
X171620745Y-92514631D01*
X171450476Y-92574211D01*
X171297737Y-92670184D01*
X171170184Y-92797737D01*
X171074211Y-92950476D01*
X171014631Y-93120745D01*
X171014630Y-93120750D01*
X170994435Y-93299996D01*
X170444999Y-93299996D01*
X170444999Y-92280028D01*
X170444998Y-92280013D01*
X170434505Y-92177302D01*
X170379358Y-92010880D01*
X170379356Y-92010875D01*
X170287315Y-91861654D01*
X170163345Y-91737684D01*
X170014124Y-91645643D01*
X170014119Y-91645641D01*
X169847697Y-91590494D01*
X169847690Y-91590493D01*
X169744986Y-91580000D01*
X168145000Y-91580000D01*
X168145000Y-92843519D01*
X168142936Y-92842665D01*
X167978718Y-92810000D01*
X167811282Y-92810000D01*
X167647064Y-92842665D01*
X167645000Y-92843519D01*
X167645000Y-91580000D01*
X166045028Y-91580000D01*
X166045012Y-91580001D01*
X165942302Y-91590494D01*
X165775880Y-91645641D01*
X165775875Y-91645643D01*
X165626654Y-91737684D01*
X165502684Y-91861654D01*
X165410643Y-92010875D01*
X165410641Y-92010880D01*
X165355494Y-92177302D01*
X165355493Y-92177309D01*
X165345000Y-92280013D01*
X165345000Y-93410000D01*
X167078520Y-93410000D01*
X167077665Y-93412064D01*
X167045000Y-93576282D01*
X167045000Y-93743718D01*
X167077665Y-93907936D01*
X167078520Y-93910000D01*
X165345001Y-93910000D01*
X165345001Y-95039986D01*
X165355494Y-95142697D01*
X165410641Y-95309119D01*
X165410643Y-95309124D01*
X165502684Y-95458345D01*
X165626654Y-95582315D01*
X165775875Y-95674356D01*
X165775880Y-95674358D01*
X165942302Y-95729505D01*
X165942309Y-95729506D01*
X166045019Y-95739999D01*
X166092174Y-95739999D01*
X166159213Y-95759682D01*
X166204969Y-95812485D01*
X166214914Y-95881644D01*
X166185891Y-95945200D01*
X166167663Y-95962374D01*
X166050292Y-96052437D01*
X166050282Y-96052445D01*
X165857445Y-96245282D01*
X165857439Y-96245289D01*
X165691415Y-96461656D01*
X165555054Y-96697840D01*
X165555047Y-96697855D01*
X165450684Y-96949811D01*
X165380097Y-97213245D01*
X165344501Y-97483627D01*
X165344500Y-97483643D01*
X144283794Y-97483643D01*
X144229815Y-97397737D01*
X144102262Y-97270184D01*
X143949523Y-97174211D01*
X143779254Y-97114631D01*
X143779249Y-97114630D01*
X143600004Y-97094435D01*
X143599996Y-97094435D01*
X143420750Y-97114630D01*
X143420745Y-97114631D01*
X143250476Y-97174211D01*
X143097737Y-97270184D01*
X142970184Y-97397737D01*
X142874211Y-97550476D01*
X142814631Y-97720745D01*
X142814630Y-97720750D01*
X142794435Y-97899996D01*
X130532082Y-97899996D01*
X130629816Y-97802262D01*
X130725789Y-97649522D01*
X130785368Y-97479255D01*
X130805565Y-97300000D01*
X130795790Y-97213245D01*
X130785369Y-97120750D01*
X130785368Y-97120745D01*
X130725788Y-96950476D01*
X130629815Y-96797737D01*
X130502262Y-96670184D01*
X130349523Y-96574211D01*
X130179254Y-96514631D01*
X130179249Y-96514630D01*
X130000004Y-96494435D01*
X129999996Y-96494435D01*
X129820750Y-96514630D01*
X129820745Y-96514631D01*
X129650476Y-96574211D01*
X129497737Y-96670184D01*
X129370184Y-96797737D01*
X129274211Y-96950476D01*
X129214631Y-97120745D01*
X129214630Y-97120750D01*
X129194435Y-97299996D01*
X117749995Y-97299996D01*
X113999995Y-94299996D01*
X117094435Y-94299996D01*
X117094435Y-94300003D01*
X117114630Y-94479249D01*
X117114631Y-94479254D01*
X117174211Y-94649523D01*
X117265266Y-94794435D01*
X117270184Y-94802262D01*
X117397738Y-94929816D01*
X117550478Y-95025789D01*
X117591014Y-95039973D01*
X117720745Y-95085368D01*
X117720750Y-95085369D01*
X117899996Y-95105565D01*
X117900000Y-95105565D01*
X117900004Y-95105565D01*
X118079249Y-95085369D01*
X118079252Y-95085368D01*
X118079255Y-95085368D01*
X118249522Y-95025789D01*
X118402262Y-94929816D01*
X118529816Y-94802262D01*
X118625789Y-94649522D01*
X118685368Y-94479255D01*
X118685369Y-94479249D01*
X118705565Y-94300003D01*
X118705565Y-94299996D01*
X118685369Y-94120750D01*
X118685368Y-94120745D01*
X118625788Y-93950476D01*
X118534734Y-93805565D01*
X118529816Y-93797738D01*
X118402262Y-93670184D01*
X118338017Y-93629816D01*
X118249523Y-93574211D01*
X118079254Y-93514631D01*
X118079249Y-93514630D01*
X117900004Y-93494435D01*
X117899996Y-93494435D01*
X117720750Y-93514630D01*
X117720745Y-93514631D01*
X117550476Y-93574211D01*
X117397737Y-93670184D01*
X117270184Y-93797737D01*
X117174211Y-93950476D01*
X117114631Y-94120745D01*
X117114630Y-94120750D01*
X117094435Y-94299996D01*
X113999995Y-94299996D01*
X113046538Y-93537230D01*
X113006486Y-93479979D01*
X113000000Y-93440402D01*
X113000000Y-92999996D01*
X153619435Y-92999996D01*
X153619435Y-93000003D01*
X153639630Y-93179249D01*
X153639631Y-93179254D01*
X153699211Y-93349523D01*
X153763767Y-93452262D01*
X153795184Y-93502262D01*
X153922738Y-93629816D01*
X154075478Y-93725789D01*
X154160573Y-93755565D01*
X154245745Y-93785368D01*
X154245750Y-93785369D01*
X154424996Y-93805565D01*
X154425000Y-93805565D01*
X154425004Y-93805565D01*
X154604249Y-93785369D01*
X154604252Y-93785368D01*
X154604255Y-93785368D01*
X154774522Y-93725789D01*
X154927262Y-93629816D01*
X155054816Y-93502262D01*
X155150789Y-93349522D01*
X155210368Y-93179255D01*
X155216002Y-93129254D01*
X155230565Y-93000003D01*
X155230565Y-92999996D01*
X155224931Y-92949996D01*
X157144435Y-92949996D01*
X157144435Y-92950003D01*
X157164630Y-93129249D01*
X157164631Y-93129254D01*
X157224211Y-93299523D01*
X157293629Y-93410000D01*
X157320184Y-93452262D01*
X157447738Y-93579816D01*
X157538080Y-93636582D01*
X157591557Y-93670184D01*
X157600478Y-93675789D01*
X157743367Y-93725788D01*
X157770745Y-93735368D01*
X157770750Y-93735369D01*
X157949996Y-93755565D01*
X157950000Y-93755565D01*
X157950004Y-93755565D01*
X158129249Y-93735369D01*
X158129252Y-93735368D01*
X158129255Y-93735368D01*
X158299522Y-93675789D01*
X158452262Y-93579816D01*
X158482082Y-93549996D01*
X160519435Y-93549996D01*
X160519435Y-93550003D01*
X160539630Y-93729249D01*
X160539631Y-93729254D01*
X160599211Y-93899523D01*
X160678549Y-94025788D01*
X160695184Y-94052262D01*
X160822738Y-94179816D01*
X160975478Y-94275789D01*
X161044678Y-94300003D01*
X161145745Y-94335368D01*
X161145750Y-94335369D01*
X161324996Y-94355565D01*
X161325000Y-94355565D01*
X161325004Y-94355565D01*
X161504249Y-94335369D01*
X161504252Y-94335368D01*
X161504255Y-94335368D01*
X161674522Y-94275789D01*
X161827262Y-94179816D01*
X161954816Y-94052262D01*
X162050789Y-93899522D01*
X162110368Y-93729255D01*
X162116392Y-93675789D01*
X162130565Y-93550003D01*
X162130565Y-93549996D01*
X162110369Y-93370750D01*
X162110368Y-93370745D01*
X162050788Y-93200476D01*
X162006033Y-93129249D01*
X161954816Y-93047738D01*
X161827262Y-92920184D01*
X161805866Y-92906740D01*
X161674523Y-92824211D01*
X161504254Y-92764631D01*
X161504249Y-92764630D01*
X161325004Y-92744435D01*
X161324996Y-92744435D01*
X161145750Y-92764630D01*
X161145745Y-92764631D01*
X160975476Y-92824211D01*
X160822737Y-92920184D01*
X160695184Y-93047737D01*
X160599211Y-93200476D01*
X160539631Y-93370745D01*
X160539630Y-93370750D01*
X160519435Y-93549996D01*
X158482082Y-93549996D01*
X158579816Y-93452262D01*
X158675789Y-93299522D01*
X158735368Y-93129255D01*
X158735369Y-93129249D01*
X158755565Y-92950003D01*
X158755565Y-92949996D01*
X158735369Y-92770750D01*
X158735368Y-92770745D01*
X158675788Y-92600476D01*
X158579815Y-92447737D01*
X158452262Y-92320184D01*
X158299523Y-92224211D01*
X158129254Y-92164631D01*
X158129249Y-92164630D01*
X157950004Y-92144435D01*
X157949996Y-92144435D01*
X157770750Y-92164630D01*
X157770745Y-92164631D01*
X157600476Y-92224211D01*
X157447737Y-92320184D01*
X157320184Y-92447737D01*
X157224211Y-92600476D01*
X157164631Y-92770745D01*
X157164630Y-92770750D01*
X157144435Y-92949996D01*
X155224931Y-92949996D01*
X155210369Y-92820750D01*
X155210368Y-92820745D01*
X155206608Y-92810000D01*
X155150789Y-92650478D01*
X155054816Y-92497738D01*
X154927262Y-92370184D01*
X154824422Y-92305565D01*
X154774523Y-92274211D01*
X154604254Y-92214631D01*
X154604249Y-92214630D01*
X154425004Y-92194435D01*
X154424996Y-92194435D01*
X154245750Y-92214630D01*
X154245745Y-92214631D01*
X154075476Y-92274211D01*
X153922737Y-92370184D01*
X153795184Y-92497737D01*
X153699211Y-92650476D01*
X153639631Y-92820745D01*
X153639630Y-92820750D01*
X153619435Y-92999996D01*
X113000000Y-92999996D01*
X113000000Y-91299996D01*
X136594435Y-91299996D01*
X136594435Y-91300003D01*
X136614630Y-91479249D01*
X136614631Y-91479254D01*
X136674211Y-91649523D01*
X136729607Y-91737684D01*
X136770184Y-91802262D01*
X136897738Y-91929816D01*
X136951634Y-91963681D01*
X137049228Y-92025004D01*
X137050478Y-92025789D01*
X137220745Y-92085368D01*
X137220750Y-92085369D01*
X137399996Y-92105565D01*
X137400000Y-92105565D01*
X137400004Y-92105565D01*
X137579249Y-92085369D01*
X137579252Y-92085368D01*
X137579255Y-92085368D01*
X137749522Y-92025789D01*
X137902262Y-91929816D01*
X138029816Y-91802262D01*
X138125789Y-91649522D01*
X138178110Y-91499996D01*
X146594435Y-91499996D01*
X146594435Y-91500003D01*
X146614630Y-91679249D01*
X146614631Y-91679254D01*
X146674211Y-91849523D01*
X146724662Y-91929815D01*
X146770184Y-92002262D01*
X146897738Y-92129816D01*
X146973323Y-92177309D01*
X147047966Y-92224211D01*
X147050478Y-92225789D01*
X147188860Y-92274211D01*
X147220745Y-92285368D01*
X147220750Y-92285369D01*
X147399996Y-92305565D01*
X147400000Y-92305565D01*
X147400004Y-92305565D01*
X147579249Y-92285369D01*
X147579252Y-92285368D01*
X147579255Y-92285368D01*
X147749522Y-92225789D01*
X147902262Y-92129816D01*
X148029816Y-92002262D01*
X148125789Y-91849522D01*
X148185368Y-91679255D01*
X148189155Y-91645643D01*
X148205565Y-91500003D01*
X148205565Y-91499996D01*
X148185369Y-91320750D01*
X148185368Y-91320745D01*
X148125788Y-91150476D01*
X148054058Y-91036319D01*
X148029816Y-90997738D01*
X147902262Y-90870184D01*
X147831608Y-90825789D01*
X147749523Y-90774211D01*
X147579254Y-90714631D01*
X147579249Y-90714630D01*
X147400004Y-90694435D01*
X147399996Y-90694435D01*
X147220750Y-90714630D01*
X147220745Y-90714631D01*
X147050476Y-90774211D01*
X146897737Y-90870184D01*
X146770184Y-90997737D01*
X146674211Y-91150476D01*
X146614631Y-91320745D01*
X146614630Y-91320750D01*
X146594435Y-91499996D01*
X138178110Y-91499996D01*
X138185368Y-91479255D01*
X138205565Y-91300000D01*
X138188718Y-91150478D01*
X138185369Y-91120750D01*
X138185368Y-91120745D01*
X138152141Y-91025788D01*
X138125789Y-90950478D01*
X138029816Y-90797738D01*
X137902262Y-90670184D01*
X137869379Y-90649522D01*
X137749523Y-90574211D01*
X137579254Y-90514631D01*
X137579249Y-90514630D01*
X137400004Y-90494435D01*
X137399996Y-90494435D01*
X137220750Y-90514630D01*
X137220745Y-90514631D01*
X137050476Y-90574211D01*
X136897737Y-90670184D01*
X136770184Y-90797737D01*
X136674211Y-90950476D01*
X136614631Y-91120745D01*
X136614630Y-91120750D01*
X136594435Y-91299996D01*
X113000000Y-91299996D01*
X113000000Y-90299996D01*
X117294435Y-90299996D01*
X117294435Y-90300003D01*
X117314630Y-90479249D01*
X117314631Y-90479254D01*
X117374211Y-90649523D01*
X117415122Y-90714632D01*
X117470184Y-90802262D01*
X117597738Y-90929816D01*
X117688080Y-90986582D01*
X117740763Y-91019685D01*
X117750478Y-91025789D01*
X117920745Y-91085368D01*
X117920750Y-91085369D01*
X118099996Y-91105565D01*
X118100000Y-91105565D01*
X118100004Y-91105565D01*
X118279249Y-91085369D01*
X118279252Y-91085368D01*
X118279255Y-91085368D01*
X118449522Y-91025789D01*
X118602262Y-90929816D01*
X118729816Y-90802262D01*
X118825789Y-90649522D01*
X118885368Y-90479255D01*
X118905565Y-90300000D01*
X118885368Y-90120745D01*
X118878108Y-90099996D01*
X125994435Y-90099996D01*
X125994435Y-90100003D01*
X126014630Y-90279249D01*
X126014631Y-90279254D01*
X126074211Y-90449523D01*
X126115122Y-90514632D01*
X126170184Y-90602262D01*
X126297738Y-90729816D01*
X126368392Y-90774211D01*
X126405833Y-90797737D01*
X126450478Y-90825789D01*
X126577352Y-90870184D01*
X126620745Y-90885368D01*
X126620750Y-90885369D01*
X126799996Y-90905565D01*
X126800000Y-90905565D01*
X126800004Y-90905565D01*
X126979249Y-90885369D01*
X126979252Y-90885368D01*
X126979255Y-90885368D01*
X127149522Y-90825789D01*
X127302262Y-90729816D01*
X127429816Y-90602262D01*
X127525789Y-90449522D01*
X127585368Y-90279255D01*
X127605565Y-90100000D01*
X127588718Y-89950478D01*
X127585369Y-89920750D01*
X127585368Y-89920745D01*
X127542326Y-89797738D01*
X127525789Y-89750478D01*
X127429816Y-89597738D01*
X127302262Y-89470184D01*
X127238017Y-89429816D01*
X127149523Y-89374211D01*
X126979254Y-89314631D01*
X126979249Y-89314630D01*
X126800004Y-89294435D01*
X126799996Y-89294435D01*
X126620750Y-89314630D01*
X126620745Y-89314631D01*
X126450476Y-89374211D01*
X126297737Y-89470184D01*
X126170184Y-89597737D01*
X126074211Y-89750476D01*
X126014631Y-89920745D01*
X126014630Y-89920750D01*
X125994435Y-90099996D01*
X118878108Y-90099996D01*
X118825789Y-89950478D01*
X118807106Y-89920745D01*
X118729815Y-89797737D01*
X118602262Y-89670184D01*
X118449523Y-89574211D01*
X118279254Y-89514631D01*
X118279249Y-89514630D01*
X118100004Y-89494435D01*
X118099996Y-89494435D01*
X117920750Y-89514630D01*
X117920745Y-89514631D01*
X117750476Y-89574211D01*
X117597737Y-89670184D01*
X117470184Y-89797737D01*
X117374211Y-89950476D01*
X117314631Y-90120745D01*
X117314630Y-90120750D01*
X117294435Y-90299996D01*
X113000000Y-90299996D01*
X113000000Y-88799996D01*
X166494435Y-88799996D01*
X166494435Y-88800003D01*
X166514630Y-88979249D01*
X166514631Y-88979254D01*
X166574211Y-89149523D01*
X166579849Y-89158495D01*
X166670184Y-89302262D01*
X166797738Y-89429816D01*
X166861983Y-89470184D01*
X166932721Y-89514632D01*
X166950478Y-89525789D01*
X167088860Y-89574211D01*
X167120745Y-89585368D01*
X167120750Y-89585369D01*
X167299996Y-89605565D01*
X167300000Y-89605565D01*
X167300004Y-89605565D01*
X167479249Y-89585369D01*
X167479252Y-89585368D01*
X167479255Y-89585368D01*
X167649522Y-89525789D01*
X167802262Y-89429816D01*
X167929816Y-89302262D01*
X168025789Y-89149522D01*
X168085368Y-88979255D01*
X168085369Y-88979249D01*
X168105565Y-88800003D01*
X168105565Y-88799996D01*
X168085369Y-88620750D01*
X168085368Y-88620745D01*
X168025788Y-88450476D01*
X167929815Y-88297737D01*
X167802262Y-88170184D01*
X167649523Y-88074211D01*
X167479254Y-88014631D01*
X167479249Y-88014630D01*
X167300004Y-87994435D01*
X167299996Y-87994435D01*
X167120750Y-88014630D01*
X167120745Y-88014631D01*
X166950476Y-88074211D01*
X166797737Y-88170184D01*
X166670184Y-88297737D01*
X166574211Y-88450476D01*
X166514631Y-88620745D01*
X166514630Y-88620750D01*
X166494435Y-88799996D01*
X113000000Y-88799996D01*
X113000000Y-85199996D01*
X113894435Y-85199996D01*
X113894435Y-85200003D01*
X113914630Y-85379249D01*
X113914631Y-85379254D01*
X113974211Y-85549523D01*
X113996735Y-85585369D01*
X114070184Y-85702262D01*
X114197738Y-85829816D01*
X114350478Y-85925789D01*
X114503275Y-85979255D01*
X114520745Y-85985368D01*
X114520750Y-85985369D01*
X114699996Y-86005565D01*
X114700000Y-86005565D01*
X114700004Y-86005565D01*
X114879249Y-85985369D01*
X114879252Y-85985368D01*
X114879255Y-85985368D01*
X115049522Y-85925789D01*
X115202262Y-85829816D01*
X115329816Y-85702262D01*
X115425789Y-85549522D01*
X115485368Y-85379255D01*
X115485369Y-85379249D01*
X115505565Y-85200003D01*
X115505565Y-85199996D01*
X115485369Y-85020750D01*
X115485368Y-85020745D01*
X115483229Y-85014632D01*
X115425789Y-84850478D01*
X115403265Y-84814632D01*
X115331237Y-84700000D01*
X115329816Y-84697738D01*
X115202262Y-84570184D01*
X115049523Y-84474211D01*
X114879254Y-84414631D01*
X114879249Y-84414630D01*
X114700004Y-84394435D01*
X114699996Y-84394435D01*
X114520750Y-84414630D01*
X114520745Y-84414631D01*
X114350476Y-84474211D01*
X114197737Y-84570184D01*
X114070184Y-84697737D01*
X113974211Y-84850476D01*
X113914631Y-85020745D01*
X113914630Y-85020750D01*
X113894435Y-85199996D01*
X113000000Y-85199996D01*
X113000000Y-83599996D01*
X125994435Y-83599996D01*
X125994435Y-83600003D01*
X126014630Y-83779249D01*
X126014631Y-83779254D01*
X126074211Y-83949523D01*
X126115122Y-84014632D01*
X126170184Y-84102262D01*
X126297738Y-84229816D01*
X126388080Y-84286582D01*
X126405833Y-84297737D01*
X126450478Y-84325789D01*
X126581327Y-84371575D01*
X126620745Y-84385368D01*
X126620750Y-84385369D01*
X126799996Y-84405565D01*
X126800000Y-84405565D01*
X126800004Y-84405565D01*
X126979249Y-84385369D01*
X126979252Y-84385368D01*
X126979255Y-84385368D01*
X127149522Y-84325789D01*
X127302262Y-84229816D01*
X127429816Y-84102262D01*
X127525789Y-83949522D01*
X127585368Y-83779255D01*
X127585369Y-83779249D01*
X127605565Y-83600003D01*
X127605565Y-83599996D01*
X127585369Y-83420750D01*
X127585368Y-83420745D01*
X127543909Y-83302262D01*
X127525789Y-83250478D01*
X127507106Y-83220745D01*
X127429815Y-83097737D01*
X127302262Y-82970184D01*
X127149523Y-82874211D01*
X126979254Y-82814631D01*
X126979249Y-82814630D01*
X126800004Y-82794435D01*
X126799996Y-82794435D01*
X126620750Y-82814630D01*
X126620745Y-82814631D01*
X126450476Y-82874211D01*
X126297737Y-82970184D01*
X126170184Y-83097737D01*
X126074211Y-83250476D01*
X126014631Y-83420745D01*
X126014630Y-83420750D01*
X125994435Y-83599996D01*
X113000000Y-83599996D01*
X113000000Y-79199996D01*
X114194435Y-79199996D01*
X114194435Y-79200003D01*
X114214630Y-79379249D01*
X114214631Y-79379254D01*
X114274211Y-79549523D01*
X114316556Y-79616914D01*
X114370184Y-79702262D01*
X114497738Y-79829816D01*
X114588080Y-79886582D01*
X114642450Y-79920745D01*
X114650478Y-79925789D01*
X114820745Y-79985368D01*
X114820750Y-79985369D01*
X114999996Y-80005565D01*
X115000000Y-80005565D01*
X115000004Y-80005565D01*
X115179249Y-79985369D01*
X115179252Y-79985368D01*
X115179255Y-79985368D01*
X115349522Y-79925789D01*
X115502262Y-79829816D01*
X115629816Y-79702262D01*
X115725789Y-79549522D01*
X115785368Y-79379255D01*
X115785369Y-79379249D01*
X115805565Y-79200003D01*
X115805565Y-79199996D01*
X115785369Y-79020750D01*
X115785368Y-79020745D01*
X115725788Y-78850476D01*
X115684878Y-78785368D01*
X115629816Y-78697738D01*
X115502262Y-78570184D01*
X115349523Y-78474211D01*
X115179254Y-78414631D01*
X115179249Y-78414630D01*
X115000004Y-78394435D01*
X114999996Y-78394435D01*
X114820750Y-78414630D01*
X114820745Y-78414631D01*
X114650476Y-78474211D01*
X114497737Y-78570184D01*
X114370184Y-78697737D01*
X114274211Y-78850476D01*
X114214631Y-79020745D01*
X114214630Y-79020750D01*
X114194435Y-79199996D01*
X113000000Y-79199996D01*
X113000000Y-75551362D01*
X113019685Y-75484323D01*
X113036319Y-75463681D01*
X113575004Y-74924996D01*
X124394435Y-74924996D01*
X124394435Y-74925003D01*
X124414630Y-75104249D01*
X124414631Y-75104254D01*
X124474211Y-75274523D01*
X124553054Y-75400000D01*
X124570184Y-75427262D01*
X124697738Y-75554816D01*
X124850478Y-75650789D01*
X124949299Y-75685368D01*
X125020745Y-75710368D01*
X125020750Y-75710369D01*
X125199996Y-75730565D01*
X125200000Y-75730565D01*
X125200004Y-75730565D01*
X125379249Y-75710369D01*
X125379252Y-75710368D01*
X125379255Y-75710368D01*
X125549522Y-75650789D01*
X125702262Y-75554816D01*
X125829816Y-75427262D01*
X125925789Y-75274522D01*
X125985368Y-75104255D01*
X126001100Y-74964632D01*
X126005565Y-74925003D01*
X126005565Y-74924996D01*
X125985369Y-74745750D01*
X125985368Y-74745745D01*
X125951698Y-74649522D01*
X125925789Y-74575478D01*
X125910080Y-74550478D01*
X125829815Y-74422737D01*
X125702262Y-74295184D01*
X125549523Y-74199211D01*
X125379254Y-74139631D01*
X125379249Y-74139630D01*
X125200004Y-74119435D01*
X125199996Y-74119435D01*
X125020750Y-74139630D01*
X125020745Y-74139631D01*
X124850476Y-74199211D01*
X124697737Y-74295184D01*
X124570184Y-74422737D01*
X124474211Y-74575476D01*
X124414631Y-74745745D01*
X124414630Y-74745750D01*
X124394435Y-74924996D01*
X113575004Y-74924996D01*
X114380565Y-74119435D01*
X116000000Y-72500000D01*
X116000000Y-72199996D01*
X119794435Y-72199996D01*
X119794435Y-72200003D01*
X119814630Y-72379249D01*
X119814631Y-72379254D01*
X119874211Y-72549523D01*
X119969063Y-72700478D01*
X119970184Y-72702262D01*
X120097738Y-72829816D01*
X120250478Y-72925789D01*
X120420745Y-72985368D01*
X120420750Y-72985369D01*
X120599996Y-73005565D01*
X120600000Y-73005565D01*
X120600004Y-73005565D01*
X120779249Y-72985369D01*
X120779252Y-72985368D01*
X120779255Y-72985368D01*
X120949522Y-72925789D01*
X121102262Y-72829816D01*
X121229816Y-72702262D01*
X121325789Y-72549522D01*
X121385368Y-72379255D01*
X121399878Y-72250478D01*
X121405565Y-72200003D01*
X121405565Y-72199996D01*
X121385369Y-72020750D01*
X121385368Y-72020745D01*
X121367676Y-71970184D01*
X121325789Y-71850478D01*
X121303265Y-71814632D01*
X121229815Y-71697737D01*
X121102262Y-71570184D01*
X120949523Y-71474211D01*
X120779254Y-71414631D01*
X120779249Y-71414630D01*
X120600004Y-71394435D01*
X120599996Y-71394435D01*
X120420750Y-71414630D01*
X120420745Y-71414631D01*
X120250476Y-71474211D01*
X120097737Y-71570184D01*
X119970184Y-71697737D01*
X119874211Y-71850476D01*
X119814631Y-72020745D01*
X119814630Y-72020750D01*
X119794435Y-72199996D01*
X116000000Y-72199996D01*
X116000000Y-67551362D01*
X116019685Y-67484323D01*
X116036319Y-67463681D01*
X116963681Y-66536319D01*
X117025004Y-66502834D01*
X117051362Y-66500000D01*
X117643434Y-66500000D01*
X117710473Y-66519685D01*
G37*
G04 #@! TD.AperFunction*
M02*
