M48
; DRILL file {KiCad 8.0.3-8.0.3-0~ubuntu20.04.1} date 2025-01-28T06:04:18-0300
; FORMAT={-:-/ absolute / metric / decimal}
; #@! TF.CreationDate,2025-01-28T06:04:18-03:00
; #@! TF.GenerationSoftware,Kicad,Pcbnew,8.0.3-8.0.3-0~ubuntu20.04.1
; #@! TF.FileFunction,Plated,1,4,PTH
FMAT,2
METRIC
; #@! TA.AperFunction,Plated,PTH,ViaDrill
T1C0.300
; #@! TA.AperFunction,Plated,PTH,ComponentDrill
T2C0.800
; #@! TA.AperFunction,Plated,PTH,ComponentDrill
T3C1.000
; #@! TA.AperFunction,Plated,PTH,ComponentDrill
T4C1.200
; #@! TA.AperFunction,Plated,PTH,ComponentDrill
T5C1.700
%
G90
G05
T1
X101.1Y-104.8
X101.2Y-81.6
X101.2Y-130.0
X101.3Y-137.3
X101.8Y-71.7
X101.8Y-76.0
X101.9Y-89.2
X101.9Y-92.0
X102.2Y-119.5
X103.5Y-143.8
X103.75Y-93.75
X104.2Y-88.1
X104.6Y-80.1
X104.7Y-106.8
X105.3Y-98.4
X105.4Y-76.3
X105.7Y-78.65
X106.45Y-81.5
X106.65Y-102.55
X106.75Y-94.6
X106.8Y-91.7
X107.2Y-85.95
X107.85Y-77.35
X108.1Y-137.2
X108.2Y-148.775
X108.6Y-113.4
X109.4Y-77.25
X109.4Y-102.2
X110.35Y-77.3
X110.5Y-97.9
X110.55Y-84.05
X111.5Y-91.5
X111.7Y-82.1
X111.7Y-86.85
X113.55Y-97.1
X113.7Y-112.1
X114.3Y-141.9
X114.6Y-119.3
X114.6Y-146.5
X114.7Y-85.2
X115.0Y-79.2
X115.2Y-107.8
X115.2Y-117.1
X115.7Y-137.7
X115.8Y-130.9
X116.1Y-121.8
X116.3Y-98.5
X116.6Y-114.6
X117.9Y-94.3
X118.1Y-90.3
X118.3Y-85.8
X119.45Y-85.775
X120.6Y-72.2
X120.625Y-85.8
X122.025Y-85.8
X123.9Y-132.1
X124.2Y-86.5
X124.3Y-83.8
X124.3Y-84.8
X124.3Y-85.6
X125.2Y-74.925
X125.2Y-83.8
X125.2Y-84.8
X125.2Y-85.6
X125.2Y-86.5
X125.6Y-148.2
X126.8Y-83.6
X126.8Y-90.1
X127.4Y-114.9
X127.7Y-136.4
X128.6Y-104.1
X130.0Y-97.3
X130.2Y-81.5
X130.6Y-122.9
X132.7Y-106.0
X133.5Y-85.5
X135.6Y-121.1
X135.6Y-129.6
X135.65Y-68.05
X136.2Y-145.7
X137.4Y-91.3
X138.0Y-85.5
X138.1Y-117.9
X141.5Y-122.0
X143.6Y-97.9
X145.8Y-78.8
X146.05Y-80.1
X146.5Y-72.6
X146.5Y-87.4
X146.55Y-117.425
X146.6Y-122.3
X146.75Y-113.75
X147.3Y-145.1
X147.4Y-91.5
X147.45Y-101.1
X149.7Y-67.4
X149.8Y-111.175
X150.0Y-139.0
X150.4Y-107.9
X150.425Y-128.125
X150.5Y-82.5
X150.6Y-120.0
X150.7Y-105.35
X150.8Y-131.9
X151.1Y-147.7
X151.2Y-78.0
X151.4Y-124.6
X151.775Y-75.175
X152.0Y-87.3
X152.2Y-66.65
X152.2Y-95.725
X152.65Y-70.8
X152.85Y-80.2
X154.0Y-67.3
X154.25Y-121.05
X154.425Y-93.0
X154.5Y-125.5
X154.7Y-116.2
X154.8Y-135.8
X155.1Y-141.7
X155.4Y-111.0
X155.5Y-105.5
X155.7Y-146.6
X155.8Y-84.7
X155.85Y-73.9
X156.85Y-76.65
X157.2Y-80.8
X157.95Y-92.95
X158.05Y-121.65
X158.8Y-99.15
X158.95Y-111.125
X159.0Y-127.55
X159.35Y-139.0
X159.6Y-121.15
X159.75Y-74.0
X159.95Y-73.05
X160.1Y-114.6
X160.15Y-74.9
X160.6Y-84.8
X161.325Y-93.55
X161.6Y-105.8
X163.1Y-77.0
X163.8Y-75.75
X163.8Y-126.8
X164.6Y-148.0
X165.5Y-85.2
X165.7Y-102.3
X166.6Y-110.3
X167.1Y-72.85
X167.1Y-77.9
X167.1Y-135.1
X167.3Y-88.8
X168.0Y-124.3
X168.2Y-105.7
X168.3Y-83.4
X168.4Y-127.5
X170.3Y-146.2
X171.2Y-115.0
X171.4Y-120.7
X171.8Y-93.3
X172.0Y-142.3
X172.3Y-75.4
X173.6Y-95.6
X173.8Y-137.4
X174.26Y-83.04
X174.4Y-105.7
X174.4Y-127.8
X174.4Y-129.7
X174.5Y-85.8
X174.5Y-103.4
X174.8Y-108.2
X175.1Y-148.1
X175.2Y-74.45
X176.4Y-100.5
X176.9Y-122.9
X177.2Y-126.5
X177.4Y-82.8
X177.4Y-105.3
X177.469Y-146.324
X177.5Y-78.0
X178.7Y-68.1
X182.0Y-74.3
X182.5Y-120.2
X182.7Y-116.3
X182.8Y-122.5
X182.9Y-129.8
X183.0Y-107.7
X183.2Y-85.6
X183.3Y-110.2
X183.4Y-133.9
X183.7Y-88.8
T2
X118.725Y-102.872
X118.725Y-105.412
X118.725Y-107.952
X118.725Y-110.492
X118.725Y-113.032
X118.725Y-115.572
X118.725Y-118.112
X118.725Y-120.652
X118.725Y-123.192
X118.725Y-125.732
X118.725Y-128.272
X118.725Y-130.812
X118.725Y-133.352
X118.725Y-135.892
X118.725Y-138.432
X118.725Y-140.972
X118.725Y-143.512
X118.725Y-146.052
X118.725Y-148.592
X144.121Y-146.049
X144.121Y-148.589
X144.125Y-102.872
X144.125Y-105.412
X144.125Y-107.952
X144.125Y-110.492
X144.125Y-113.032
X144.125Y-115.572
X144.125Y-118.112
X144.125Y-120.652
X144.125Y-123.192
X144.125Y-125.732
X144.125Y-128.272
X144.125Y-130.812
X144.125Y-133.352
X144.125Y-135.892
X144.125Y-138.432
X144.125Y-140.972
X144.125Y-143.512
T3
X102.5Y-109.82
X102.5Y-112.36
X102.5Y-114.9
X103.45Y-123.21
X103.45Y-125.75
X103.45Y-128.29
X103.45Y-130.83
X103.45Y-133.37
X103.45Y-135.91
X103.45Y-138.45
X111.0Y-123.26
X111.0Y-125.8
X111.0Y-128.34
X111.0Y-130.88
X111.0Y-133.42
X111.0Y-135.96
X111.0Y-138.5
X143.925Y-83.385
X143.925Y-85.925
X163.55Y-68.4
X166.05Y-68.4
X170.0Y-80.5
X170.0Y-83.04
X170.0Y-85.58
X170.0Y-88.12
X170.0Y-102.96
X170.0Y-105.5
X170.0Y-108.04
X170.0Y-110.58
X170.0Y-124.5
X170.0Y-127.04
X170.0Y-129.58
X170.0Y-132.12
X172.1Y-68.375
X172.54Y-80.5
X172.54Y-83.04
X172.54Y-85.58
X172.54Y-88.12
X172.54Y-102.96
X172.54Y-105.5
X172.54Y-108.04
X172.54Y-110.58
X172.54Y-124.5
X172.54Y-127.04
X172.54Y-129.58
X172.54Y-132.12
X174.6Y-68.375
X179.0Y-80.46
X179.0Y-83.0
X179.0Y-85.54
X179.0Y-88.08
X179.0Y-102.96
X179.0Y-105.5
X179.0Y-108.04
X179.0Y-110.58
X179.0Y-124.5
X179.0Y-127.04
X179.0Y-129.58
X179.0Y-132.12
X181.54Y-80.46
X181.54Y-83.0
X181.54Y-85.54
X181.54Y-88.08
X181.54Y-102.96
X181.54Y-105.5
X181.54Y-108.04
X181.54Y-110.58
X181.54Y-124.5
X181.54Y-127.04
X181.54Y-129.58
X181.54Y-132.12
T4
X107.9Y-69.2
X112.9Y-69.2
X118.05Y-69.2
X123.05Y-69.2
T5
X167.5Y-116.0
X167.5Y-119.96
X167.5Y-138.41
X167.5Y-142.37
X167.895Y-93.66
X167.895Y-97.62
X178.895Y-138.41
X178.895Y-142.37
X179.0Y-93.66
X179.0Y-97.62
X179.0Y-116.0
X179.0Y-119.96
M30
