M48
; DRILL file {KiCad 8.0.3-8.0.3-0~ubuntu20.04.1} date 2025-01-28T06:06:20-0300
; FORMAT={-:-/ absolute / metric / decimal}
; #@! TF.CreationDate,2025-01-28T06:06:20-03:00
; #@! TF.GenerationSoftware,Kicad,Pcbnew,8.0.3-8.0.3-0~ubuntu20.04.1
; #@! TF.FileFunction,Plated,1,2,PTH
FMAT,2
METRIC
; #@! TA.AperFunction,Plated,PTH,ViaDrill
T1C0.300
; #@! TA.AperFunction,Plated,PTH,ComponentDrill
T2C0.800
; #@! TA.AperFunction,Plated,PTH,ComponentDrill
T3C1.000
; #@! TA.AperFunction,Plated,PTH,ComponentDrill
T4C1.200
; #@! TA.AperFunction,Plated,PTH,ComponentDrill
T5C1.500
; #@! TA.AperFunction,Plated,PTH,ComponentDrill
T6C1.700
%
G90
G05
T1
X57.875Y-121.55
X58.0Y-79.7
X58.1Y-72.25
X60.45Y-92.45
X61.375Y-99.95
X63.775Y-114.9
X64.5Y-125.225
X65.675Y-81.625
X67.45Y-120.1
X68.9Y-88.9
X69.025Y-94.65
X69.6Y-118.175
X71.0Y-95.9
X71.175Y-76.75
X71.825Y-99.09
X71.925Y-82.825
X72.175Y-93.84
X72.2Y-72.25
X72.45Y-105.4
X74.95Y-70.425
X75.125Y-92.575
X75.175Y-82.84
X75.275Y-111.45
X76.65Y-104.675
X76.9Y-108.75
X77.05Y-118.675
X78.7Y-77.975
X78.775Y-76.625
X78.775Y-99.59
X78.835Y-98.34
X81.45Y-118.55
X81.475Y-111.125
X81.575Y-114.375
X86.975Y-125.225
X87.275Y-112.5
X87.275Y-114.125
X90.0Y-110.075
X94.5Y-121.0
X94.5Y-122.0
X94.5Y-123.0
X95.225Y-120.1
X96.9Y-78.3
X96.925Y-81.25
X96.95Y-103.765
X96.975Y-100.84
X97.975Y-104.74
X101.05Y-82.225
X102.0Y-117.725
X102.25Y-70.825
X103.0Y-92.5
X103.0Y-93.5
X103.0Y-94.5
X103.0Y-109.325
X103.0Y-110.3
X103.0Y-111.3
X103.0Y-112.5
X103.325Y-70.825
X104.175Y-70.875
X112.675Y-128.825
T2
X109.0Y-80.0
X111.5Y-80.0
X126.025Y-73.9
X126.025Y-76.4
T3
X52.225Y-84.375
X52.225Y-86.915
X52.225Y-89.455
X52.225Y-91.995
X54.765Y-84.375
X54.765Y-86.915
X54.765Y-89.455
X54.765Y-91.995
X146.5Y-88.35
X146.5Y-90.85
X146.5Y-97.325
X146.5Y-99.825
T4
X113.975Y-117.6
X141.915Y-117.6
T5
X116.52Y-82.375
X116.52Y-109.045
X127.95Y-82.375
X135.57Y-82.375
X135.57Y-109.045
T6
X55.65Y-109.04
X55.65Y-113.0
M30
