%TF.GenerationSoftware,KiCad,Pcbnew,8.0.3-8.0.3-0~ubuntu20.04.1*%
%TF.CreationDate,2025-01-28T06:06:14-03:00*%
%TF.ProjectId,hv_pulse_generator,68765f70-756c-4736-955f-67656e657261,rev?*%
%TF.SameCoordinates,Original*%
%TF.FileFunction,Copper,L1,Top*%
%TF.FilePolarity,Positive*%
%FSLAX46Y46*%
G04 Gerber Fmt 4.6, Leading zero omitted, Abs format (unit mm)*
G04 Created by KiCad (PCBNEW 8.0.3-8.0.3-0~ubuntu20.04.1) date 2025-01-28 06:06:14*
%MOMM*%
%LPD*%
G01*
G04 APERTURE LIST*
G04 Aperture macros list*
%AMRoundRect*
0 Rectangle with rounded corners*
0 $1 Rounding radius*
0 $2 $3 $4 $5 $6 $7 $8 $9 X,Y pos of 4 corners*
0 Add a 4 corners polygon primitive as box body*
4,1,4,$2,$3,$4,$5,$6,$7,$8,$9,$2,$3,0*
0 Add four circle primitives for the rounded corners*
1,1,$1+$1,$2,$3*
1,1,$1+$1,$4,$5*
1,1,$1+$1,$6,$7*
1,1,$1+$1,$8,$9*
0 Add four rect primitives between the rounded corners*
20,1,$1+$1,$2,$3,$4,$5,0*
20,1,$1+$1,$4,$5,$6,$7,0*
20,1,$1+$1,$6,$7,$8,$9,0*
20,1,$1+$1,$8,$9,$2,$3,0*%
G04 Aperture macros list end*
%TA.AperFunction,SMDPad,CuDef*%
%ADD10RoundRect,0.225000X-0.225000X-0.250000X0.225000X-0.250000X0.225000X0.250000X-0.225000X0.250000X0*%
%TD*%
%TA.AperFunction,SMDPad,CuDef*%
%ADD11RoundRect,0.250000X-0.625000X0.312500X-0.625000X-0.312500X0.625000X-0.312500X0.625000X0.312500X0*%
%TD*%
%TA.AperFunction,SMDPad,CuDef*%
%ADD12RoundRect,0.250000X-0.312500X-0.625000X0.312500X-0.625000X0.312500X0.625000X-0.312500X0.625000X0*%
%TD*%
%TA.AperFunction,SMDPad,CuDef*%
%ADD13RoundRect,0.200000X0.275000X-0.200000X0.275000X0.200000X-0.275000X0.200000X-0.275000X-0.200000X0*%
%TD*%
%TA.AperFunction,SMDPad,CuDef*%
%ADD14RoundRect,0.200000X0.200000X0.275000X-0.200000X0.275000X-0.200000X-0.275000X0.200000X-0.275000X0*%
%TD*%
%TA.AperFunction,ComponentPad*%
%ADD15RoundRect,0.250000X1.800000X-1.330000X1.800000X1.330000X-1.800000X1.330000X-1.800000X-1.330000X0*%
%TD*%
%TA.AperFunction,ComponentPad*%
%ADD16O,4.100000X3.160000*%
%TD*%
%TA.AperFunction,SMDPad,CuDef*%
%ADD17RoundRect,0.200000X-0.200000X-0.275000X0.200000X-0.275000X0.200000X0.275000X-0.200000X0.275000X0*%
%TD*%
%TA.AperFunction,SMDPad,CuDef*%
%ADD18RoundRect,0.250000X-1.000000X1.400000X-1.000000X-1.400000X1.000000X-1.400000X1.000000X1.400000X0*%
%TD*%
%TA.AperFunction,SMDPad,CuDef*%
%ADD19RoundRect,0.375000X-0.625000X-0.375000X0.625000X-0.375000X0.625000X0.375000X-0.625000X0.375000X0*%
%TD*%
%TA.AperFunction,SMDPad,CuDef*%
%ADD20RoundRect,0.500000X-0.500000X-1.400000X0.500000X-1.400000X0.500000X1.400000X-0.500000X1.400000X0*%
%TD*%
%TA.AperFunction,SMDPad,CuDef*%
%ADD21RoundRect,0.250000X-0.262500X-0.450000X0.262500X-0.450000X0.262500X0.450000X-0.262500X0.450000X0*%
%TD*%
%TA.AperFunction,SMDPad,CuDef*%
%ADD22RoundRect,0.200000X-0.275000X0.200000X-0.275000X-0.200000X0.275000X-0.200000X0.275000X0.200000X0*%
%TD*%
%TA.AperFunction,ComponentPad*%
%ADD23R,1.700000X1.700000*%
%TD*%
%TA.AperFunction,ComponentPad*%
%ADD24O,1.700000X1.700000*%
%TD*%
%TA.AperFunction,ComponentPad*%
%ADD25RoundRect,0.250000X-0.750000X0.600000X-0.750000X-0.600000X0.750000X-0.600000X0.750000X0.600000X0*%
%TD*%
%TA.AperFunction,ComponentPad*%
%ADD26O,2.000000X1.700000*%
%TD*%
%TA.AperFunction,ComponentPad*%
%ADD27C,2.500000*%
%TD*%
%TA.AperFunction,ComponentPad*%
%ADD28C,2.400000*%
%TD*%
%TA.AperFunction,ComponentPad*%
%ADD29O,2.400000X2.400000*%
%TD*%
%TA.AperFunction,SMDPad,CuDef*%
%ADD30RoundRect,0.250000X0.250000X0.250000X-0.250000X0.250000X-0.250000X-0.250000X0.250000X-0.250000X0*%
%TD*%
%TA.AperFunction,SMDPad,CuDef*%
%ADD31RoundRect,0.250000X-0.250000X-0.250000X0.250000X-0.250000X0.250000X0.250000X-0.250000X0.250000X0*%
%TD*%
%TA.AperFunction,SMDPad,CuDef*%
%ADD32RoundRect,0.150000X-0.825000X-0.150000X0.825000X-0.150000X0.825000X0.150000X-0.825000X0.150000X0*%
%TD*%
%TA.AperFunction,SMDPad,CuDef*%
%ADD33RoundRect,0.100000X-0.637500X-0.100000X0.637500X-0.100000X0.637500X0.100000X-0.637500X0.100000X0*%
%TD*%
%TA.AperFunction,SMDPad,CuDef*%
%ADD34RoundRect,0.250000X1.500000X0.550000X-1.500000X0.550000X-1.500000X-0.550000X1.500000X-0.550000X0*%
%TD*%
%TA.AperFunction,SMDPad,CuDef*%
%ADD35RoundRect,0.635000X-0.700000X-0.635000X0.700000X-0.635000X0.700000X0.635000X-0.700000X0.635000X0*%
%TD*%
%TA.AperFunction,SMDPad,CuDef*%
%ADD36RoundRect,0.190000X-0.190000X-0.445000X0.190000X-0.445000X0.190000X0.445000X-0.190000X0.445000X0*%
%TD*%
%TA.AperFunction,SMDPad,CuDef*%
%ADD37RoundRect,0.225000X0.225000X0.250000X-0.225000X0.250000X-0.225000X-0.250000X0.225000X-0.250000X0*%
%TD*%
%TA.AperFunction,SMDPad,CuDef*%
%ADD38RoundRect,0.250000X-2.050000X-0.300000X2.050000X-0.300000X2.050000X0.300000X-2.050000X0.300000X0*%
%TD*%
%TA.AperFunction,SMDPad,CuDef*%
%ADD39RoundRect,0.250000X-2.025000X-2.375000X2.025000X-2.375000X2.025000X2.375000X-2.025000X2.375000X0*%
%TD*%
%TA.AperFunction,SMDPad,CuDef*%
%ADD40RoundRect,0.250002X-4.449998X-5.149998X4.449998X-5.149998X4.449998X5.149998X-4.449998X5.149998X0*%
%TD*%
%TA.AperFunction,SMDPad,CuDef*%
%ADD41R,2.900000X5.400000*%
%TD*%
%TA.AperFunction,SMDPad,CuDef*%
%ADD42RoundRect,0.250000X1.025000X-0.787500X1.025000X0.787500X-1.025000X0.787500X-1.025000X-0.787500X0*%
%TD*%
%TA.AperFunction,SMDPad,CuDef*%
%ADD43RoundRect,0.250000X0.787500X1.025000X-0.787500X1.025000X-0.787500X-1.025000X0.787500X-1.025000X0*%
%TD*%
%TA.AperFunction,SMDPad,CuDef*%
%ADD44RoundRect,0.250000X-0.362500X-1.425000X0.362500X-1.425000X0.362500X1.425000X-0.362500X1.425000X0*%
%TD*%
%TA.AperFunction,ComponentPad*%
%ADD45C,1.600000*%
%TD*%
%TA.AperFunction,ViaPad*%
%ADD46C,0.600000*%
%TD*%
%TA.AperFunction,Conductor*%
%ADD47C,0.609600*%
%TD*%
%TA.AperFunction,Conductor*%
%ADD48C,0.254000*%
%TD*%
%TA.AperFunction,Conductor*%
%ADD49C,1.016000*%
%TD*%
%TA.AperFunction,Conductor*%
%ADD50C,2.540000*%
%TD*%
%TA.AperFunction,Conductor*%
%ADD51C,0.812800*%
%TD*%
%TA.AperFunction,Conductor*%
%ADD52C,0.304800*%
%TD*%
%TA.AperFunction,Conductor*%
%ADD53C,0.508000*%
%TD*%
%TA.AperFunction,Conductor*%
%ADD54C,2.032000*%
%TD*%
G04 APERTURE END LIST*
D10*
%TO.P,C31,1*%
%TO.N,3.3V*%
X88150000Y-111150000D03*
%TO.P,C31,2*%
%TO.N,GND*%
X89700000Y-111150000D03*
%TD*%
D11*
%TO.P,C19,1*%
%TO.N,Net-(U1-VDD)*%
X71175000Y-101377500D03*
%TO.P,C19,2*%
%TO.N,GND1*%
X71175000Y-104302500D03*
%TD*%
D12*
%TO.P,R30,1*%
%TO.N,+12V*%
X71212500Y-91340000D03*
%TO.P,R30,2*%
%TO.N,Net-(U1-VDD)*%
X74137500Y-91340000D03*
%TD*%
D11*
%TO.P,C4,1*%
%TO.N,Net-(D2-K)*%
X85175000Y-95377500D03*
%TO.P,C4,2*%
%TO.N,VP3CHX*%
X85175000Y-98302500D03*
%TD*%
D13*
%TO.P,R7,1*%
%TO.N,Net-(D9-K)*%
X92675000Y-102165000D03*
%TO.P,R7,2*%
%TO.N,Net-(D11-A)*%
X92675000Y-100515000D03*
%TD*%
D14*
%TO.P,R25,1*%
%TO.N,Net-(D9-K)*%
X91000000Y-103340000D03*
%TO.P,R25,2*%
%TO.N,Net-(D11-K)*%
X89350000Y-103340000D03*
%TD*%
D15*
%TO.P,J7,1,1*%
%TO.N,+24CH1*%
X55650000Y-113000000D03*
D16*
%TO.P,J7,2,2*%
%TO.N,GND1*%
X55650000Y-109040000D03*
%TD*%
D17*
%TO.P,R6,1*%
%TO.N,UxPWMxA'*%
X72850000Y-75250000D03*
%TO.P,R6,2*%
%TO.N,Net-(U2-HI)*%
X74500000Y-75250000D03*
%TD*%
D18*
%TO.P,D2,1,K*%
%TO.N,Net-(D2-K)*%
X84075000Y-90340000D03*
%TO.P,D2,2,A*%
%TO.N,Net-(D2-A)*%
X77275000Y-90340000D03*
%TD*%
D19*
%TO.P,Q1,1,G*%
%TO.N,Net-(D1-A)*%
X99525000Y-69752500D03*
%TO.P,Q1,2,D*%
%TO.N,HV*%
X99525000Y-72052500D03*
%TO.P,Q1,3,S*%
%TO.N,VP1CHX*%
X99525000Y-74352500D03*
D20*
%TO.P,Q1,4,D*%
%TO.N,HV*%
X105825000Y-72052500D03*
%TD*%
D14*
%TO.P,R27,1*%
%TO.N,Net-(U1-LI)*%
X74500000Y-95840000D03*
%TO.P,R27,2*%
%TO.N,UxPWMxA'*%
X72850000Y-95840000D03*
%TD*%
D21*
%TO.P,R14,1*%
%TO.N,HV2*%
X91512500Y-128750000D03*
%TO.P,R14,2*%
%TO.N,P0W00*%
X93337500Y-128750000D03*
%TD*%
D22*
%TO.P,R8,1*%
%TO.N,Net-(D10-A)*%
X92675000Y-93015000D03*
%TO.P,R8,2*%
%TO.N,Net-(D7-A)*%
X92675000Y-94665000D03*
%TD*%
D23*
%TO.P,J8,1,Pin_1*%
%TO.N,UxPWMxA'*%
X52225000Y-84375000D03*
D24*
%TO.P,J8,2,Pin_2*%
%TO.N,UxPWMxB'*%
X54765000Y-84375000D03*
%TO.P,J8,3,Pin_3*%
%TO.N,GND1*%
X52225000Y-86915000D03*
%TO.P,J8,4,Pin_4*%
X54765000Y-86915000D03*
%TO.P,J8,5,Pin_5*%
%TO.N,3.3V*%
X52225000Y-89455000D03*
%TO.P,J8,6,Pin_6*%
%TO.N,GND*%
X54765000Y-89455000D03*
%TO.P,J8,7,Pin_7*%
%TO.N,SCL*%
X52225000Y-91995000D03*
%TO.P,J8,8,Pin_8*%
%TO.N,SDA*%
X54765000Y-91995000D03*
%TD*%
D17*
%TO.P,R4,1*%
%TO.N,Net-(D7-K)*%
X94550000Y-93340000D03*
%TO.P,R4,2*%
%TO.N,Net-(D10-A)*%
X96200000Y-93340000D03*
%TD*%
D25*
%TO.P,J3,1,1*%
%TO.N,VSCH1*%
X146500000Y-97325000D03*
D26*
%TO.P,J3,2,2*%
%TO.N,PWRGND2*%
X146500000Y-99825000D03*
%TD*%
D27*
%TO.P,T1,1,AA*%
%TO.N,Net-(T1-AA)*%
X135570000Y-82375000D03*
%TO.P,T1,2,AB*%
%TO.N,VP3CHX*%
X127950000Y-82375000D03*
%TO.P,T1,3,SA*%
%TO.N,PWRGND2*%
X116520000Y-109045000D03*
%TO.P,T1,4,SB*%
%TO.N,HVCH1*%
X116520000Y-82375000D03*
%TO.P,T1,5*%
%TO.N,N/C*%
X135570000Y-109045000D03*
%TD*%
D28*
%TO.P,R11,1*%
%TO.N,VSCH1*%
X141915000Y-117600000D03*
D29*
%TO.P,R11,2*%
%TO.N,HVCH1*%
X113975000Y-117600000D03*
%TD*%
D11*
%TO.P,C23,1*%
%TO.N,Net-(U2-VDD)*%
X70700000Y-78787500D03*
%TO.P,C23,2*%
%TO.N,GND1*%
X70700000Y-81712500D03*
%TD*%
D17*
%TO.P,R20,1*%
%TO.N,Net-(JP1-B)*%
X77925000Y-108575000D03*
%TO.P,R20,2*%
%TO.N,3.3V*%
X79575000Y-108575000D03*
%TD*%
D11*
%TO.P,C24,1*%
%TO.N,Net-(U2-VDD)*%
X73200000Y-78750000D03*
%TO.P,C24,2*%
%TO.N,GND1*%
X73200000Y-81675000D03*
%TD*%
D14*
%TO.P,C16,1*%
%TO.N,Net-(U1-LI)*%
X74500000Y-94340000D03*
%TO.P,C16,2*%
%TO.N,GND1*%
X72850000Y-94340000D03*
%TD*%
D30*
%TO.P,D7,1,K*%
%TO.N,Net-(D7-K)*%
X96925000Y-95340000D03*
%TO.P,D7,2,A*%
%TO.N,Net-(D7-A)*%
X94425000Y-95340000D03*
%TD*%
D31*
%TO.P,D6,1,K*%
%TO.N,Net-(D6-K)*%
X94425000Y-80340000D03*
%TO.P,D6,2,A*%
%TO.N,GND1*%
X96925000Y-80340000D03*
%TD*%
D12*
%TO.P,R22,1*%
%TO.N,Net-(U1-VDD)*%
X71212500Y-88840000D03*
%TO.P,R22,2*%
%TO.N,Net-(D2-A)*%
X74137500Y-88840000D03*
%TD*%
D22*
%TO.P,C120,1*%
%TO.N,Net-(T1-AA)*%
X129975000Y-72400000D03*
%TO.P,C120,2*%
%TO.N,VP3CHX*%
X129975000Y-74050000D03*
%TD*%
D32*
%TO.P,U2,1,LI*%
%TO.N,Net-(U2-LI)*%
X77200000Y-74035000D03*
%TO.P,U2,2,HI*%
%TO.N,Net-(U2-HI)*%
X77200000Y-75305000D03*
%TO.P,U2,3,VDD*%
%TO.N,Net-(U2-VDD)*%
X77200000Y-76575000D03*
%TO.P,U2,4,COM*%
%TO.N,GND1*%
X77200000Y-77845000D03*
%TO.P,U2,5,LO*%
%TO.N,Net-(D6-K)*%
X82150000Y-77845000D03*
%TO.P,U2,6,HS*%
%TO.N,VP1CHX*%
X82150000Y-76575000D03*
%TO.P,U2,7,HO*%
%TO.N,Net-(D5-K)*%
X82150000Y-75305000D03*
%TO.P,U2,8,HB*%
%TO.N,Net-(D3-K)*%
X82150000Y-74035000D03*
%TD*%
D21*
%TO.P,R13,1*%
%TO.N,GND1*%
X82212500Y-118350000D03*
%TO.P,R13,2*%
%TO.N,P0B00*%
X84037500Y-118350000D03*
%TD*%
D33*
%TO.P,U6,1,P3A*%
%TO.N,unconnected-(U6D-P3A-Pad1)*%
X79975000Y-110150000D03*
%TO.P,U6,2,P3W*%
%TO.N,unconnected-(U6D-P3W-Pad2)*%
X79975000Y-110800000D03*
%TO.P,U6,3,P3B*%
%TO.N,unconnected-(U6D-P3B-Pad3)*%
X79975000Y-111450000D03*
%TO.P,U6,4,HVC/A0*%
%TO.N,Net-(JP1-C)*%
X79975000Y-112100000D03*
%TO.P,U6,5,SCL*%
%TO.N,SCL*%
X79975000Y-112750000D03*
%TO.P,U6,6,SDA*%
%TO.N,SDA*%
X79975000Y-113400000D03*
%TO.P,U6,7,VSS*%
%TO.N,GND*%
X79975000Y-114050000D03*
%TO.P,U6,8,P1B*%
%TO.N,P1B00*%
X79975000Y-114700000D03*
%TO.P,U6,9,P1W*%
%TO.N,P1W00*%
X79975000Y-115350000D03*
%TO.P,U6,10,P1A*%
%TO.N,unconnected-(U6B-P1A-Pad10)*%
X79975000Y-116000000D03*
%TO.P,U6,11,P0A*%
%TO.N,unconnected-(U6A-P0A-Pad11)*%
X85700000Y-116000000D03*
%TO.P,U6,12,P0W*%
%TO.N,P0W00*%
X85700000Y-115350000D03*
%TO.P,U6,13,P0B*%
%TO.N,P0B00*%
X85700000Y-114700000D03*
%TO.P,U6,14,NC*%
%TO.N,unconnected-(U6E-NC-Pad14)*%
X85700000Y-114050000D03*
%TO.P,U6,15,~{RESET}*%
%TO.N,Net-(U6E-~{RESET})*%
X85700000Y-113400000D03*
%TO.P,U6,16,A1*%
%TO.N,Net-(JP2-C)*%
X85700000Y-112750000D03*
%TO.P,U6,17,VDD*%
%TO.N,3.3V*%
X85700000Y-112100000D03*
%TO.P,U6,18,P2B*%
%TO.N,unconnected-(U6C-P2B-Pad18)*%
X85700000Y-111450000D03*
%TO.P,U6,19,P2W*%
%TO.N,unconnected-(U6C-P2W-Pad19)*%
X85700000Y-110800000D03*
%TO.P,U6,20,P2A*%
%TO.N,unconnected-(U6C-P2A-Pad20)*%
X85700000Y-110150000D03*
%TD*%
D18*
%TO.P,D3,1,K*%
%TO.N,Net-(D3-K)*%
X84100000Y-68250000D03*
%TO.P,D3,2,A*%
%TO.N,Net-(D3-A)*%
X77300000Y-68250000D03*
%TD*%
D13*
%TO.P,R34,1*%
%TO.N,Net-(D6-K)*%
X92675000Y-79840000D03*
%TO.P,R34,2*%
%TO.N,Net-(D4-A)*%
X92675000Y-78190000D03*
%TD*%
D12*
%TO.P,R2,1*%
%TO.N,Net-(U2-VDD)*%
X71212500Y-66750000D03*
%TO.P,R2,2*%
%TO.N,Net-(D3-A)*%
X74137500Y-66750000D03*
%TD*%
D34*
%TO.P,C2,1*%
%TO.N,+12V*%
X65875000Y-101840000D03*
%TO.P,C2,2*%
%TO.N,GND1*%
X60475000Y-101840000D03*
%TD*%
D35*
%TO.P,D4,1,K*%
%TO.N,Net-(D4-K)*%
X88520000Y-78840000D03*
D36*
%TO.P,D4,2,A*%
%TO.N,Net-(D4-A)*%
X90875000Y-78840000D03*
%TD*%
D11*
%TO.P,C22,1*%
%TO.N,Net-(D3-K)*%
X85175000Y-73825000D03*
%TO.P,C22,2*%
%TO.N,VP1CHX*%
X85175000Y-76750000D03*
%TD*%
D10*
%TO.P,C21,1*%
%TO.N,GND1*%
X72900000Y-76750000D03*
%TO.P,C21,2*%
%TO.N,Net-(U2-HI)*%
X74450000Y-76750000D03*
%TD*%
D14*
%TO.P,R31,1*%
%TO.N,Net-(D6-K)*%
X91000000Y-81340000D03*
%TO.P,R31,2*%
%TO.N,Net-(D4-K)*%
X89350000Y-81340000D03*
%TD*%
D37*
%TO.P,C26,1*%
%TO.N,Net-(U2-LI)*%
X74450000Y-72250000D03*
%TO.P,C26,2*%
%TO.N,GND1*%
X72900000Y-72250000D03*
%TD*%
D25*
%TO.P,J1,1,1*%
%TO.N,HVCH1*%
X146500000Y-88350000D03*
D26*
%TO.P,J1,2,2*%
%TO.N,PWRGND2*%
X146500000Y-90850000D03*
%TD*%
D22*
%TO.P,C18,1*%
%TO.N,Net-(U1-VDD)*%
X75675000Y-102840000D03*
%TO.P,C18,2*%
%TO.N,GND1*%
X75675000Y-104490000D03*
%TD*%
D34*
%TO.P,C5,1*%
%TO.N,+12V*%
X65875000Y-79700000D03*
%TO.P,C5,2*%
%TO.N,GND1*%
X60475000Y-79700000D03*
%TD*%
D21*
%TO.P,C6,1*%
%TO.N,+24CH1*%
X98637500Y-116275000D03*
%TO.P,C6,2*%
%TO.N,GND1*%
X100462500Y-116275000D03*
%TD*%
D12*
%TO.P,R1,1*%
%TO.N,+12V*%
X71212500Y-69250000D03*
%TO.P,R1,2*%
%TO.N,Net-(U2-VDD)*%
X74137500Y-69250000D03*
%TD*%
D38*
%TO.P,U3,1,EN*%
%TO.N,+24CH1*%
X97575000Y-122125000D03*
%TO.P,U3,2,VIN*%
X97575000Y-123825000D03*
%TO.P,U3,3,GND*%
%TO.N,GND1*%
X97575000Y-125525000D03*
D39*
X104300000Y-122750000D03*
X104300000Y-128300000D03*
D40*
X106725000Y-125525000D03*
D39*
X109150000Y-122750000D03*
X109150000Y-128300000D03*
D38*
%TO.P,U3,4,VOUT*%
%TO.N,HV2*%
X97575000Y-127225000D03*
%TO.P,U3,5,ADJ*%
%TO.N,P0W00*%
X97575000Y-128925000D03*
%TD*%
D31*
%TO.P,D5,1,K*%
%TO.N,Net-(D5-K)*%
X94425000Y-72840000D03*
%TO.P,D5,2,A*%
%TO.N,Net-(D5-A)*%
X96925000Y-72840000D03*
%TD*%
D41*
%TO.P,L7,1,1*%
%TO.N,VP1CHX*%
X111500000Y-71450000D03*
%TO.P,L7,2,2*%
%TO.N,Net-(T1-AA)*%
X121400000Y-71450000D03*
%TD*%
D42*
%TO.P,C9,1*%
%TO.N,+12V*%
X61000000Y-127837500D03*
%TO.P,C9,2*%
%TO.N,GND1*%
X61000000Y-121612500D03*
%TD*%
D35*
%TO.P,D11,1,K*%
%TO.N,Net-(D11-K)*%
X88520000Y-100840000D03*
D36*
%TO.P,D11,2,A*%
%TO.N,Net-(D11-A)*%
X90875000Y-100840000D03*
%TD*%
D35*
%TO.P,D10,1,K*%
%TO.N,Net-(D10-K)*%
X88520000Y-93340000D03*
D36*
%TO.P,D10,2,A*%
%TO.N,Net-(D10-A)*%
X90875000Y-93340000D03*
%TD*%
D12*
%TO.P,C1,1*%
%TO.N,+24CH1*%
X97537500Y-118675000D03*
%TO.P,C1,2*%
%TO.N,GND1*%
X100462500Y-118675000D03*
%TD*%
D14*
%TO.P,R23,1*%
%TO.N,Net-(U2-LI)*%
X74500000Y-73750000D03*
%TO.P,R23,2*%
%TO.N,UxPWMxB'*%
X72850000Y-73750000D03*
%TD*%
D17*
%TO.P,R10,1*%
%TO.N,Net-(D11-A)*%
X94350000Y-100840000D03*
%TO.P,R10,2*%
%TO.N,GND1*%
X96000000Y-100840000D03*
%TD*%
D19*
%TO.P,Q6,1,G*%
%TO.N,Net-(D4-A)*%
X99525000Y-77540000D03*
%TO.P,Q6,2,D*%
%TO.N,VP1CHX*%
X99525000Y-79840000D03*
%TO.P,Q6,3,S*%
%TO.N,GND1*%
X99525000Y-82140000D03*
D20*
%TO.P,Q6,4,D*%
%TO.N,VP1CHX*%
X105825000Y-79840000D03*
%TD*%
D17*
%TO.P,R28,1*%
%TO.N,Net-(U6E-~{RESET})*%
X88225000Y-112750000D03*
%TO.P,R28,2*%
%TO.N,3.3V*%
X89875000Y-112750000D03*
%TD*%
%TO.P,R35,1*%
%TO.N,Net-(D4-A)*%
X94350000Y-78340000D03*
%TO.P,R35,2*%
%TO.N,GND1*%
X96000000Y-78340000D03*
%TD*%
D11*
%TO.P,C20,1*%
%TO.N,Net-(U1-VDD)*%
X73675000Y-101377500D03*
%TO.P,C20,2*%
%TO.N,GND1*%
X73675000Y-104302500D03*
%TD*%
D35*
%TO.P,D1,1,K*%
%TO.N,Net-(D1-K)*%
X88520000Y-70840000D03*
D36*
%TO.P,D1,2,A*%
%TO.N,Net-(D1-A)*%
X90875000Y-70840000D03*
%TD*%
D43*
%TO.P,C7,1*%
%TO.N,HV2*%
X91512500Y-125150000D03*
%TO.P,C7,2*%
%TO.N,GND1*%
X85287500Y-125150000D03*
%TD*%
D38*
%TO.P,U4,1,IN*%
%TO.N,+24CH1*%
X67850000Y-122960000D03*
%TO.P,U4,2,GND*%
%TO.N,GND1*%
X67850000Y-125500000D03*
%TO.P,U4,3,OUT*%
%TO.N,+12V*%
X67850000Y-128040000D03*
D39*
%TO.P,U4,4,TAB*%
%TO.N,GND1*%
X74575000Y-122725000D03*
X74575000Y-128275000D03*
D40*
X77000000Y-125500000D03*
D39*
X79425000Y-122725000D03*
X79425000Y-128275000D03*
%TD*%
D32*
%TO.P,U1,1,LI*%
%TO.N,Net-(U1-LI)*%
X77200000Y-95800000D03*
%TO.P,U1,2,HI*%
%TO.N,Net-(U1-HI)*%
X77200000Y-97070000D03*
%TO.P,U1,3,VDD*%
%TO.N,Net-(U1-VDD)*%
X77200000Y-98340000D03*
%TO.P,U1,4,COM*%
%TO.N,GND1*%
X77200000Y-99610000D03*
%TO.P,U1,5,LO*%
%TO.N,Net-(D9-K)*%
X82150000Y-99610000D03*
%TO.P,U1,6,HS*%
%TO.N,VP3CHX*%
X82150000Y-98340000D03*
%TO.P,U1,7,HO*%
%TO.N,Net-(D7-K)*%
X82150000Y-97070000D03*
%TO.P,U1,8,HB*%
%TO.N,Net-(D2-K)*%
X82150000Y-95800000D03*
%TD*%
D44*
%TO.P,R17,1*%
%TO.N,HV2*%
X95562500Y-110725000D03*
%TO.P,R17,2*%
%TO.N,HV*%
X101487500Y-110725000D03*
%TD*%
D19*
%TO.P,Q4,1,G*%
%TO.N,Net-(D11-A)*%
X99525000Y-99740000D03*
%TO.P,Q4,2,D*%
%TO.N,VP3CHX*%
X99525000Y-102040000D03*
%TO.P,Q4,3,S*%
%TO.N,GND1*%
X99525000Y-104340000D03*
D20*
%TO.P,Q4,4,D*%
%TO.N,VP3CHX*%
X105825000Y-102040000D03*
%TD*%
D17*
%TO.P,R26,1*%
%TO.N,UxPWMxB'*%
X72850000Y-97340000D03*
%TO.P,R26,2*%
%TO.N,Net-(U1-HI)*%
X74500000Y-97340000D03*
%TD*%
D14*
%TO.P,R24,1*%
%TO.N,Net-(D7-K)*%
X91000000Y-95840000D03*
%TO.P,R24,2*%
%TO.N,Net-(D10-K)*%
X89350000Y-95840000D03*
%TD*%
D19*
%TO.P,Q3,1,G*%
%TO.N,Net-(D10-A)*%
X99525000Y-92040000D03*
%TO.P,Q3,2,D*%
%TO.N,HV*%
X99525000Y-94340000D03*
%TO.P,Q3,3,S*%
%TO.N,VP3CHX*%
X99525000Y-96640000D03*
D20*
%TO.P,Q3,4,D*%
%TO.N,HV*%
X105825000Y-94340000D03*
%TD*%
D17*
%TO.P,R21,1*%
%TO.N,Net-(JP2-B)*%
X88225000Y-114250000D03*
%TO.P,R21,2*%
%TO.N,3.3V*%
X89875000Y-114250000D03*
%TD*%
D11*
%TO.P,R12,1*%
%TO.N,PWRGND2*%
X143650000Y-107850000D03*
%TO.P,R12,2*%
%TO.N,VSCH1*%
X143650000Y-110775000D03*
%TD*%
D14*
%TO.P,R3,1*%
%TO.N,Net-(D5-K)*%
X91000000Y-73340000D03*
%TO.P,R3,2*%
%TO.N,Net-(D1-K)*%
X89350000Y-73340000D03*
%TD*%
D34*
%TO.P,C17,1*%
%TO.N,+12V*%
X65875000Y-94340000D03*
%TO.P,C17,2*%
%TO.N,GND1*%
X60475000Y-94340000D03*
%TD*%
D13*
%TO.P,R5,1*%
%TO.N,Net-(D5-K)*%
X92675000Y-72165000D03*
%TO.P,R5,2*%
%TO.N,Net-(D1-A)*%
X92675000Y-70515000D03*
%TD*%
D45*
%TO.P,C10,1*%
%TO.N,Net-(T1-AA)*%
X126025000Y-73900000D03*
%TO.P,C10,2*%
%TO.N,VP3CHX*%
X126025000Y-76400000D03*
%TD*%
%TO.P,C11,1*%
%TO.N,VP1CHX*%
X109000000Y-80000000D03*
%TO.P,C11,2*%
%TO.N,Net-(T1-AA)*%
X111500000Y-80000000D03*
%TD*%
D17*
%TO.P,C14,1*%
%TO.N,GND1*%
X72850000Y-98840000D03*
%TO.P,C14,2*%
%TO.N,Net-(U1-HI)*%
X74500000Y-98840000D03*
%TD*%
D22*
%TO.P,C25,1*%
%TO.N,Net-(U2-VDD)*%
X75175000Y-80015000D03*
%TO.P,C25,2*%
%TO.N,GND1*%
X75175000Y-81665000D03*
%TD*%
D31*
%TO.P,D9,1,K*%
%TO.N,Net-(D9-K)*%
X94425000Y-102840000D03*
%TO.P,D9,2,A*%
%TO.N,GND1*%
X96925000Y-102840000D03*
%TD*%
D17*
%TO.P,R9,1*%
%TO.N,Net-(D1-A)*%
X94350000Y-70840000D03*
%TO.P,R9,2*%
%TO.N,Net-(D5-A)*%
X96000000Y-70840000D03*
%TD*%
D12*
%TO.P,C8,1*%
%TO.N,+24CH1*%
X65312500Y-118175000D03*
%TO.P,C8,2*%
%TO.N,GND1*%
X68237500Y-118175000D03*
%TD*%
D34*
%TO.P,C3,1*%
%TO.N,+12V*%
X65875000Y-72225000D03*
%TO.P,C3,2*%
%TO.N,GND1*%
X60475000Y-72225000D03*
%TD*%
D46*
%TO.N,+24CH1*%
X94500000Y-123000000D03*
X67450000Y-120100000D03*
X95225000Y-120100000D03*
X94500000Y-122000000D03*
X94500000Y-121000000D03*
%TO.N,+12V*%
X65675000Y-81625000D03*
X63775000Y-114900000D03*
X68900000Y-88900000D03*
%TO.N,Net-(U1-VDD)*%
X78835000Y-98340000D03*
X75125000Y-92575000D03*
%TO.N,Net-(U2-VDD)*%
X78775000Y-76625000D03*
X74950000Y-70425000D03*
%TO.N,HV*%
X103000000Y-109325000D03*
X103000000Y-112500000D03*
X104175000Y-70875000D03*
X103000000Y-92500000D03*
X103000000Y-111300000D03*
X103000000Y-94500000D03*
X103000000Y-110300000D03*
X103000000Y-93500000D03*
X102250000Y-70825000D03*
X103325000Y-70825000D03*
%TO.N,UxPWMxB'*%
X69025000Y-94650000D03*
%TO.N,UxPWMxA'*%
X71000000Y-95900000D03*
%TO.N,Net-(JP1-C)*%
X81475000Y-111125000D03*
%TO.N,Net-(JP1-B)*%
X76900000Y-108750000D03*
%TO.N,Net-(JP2-C)*%
X87275000Y-112500000D03*
%TO.N,Net-(JP2-B)*%
X87275000Y-114125000D03*
%TO.N,GND1*%
X102000000Y-117725000D03*
X69600000Y-118175000D03*
X71925000Y-82825000D03*
X60450000Y-92450000D03*
X72175000Y-93840000D03*
X78775000Y-99590000D03*
X72450000Y-105400000D03*
X77050000Y-118675000D03*
X78700000Y-77975000D03*
X101050000Y-82225000D03*
X57875000Y-121550000D03*
X96925000Y-81250000D03*
X96950000Y-103765000D03*
X72200000Y-72250000D03*
X61375000Y-99950000D03*
X97975000Y-104740000D03*
X96900000Y-78300000D03*
X71825000Y-99090000D03*
X81450000Y-118550000D03*
X112675000Y-128825000D03*
X76650000Y-104675000D03*
X64500000Y-125225000D03*
X86975000Y-125225000D03*
X58100000Y-72250000D03*
X75175000Y-82840000D03*
X58000000Y-79700000D03*
X71175000Y-76750000D03*
X96975000Y-100840000D03*
%TO.N,GND*%
X75275000Y-111450000D03*
X90000000Y-110075000D03*
X81575000Y-114375000D03*
%TD*%
D47*
%TO.N,3.3V*%
X83150000Y-113550000D02*
X83150000Y-114925000D01*
X76411212Y-114031800D02*
X68246248Y-114031800D01*
X83150000Y-114925000D02*
X81370200Y-116704800D01*
X56000000Y-103829053D02*
X56000000Y-98450000D01*
X81370200Y-116704800D02*
X79084212Y-116704800D01*
X63831747Y-111660800D02*
X56000000Y-103829053D01*
X79084212Y-116704800D02*
X76411212Y-114031800D01*
X68246248Y-114031800D02*
X65875248Y-111660800D01*
X56000000Y-98450000D02*
X50804800Y-93254800D01*
X65875248Y-111660800D02*
X63831747Y-111660800D01*
X50804800Y-93254800D02*
X50804800Y-90370200D01*
X50804800Y-90370200D02*
X51720000Y-89455000D01*
X51720000Y-89455000D02*
X52225000Y-89455000D01*
D48*
%TO.N,SDA*%
X54765000Y-91995000D02*
X56075000Y-93305000D01*
X56075000Y-93305000D02*
X56075000Y-93325000D01*
X56075000Y-93325000D02*
X56631800Y-93881800D01*
X56631800Y-93881800D02*
X56631800Y-103567353D01*
X56631800Y-103567353D02*
X64093447Y-111029000D01*
X64093447Y-111029000D02*
X66136948Y-111029000D01*
X66136948Y-111029000D02*
X68507948Y-113400000D01*
X68507948Y-113400000D02*
X79975000Y-113400000D01*
%TO.N,SCL*%
X52225000Y-91995000D02*
X53495000Y-90725000D01*
X53495000Y-90725000D02*
X55875000Y-90725000D01*
X64281500Y-110575000D02*
X66325000Y-110575000D01*
X55875000Y-90725000D02*
X57085800Y-91935800D01*
X57085800Y-91935800D02*
X57085800Y-103379300D01*
X68500000Y-112750000D02*
X79975000Y-112750000D01*
X57085800Y-103379300D02*
X64281500Y-110575000D01*
X66325000Y-110575000D02*
X68500000Y-112750000D01*
D47*
%TO.N,GND*%
X75275000Y-111450000D02*
X74606800Y-112118200D01*
X74606800Y-112118200D02*
X68761700Y-112118200D01*
X66586700Y-109943200D02*
X64543200Y-109943200D01*
X68761700Y-112118200D02*
X66586700Y-109943200D01*
X64543200Y-109943200D02*
X57717600Y-103117600D01*
X57717600Y-103117600D02*
X57717600Y-91549060D01*
X57717600Y-91549060D02*
X55623540Y-89455000D01*
X55623540Y-89455000D02*
X54765000Y-89455000D01*
D49*
%TO.N,+24CH1*%
X97575000Y-122125000D02*
X97575000Y-121425000D01*
X67450000Y-120100000D02*
X65737500Y-120100000D01*
X97575000Y-121425000D02*
X96250000Y-120100000D01*
X96250000Y-120100000D02*
X95225000Y-120100000D01*
X65312500Y-120572500D02*
X67475000Y-122735000D01*
X65312500Y-119675000D02*
X65312500Y-120572500D01*
X97575000Y-122125000D02*
X97575000Y-118712500D01*
X98637500Y-117575000D02*
X97537500Y-118675000D01*
X65737500Y-120100000D02*
X65312500Y-119675000D01*
X97575000Y-118712500D02*
X97537500Y-118675000D01*
X97575000Y-123825000D02*
X97575000Y-122125000D01*
X65312500Y-118175000D02*
X65312500Y-119675000D01*
X98637500Y-116275000D02*
X98637500Y-117575000D01*
D50*
%TO.N,PWRGND2*%
X146275000Y-90850000D02*
X136715000Y-90850000D01*
X127740000Y-99825000D02*
X127220000Y-100345000D01*
X127220000Y-100345000D02*
X118520000Y-109045000D01*
X143650000Y-102550000D02*
X146375000Y-99825000D01*
X136715000Y-90850000D02*
X127220000Y-100345000D01*
X118520000Y-109045000D02*
X116520000Y-109045000D01*
X146375000Y-99825000D02*
X127740000Y-99825000D01*
X143650000Y-107850000D02*
X143650000Y-102550000D01*
D49*
%TO.N,+12V*%
X63284000Y-115391000D02*
X63284000Y-126524000D01*
X71212500Y-69250000D02*
X68850000Y-69250000D01*
X68850000Y-69250000D02*
X65875000Y-72225000D01*
X68875000Y-91340000D02*
X71212500Y-91340000D01*
X61022500Y-127815000D02*
X61000000Y-127837500D01*
X63284000Y-126524000D02*
X64575000Y-127815000D01*
X65875000Y-94340000D02*
X68875000Y-91340000D01*
X64575000Y-127815000D02*
X61022500Y-127815000D01*
X65875000Y-101840000D02*
X65875000Y-94340000D01*
X67475000Y-127815000D02*
X64575000Y-127815000D01*
X65875000Y-79700000D02*
X65875000Y-72225000D01*
X65875000Y-81425000D02*
X65675000Y-81625000D01*
X68875000Y-88925000D02*
X68900000Y-88900000D01*
X68875000Y-91340000D02*
X68875000Y-88925000D01*
X63775000Y-114900000D02*
X63284000Y-115391000D01*
X65875000Y-79700000D02*
X65875000Y-81425000D01*
D51*
%TO.N,Net-(D2-K)*%
X83637500Y-95377500D02*
X85175000Y-95377500D01*
X84075000Y-94940000D02*
X83637500Y-95377500D01*
X84075000Y-90340000D02*
X84075000Y-94940000D01*
X83215000Y-95800000D02*
X83637500Y-95377500D01*
D47*
X83215000Y-95800000D02*
X82150000Y-95800000D01*
D50*
%TO.N,VP3CHX*%
X129500000Y-78000000D02*
X129500000Y-80825000D01*
X127900000Y-76400000D02*
X129500000Y-78000000D01*
X129500000Y-80825000D02*
X127950000Y-82375000D01*
D49*
X129975000Y-75025000D02*
X129500000Y-75500000D01*
X129975000Y-74050000D02*
X129975000Y-74375000D01*
X129975000Y-74375000D02*
X129975000Y-75025000D01*
D50*
X129500000Y-75500000D02*
X129500000Y-78000000D01*
X105825000Y-102040000D02*
X125490000Y-82375000D01*
X105825000Y-102040000D02*
X99525000Y-102040000D01*
X126025000Y-76400000D02*
X127900000Y-76400000D01*
D51*
X82150000Y-98340000D02*
X85137500Y-98340000D01*
D50*
X125490000Y-82375000D02*
X127950000Y-82375000D01*
D51*
X99525000Y-96640000D02*
X97862500Y-98302500D01*
X85137500Y-98340000D02*
X85175000Y-98302500D01*
X97862500Y-98302500D02*
X85175000Y-98302500D01*
D49*
%TO.N,HV2*%
X97575000Y-127225000D02*
X94575000Y-127225000D01*
X91512500Y-128750000D02*
X91512500Y-125150000D01*
D50*
X95562500Y-114887500D02*
X95562500Y-110725000D01*
X91512500Y-125150000D02*
X91512500Y-118937500D01*
D49*
X92500000Y-125150000D02*
X91512500Y-125150000D01*
X94575000Y-127225000D02*
X92500000Y-125150000D01*
D50*
X91512500Y-118937500D02*
X95562500Y-114887500D01*
D48*
%TO.N,Net-(U1-HI)*%
X75650000Y-97070000D02*
X74770000Y-97070000D01*
X75025000Y-98840000D02*
X75425000Y-98440000D01*
X77200000Y-97070000D02*
X75650000Y-97070000D01*
X74500000Y-98840000D02*
X75025000Y-98840000D01*
X75425000Y-98440000D02*
X75425000Y-97295000D01*
X74770000Y-97070000D02*
X74500000Y-97340000D01*
X75425000Y-97295000D02*
X75650000Y-97070000D01*
%TO.N,Net-(U1-LI)*%
X75925000Y-95800000D02*
X74540000Y-95800000D01*
X75425000Y-95565000D02*
X75660000Y-95800000D01*
X75660000Y-95800000D02*
X75925000Y-95800000D01*
X74975000Y-94340000D02*
X75425000Y-94790000D01*
X77200000Y-95800000D02*
X75925000Y-95800000D01*
X74540000Y-95800000D02*
X74500000Y-95840000D01*
X75425000Y-94790000D02*
X75425000Y-95565000D01*
X74500000Y-94340000D02*
X74975000Y-94340000D01*
D49*
%TO.N,Net-(U1-VDD)*%
X73900000Y-91340000D02*
X74137500Y-91340000D01*
D47*
X75077500Y-101377500D02*
X75675000Y-101975000D01*
X77200000Y-98340000D02*
X76460000Y-98340000D01*
X76460000Y-98340000D02*
X75600000Y-99200000D01*
D49*
X71400000Y-88840000D02*
X73900000Y-91340000D01*
X71212500Y-88840000D02*
X71400000Y-88840000D01*
D47*
X71175000Y-101377500D02*
X73675000Y-101377500D01*
X74822500Y-101377500D02*
X73675000Y-101377500D01*
D49*
X74137500Y-91340000D02*
X74137500Y-91587500D01*
D51*
X78835000Y-98340000D02*
X77200000Y-98340000D01*
D47*
X75675000Y-101975000D02*
X75675000Y-102840000D01*
D49*
X74137500Y-91587500D02*
X75125000Y-92575000D01*
D47*
X75600000Y-100600000D02*
X74822500Y-101377500D01*
X73675000Y-101377500D02*
X75077500Y-101377500D01*
X75600000Y-99200000D02*
X75600000Y-100600000D01*
D48*
%TO.N,Net-(U2-HI)*%
X74450000Y-76750000D02*
X74450000Y-75300000D01*
X74555000Y-75305000D02*
X74500000Y-75250000D01*
X74450000Y-75300000D02*
X74500000Y-75250000D01*
X77200000Y-75305000D02*
X74555000Y-75305000D01*
D49*
%TO.N,VP1CHX*%
X105985000Y-80000000D02*
X105825000Y-79840000D01*
D50*
X105825000Y-79840000D02*
X111500000Y-74165000D01*
X111500000Y-74165000D02*
X111500000Y-71450000D01*
D51*
X92725000Y-74600000D02*
X99277500Y-74600000D01*
X99277500Y-74600000D02*
X99525000Y-74352500D01*
X82150000Y-76575000D02*
X90750000Y-76575000D01*
X90750000Y-76575000D02*
X92725000Y-74600000D01*
D50*
X105825000Y-79840000D02*
X99525000Y-79840000D01*
D49*
X109000000Y-80000000D02*
X105985000Y-80000000D01*
D51*
%TO.N,Net-(D3-K)*%
X84965000Y-74035000D02*
X85175000Y-73825000D01*
X84100000Y-68250000D02*
X84100000Y-72085000D01*
X84100000Y-72085000D02*
X82150000Y-74035000D01*
X82150000Y-74035000D02*
X84965000Y-74035000D01*
%TO.N,Net-(U2-VDD)*%
X78725000Y-76575000D02*
X78775000Y-76625000D01*
D49*
X74137500Y-69612500D02*
X74950000Y-70425000D01*
X70700000Y-78787500D02*
X73162500Y-78787500D01*
X73910000Y-78750000D02*
X75175000Y-80015000D01*
X73200000Y-78750000D02*
X73910000Y-78750000D01*
D51*
X77200000Y-76575000D02*
X78725000Y-76575000D01*
X76421132Y-76575000D02*
X74246132Y-78750000D01*
D49*
X71475000Y-66750000D02*
X73975000Y-69250000D01*
D51*
X77200000Y-76575000D02*
X76421132Y-76575000D01*
D49*
X74137500Y-69250000D02*
X74137500Y-69612500D01*
X73975000Y-69250000D02*
X74137500Y-69250000D01*
D51*
X74246132Y-78750000D02*
X73200000Y-78750000D01*
D49*
X71212500Y-66750000D02*
X71475000Y-66750000D01*
X73162500Y-78787500D02*
X73200000Y-78750000D01*
D48*
%TO.N,Net-(U2-LI)*%
X74450000Y-73700000D02*
X74500000Y-73750000D01*
X74785000Y-74035000D02*
X74500000Y-73750000D01*
X77200000Y-74035000D02*
X74785000Y-74035000D01*
X74450000Y-72250000D02*
X74450000Y-73700000D01*
%TO.N,3.3V*%
X88150000Y-111150000D02*
X87590140Y-111150000D01*
X86640140Y-112100000D02*
X85700000Y-112100000D01*
X87590140Y-111150000D02*
X86640140Y-112100000D01*
D52*
X85700000Y-112100000D02*
X84600000Y-112100000D01*
D48*
X88275000Y-111150000D02*
X89875000Y-112750000D01*
D47*
X82000000Y-108575000D02*
X83150000Y-109725000D01*
X79575000Y-108575000D02*
X82000000Y-108575000D01*
D48*
X88150000Y-111150000D02*
X88275000Y-111150000D01*
D47*
X84600000Y-112100000D02*
X83150000Y-113550000D01*
X89875000Y-112750000D02*
X89875000Y-114250000D01*
X83150000Y-109725000D02*
X83150000Y-113550000D01*
D49*
%TO.N,Net-(T1-AA)*%
X128475000Y-71450000D02*
X129000000Y-71450000D01*
X126025000Y-73900000D02*
X128475000Y-71450000D01*
D50*
X132600000Y-71450000D02*
X135525000Y-74375000D01*
D49*
X111500000Y-80000000D02*
X112850000Y-80000000D01*
X112850000Y-80000000D02*
X121400000Y-71450000D01*
D50*
X129000000Y-71450000D02*
X132600000Y-71450000D01*
X121400000Y-71450000D02*
X129000000Y-71450000D01*
X135525000Y-82330000D02*
X135570000Y-82375000D01*
X135525000Y-74375000D02*
X135525000Y-82330000D01*
D51*
%TO.N,Net-(D1-K)*%
X89350000Y-71670000D02*
X88520000Y-70840000D01*
X89350000Y-73340000D02*
X89350000Y-71670000D01*
%TO.N,Net-(D1-A)*%
X94350000Y-70840000D02*
X93000000Y-70840000D01*
X92675000Y-70025000D02*
X93475000Y-69225000D01*
X92675000Y-70515000D02*
X91200000Y-70515000D01*
X98997500Y-69225000D02*
X99525000Y-69752500D01*
X92675000Y-70515000D02*
X92675000Y-70025000D01*
X93000000Y-70840000D02*
X92675000Y-70515000D01*
X93475000Y-69225000D02*
X98997500Y-69225000D01*
X91200000Y-70515000D02*
X90875000Y-70840000D01*
D49*
%TO.N,Net-(D2-A)*%
X74137500Y-88840000D02*
X75775000Y-88840000D01*
X75775000Y-88840000D02*
X77275000Y-90340000D01*
%TO.N,Net-(D3-A)*%
X75800000Y-66750000D02*
X77300000Y-68250000D01*
X74137500Y-66750000D02*
X75800000Y-66750000D01*
%TO.N,Net-(D4-K)*%
X89350000Y-79670000D02*
X88520000Y-78840000D01*
X89350000Y-81340000D02*
X89350000Y-79670000D01*
D51*
%TO.N,Net-(D4-A)*%
X93975000Y-76550000D02*
X96900000Y-76550000D01*
X96900000Y-76550000D02*
X97890000Y-77540000D01*
X93975000Y-76800000D02*
X93975000Y-76550000D01*
X92690000Y-78175000D02*
X92675000Y-78190000D01*
X92675000Y-78190000D02*
X92675000Y-78100000D01*
X97890000Y-77540000D02*
X99525000Y-77540000D01*
X92675000Y-78100000D02*
X93975000Y-76800000D01*
X90875000Y-78840000D02*
X90875000Y-78225000D01*
X94185000Y-78175000D02*
X92690000Y-78175000D01*
X94350000Y-78340000D02*
X94185000Y-78175000D01*
X92550000Y-76550000D02*
X93975000Y-76550000D01*
X90875000Y-78225000D02*
X92550000Y-76550000D01*
D49*
%TO.N,Net-(D5-A)*%
X96000000Y-70840000D02*
X96000000Y-71915000D01*
X96000000Y-71915000D02*
X96925000Y-72840000D01*
D51*
%TO.N,Net-(D5-K)*%
X92675000Y-72575000D02*
X91850000Y-73400000D01*
X92675000Y-72165000D02*
X92675000Y-72575000D01*
X94425000Y-72840000D02*
X93865000Y-73400000D01*
X91060000Y-73400000D02*
X91000000Y-73340000D01*
X82150000Y-75305000D02*
X90345000Y-75305000D01*
X92625000Y-73400000D02*
X91850000Y-73400000D01*
X91850000Y-73400000D02*
X91060000Y-73400000D01*
X92250000Y-73400000D02*
X92625000Y-73400000D01*
X90345000Y-75305000D02*
X92250000Y-73400000D01*
X93865000Y-73400000D02*
X92625000Y-73400000D01*
%TO.N,Net-(D6-K)*%
X92050000Y-81340000D02*
X92700000Y-81340000D01*
X91290000Y-82750000D02*
X92700000Y-81340000D01*
X82150000Y-77845000D02*
X86759400Y-82454400D01*
X92675000Y-80715000D02*
X92050000Y-81340000D01*
X92700000Y-81340000D02*
X93425000Y-81340000D01*
X86759400Y-82459400D02*
X87050000Y-82750000D01*
X92675000Y-79840000D02*
X92675000Y-80715000D01*
X86759400Y-82454400D02*
X86759400Y-82459400D01*
X93425000Y-81340000D02*
X94425000Y-80340000D01*
X87050000Y-82750000D02*
X91290000Y-82750000D01*
X91000000Y-81340000D02*
X92050000Y-81340000D01*
%TO.N,Net-(D7-A)*%
X92675000Y-94665000D02*
X93750000Y-94665000D01*
X93750000Y-94665000D02*
X94425000Y-95340000D01*
%TO.N,Net-(D7-K)*%
X95650000Y-96490000D02*
X95650000Y-94540000D01*
X82150000Y-97070000D02*
X90675000Y-97070000D01*
X96550000Y-95340000D02*
X96925000Y-95340000D01*
X90675000Y-97070000D02*
X91000000Y-96745000D01*
X95650000Y-94540000D02*
X95700000Y-94490000D01*
X94550000Y-93340000D02*
X95700000Y-94490000D01*
X95070000Y-97070000D02*
X95650000Y-96490000D01*
X95700000Y-94490000D02*
X96550000Y-95340000D01*
X91000000Y-96745000D02*
X91000000Y-95840000D01*
X90675000Y-97070000D02*
X95070000Y-97070000D01*
%TO.N,Net-(D9-K)*%
X84175000Y-100515000D02*
X84175000Y-101615000D01*
X91725000Y-104490000D02*
X92875000Y-103340000D01*
X87050000Y-104490000D02*
X91725000Y-104490000D01*
X82150000Y-99610000D02*
X83270000Y-99610000D01*
X92675000Y-102165000D02*
X92675000Y-102690000D01*
X92675000Y-102690000D02*
X92025000Y-103340000D01*
X91000000Y-103340000D02*
X92025000Y-103340000D01*
X92875000Y-103340000D02*
X93925000Y-103340000D01*
X83270000Y-99610000D02*
X84175000Y-100515000D01*
X84175000Y-101615000D02*
X87050000Y-104490000D01*
X93925000Y-103340000D02*
X94425000Y-102840000D01*
X92025000Y-103340000D02*
X92875000Y-103340000D01*
%TO.N,Net-(D10-A)*%
X92675000Y-92715000D02*
X93350000Y-92040000D01*
X93350000Y-92040000D02*
X97500000Y-92040000D01*
X90875000Y-93340000D02*
X92350000Y-93340000D01*
X96200000Y-93340000D02*
X97500000Y-92040000D01*
X92350000Y-93340000D02*
X92675000Y-93015000D01*
X92675000Y-93015000D02*
X92675000Y-92715000D01*
X97500000Y-92040000D02*
X99525000Y-92040000D01*
%TO.N,Net-(D10-K)*%
X89350000Y-95840000D02*
X89350000Y-94170000D01*
X89350000Y-94170000D02*
X88520000Y-93340000D01*
%TO.N,Net-(D11-A)*%
X99525000Y-99740000D02*
X99225000Y-99440000D01*
X92675000Y-100115000D02*
X92675000Y-100515000D01*
X94350000Y-100840000D02*
X94350000Y-100465000D01*
X92675000Y-100515000D02*
X91200000Y-100515000D01*
X99225000Y-99440000D02*
X95250000Y-99440000D01*
X93325000Y-99465000D02*
X92675000Y-100115000D01*
X95250000Y-99565000D02*
X95250000Y-99440000D01*
X94350000Y-100465000D02*
X95250000Y-99565000D01*
X95225000Y-99465000D02*
X93325000Y-99465000D01*
X95250000Y-99440000D02*
X95225000Y-99465000D01*
X91200000Y-100515000D02*
X90875000Y-100840000D01*
%TO.N,Net-(D11-K)*%
X89350000Y-101670000D02*
X88520000Y-100840000D01*
X89350000Y-103340000D02*
X89350000Y-101670000D01*
D49*
%TO.N,HV*%
X101700000Y-72052500D02*
X105825000Y-72052500D01*
X102097500Y-72052500D02*
X103325000Y-70825000D01*
X101700000Y-72052500D02*
X102097500Y-72052500D01*
X99525000Y-72052500D02*
X101700000Y-72052500D01*
D50*
%TO.N,VSCH1*%
X141915000Y-117600000D02*
X141915000Y-112510000D01*
X141915000Y-112510000D02*
X143650000Y-110775000D01*
D48*
%TO.N,UxPWMxB'*%
X65575000Y-84375000D02*
X54765000Y-84375000D01*
X72850000Y-73750000D02*
X71200000Y-73750000D01*
X69025000Y-94650000D02*
X69025000Y-95525000D01*
X69025000Y-95525000D02*
X70840000Y-97340000D01*
X70840000Y-97340000D02*
X72850000Y-97340000D01*
X68700000Y-81250000D02*
X65575000Y-84375000D01*
X68700000Y-76250000D02*
X68700000Y-81250000D01*
X71200000Y-73750000D02*
X68700000Y-76250000D01*
%TO.N,UxPWMxA'*%
X70342052Y-75250000D02*
X72850000Y-75250000D01*
X53475000Y-85625000D02*
X65027072Y-85625000D01*
X69154000Y-76438052D02*
X70342052Y-75250000D01*
X71060000Y-95840000D02*
X72850000Y-95840000D01*
X65027072Y-85625000D02*
X69154000Y-81498072D01*
X71000000Y-95900000D02*
X71060000Y-95840000D01*
X69154000Y-81498072D02*
X69154000Y-76438052D01*
X52225000Y-84375000D02*
X53475000Y-85625000D01*
%TO.N,Net-(JP1-C)*%
X81475000Y-111375000D02*
X80750000Y-112100000D01*
X81475000Y-111125000D02*
X81475000Y-111375000D01*
X80750000Y-112100000D02*
X79975000Y-112100000D01*
%TO.N,Net-(JP1-B)*%
X77075000Y-108575000D02*
X76900000Y-108750000D01*
X77925000Y-108575000D02*
X77075000Y-108575000D01*
%TO.N,Net-(JP2-C)*%
X85700000Y-112750000D02*
X87025000Y-112750000D01*
X87025000Y-112750000D02*
X87275000Y-112500000D01*
%TO.N,Net-(JP2-B)*%
X87400000Y-114250000D02*
X87275000Y-114125000D01*
X88225000Y-114250000D02*
X87400000Y-114250000D01*
D47*
%TO.N,P0B00*%
X84475000Y-114700000D02*
X84037500Y-115137500D01*
X84625000Y-114700000D02*
X84475000Y-114700000D01*
X84037500Y-115137500D02*
X84037500Y-118350000D01*
D52*
X85700000Y-114700000D02*
X84625000Y-114700000D01*
D53*
%TO.N,P0W00*%
X95475000Y-128925000D02*
X93400000Y-131000000D01*
X90100000Y-131000000D02*
X88825000Y-129725000D01*
D49*
X93512500Y-128925000D02*
X93337500Y-128750000D01*
D52*
X86625000Y-115350000D02*
X85700000Y-115350000D01*
D53*
X97575000Y-128925000D02*
X95475000Y-128925000D01*
X88825000Y-117550000D02*
X86625000Y-115350000D01*
D49*
X97575000Y-128925000D02*
X93512500Y-128925000D01*
D53*
X88825000Y-129725000D02*
X88825000Y-117550000D01*
X93400000Y-131000000D02*
X90100000Y-131000000D01*
D48*
%TO.N,Net-(U6E-~{RESET})*%
X85700000Y-113400000D02*
X87575000Y-113400000D01*
X87575000Y-113400000D02*
X88225000Y-112750000D01*
D51*
%TO.N,GND1*%
X96925000Y-80340000D02*
X96925000Y-81250000D01*
D47*
X72075000Y-98840000D02*
X71825000Y-99090000D01*
D51*
X106725000Y-125525000D02*
X109375000Y-125525000D01*
D49*
X70700000Y-81712500D02*
X73162500Y-81712500D01*
X75175000Y-81665000D02*
X75175000Y-82840000D01*
X58125000Y-72225000D02*
X58100000Y-72250000D01*
X72900000Y-76750000D02*
X71175000Y-76750000D01*
D51*
X85362500Y-125225000D02*
X85287500Y-125150000D01*
D49*
X97575000Y-125525000D02*
X101375000Y-125525000D01*
D47*
X72850000Y-98840000D02*
X72075000Y-98840000D01*
D49*
X73162500Y-81712500D02*
X73200000Y-81675000D01*
D51*
X86975000Y-125225000D02*
X85362500Y-125225000D01*
D49*
X60450000Y-94315000D02*
X60475000Y-94340000D01*
D51*
X109375000Y-125525000D02*
X112675000Y-128825000D01*
D49*
X70700000Y-81712500D02*
X70812500Y-81712500D01*
X60475000Y-79700000D02*
X58000000Y-79700000D01*
X60937500Y-121550000D02*
X61000000Y-121612500D01*
D47*
X72675000Y-94340000D02*
X72175000Y-93840000D01*
D49*
X68237500Y-118175000D02*
X69600000Y-118175000D01*
X70812500Y-81712500D02*
X71925000Y-82825000D01*
X76465000Y-104490000D02*
X76650000Y-104675000D01*
D51*
X96925000Y-102840000D02*
X96925000Y-103740000D01*
D49*
X73675000Y-104302500D02*
X73547500Y-104302500D01*
X64550000Y-125275000D02*
X64500000Y-125225000D01*
X71175000Y-104302500D02*
X73675000Y-104302500D01*
X60475000Y-72225000D02*
X58125000Y-72225000D01*
X76625000Y-119100000D02*
X77050000Y-118675000D01*
D51*
X96000000Y-78340000D02*
X96860000Y-78340000D01*
D49*
X61375000Y-100940000D02*
X61375000Y-99950000D01*
D51*
X77200000Y-77845000D02*
X78570000Y-77845000D01*
D47*
X82362500Y-118500000D02*
X81500000Y-118500000D01*
D51*
X78570000Y-77845000D02*
X78700000Y-77975000D01*
D54*
X101375000Y-125525000D02*
X106725000Y-125525000D01*
D49*
X67475000Y-125275000D02*
X64550000Y-125275000D01*
D47*
X78755000Y-99610000D02*
X78775000Y-99590000D01*
D49*
X57875000Y-121550000D02*
X60937500Y-121550000D01*
D51*
X101050000Y-118675000D02*
X102000000Y-117725000D01*
D49*
X76625000Y-125275000D02*
X76625000Y-119100000D01*
D47*
X77200000Y-99610000D02*
X78755000Y-99610000D01*
D51*
X100965000Y-82140000D02*
X101050000Y-82225000D01*
X99525000Y-82140000D02*
X100965000Y-82140000D01*
X100462500Y-118675000D02*
X101050000Y-118675000D01*
D49*
X73547500Y-104302500D02*
X72450000Y-105400000D01*
X72900000Y-72250000D02*
X72200000Y-72250000D01*
X75675000Y-104490000D02*
X76465000Y-104490000D01*
D51*
X96000000Y-100840000D02*
X96975000Y-100840000D01*
X96925000Y-103740000D02*
X96950000Y-103765000D01*
D47*
X72850000Y-94340000D02*
X72675000Y-94340000D01*
D49*
X60450000Y-92450000D02*
X60450000Y-94315000D01*
D51*
X96860000Y-78340000D02*
X96900000Y-78300000D01*
D49*
X60475000Y-101840000D02*
X61375000Y-100940000D01*
D51*
X99525000Y-104340000D02*
X98375000Y-104340000D01*
X100462500Y-118675000D02*
X100462500Y-116275000D01*
D49*
X67475000Y-125275000D02*
X76625000Y-125275000D01*
D51*
X98375000Y-104340000D02*
X97975000Y-104740000D01*
D47*
%TO.N,GND*%
X90000000Y-110850000D02*
X89700000Y-111150000D01*
X90000000Y-110075000D02*
X90000000Y-110850000D01*
D48*
X81250000Y-114050000D02*
X81575000Y-114375000D01*
X79975000Y-114050000D02*
X81250000Y-114050000D01*
%TD*%
%TA.AperFunction,Conductor*%
%TO.N,GND1*%
G36*
X72480702Y-91347382D02*
G01*
X72487180Y-91353414D01*
X73038181Y-91904415D01*
X73071666Y-91965738D01*
X73074500Y-91992091D01*
X73074500Y-92014998D01*
X73074501Y-92015019D01*
X73085000Y-92117796D01*
X73085001Y-92117799D01*
X73140185Y-92284331D01*
X73140187Y-92284336D01*
X73165439Y-92325276D01*
X73232288Y-92433656D01*
X73356344Y-92557712D01*
X73505666Y-92649814D01*
X73672203Y-92704999D01*
X73774991Y-92715500D01*
X73787897Y-92715499D01*
X73854936Y-92735179D01*
X73875584Y-92751818D01*
X74280655Y-93156889D01*
X74314140Y-93218212D01*
X74309156Y-93287904D01*
X74267284Y-93343837D01*
X74204198Y-93368061D01*
X74197283Y-93368689D01*
X74172804Y-93370914D01*
X74064530Y-93404652D01*
X74010393Y-93421522D01*
X73864811Y-93509530D01*
X73744530Y-93629811D01*
X73656522Y-93775393D01*
X73605913Y-93937807D01*
X73600782Y-93994275D01*
X73599500Y-94008384D01*
X73599500Y-94671616D01*
X73605914Y-94742196D01*
X73606996Y-94745668D01*
X73639301Y-94849342D01*
X73640451Y-94919202D01*
X73603649Y-94978594D01*
X73540580Y-95008662D01*
X73471267Y-94999858D01*
X73456771Y-94992351D01*
X73339606Y-94921522D01*
X73177196Y-94870914D01*
X73177194Y-94870913D01*
X73177192Y-94870913D01*
X73127778Y-94866423D01*
X73106616Y-94864500D01*
X72593384Y-94864500D01*
X72574145Y-94866248D01*
X72522807Y-94870913D01*
X72360393Y-94921522D01*
X72214811Y-95009530D01*
X72094531Y-95129810D01*
X72094528Y-95129814D01*
X72080723Y-95152651D01*
X72029195Y-95199838D01*
X71974607Y-95212500D01*
X71446183Y-95212500D01*
X71380212Y-95193494D01*
X71349521Y-95174209D01*
X71179262Y-95114633D01*
X71179249Y-95114630D01*
X71000004Y-95094435D01*
X70999996Y-95094435D01*
X70820750Y-95114630D01*
X70820745Y-95114631D01*
X70650476Y-95174211D01*
X70497737Y-95270184D01*
X70370184Y-95397737D01*
X70274210Y-95550478D01*
X70252213Y-95613344D01*
X70211491Y-95670121D01*
X70146538Y-95695868D01*
X70077977Y-95682412D01*
X70047490Y-95660071D01*
X69688819Y-95301400D01*
X69655334Y-95240077D01*
X69652500Y-95213719D01*
X69652500Y-95191671D01*
X69671507Y-95125698D01*
X69678461Y-95114632D01*
X69723596Y-95042799D01*
X69750788Y-94999524D01*
X69750789Y-94999522D01*
X69810368Y-94829255D01*
X69810369Y-94829249D01*
X69830565Y-94650003D01*
X69830565Y-94649996D01*
X69810369Y-94470750D01*
X69810368Y-94470745D01*
X69788547Y-94408384D01*
X69750789Y-94300478D01*
X69747356Y-94295015D01*
X69681685Y-94190500D01*
X69654816Y-94147738D01*
X69527262Y-94020184D01*
X69508486Y-94008386D01*
X69374523Y-93924211D01*
X69204254Y-93864631D01*
X69204249Y-93864630D01*
X69025004Y-93844435D01*
X69024996Y-93844435D01*
X68845750Y-93864630D01*
X68845745Y-93864631D01*
X68675476Y-93924211D01*
X68522737Y-94020184D01*
X68395184Y-94147737D01*
X68395182Y-94147740D01*
X68354492Y-94212497D01*
X68302157Y-94258788D01*
X68233103Y-94269435D01*
X68169255Y-94241059D01*
X68130884Y-94182669D01*
X68125499Y-94146524D01*
X68125499Y-93739998D01*
X68125498Y-93739981D01*
X68122479Y-93710432D01*
X68114999Y-93637203D01*
X68111436Y-93626453D01*
X68109035Y-93556627D01*
X68141460Y-93499772D01*
X69256416Y-92384819D01*
X69317739Y-92351334D01*
X69344097Y-92348500D01*
X70185557Y-92348500D01*
X70252596Y-92368185D01*
X70291095Y-92407403D01*
X70307288Y-92433656D01*
X70431344Y-92557712D01*
X70580666Y-92649814D01*
X70747203Y-92704999D01*
X70849991Y-92715500D01*
X71575008Y-92715499D01*
X71575016Y-92715498D01*
X71575019Y-92715498D01*
X71631302Y-92709748D01*
X71677797Y-92704999D01*
X71844334Y-92649814D01*
X71993656Y-92557712D01*
X72117712Y-92433656D01*
X72209814Y-92284334D01*
X72264999Y-92117797D01*
X72275500Y-92015009D01*
X72275499Y-91441093D01*
X72295183Y-91374056D01*
X72347987Y-91328301D01*
X72417146Y-91318357D01*
X72480702Y-91347382D01*
G37*
%TD.AperFunction*%
%TA.AperFunction,Conductor*%
G36*
X72480702Y-69182382D02*
G01*
X72487180Y-69188414D01*
X73038181Y-69739415D01*
X73071666Y-69800738D01*
X73074500Y-69827095D01*
X73074500Y-69925000D01*
X73074501Y-69925019D01*
X73085000Y-70027796D01*
X73085001Y-70027799D01*
X73126020Y-70151585D01*
X73140186Y-70194334D01*
X73232288Y-70343656D01*
X73356344Y-70467712D01*
X73505666Y-70559814D01*
X73672200Y-70614998D01*
X73672203Y-70614999D01*
X73674601Y-70615244D01*
X73675985Y-70615808D01*
X73678827Y-70616417D01*
X73678718Y-70616923D01*
X73739292Y-70641635D01*
X73749686Y-70650921D01*
X74170522Y-71071757D01*
X74204007Y-71133080D01*
X74199023Y-71202772D01*
X74157151Y-71258705D01*
X74095447Y-71282796D01*
X74077289Y-71284651D01*
X73916305Y-71337996D01*
X73916294Y-71338001D01*
X73771959Y-71427029D01*
X73771955Y-71427032D01*
X73652032Y-71546955D01*
X73652029Y-71546959D01*
X73563001Y-71691294D01*
X73562996Y-71691305D01*
X73509651Y-71852290D01*
X73499500Y-71951647D01*
X73499500Y-72548337D01*
X73499501Y-72548355D01*
X73509650Y-72647707D01*
X73509652Y-72647714D01*
X73522725Y-72687166D01*
X73525126Y-72756995D01*
X73489394Y-72817036D01*
X73426874Y-72848228D01*
X73357414Y-72840667D01*
X73340868Y-72832285D01*
X73339606Y-72831522D01*
X73177196Y-72780914D01*
X73177194Y-72780913D01*
X73177192Y-72780913D01*
X73127778Y-72776423D01*
X73106616Y-72774500D01*
X72593384Y-72774500D01*
X72574145Y-72776248D01*
X72522807Y-72780913D01*
X72360393Y-72831522D01*
X72214811Y-72919530D01*
X72094531Y-73039810D01*
X72094528Y-73039814D01*
X72080723Y-73062651D01*
X72029195Y-73109838D01*
X71974607Y-73122500D01*
X71138192Y-73122500D01*
X71016972Y-73146612D01*
X71016964Y-73146614D01*
X70938168Y-73179253D01*
X70902770Y-73193915D01*
X70902761Y-73193920D01*
X70807351Y-73257672D01*
X70807346Y-73257675D01*
X70799995Y-73262585D01*
X70799992Y-73262588D01*
X69548331Y-74514250D01*
X68299992Y-75762589D01*
X68256289Y-75806292D01*
X68212586Y-75849994D01*
X68212585Y-75849996D01*
X68143920Y-75952761D01*
X68143913Y-75952773D01*
X68138303Y-75966319D01*
X68138303Y-75966320D01*
X68096615Y-76066962D01*
X68096612Y-76066972D01*
X68080992Y-76145502D01*
X68080992Y-76145503D01*
X68072500Y-76188194D01*
X68072500Y-78486770D01*
X68052815Y-78553809D01*
X68000011Y-78599564D01*
X67930853Y-78609508D01*
X67867297Y-78580483D01*
X67860819Y-78574451D01*
X67843657Y-78557289D01*
X67843656Y-78557288D01*
X67750888Y-78500069D01*
X67694336Y-78465187D01*
X67694331Y-78465185D01*
X67647039Y-78449514D01*
X67527797Y-78410001D01*
X67527795Y-78410000D01*
X67425016Y-78399500D01*
X67425009Y-78399500D01*
X67007500Y-78399500D01*
X66940461Y-78379815D01*
X66894706Y-78327011D01*
X66883500Y-78275500D01*
X66883500Y-73649499D01*
X66903185Y-73582460D01*
X66955989Y-73536705D01*
X67007500Y-73525499D01*
X67425002Y-73525499D01*
X67425008Y-73525499D01*
X67527797Y-73514999D01*
X67694334Y-73459814D01*
X67843656Y-73367712D01*
X67967712Y-73243656D01*
X68059814Y-73094334D01*
X68114999Y-72927797D01*
X68125500Y-72825009D01*
X68125499Y-71624992D01*
X68114999Y-71522203D01*
X68111436Y-71511453D01*
X68109035Y-71441627D01*
X68141460Y-71384772D01*
X69231415Y-70294819D01*
X69292738Y-70261334D01*
X69319096Y-70258500D01*
X70185557Y-70258500D01*
X70252596Y-70278185D01*
X70291095Y-70317403D01*
X70298905Y-70330065D01*
X70307288Y-70343656D01*
X70431344Y-70467712D01*
X70580666Y-70559814D01*
X70747203Y-70614999D01*
X70849991Y-70625500D01*
X71575008Y-70625499D01*
X71575016Y-70625498D01*
X71575019Y-70625498D01*
X71658962Y-70616923D01*
X71677797Y-70614999D01*
X71844334Y-70559814D01*
X71993656Y-70467712D01*
X72117712Y-70343656D01*
X72209814Y-70194334D01*
X72264999Y-70027797D01*
X72275500Y-69925009D01*
X72275499Y-69276093D01*
X72295183Y-69209056D01*
X72347987Y-69163301D01*
X72417146Y-69153357D01*
X72480702Y-69182382D01*
G37*
%TD.AperFunction*%
%TA.AperFunction,Conductor*%
G36*
X72041646Y-75897185D02*
G01*
X72080723Y-75937349D01*
X72094528Y-75960185D01*
X72094531Y-75960189D01*
X72214811Y-76080469D01*
X72214813Y-76080470D01*
X72214815Y-76080472D01*
X72360394Y-76168478D01*
X72522804Y-76219086D01*
X72593384Y-76225500D01*
X72593387Y-76225500D01*
X73106613Y-76225500D01*
X73106616Y-76225500D01*
X73177196Y-76219086D01*
X73339606Y-76168478D01*
X73340861Y-76167719D01*
X73341904Y-76167443D01*
X73346445Y-76165400D01*
X73346784Y-76166154D01*
X73408411Y-76149876D01*
X73474887Y-76171388D01*
X73519180Y-76225423D01*
X73527228Y-76294828D01*
X73522726Y-76312832D01*
X73509651Y-76352291D01*
X73499500Y-76451647D01*
X73499500Y-77048337D01*
X73499501Y-77048355D01*
X73509650Y-77147707D01*
X73509651Y-77147710D01*
X73562996Y-77308694D01*
X73563001Y-77308705D01*
X73652029Y-77453040D01*
X73652032Y-77453044D01*
X73674307Y-77475319D01*
X73707792Y-77536642D01*
X73702808Y-77606334D01*
X73660936Y-77662267D01*
X73595472Y-77686684D01*
X73586626Y-77687000D01*
X72524998Y-77687000D01*
X72524981Y-77687001D01*
X72422203Y-77697500D01*
X72422200Y-77697501D01*
X72255668Y-77752685D01*
X72255663Y-77752687D01*
X72247622Y-77757647D01*
X72242933Y-77760539D01*
X72177838Y-77779000D01*
X71630587Y-77779000D01*
X71591583Y-77772706D01*
X71554865Y-77760539D01*
X71477797Y-77735001D01*
X71477795Y-77735000D01*
X71375010Y-77724500D01*
X70024998Y-77724500D01*
X70024981Y-77724501D01*
X69918101Y-77735420D01*
X69849409Y-77722650D01*
X69798524Y-77674769D01*
X69781500Y-77612062D01*
X69781500Y-76749333D01*
X69801185Y-76682294D01*
X69817819Y-76661652D01*
X70565652Y-75913819D01*
X70626975Y-75880334D01*
X70653333Y-75877500D01*
X71974607Y-75877500D01*
X72041646Y-75897185D01*
G37*
%TD.AperFunction*%
%TA.AperFunction,Conductor*%
G36*
X147003736Y-63500726D02*
G01*
X147293796Y-63518271D01*
X147308659Y-63520076D01*
X147590798Y-63571780D01*
X147605335Y-63575363D01*
X147879172Y-63660695D01*
X147893163Y-63666000D01*
X148154743Y-63783727D01*
X148167989Y-63790680D01*
X148413465Y-63939075D01*
X148425776Y-63947573D01*
X148513319Y-64016158D01*
X148651573Y-64124473D01*
X148662781Y-64134403D01*
X148865596Y-64337218D01*
X148875526Y-64348426D01*
X148995481Y-64501538D01*
X149052422Y-64574217D01*
X149060926Y-64586537D01*
X149112168Y-64671302D01*
X149209316Y-64832004D01*
X149216275Y-64845263D01*
X149333997Y-65106831D01*
X149339306Y-65120832D01*
X149424635Y-65394663D01*
X149428219Y-65409201D01*
X149479923Y-65691340D01*
X149481728Y-65706205D01*
X149499274Y-65996263D01*
X149499500Y-66003750D01*
X149499500Y-129996249D01*
X149499274Y-130003736D01*
X149481728Y-130293794D01*
X149479923Y-130308659D01*
X149428219Y-130590798D01*
X149424635Y-130605336D01*
X149339306Y-130879167D01*
X149333997Y-130893168D01*
X149216275Y-131154736D01*
X149209316Y-131167995D01*
X149060928Y-131413459D01*
X149052422Y-131425782D01*
X148875526Y-131651573D01*
X148865596Y-131662781D01*
X148662781Y-131865596D01*
X148651573Y-131875526D01*
X148425782Y-132052422D01*
X148413459Y-132060928D01*
X148167995Y-132209316D01*
X148154736Y-132216275D01*
X147893168Y-132333997D01*
X147879167Y-132339306D01*
X147605336Y-132424635D01*
X147590798Y-132428219D01*
X147308659Y-132479923D01*
X147293794Y-132481728D01*
X147003736Y-132499274D01*
X146996249Y-132499500D01*
X53003751Y-132499500D01*
X52996264Y-132499274D01*
X52706205Y-132481728D01*
X52691340Y-132479923D01*
X52409201Y-132428219D01*
X52394663Y-132424635D01*
X52120832Y-132339306D01*
X52106831Y-132333997D01*
X51845263Y-132216275D01*
X51832004Y-132209316D01*
X51586540Y-132060928D01*
X51574217Y-132052422D01*
X51348426Y-131875526D01*
X51337218Y-131865596D01*
X51134403Y-131662781D01*
X51124473Y-131651573D01*
X51073146Y-131586059D01*
X50947573Y-131425776D01*
X50939075Y-131413465D01*
X50790680Y-131167989D01*
X50783727Y-131154743D01*
X50666000Y-130893163D01*
X50660693Y-130879167D01*
X50648113Y-130838797D01*
X50575363Y-130605335D01*
X50571780Y-130590798D01*
X50520075Y-130308657D01*
X50518271Y-130293794D01*
X50512958Y-130205966D01*
X50500726Y-130003736D01*
X50500613Y-130000000D01*
X50894592Y-130000000D01*
X50914201Y-130286680D01*
X50972666Y-130568034D01*
X50972667Y-130568037D01*
X51068894Y-130838793D01*
X51068893Y-130838793D01*
X51201098Y-131093935D01*
X51366812Y-131328700D01*
X51445972Y-131413459D01*
X51562947Y-131538708D01*
X51785853Y-131720055D01*
X51842493Y-131754499D01*
X52031382Y-131869365D01*
X52218237Y-131950526D01*
X52294942Y-131983844D01*
X52571642Y-132061371D01*
X52821920Y-132095771D01*
X52856321Y-132100500D01*
X52856322Y-132100500D01*
X53143679Y-132100500D01*
X53174370Y-132096281D01*
X53428358Y-132061371D01*
X53705058Y-131983844D01*
X53818015Y-131934779D01*
X53968617Y-131869365D01*
X53968620Y-131869363D01*
X53968625Y-131869361D01*
X54214147Y-131720055D01*
X54437053Y-131538708D01*
X54633189Y-131328698D01*
X54798901Y-131093936D01*
X54931104Y-130838797D01*
X55027334Y-130568032D01*
X55085798Y-130286686D01*
X55105408Y-130000000D01*
X55085798Y-129713314D01*
X55027334Y-129431968D01*
X54931105Y-129161206D01*
X54931106Y-129161206D01*
X54798901Y-128906064D01*
X54633187Y-128671299D01*
X54543247Y-128574998D01*
X54437053Y-128461292D01*
X54245765Y-128305668D01*
X54214146Y-128279944D01*
X53968617Y-128130634D01*
X53705063Y-128016158D01*
X53705061Y-128016157D01*
X53705058Y-128016156D01*
X53575578Y-127979877D01*
X53428364Y-127938630D01*
X53428359Y-127938629D01*
X53428358Y-127938629D01*
X53286018Y-127919064D01*
X53143679Y-127899500D01*
X53143678Y-127899500D01*
X52856322Y-127899500D01*
X52856321Y-127899500D01*
X52571642Y-127938629D01*
X52571635Y-127938630D01*
X52363861Y-127996845D01*
X52294942Y-128016156D01*
X52294939Y-128016156D01*
X52294936Y-128016158D01*
X52294935Y-128016158D01*
X52031382Y-128130634D01*
X51785853Y-128279944D01*
X51562950Y-128461289D01*
X51366812Y-128671299D01*
X51201098Y-128906064D01*
X51068894Y-129161206D01*
X50972667Y-129431962D01*
X50972666Y-129431965D01*
X50914201Y-129713319D01*
X50894592Y-130000000D01*
X50500613Y-130000000D01*
X50500500Y-129996249D01*
X50500500Y-126999983D01*
X59224500Y-126999983D01*
X59224500Y-128675001D01*
X59224501Y-128675018D01*
X59235000Y-128777796D01*
X59235001Y-128777799D01*
X59278310Y-128908496D01*
X59290186Y-128944334D01*
X59382288Y-129093656D01*
X59506344Y-129217712D01*
X59655666Y-129309814D01*
X59822203Y-129364999D01*
X59924991Y-129375500D01*
X62075008Y-129375499D01*
X62177797Y-129364999D01*
X62344334Y-129309814D01*
X62493656Y-129217712D01*
X62617712Y-129093656D01*
X62709814Y-128944334D01*
X62721689Y-128908494D01*
X62761461Y-128851051D01*
X62825977Y-128824228D01*
X62839395Y-128823500D01*
X64475671Y-128823500D01*
X64475672Y-128823500D01*
X64674329Y-128823500D01*
X65170770Y-128823500D01*
X65237809Y-128843185D01*
X65258451Y-128859819D01*
X65331344Y-128932712D01*
X65480666Y-129024814D01*
X65647203Y-129079999D01*
X65749991Y-129090500D01*
X69950008Y-129090499D01*
X70052797Y-129079999D01*
X70219334Y-129024814D01*
X70368656Y-128932712D01*
X70492712Y-128808656D01*
X70584814Y-128659334D01*
X70639999Y-128492797D01*
X70650500Y-128390009D01*
X70650499Y-127689992D01*
X70639999Y-127587203D01*
X70584814Y-127420666D01*
X70492712Y-127271344D01*
X70368656Y-127147288D01*
X70219334Y-127055186D01*
X70052797Y-127000001D01*
X70052795Y-127000000D01*
X69950016Y-126989500D01*
X69950009Y-126989500D01*
X68092419Y-126989500D01*
X68025380Y-126969815D01*
X68023528Y-126968602D01*
X67952709Y-126921282D01*
X67952701Y-126921277D01*
X67769169Y-126845256D01*
X67769161Y-126845254D01*
X67574333Y-126806500D01*
X67574329Y-126806500D01*
X65044097Y-126806500D01*
X64977058Y-126786815D01*
X64956416Y-126770181D01*
X64328819Y-126142584D01*
X64295334Y-126081261D01*
X64292500Y-126054903D01*
X64292500Y-121269987D01*
X64312185Y-121202948D01*
X64364989Y-121157193D01*
X64434147Y-121147249D01*
X64497703Y-121176274D01*
X64519603Y-121201097D01*
X64529148Y-121215383D01*
X65268517Y-121954752D01*
X65302002Y-122016075D01*
X65297018Y-122085767D01*
X65268518Y-122130114D01*
X65207287Y-122191345D01*
X65115187Y-122340663D01*
X65115186Y-122340666D01*
X65060001Y-122507203D01*
X65060001Y-122507204D01*
X65060000Y-122507204D01*
X65049500Y-122609983D01*
X65049500Y-123310001D01*
X65049501Y-123310019D01*
X65060000Y-123412796D01*
X65060001Y-123412799D01*
X65115185Y-123579331D01*
X65115186Y-123579334D01*
X65207288Y-123728656D01*
X65331344Y-123852712D01*
X65480666Y-123944814D01*
X65647203Y-123999999D01*
X65749991Y-124010500D01*
X69950008Y-124010499D01*
X70052797Y-123999999D01*
X70219334Y-123944814D01*
X70368656Y-123852712D01*
X70492712Y-123728656D01*
X70584814Y-123579334D01*
X70639999Y-123412797D01*
X70650500Y-123310009D01*
X70650499Y-122609992D01*
X70639999Y-122507203D01*
X70584814Y-122340666D01*
X70492712Y-122191344D01*
X70368656Y-122067288D01*
X70219334Y-121975186D01*
X70052797Y-121920001D01*
X70052795Y-121920000D01*
X69950016Y-121909500D01*
X69950009Y-121909500D01*
X68127097Y-121909500D01*
X68060058Y-121889815D01*
X68039416Y-121873181D01*
X67484333Y-121318098D01*
X67450848Y-121256775D01*
X67455832Y-121187083D01*
X67497704Y-121131150D01*
X67547823Y-121108800D01*
X67631441Y-121092166D01*
X67744169Y-121069744D01*
X67927704Y-120993721D01*
X68092881Y-120883353D01*
X68233353Y-120742881D01*
X68343721Y-120577704D01*
X68419744Y-120394169D01*
X68458500Y-120199329D01*
X68458500Y-120000671D01*
X68419744Y-119805831D01*
X68343721Y-119622296D01*
X68343720Y-119622295D01*
X68343717Y-119622289D01*
X68233353Y-119457119D01*
X68233350Y-119457115D01*
X68092884Y-119316649D01*
X68092880Y-119316646D01*
X67927710Y-119206282D01*
X67927701Y-119206277D01*
X67744169Y-119130256D01*
X67744161Y-119130254D01*
X67549333Y-119091500D01*
X67549329Y-119091500D01*
X66488143Y-119091500D01*
X66421104Y-119071815D01*
X66375349Y-119019011D01*
X66364785Y-118954898D01*
X66375499Y-118850018D01*
X66375499Y-118850016D01*
X66375500Y-118850009D01*
X66375499Y-117499992D01*
X66375498Y-117499981D01*
X66364999Y-117397201D01*
X66364998Y-117397200D01*
X66351487Y-117356428D01*
X66309814Y-117230666D01*
X66217712Y-117081344D01*
X66093656Y-116957288D01*
X65944334Y-116865186D01*
X65777797Y-116810001D01*
X65777795Y-116810000D01*
X65675010Y-116799500D01*
X64949998Y-116799500D01*
X64949980Y-116799501D01*
X64847203Y-116810000D01*
X64847200Y-116810001D01*
X64680668Y-116865185D01*
X64680663Y-116865187D01*
X64531342Y-116957289D01*
X64504181Y-116984451D01*
X64442858Y-117017936D01*
X64373166Y-117012952D01*
X64317233Y-116971080D01*
X64292816Y-116905616D01*
X64292500Y-116896770D01*
X64292500Y-115860096D01*
X64312185Y-115793057D01*
X64328819Y-115772415D01*
X64558350Y-115542884D01*
X64558353Y-115542881D01*
X64668722Y-115377704D01*
X64744744Y-115194168D01*
X64749855Y-115168477D01*
X64778394Y-115025000D01*
X64783500Y-114999329D01*
X64783500Y-114800671D01*
X64773047Y-114748119D01*
X64744746Y-114605838D01*
X64744743Y-114605829D01*
X64668724Y-114422300D01*
X64668723Y-114422299D01*
X64668722Y-114422296D01*
X64558353Y-114257119D01*
X64558350Y-114257115D01*
X64417884Y-114116649D01*
X64417880Y-114116646D01*
X64354777Y-114074482D01*
X64252704Y-114006278D01*
X64252701Y-114006276D01*
X64252700Y-114006276D01*
X64252699Y-114006275D01*
X64069170Y-113930256D01*
X64069161Y-113930253D01*
X63874333Y-113891500D01*
X63874329Y-113891500D01*
X63675671Y-113891500D01*
X63675668Y-113891500D01*
X63480839Y-113930253D01*
X63480830Y-113930256D01*
X63297301Y-114006275D01*
X63297294Y-114006279D01*
X63132119Y-114116646D01*
X63132115Y-114116649D01*
X62706744Y-114542022D01*
X62641119Y-114607647D01*
X62599435Y-114649331D01*
X62500645Y-114748120D01*
X62390282Y-114913289D01*
X62390277Y-114913298D01*
X62314256Y-115096830D01*
X62314254Y-115096838D01*
X62275500Y-115291666D01*
X62275500Y-126182668D01*
X62255815Y-126249707D01*
X62203011Y-126295462D01*
X62138899Y-126306026D01*
X62075012Y-126299500D01*
X59924998Y-126299500D01*
X59924981Y-126299501D01*
X59822203Y-126310000D01*
X59822200Y-126310001D01*
X59655668Y-126365185D01*
X59655663Y-126365187D01*
X59506342Y-126457289D01*
X59382289Y-126581342D01*
X59290187Y-126730663D01*
X59290186Y-126730666D01*
X59235001Y-126897203D01*
X59235001Y-126897204D01*
X59235000Y-126897204D01*
X59224500Y-126999983D01*
X50500500Y-126999983D01*
X50500500Y-111619983D01*
X53099500Y-111619983D01*
X53099500Y-114380001D01*
X53099501Y-114380018D01*
X53110000Y-114482796D01*
X53110001Y-114482799D01*
X53165185Y-114649331D01*
X53165187Y-114649336D01*
X53200069Y-114705888D01*
X53257288Y-114798656D01*
X53381344Y-114922712D01*
X53530666Y-115014814D01*
X53697203Y-115069999D01*
X53799991Y-115080500D01*
X57500008Y-115080499D01*
X57500273Y-115080472D01*
X57517895Y-115078671D01*
X57602797Y-115069999D01*
X57769334Y-115014814D01*
X57918656Y-114922712D01*
X58042712Y-114798656D01*
X58134814Y-114649334D01*
X58189999Y-114482797D01*
X58200500Y-114380009D01*
X58200499Y-111619992D01*
X58194742Y-111563639D01*
X58189999Y-111517203D01*
X58189998Y-111517200D01*
X58175856Y-111474522D01*
X58134814Y-111350666D01*
X58042712Y-111201344D01*
X57918656Y-111077288D01*
X57769334Y-110985186D01*
X57602797Y-110930001D01*
X57602795Y-110930000D01*
X57500010Y-110919500D01*
X53799998Y-110919500D01*
X53799981Y-110919501D01*
X53697203Y-110930000D01*
X53697200Y-110930001D01*
X53530668Y-110985185D01*
X53530663Y-110985187D01*
X53381342Y-111077289D01*
X53257289Y-111201342D01*
X53165187Y-111350663D01*
X53165185Y-111350668D01*
X53154215Y-111383775D01*
X53110001Y-111517203D01*
X53110001Y-111517204D01*
X53110000Y-111517204D01*
X53099500Y-111619983D01*
X50500500Y-111619983D01*
X50500500Y-94388728D01*
X50520185Y-94321689D01*
X50572989Y-94275934D01*
X50642147Y-94265990D01*
X50705703Y-94295015D01*
X50712181Y-94301047D01*
X55158381Y-98747247D01*
X55191866Y-98808570D01*
X55194700Y-98834928D01*
X55194700Y-103744602D01*
X55194699Y-103744628D01*
X55194699Y-103908369D01*
X55206434Y-103967360D01*
X55206434Y-103967362D01*
X55225645Y-104063942D01*
X55225648Y-104063954D01*
X55286348Y-104210499D01*
X55286355Y-104210512D01*
X55374481Y-104342401D01*
X55374484Y-104342405D01*
X55490970Y-104458891D01*
X55490992Y-104458911D01*
X63203103Y-112171022D01*
X63203132Y-112171053D01*
X63318394Y-112286315D01*
X63318402Y-112286321D01*
X63413692Y-112349992D01*
X63413694Y-112349993D01*
X63450285Y-112374443D01*
X63450300Y-112374451D01*
X63596845Y-112435151D01*
X63596850Y-112435153D01*
X63596854Y-112435153D01*
X63596855Y-112435154D01*
X63752429Y-112466101D01*
X63752432Y-112466101D01*
X63917177Y-112466101D01*
X63917197Y-112466100D01*
X65490320Y-112466100D01*
X65557359Y-112485785D01*
X65578001Y-112502419D01*
X67617604Y-114542022D01*
X67617633Y-114542053D01*
X67732898Y-114657318D01*
X67864789Y-114745444D01*
X67864795Y-114745448D01*
X67968425Y-114788372D01*
X68011350Y-114806153D01*
X68166927Y-114837099D01*
X68166931Y-114837100D01*
X68166932Y-114837100D01*
X68166933Y-114837100D01*
X76026284Y-114837100D01*
X76093323Y-114856785D01*
X76113965Y-114873419D01*
X78455568Y-117215022D01*
X78455597Y-117215053D01*
X78570860Y-117330316D01*
X78570863Y-117330318D01*
X78670964Y-117397203D01*
X78702759Y-117418448D01*
X78702760Y-117418448D01*
X78702761Y-117418449D01*
X78702763Y-117418450D01*
X78849310Y-117479151D01*
X78849315Y-117479153D01*
X78849319Y-117479153D01*
X78849320Y-117479154D01*
X79004894Y-117510101D01*
X79004897Y-117510101D01*
X79169642Y-117510101D01*
X79169662Y-117510100D01*
X81284751Y-117510100D01*
X81284771Y-117510101D01*
X81290885Y-117510101D01*
X81449517Y-117510101D01*
X81554182Y-117489280D01*
X81605097Y-117479153D01*
X81751653Y-117418448D01*
X81783448Y-117397203D01*
X81883549Y-117330318D01*
X81995718Y-117218149D01*
X81995719Y-117218147D01*
X82002785Y-117211081D01*
X82002787Y-117211077D01*
X83020520Y-116193345D01*
X83081842Y-116159861D01*
X83151534Y-116164845D01*
X83207467Y-116206717D01*
X83231884Y-116272181D01*
X83232200Y-116281027D01*
X83232200Y-117330070D01*
X83212515Y-117397109D01*
X83195881Y-117417751D01*
X83182289Y-117431342D01*
X83090187Y-117580663D01*
X83090185Y-117580668D01*
X83070839Y-117639051D01*
X83035001Y-117747203D01*
X83035001Y-117747204D01*
X83035000Y-117747204D01*
X83024500Y-117849983D01*
X83024500Y-118850001D01*
X83024501Y-118850019D01*
X83035000Y-118952796D01*
X83035001Y-118952799D01*
X83079000Y-119085576D01*
X83090186Y-119119334D01*
X83182288Y-119268656D01*
X83306344Y-119392712D01*
X83455666Y-119484814D01*
X83622203Y-119539999D01*
X83724991Y-119550500D01*
X84350008Y-119550499D01*
X84350016Y-119550498D01*
X84350019Y-119550498D01*
X84412504Y-119544115D01*
X84452797Y-119539999D01*
X84619334Y-119484814D01*
X84768656Y-119392712D01*
X84892712Y-119268656D01*
X84984814Y-119119334D01*
X85039999Y-118952797D01*
X85050500Y-118850009D01*
X85050499Y-117849992D01*
X85049689Y-117842066D01*
X85039999Y-117747203D01*
X85039998Y-117747200D01*
X84984814Y-117580666D01*
X84892712Y-117431344D01*
X84879119Y-117417751D01*
X84845634Y-117356428D01*
X84842800Y-117330070D01*
X84842800Y-116818152D01*
X84862485Y-116751113D01*
X84915289Y-116705358D01*
X84982984Y-116695213D01*
X85023139Y-116700500D01*
X86376860Y-116700499D01*
X86376863Y-116700499D01*
X86494253Y-116685046D01*
X86494257Y-116685044D01*
X86494262Y-116685044D01*
X86640341Y-116624536D01*
X86662803Y-116607299D01*
X86727968Y-116582105D01*
X86796413Y-116596142D01*
X86825970Y-116617994D01*
X88034181Y-117826205D01*
X88067666Y-117887528D01*
X88070500Y-117913886D01*
X88070500Y-129645552D01*
X88070499Y-129645578D01*
X88070499Y-129799314D01*
X88092480Y-129909814D01*
X88092480Y-129909815D01*
X88099493Y-129945072D01*
X88099495Y-129945080D01*
X88122244Y-130000000D01*
X88122244Y-130000001D01*
X88156366Y-130082381D01*
X88156372Y-130082392D01*
X88238942Y-130205968D01*
X88238943Y-130205969D01*
X89509600Y-131476624D01*
X89509621Y-131476647D01*
X89619028Y-131586054D01*
X89619035Y-131586060D01*
X89742608Y-131668628D01*
X89742609Y-131668628D01*
X89742610Y-131668629D01*
X89879920Y-131725505D01*
X90025683Y-131754499D01*
X90025687Y-131754500D01*
X90025688Y-131754500D01*
X93319554Y-131754500D01*
X93319574Y-131754501D01*
X93325688Y-131754501D01*
X93474314Y-131754501D01*
X93595894Y-131730315D01*
X93595894Y-131730316D01*
X93595900Y-131730313D01*
X93620080Y-131725505D01*
X93655942Y-131710649D01*
X93676944Y-131701951D01*
X93676947Y-131701949D01*
X93676955Y-131701946D01*
X93757389Y-131668630D01*
X93880966Y-131586059D01*
X95455205Y-130011817D01*
X95476847Y-130000000D01*
X144894592Y-130000000D01*
X144914201Y-130286680D01*
X144972666Y-130568034D01*
X144972667Y-130568037D01*
X145068894Y-130838793D01*
X145068893Y-130838793D01*
X145201098Y-131093935D01*
X145366812Y-131328700D01*
X145445972Y-131413459D01*
X145562947Y-131538708D01*
X145785853Y-131720055D01*
X145842493Y-131754499D01*
X146031382Y-131869365D01*
X146218237Y-131950526D01*
X146294942Y-131983844D01*
X146571642Y-132061371D01*
X146821920Y-132095771D01*
X146856321Y-132100500D01*
X146856322Y-132100500D01*
X147143679Y-132100500D01*
X147174370Y-132096281D01*
X147428358Y-132061371D01*
X147705058Y-131983844D01*
X147818015Y-131934779D01*
X147968617Y-131869365D01*
X147968620Y-131869363D01*
X147968625Y-131869361D01*
X148214147Y-131720055D01*
X148437053Y-131538708D01*
X148633189Y-131328698D01*
X148798901Y-131093936D01*
X148931104Y-130838797D01*
X149027334Y-130568032D01*
X149085798Y-130286686D01*
X149105408Y-130000000D01*
X149085798Y-129713314D01*
X149027334Y-129431968D01*
X148931105Y-129161206D01*
X148931106Y-129161206D01*
X148798901Y-128906064D01*
X148633187Y-128671299D01*
X148543247Y-128574998D01*
X148437053Y-128461292D01*
X148245765Y-128305668D01*
X148214146Y-128279944D01*
X147968617Y-128130634D01*
X147705063Y-128016158D01*
X147705061Y-128016157D01*
X147705058Y-128016156D01*
X147575578Y-127979877D01*
X147428364Y-127938630D01*
X147428359Y-127938629D01*
X147428358Y-127938629D01*
X147286018Y-127919064D01*
X147143679Y-127899500D01*
X147143678Y-127899500D01*
X146856322Y-127899500D01*
X146856321Y-127899500D01*
X146571642Y-127938629D01*
X146571635Y-127938630D01*
X146363861Y-127996845D01*
X146294942Y-128016156D01*
X146294939Y-128016156D01*
X146294936Y-128016158D01*
X146294935Y-128016158D01*
X146031382Y-128130634D01*
X145785853Y-128279944D01*
X145562950Y-128461289D01*
X145366812Y-128671299D01*
X145201098Y-128906064D01*
X145068894Y-129161206D01*
X144972667Y-129431962D01*
X144972666Y-129431965D01*
X144914201Y-129713319D01*
X144894592Y-130000000D01*
X95476847Y-130000000D01*
X95516528Y-129978333D01*
X95542886Y-129975499D01*
X99675002Y-129975499D01*
X99675008Y-129975499D01*
X99777797Y-129964999D01*
X99944334Y-129909814D01*
X100093656Y-129817712D01*
X100217712Y-129693656D01*
X100309814Y-129544334D01*
X100364999Y-129377797D01*
X100375500Y-129275009D01*
X100375499Y-128574992D01*
X100367102Y-128492795D01*
X100364999Y-128472203D01*
X100364998Y-128472200D01*
X100337765Y-128390016D01*
X100309814Y-128305666D01*
X100217712Y-128156344D01*
X100217710Y-128156342D01*
X100215871Y-128154016D01*
X100215106Y-128152119D01*
X100213920Y-128150197D01*
X100214248Y-128149994D01*
X100189731Y-128089221D01*
X100202772Y-128020579D01*
X100225458Y-127989424D01*
X100321117Y-127893766D01*
X100321117Y-127893765D01*
X100321123Y-127893760D01*
X100357288Y-127853499D01*
X100373922Y-127832857D01*
X100405567Y-127788973D01*
X100465338Y-127658096D01*
X100485023Y-127591057D01*
X100485024Y-127591053D01*
X100505500Y-127448637D01*
X100505500Y-127051362D01*
X100502603Y-126997322D01*
X100499769Y-126970964D01*
X100491114Y-126917552D01*
X100440832Y-126782743D01*
X100407347Y-126721420D01*
X100321123Y-126606239D01*
X100321118Y-126606234D01*
X100321114Y-126606229D01*
X100302783Y-126587899D01*
X100284925Y-126565315D01*
X100217712Y-126456344D01*
X100093656Y-126332288D01*
X100093652Y-126332285D01*
X99982946Y-126264000D01*
X99965180Y-126250711D01*
X99929002Y-126218214D01*
X99928999Y-126218211D01*
X99908357Y-126201577D01*
X99908355Y-126201575D01*
X99864473Y-126169932D01*
X99733599Y-126110162D01*
X99666554Y-126090475D01*
X99602467Y-126081261D01*
X99524137Y-126069999D01*
X99524135Y-126069999D01*
X95507065Y-126069999D01*
X95494466Y-126069357D01*
X95492165Y-126069122D01*
X95465764Y-126063471D01*
X95392315Y-126039132D01*
X95368633Y-126031285D01*
X95368575Y-126031264D01*
X95355659Y-126026985D01*
X95355659Y-126026984D01*
X95355628Y-126026975D01*
X95337522Y-126020975D01*
X95334082Y-126021348D01*
X95325493Y-126019489D01*
X95288033Y-126009978D01*
X95281469Y-126009042D01*
X95281514Y-126008726D01*
X95270131Y-126007278D01*
X95266518Y-126006477D01*
X95179006Y-125996895D01*
X95157130Y-125994500D01*
X95157129Y-125994500D01*
X94822096Y-125994500D01*
X94755057Y-125974815D01*
X94734415Y-125958181D01*
X93993415Y-125217181D01*
X93959930Y-125155858D01*
X93964914Y-125086166D01*
X94006786Y-125030233D01*
X94072250Y-125005816D01*
X94081096Y-125005500D01*
X95306937Y-125005500D01*
X95358354Y-125001377D01*
X95387461Y-124999044D01*
X95426464Y-124992750D01*
X95454334Y-124985929D01*
X95471206Y-124983017D01*
X95494458Y-124980641D01*
X95507059Y-124980000D01*
X99642938Y-124980000D01*
X99655535Y-124980642D01*
X99670494Y-124982169D01*
X99678784Y-124983016D01*
X99695655Y-124985927D01*
X99723535Y-124992750D01*
X99723540Y-124992750D01*
X99723545Y-124992752D01*
X99735231Y-124994637D01*
X99762538Y-124999044D01*
X99785216Y-125000862D01*
X99843061Y-125005500D01*
X99843070Y-125005500D01*
X100203986Y-125005500D01*
X100214132Y-125004955D01*
X100258024Y-125002603D01*
X100258032Y-125002602D01*
X100258034Y-125002602D01*
X100258035Y-125002602D01*
X100265028Y-125001849D01*
X100284382Y-124999769D01*
X100284392Y-124999767D01*
X100284395Y-124999767D01*
X100293994Y-124998211D01*
X100337794Y-124991114D01*
X100472603Y-124940832D01*
X100531982Y-124908408D01*
X100533453Y-124907639D01*
X100533926Y-124907347D01*
X100533928Y-124907346D01*
X100649109Y-124821122D01*
X100709480Y-124760748D01*
X100724268Y-124748118D01*
X100834221Y-124668233D01*
X100834233Y-124668226D01*
X100837196Y-124666072D01*
X100853806Y-124655888D01*
X100978220Y-124592496D01*
X100996180Y-124585057D01*
X101128986Y-124541906D01*
X101147893Y-124537367D01*
X101250667Y-124521089D01*
X101250668Y-124521089D01*
X101280069Y-124516432D01*
X101280070Y-124516433D01*
X101285790Y-124515526D01*
X101305188Y-124514000D01*
X101375990Y-124514000D01*
X101376000Y-124514000D01*
X101483456Y-124502447D01*
X101534967Y-124491241D01*
X101569197Y-124479847D01*
X101637497Y-124457116D01*
X101637501Y-124457113D01*
X101637504Y-124457113D01*
X101758543Y-124379325D01*
X101811347Y-124333570D01*
X101905567Y-124224836D01*
X101965338Y-124093959D01*
X101985023Y-124026920D01*
X101985024Y-124026916D01*
X102005500Y-123884500D01*
X102005500Y-120124000D01*
X101993947Y-120016544D01*
X101982741Y-119965033D01*
X101982637Y-119964722D01*
X101948616Y-119862502D01*
X101948613Y-119862496D01*
X101912196Y-119805831D01*
X101870825Y-119741457D01*
X101870820Y-119741451D01*
X101825076Y-119688659D01*
X101825072Y-119688656D01*
X101825070Y-119688653D01*
X101716336Y-119594433D01*
X101716333Y-119594431D01*
X101716331Y-119594430D01*
X101585465Y-119534664D01*
X101585460Y-119534662D01*
X101585459Y-119534662D01*
X101518420Y-119514977D01*
X101518422Y-119514977D01*
X101518417Y-119514976D01*
X101470944Y-119508150D01*
X101376000Y-119494500D01*
X101068516Y-119494500D01*
X101068507Y-119494500D01*
X100988002Y-119500954D01*
X100987989Y-119500955D01*
X100987986Y-119500956D01*
X100987977Y-119500957D01*
X100987973Y-119500958D01*
X100948987Y-119507249D01*
X100948984Y-119507249D01*
X100948982Y-119507250D01*
X100870508Y-119526452D01*
X100870504Y-119526453D01*
X100870497Y-119526455D01*
X100834236Y-119538470D01*
X100807897Y-119544115D01*
X100805598Y-119544351D01*
X100792936Y-119544999D01*
X100132064Y-119544999D01*
X100119465Y-119544357D01*
X100117164Y-119544122D01*
X100090763Y-119538471D01*
X100068289Y-119531023D01*
X100054487Y-119526450D01*
X100025937Y-119519464D01*
X99965498Y-119484408D01*
X99941909Y-119448948D01*
X99941615Y-119448280D01*
X99937421Y-119437377D01*
X99911525Y-119359228D01*
X99905872Y-119332802D01*
X99905636Y-119330484D01*
X99905000Y-119317943D01*
X99905000Y-118032058D01*
X99905637Y-118019501D01*
X99905872Y-118017200D01*
X99911525Y-117990773D01*
X99937429Y-117912599D01*
X99941622Y-117901699D01*
X99967860Y-117842071D01*
X99986321Y-117776975D01*
X100005500Y-117639056D01*
X100005500Y-117599995D01*
X112269732Y-117599995D01*
X112269732Y-117600004D01*
X112288777Y-117854154D01*
X112329396Y-118032119D01*
X112345492Y-118102637D01*
X112438607Y-118339888D01*
X112566041Y-118560612D01*
X112724950Y-118759877D01*
X112911783Y-118933232D01*
X113122366Y-119076805D01*
X113122371Y-119076807D01*
X113122372Y-119076808D01*
X113122373Y-119076809D01*
X113233354Y-119130254D01*
X113351992Y-119187387D01*
X113351993Y-119187387D01*
X113351996Y-119187389D01*
X113595542Y-119262513D01*
X113847565Y-119300500D01*
X114102435Y-119300500D01*
X114354458Y-119262513D01*
X114598004Y-119187389D01*
X114827634Y-119076805D01*
X115038217Y-118933232D01*
X115225050Y-118759877D01*
X115383959Y-118560612D01*
X115511393Y-118339888D01*
X115604508Y-118102637D01*
X115661222Y-117854157D01*
X115677342Y-117639051D01*
X115680268Y-117600004D01*
X115680268Y-117599995D01*
X115661222Y-117345845D01*
X115657678Y-117330319D01*
X115604508Y-117097363D01*
X115511393Y-116860112D01*
X115383959Y-116639388D01*
X115225050Y-116440123D01*
X115038217Y-116266768D01*
X114827634Y-116123195D01*
X114827630Y-116123193D01*
X114827627Y-116123191D01*
X114827626Y-116123190D01*
X114598006Y-116012612D01*
X114598008Y-116012612D01*
X114354466Y-115937489D01*
X114354462Y-115937488D01*
X114354458Y-115937487D01*
X114233231Y-115919214D01*
X114102440Y-115899500D01*
X114102435Y-115899500D01*
X113847565Y-115899500D01*
X113847559Y-115899500D01*
X113690609Y-115923157D01*
X113595542Y-115937487D01*
X113595539Y-115937488D01*
X113595533Y-115937489D01*
X113351992Y-116012612D01*
X113122373Y-116123190D01*
X113122372Y-116123191D01*
X112911782Y-116266768D01*
X112724952Y-116440121D01*
X112724950Y-116440123D01*
X112566041Y-116639388D01*
X112438608Y-116860109D01*
X112345492Y-117097362D01*
X112345490Y-117097369D01*
X112288777Y-117345845D01*
X112269732Y-117599995D01*
X100005500Y-117599995D01*
X100005500Y-117018515D01*
X100005500Y-117018507D01*
X100005499Y-117018504D01*
X99999044Y-116937981D01*
X99992750Y-116898979D01*
X99992748Y-116898970D01*
X99973551Y-116820519D01*
X99972767Y-116818152D01*
X99961526Y-116784230D01*
X99955871Y-116757790D01*
X99955635Y-116755478D01*
X99955000Y-116742941D01*
X99955000Y-115807058D01*
X99955642Y-115794459D01*
X99958056Y-115770824D01*
X99959888Y-115760361D01*
X99959591Y-115760305D01*
X99960103Y-115757601D01*
X99968437Y-115713583D01*
X99968436Y-115569703D01*
X99958492Y-115500545D01*
X99917957Y-115362496D01*
X99840169Y-115241457D01*
X99840164Y-115241451D01*
X99794420Y-115188659D01*
X99794416Y-115188656D01*
X99794414Y-115188653D01*
X99685680Y-115094433D01*
X99685677Y-115094431D01*
X99685675Y-115094430D01*
X99554809Y-115034664D01*
X99554804Y-115034662D01*
X99554803Y-115034662D01*
X99487764Y-115014977D01*
X99487766Y-115014977D01*
X99487761Y-115014976D01*
X99440288Y-115008150D01*
X99345344Y-114994500D01*
X99345342Y-114994500D01*
X97457001Y-114994500D01*
X97389962Y-114974815D01*
X97344207Y-114922011D01*
X97333001Y-114870500D01*
X97333001Y-114767616D01*
X97333000Y-114767582D01*
X97333000Y-110608961D01*
X97332999Y-110608947D01*
X97327244Y-110565232D01*
X97302706Y-110378851D01*
X97242637Y-110154670D01*
X97153820Y-109940248D01*
X97126679Y-109893238D01*
X97037779Y-109739256D01*
X97037778Y-109739254D01*
X96896490Y-109555124D01*
X96896484Y-109555117D01*
X96892730Y-109551363D01*
X99494500Y-109551363D01*
X99494500Y-112448640D01*
X99497397Y-112502688D01*
X99497397Y-112502689D01*
X99500229Y-112529022D01*
X99500232Y-112529049D01*
X99508885Y-112582445D01*
X99508885Y-112582447D01*
X99559166Y-112717252D01*
X99559168Y-112717257D01*
X99592653Y-112778580D01*
X99678877Y-112893761D01*
X99678881Y-112893765D01*
X99678886Y-112893771D01*
X100161113Y-113375997D01*
X100606239Y-113821123D01*
X100606255Y-113821137D01*
X100606262Y-113821144D01*
X100646480Y-113857271D01*
X100646492Y-113857281D01*
X100646500Y-113857288D01*
X100661778Y-113869600D01*
X100663292Y-113870820D01*
X100667142Y-113873922D01*
X100711026Y-113905567D01*
X100841903Y-113965338D01*
X100908942Y-113985023D01*
X100908946Y-113985024D01*
X101051362Y-114005500D01*
X101051365Y-114005500D01*
X103875990Y-114005500D01*
X103876000Y-114005500D01*
X103983456Y-113993947D01*
X104034967Y-113982741D01*
X104069197Y-113971347D01*
X104137497Y-113948616D01*
X104137501Y-113948613D01*
X104137504Y-113948613D01*
X104258543Y-113870825D01*
X104311347Y-113825070D01*
X104405567Y-113716336D01*
X104465338Y-113585459D01*
X104485023Y-113518420D01*
X104485024Y-113518416D01*
X104505500Y-113376000D01*
X104505500Y-108928947D01*
X114749500Y-108928947D01*
X114749500Y-109161052D01*
X114773526Y-109343540D01*
X114779794Y-109391149D01*
X114800139Y-109467076D01*
X114839862Y-109615328D01*
X114928677Y-109829745D01*
X114928685Y-109829762D01*
X115044720Y-110030743D01*
X115044721Y-110030745D01*
X115186009Y-110214875D01*
X115186015Y-110214882D01*
X115350117Y-110378984D01*
X115350124Y-110378990D01*
X115534254Y-110520278D01*
X115534256Y-110520279D01*
X115735237Y-110636314D01*
X115735240Y-110636315D01*
X115735248Y-110636320D01*
X115949670Y-110725137D01*
X116173851Y-110785206D01*
X116403955Y-110815500D01*
X118400083Y-110815500D01*
X118400115Y-110815501D01*
X118403955Y-110815501D01*
X118636038Y-110815501D01*
X118636045Y-110815501D01*
X118866149Y-110785207D01*
X119090330Y-110725137D01*
X119304752Y-110636320D01*
X119341501Y-110615103D01*
X119505748Y-110520276D01*
X119689877Y-110378989D01*
X119853989Y-110214877D01*
X119859353Y-110209513D01*
X119859368Y-110209495D01*
X121023868Y-109044995D01*
X133814592Y-109044995D01*
X133814592Y-109045004D01*
X133834196Y-109306620D01*
X133834197Y-109306625D01*
X133892576Y-109562402D01*
X133892578Y-109562411D01*
X133892580Y-109562416D01*
X133988432Y-109806643D01*
X134119614Y-110033857D01*
X134239868Y-110184651D01*
X134283198Y-110238985D01*
X134433939Y-110378851D01*
X134475521Y-110417433D01*
X134692296Y-110565228D01*
X134692301Y-110565230D01*
X134692302Y-110565231D01*
X134692303Y-110565232D01*
X134806712Y-110620328D01*
X134928673Y-110679061D01*
X134928674Y-110679061D01*
X134928677Y-110679063D01*
X135179385Y-110756396D01*
X135438818Y-110795500D01*
X135701182Y-110795500D01*
X135960615Y-110756396D01*
X136211323Y-110679063D01*
X136398111Y-110589110D01*
X136447696Y-110565232D01*
X136447696Y-110565231D01*
X136447704Y-110565228D01*
X136664479Y-110417433D01*
X136856805Y-110238981D01*
X137020386Y-110033857D01*
X137151568Y-109806643D01*
X137247420Y-109562416D01*
X137305802Y-109306630D01*
X137306049Y-109303339D01*
X137325408Y-109045004D01*
X137325408Y-109044995D01*
X137305803Y-108783379D01*
X137305802Y-108783374D01*
X137305802Y-108783370D01*
X137247420Y-108527584D01*
X137151568Y-108283357D01*
X137020386Y-108056143D01*
X136856805Y-107851019D01*
X136856804Y-107851018D01*
X136856801Y-107851014D01*
X136664479Y-107672567D01*
X136566717Y-107605914D01*
X136447704Y-107524772D01*
X136447700Y-107524770D01*
X136447697Y-107524768D01*
X136447696Y-107524767D01*
X136211325Y-107410938D01*
X136211327Y-107410938D01*
X135960623Y-107333606D01*
X135960619Y-107333605D01*
X135960615Y-107333604D01*
X135835823Y-107314794D01*
X135701187Y-107294500D01*
X135701182Y-107294500D01*
X135438818Y-107294500D01*
X135438812Y-107294500D01*
X135277247Y-107318853D01*
X135179385Y-107333604D01*
X135179382Y-107333605D01*
X135179376Y-107333606D01*
X134928673Y-107410938D01*
X134692303Y-107524767D01*
X134692302Y-107524768D01*
X134475520Y-107672567D01*
X134283198Y-107851014D01*
X134119614Y-108056143D01*
X133988432Y-108283356D01*
X133892582Y-108527578D01*
X133892576Y-108527597D01*
X133834197Y-108783374D01*
X133834196Y-108783379D01*
X133814592Y-109044995D01*
X121023868Y-109044995D01*
X128437046Y-101631819D01*
X128498369Y-101598334D01*
X128524727Y-101595500D01*
X141943412Y-101595500D01*
X142010451Y-101615185D01*
X142056206Y-101667989D01*
X142066150Y-101737147D01*
X142057973Y-101766952D01*
X141969864Y-101979666D01*
X141909792Y-102203854D01*
X141879499Y-102433947D01*
X141879499Y-102670431D01*
X141879500Y-102670460D01*
X141879500Y-107966052D01*
X141909794Y-108196148D01*
X141969862Y-108420328D01*
X142058677Y-108634745D01*
X142058685Y-108634762D01*
X142174720Y-108835743D01*
X142174721Y-108835745D01*
X142316009Y-109019875D01*
X142316015Y-109019882D01*
X142480117Y-109183984D01*
X142480124Y-109183990D01*
X142519395Y-109214124D01*
X142560598Y-109270552D01*
X142564753Y-109340298D01*
X142530541Y-109401218D01*
X142519396Y-109410875D01*
X142480128Y-109441006D01*
X142480118Y-109441015D01*
X141601699Y-110319435D01*
X140745127Y-111176007D01*
X140745123Y-111176011D01*
X140702971Y-111218163D01*
X140581008Y-111340125D01*
X140439724Y-111524250D01*
X140380252Y-111627262D01*
X140346982Y-111684889D01*
X140341471Y-111694434D01*
X140341469Y-111694437D01*
X140323682Y-111725243D01*
X140323678Y-111725251D01*
X140234863Y-111939669D01*
X140174792Y-112163854D01*
X140144499Y-112393947D01*
X140144499Y-112630431D01*
X140144500Y-112630460D01*
X140144500Y-117716052D01*
X140162683Y-117854157D01*
X140174794Y-117946149D01*
X140186749Y-117990765D01*
X140234862Y-118170328D01*
X140323677Y-118384745D01*
X140323685Y-118384762D01*
X140439720Y-118585743D01*
X140439721Y-118585745D01*
X140581009Y-118769875D01*
X140581015Y-118769882D01*
X140745117Y-118933984D01*
X140745124Y-118933990D01*
X140929254Y-119075278D01*
X140929256Y-119075279D01*
X141130237Y-119191314D01*
X141130240Y-119191315D01*
X141130248Y-119191320D01*
X141344670Y-119280137D01*
X141568851Y-119340206D01*
X141798955Y-119370500D01*
X141798962Y-119370500D01*
X142031038Y-119370500D01*
X142031045Y-119370500D01*
X142261149Y-119340206D01*
X142485330Y-119280137D01*
X142699752Y-119191320D01*
X142898093Y-119076809D01*
X142900743Y-119075279D01*
X142900745Y-119075278D01*
X142974074Y-119019011D01*
X143084877Y-118933989D01*
X143248989Y-118769877D01*
X143390276Y-118585748D01*
X143506320Y-118384752D01*
X143595137Y-118170330D01*
X143655206Y-117946149D01*
X143685500Y-117716045D01*
X143685500Y-113294727D01*
X143705185Y-113227688D01*
X143721819Y-113207046D01*
X144983984Y-111944881D01*
X144983989Y-111944876D01*
X145125276Y-111760747D01*
X145241321Y-111559752D01*
X145246310Y-111547709D01*
X145322579Y-111363576D01*
X145330137Y-111345329D01*
X145390207Y-111121148D01*
X145420501Y-110891044D01*
X145420501Y-110658955D01*
X145390207Y-110428851D01*
X145330137Y-110204670D01*
X145321844Y-110184650D01*
X145279976Y-110083570D01*
X145241321Y-109990248D01*
X145241319Y-109990245D01*
X145241317Y-109990240D01*
X145125280Y-109789260D01*
X145125276Y-109789253D01*
X145015113Y-109645685D01*
X144983990Y-109605124D01*
X144983984Y-109605117D01*
X144819882Y-109441015D01*
X144819877Y-109441011D01*
X144810990Y-109434192D01*
X144780604Y-109410876D01*
X144739401Y-109354449D01*
X144735246Y-109284703D01*
X144769457Y-109223783D01*
X144780605Y-109214123D01*
X144784641Y-109211026D01*
X144819877Y-109183989D01*
X144983989Y-109019877D01*
X145125276Y-108835748D01*
X145241320Y-108634752D01*
X145330137Y-108420330D01*
X145390206Y-108196149D01*
X145420500Y-107966045D01*
X145420500Y-103334726D01*
X145440185Y-103267687D01*
X145456814Y-103247050D01*
X147539495Y-101164368D01*
X147539513Y-101164353D01*
X147708984Y-100994882D01*
X147708989Y-100994877D01*
X147850276Y-100810748D01*
X147907500Y-100711632D01*
X147966321Y-100609752D01*
X148055137Y-100395330D01*
X148115207Y-100171149D01*
X148145501Y-99941045D01*
X148145501Y-99708955D01*
X148144914Y-99704500D01*
X148132223Y-99608100D01*
X148115207Y-99478851D01*
X148055137Y-99254670D01*
X148049968Y-99242192D01*
X147971176Y-99051969D01*
X147966321Y-99040248D01*
X147886389Y-98901803D01*
X147850276Y-98839252D01*
X147719725Y-98669114D01*
X147694531Y-98603945D01*
X147708569Y-98535500D01*
X147730414Y-98505953D01*
X147842712Y-98393656D01*
X147934814Y-98244334D01*
X147989999Y-98077797D01*
X148000500Y-97975009D01*
X148000499Y-96674992D01*
X147989999Y-96572203D01*
X147934814Y-96405666D01*
X147842712Y-96256344D01*
X147718656Y-96132288D01*
X147569334Y-96040186D01*
X147402797Y-95985001D01*
X147402795Y-95985000D01*
X147300010Y-95974500D01*
X145699998Y-95974500D01*
X145699981Y-95974501D01*
X145597203Y-95985000D01*
X145597200Y-95985001D01*
X145430668Y-96040185D01*
X145430663Y-96040187D01*
X145281342Y-96132289D01*
X145157289Y-96256342D01*
X145065187Y-96405663D01*
X145065185Y-96405668D01*
X145045691Y-96464499D01*
X145010001Y-96572203D01*
X145010001Y-96572204D01*
X145010000Y-96572204D01*
X144999500Y-96674983D01*
X144999500Y-96674991D01*
X144999500Y-97323111D01*
X144999501Y-97930500D01*
X144979816Y-97997539D01*
X144927013Y-98043294D01*
X144875501Y-98054500D01*
X132313727Y-98054500D01*
X132246688Y-98034815D01*
X132200933Y-97982011D01*
X132190989Y-97912853D01*
X132220014Y-97849297D01*
X132226046Y-97842819D01*
X137412046Y-92656819D01*
X137473369Y-92623334D01*
X137499727Y-92620500D01*
X146391038Y-92620500D01*
X146391045Y-92620500D01*
X146621149Y-92590206D01*
X146845330Y-92530137D01*
X147059752Y-92441320D01*
X147204617Y-92357683D01*
X147260743Y-92325279D01*
X147260745Y-92325278D01*
X147312685Y-92285423D01*
X147444877Y-92183989D01*
X147608989Y-92019877D01*
X147750276Y-91835748D01*
X147756244Y-91825412D01*
X147826420Y-91703862D01*
X147866320Y-91634752D01*
X147955137Y-91420330D01*
X148015206Y-91196149D01*
X148045500Y-90966045D01*
X148045500Y-90733955D01*
X148015206Y-90503851D01*
X147955137Y-90279670D01*
X147866320Y-90065248D01*
X147855592Y-90046666D01*
X147750279Y-89864256D01*
X147750278Y-89864254D01*
X147656243Y-89741705D01*
X147631049Y-89676536D01*
X147645087Y-89608091D01*
X147689520Y-89560682D01*
X147718656Y-89542712D01*
X147842712Y-89418656D01*
X147934814Y-89269334D01*
X147989999Y-89102797D01*
X148000500Y-89000009D01*
X148000499Y-87699992D01*
X147989999Y-87597203D01*
X147934814Y-87430666D01*
X147842712Y-87281344D01*
X147718656Y-87157288D01*
X147569334Y-87065186D01*
X147402797Y-87010001D01*
X147402795Y-87010000D01*
X147300010Y-86999500D01*
X145699998Y-86999500D01*
X145699981Y-86999501D01*
X145597203Y-87010000D01*
X145597200Y-87010001D01*
X145430668Y-87065185D01*
X145430663Y-87065187D01*
X145281342Y-87157289D01*
X145157289Y-87281342D01*
X145065187Y-87430663D01*
X145065185Y-87430668D01*
X145053974Y-87464501D01*
X145010001Y-87597203D01*
X145010001Y-87597204D01*
X145010000Y-87597204D01*
X144999500Y-87699983D01*
X144999500Y-87699991D01*
X144999500Y-88347289D01*
X144999501Y-88955500D01*
X144979816Y-89022539D01*
X144927013Y-89068294D01*
X144875501Y-89079500D01*
X136834917Y-89079500D01*
X136834885Y-89079499D01*
X136831045Y-89079499D01*
X136598955Y-89079499D01*
X136598947Y-89079499D01*
X136368855Y-89109792D01*
X136144665Y-89169864D01*
X135930251Y-89258677D01*
X135930247Y-89258679D01*
X135879131Y-89288191D01*
X135828014Y-89317704D01*
X135828013Y-89317704D01*
X135729256Y-89374720D01*
X135729254Y-89374721D01*
X135545125Y-89516008D01*
X135500456Y-89560678D01*
X135381011Y-89680123D01*
X126406007Y-98655127D01*
X126050124Y-99011011D01*
X117822954Y-107238181D01*
X117761631Y-107271666D01*
X117735273Y-107274500D01*
X116403947Y-107274500D01*
X116173851Y-107304794D01*
X115949671Y-107364862D01*
X115735254Y-107453677D01*
X115735237Y-107453685D01*
X115534256Y-107569720D01*
X115534254Y-107569721D01*
X115350124Y-107711009D01*
X115350117Y-107711015D01*
X115186015Y-107875117D01*
X115186009Y-107875124D01*
X115044721Y-108059254D01*
X115044720Y-108059256D01*
X114928685Y-108260237D01*
X114928677Y-108260254D01*
X114839862Y-108474671D01*
X114779794Y-108698851D01*
X114749500Y-108928947D01*
X104505500Y-108928947D01*
X104505500Y-108624000D01*
X104493947Y-108516544D01*
X104482741Y-108465033D01*
X104482637Y-108464722D01*
X104448616Y-108362502D01*
X104448613Y-108362496D01*
X104382894Y-108260237D01*
X104370825Y-108241457D01*
X104370820Y-108241451D01*
X104325076Y-108188659D01*
X104325072Y-108188656D01*
X104325070Y-108188653D01*
X104216336Y-108094433D01*
X104216333Y-108094431D01*
X104216331Y-108094430D01*
X104085465Y-108034664D01*
X104085460Y-108034662D01*
X104085459Y-108034662D01*
X104018420Y-108014977D01*
X104018422Y-108014977D01*
X104018417Y-108014976D01*
X103970944Y-108008150D01*
X103876000Y-107994500D01*
X101051362Y-107994500D01*
X101051360Y-107994500D01*
X100997311Y-107997397D01*
X100997310Y-107997397D01*
X100970977Y-108000229D01*
X100970950Y-108000232D01*
X100917554Y-108008885D01*
X100917552Y-108008885D01*
X100782747Y-108059166D01*
X100721422Y-108092651D01*
X100606240Y-108178876D01*
X100606228Y-108178886D01*
X99678892Y-109106223D01*
X99678855Y-109106262D01*
X99642728Y-109146480D01*
X99642718Y-109146492D01*
X99626076Y-109167143D01*
X99594433Y-109211025D01*
X99534663Y-109341899D01*
X99514976Y-109408944D01*
X99505263Y-109476501D01*
X99495236Y-109546247D01*
X99494500Y-109551363D01*
X96892730Y-109551363D01*
X96732382Y-109391015D01*
X96732376Y-109391010D01*
X96724010Y-109384590D01*
X96682809Y-109328161D01*
X96675499Y-109286216D01*
X96675499Y-109249998D01*
X96675498Y-109249981D01*
X96664999Y-109147203D01*
X96664998Y-109147200D01*
X96651425Y-109106239D01*
X96609814Y-108980666D01*
X96517712Y-108831344D01*
X96393656Y-108707288D01*
X96276056Y-108634752D01*
X96244336Y-108615187D01*
X96244331Y-108615185D01*
X96242862Y-108614698D01*
X96077797Y-108560001D01*
X96077795Y-108560000D01*
X95975010Y-108549500D01*
X95149998Y-108549500D01*
X95149980Y-108549501D01*
X95047203Y-108560000D01*
X95047200Y-108560001D01*
X94880668Y-108615185D01*
X94880663Y-108615187D01*
X94731342Y-108707289D01*
X94607289Y-108831342D01*
X94515187Y-108980663D01*
X94515186Y-108980666D01*
X94460001Y-109147203D01*
X94460001Y-109147204D01*
X94460000Y-109147204D01*
X94449500Y-109249983D01*
X94449500Y-109286218D01*
X94429815Y-109353257D01*
X94400990Y-109384590D01*
X94394914Y-109389252D01*
X94392620Y-109391013D01*
X94392617Y-109391016D01*
X94228514Y-109555118D01*
X94228509Y-109555124D01*
X94087221Y-109739254D01*
X94087220Y-109739256D01*
X93971185Y-109940237D01*
X93971177Y-109940254D01*
X93882362Y-110154671D01*
X93822294Y-110378851D01*
X93792000Y-110608947D01*
X93792000Y-114102772D01*
X93772315Y-114169811D01*
X93755681Y-114190453D01*
X92046634Y-115899500D01*
X90342627Y-117603507D01*
X90342623Y-117603511D01*
X90260565Y-117685568D01*
X90178508Y-117767625D01*
X90037225Y-117951750D01*
X90037224Y-117951752D01*
X89990861Y-118032058D01*
X89990826Y-118032118D01*
X89990825Y-118032119D01*
X89921181Y-118152744D01*
X89921177Y-118152754D01*
X89832364Y-118367167D01*
X89823275Y-118401088D01*
X89786909Y-118460748D01*
X89724062Y-118491276D01*
X89654686Y-118482981D01*
X89600809Y-118438495D01*
X89579535Y-118371943D01*
X89579500Y-118368993D01*
X89579500Y-117630446D01*
X89579501Y-117630425D01*
X89579501Y-117475685D01*
X89550506Y-117329926D01*
X89550505Y-117329922D01*
X89537904Y-117299500D01*
X89537904Y-117299499D01*
X89520451Y-117257363D01*
X89493630Y-117192611D01*
X89493628Y-117192608D01*
X89493625Y-117192602D01*
X89464825Y-117149501D01*
X89464824Y-117149499D01*
X89411060Y-117069035D01*
X89411054Y-117069028D01*
X89301647Y-116959621D01*
X89301624Y-116959600D01*
X87764435Y-115422410D01*
X87730950Y-115361087D01*
X87735934Y-115291395D01*
X87777806Y-115235462D01*
X87843270Y-115211045D01*
X87889006Y-115216344D01*
X87897804Y-115219086D01*
X87968384Y-115225500D01*
X87968387Y-115225500D01*
X88481613Y-115225500D01*
X88481616Y-115225500D01*
X88552196Y-115219086D01*
X88714606Y-115168478D01*
X88860185Y-115080472D01*
X88906892Y-115033765D01*
X88962319Y-114978339D01*
X89023642Y-114944854D01*
X89093334Y-114949838D01*
X89137681Y-114978339D01*
X89239811Y-115080469D01*
X89239813Y-115080470D01*
X89239815Y-115080472D01*
X89385394Y-115168478D01*
X89547804Y-115219086D01*
X89618384Y-115225500D01*
X89618387Y-115225500D01*
X90131613Y-115225500D01*
X90131616Y-115225500D01*
X90202196Y-115219086D01*
X90364606Y-115168478D01*
X90510185Y-115080472D01*
X90630472Y-114960185D01*
X90718478Y-114814606D01*
X90769086Y-114652196D01*
X90775500Y-114581616D01*
X90775500Y-113918384D01*
X90769086Y-113847804D01*
X90718478Y-113685394D01*
X90713821Y-113677691D01*
X90698183Y-113651821D01*
X90680300Y-113587672D01*
X90680300Y-113412327D01*
X90698184Y-113348176D01*
X90718475Y-113314611D01*
X90718475Y-113314610D01*
X90718478Y-113314606D01*
X90769086Y-113152196D01*
X90775500Y-113081616D01*
X90775500Y-112418384D01*
X90769086Y-112347804D01*
X90718478Y-112185394D01*
X90630472Y-112039815D01*
X90630470Y-112039813D01*
X90630469Y-112039811D01*
X90546595Y-111955937D01*
X90513110Y-111894614D01*
X90518094Y-111824922D01*
X90528738Y-111803159D01*
X90586998Y-111708705D01*
X90586997Y-111708705D01*
X90587003Y-111708697D01*
X90640349Y-111547708D01*
X90650500Y-111448345D01*
X90650499Y-111363574D01*
X90670183Y-111296537D01*
X90671370Y-111294725D01*
X90713648Y-111231453D01*
X90774353Y-111084897D01*
X90776792Y-111072634D01*
X90777605Y-111068548D01*
X90777605Y-111068547D01*
X90802033Y-110945745D01*
X90805301Y-110929317D01*
X90805301Y-110765575D01*
X90805300Y-110765549D01*
X90805300Y-110084319D01*
X90805565Y-110079600D01*
X90805565Y-110070402D01*
X90805300Y-110065686D01*
X90805300Y-109995684D01*
X90805299Y-109995680D01*
X90774355Y-109840110D01*
X90774352Y-109840101D01*
X90770065Y-109829752D01*
X90732581Y-109739256D01*
X90713651Y-109693553D01*
X90713644Y-109693540D01*
X90625518Y-109561651D01*
X90625515Y-109561647D01*
X90513352Y-109449484D01*
X90513348Y-109449481D01*
X90381459Y-109361355D01*
X90381446Y-109361348D01*
X90234898Y-109300647D01*
X90234889Y-109300644D01*
X90079319Y-109269700D01*
X90079315Y-109269700D01*
X90009315Y-109269700D01*
X90004596Y-109269435D01*
X89995404Y-109269435D01*
X89990685Y-109269700D01*
X89920680Y-109269700D01*
X89765110Y-109300644D01*
X89765101Y-109300647D01*
X89618553Y-109361348D01*
X89618540Y-109361355D01*
X89486651Y-109449481D01*
X89486647Y-109449484D01*
X89374484Y-109561647D01*
X89374481Y-109561651D01*
X89286355Y-109693540D01*
X89286348Y-109693553D01*
X89225647Y-109840101D01*
X89225644Y-109840110D01*
X89194700Y-109995680D01*
X89194700Y-110065686D01*
X89194435Y-110070402D01*
X89194435Y-110079600D01*
X89194700Y-110084319D01*
X89194700Y-110151274D01*
X89175015Y-110218313D01*
X89135798Y-110256812D01*
X89021956Y-110327031D01*
X89021955Y-110327032D01*
X89012681Y-110336307D01*
X88951358Y-110369792D01*
X88881666Y-110364808D01*
X88837319Y-110336307D01*
X88828044Y-110327032D01*
X88828040Y-110327029D01*
X88683705Y-110238001D01*
X88683699Y-110237998D01*
X88683697Y-110237997D01*
X88613910Y-110214872D01*
X88522709Y-110184651D01*
X88423346Y-110174500D01*
X87876662Y-110174500D01*
X87876644Y-110174501D01*
X87777292Y-110184650D01*
X87777289Y-110184651D01*
X87616305Y-110237996D01*
X87616294Y-110238001D01*
X87471959Y-110327029D01*
X87471955Y-110327032D01*
X87352032Y-110446955D01*
X87352029Y-110446959D01*
X87262996Y-110591303D01*
X87262343Y-110592705D01*
X87261592Y-110593579D01*
X87259206Y-110597449D01*
X87258596Y-110597072D01*
X87218859Y-110643393D01*
X87209721Y-110649500D01*
X87209719Y-110649501D01*
X87190132Y-110662588D01*
X87190127Y-110662592D01*
X87145356Y-110707363D01*
X87084033Y-110740847D01*
X87014341Y-110735862D01*
X86958408Y-110693990D01*
X86934737Y-110635867D01*
X86922544Y-110543238D01*
X86922542Y-110543234D01*
X86913935Y-110522455D01*
X86906465Y-110452986D01*
X86913935Y-110427545D01*
X86922544Y-110406762D01*
X86938000Y-110289361D01*
X86937999Y-110010640D01*
X86937999Y-110010638D01*
X86937999Y-110010636D01*
X86922546Y-109893246D01*
X86922544Y-109893239D01*
X86922544Y-109893238D01*
X86862036Y-109747159D01*
X86765782Y-109621718D01*
X86640341Y-109525464D01*
X86494262Y-109464956D01*
X86494260Y-109464955D01*
X86376870Y-109449501D01*
X86376867Y-109449500D01*
X86376861Y-109449500D01*
X86376854Y-109449500D01*
X85023136Y-109449500D01*
X84905746Y-109464953D01*
X84905737Y-109464956D01*
X84759660Y-109525463D01*
X84634218Y-109621718D01*
X84537963Y-109747160D01*
X84477456Y-109893237D01*
X84477455Y-109893239D01*
X84462000Y-110010638D01*
X84462000Y-110289363D01*
X84477453Y-110406753D01*
X84477457Y-110406765D01*
X84486066Y-110427550D01*
X84493533Y-110497019D01*
X84486066Y-110522450D01*
X84477457Y-110543234D01*
X84477455Y-110543239D01*
X84462000Y-110660638D01*
X84462000Y-110939363D01*
X84477453Y-111056753D01*
X84477457Y-111056765D01*
X84486066Y-111077550D01*
X84493533Y-111147019D01*
X84486066Y-111172450D01*
X84477456Y-111193236D01*
X84474174Y-111218163D01*
X84445905Y-111282059D01*
X84387579Y-111320528D01*
X84375434Y-111323590D01*
X84365108Y-111325644D01*
X84365102Y-111325646D01*
X84218550Y-111386350D01*
X84218542Y-111386354D01*
X84148190Y-111433362D01*
X84081512Y-111454239D01*
X84014132Y-111435754D01*
X83967443Y-111383775D01*
X83955300Y-111330259D01*
X83955300Y-109810450D01*
X83955301Y-109810429D01*
X83955301Y-109645684D01*
X83955300Y-109645680D01*
X83947233Y-109605123D01*
X83924354Y-109490103D01*
X83863648Y-109343547D01*
X83863646Y-109343544D01*
X83863644Y-109343540D01*
X83775518Y-109211651D01*
X83775515Y-109211647D01*
X82632588Y-108068722D01*
X82632585Y-108068718D01*
X82632585Y-108068719D01*
X82625518Y-108061652D01*
X82625518Y-108061651D01*
X82513349Y-107949482D01*
X82513348Y-107949481D01*
X82513347Y-107949480D01*
X82381459Y-107861355D01*
X82381446Y-107861348D01*
X82234901Y-107800648D01*
X82234891Y-107800645D01*
X82079317Y-107769699D01*
X82079315Y-107769699D01*
X81920685Y-107769699D01*
X81914571Y-107769699D01*
X81914551Y-107769700D01*
X80285104Y-107769700D01*
X80218065Y-107750015D01*
X80211252Y-107745173D01*
X80064606Y-107656522D01*
X79902196Y-107605914D01*
X79902194Y-107605913D01*
X79902192Y-107605913D01*
X79852778Y-107601423D01*
X79831616Y-107599500D01*
X79318384Y-107599500D01*
X79299145Y-107601248D01*
X79247807Y-107605913D01*
X79085393Y-107656522D01*
X78939811Y-107744530D01*
X78939810Y-107744531D01*
X78837681Y-107846661D01*
X78776358Y-107880146D01*
X78706666Y-107875162D01*
X78662319Y-107846661D01*
X78560188Y-107744530D01*
X78441147Y-107672567D01*
X78414606Y-107656522D01*
X78252196Y-107605914D01*
X78252194Y-107605913D01*
X78252192Y-107605913D01*
X78202778Y-107601423D01*
X78181616Y-107599500D01*
X77668384Y-107599500D01*
X77649145Y-107601248D01*
X77597807Y-107605913D01*
X77435393Y-107656522D01*
X77289811Y-107744530D01*
X77169531Y-107864810D01*
X77169528Y-107864814D01*
X77155723Y-107887651D01*
X77104195Y-107934838D01*
X77049607Y-107947500D01*
X77013190Y-107947500D01*
X77001002Y-107949924D01*
X76962938Y-107951526D01*
X76954921Y-107950622D01*
X76900000Y-107944435D01*
X76899998Y-107944435D01*
X76899996Y-107944435D01*
X76720750Y-107964630D01*
X76720745Y-107964631D01*
X76550476Y-108024211D01*
X76397737Y-108120184D01*
X76270184Y-108247737D01*
X76174211Y-108400476D01*
X76114631Y-108570745D01*
X76114630Y-108570750D01*
X76094435Y-108749996D01*
X76094435Y-108750003D01*
X76114630Y-108929249D01*
X76114631Y-108929254D01*
X76174211Y-109099523D01*
X76246220Y-109214124D01*
X76270184Y-109252262D01*
X76397738Y-109379816D01*
X76449062Y-109412065D01*
X76533232Y-109464953D01*
X76550478Y-109475789D01*
X76614488Y-109498187D01*
X76720745Y-109535368D01*
X76720750Y-109535369D01*
X76899996Y-109555565D01*
X76900000Y-109555565D01*
X76900004Y-109555565D01*
X77079249Y-109535369D01*
X77079251Y-109535368D01*
X77079255Y-109535368D01*
X77079258Y-109535366D01*
X77079262Y-109535366D01*
X77130300Y-109517506D01*
X77249522Y-109475789D01*
X77261596Y-109468202D01*
X77328829Y-109449199D01*
X77391719Y-109467075D01*
X77435394Y-109493478D01*
X77597804Y-109544086D01*
X77668384Y-109550500D01*
X77668387Y-109550500D01*
X78181613Y-109550500D01*
X78181616Y-109550500D01*
X78252196Y-109544086D01*
X78414606Y-109493478D01*
X78560185Y-109405472D01*
X78611208Y-109354449D01*
X78662319Y-109303339D01*
X78723642Y-109269854D01*
X78793334Y-109274838D01*
X78837681Y-109303339D01*
X78945118Y-109410776D01*
X78943828Y-109412065D01*
X78978859Y-109461066D01*
X78982313Y-109530850D01*
X78947490Y-109591423D01*
X78937243Y-109600213D01*
X78909219Y-109621716D01*
X78812963Y-109747160D01*
X78752456Y-109893237D01*
X78752455Y-109893239D01*
X78737000Y-110010638D01*
X78737000Y-110289363D01*
X78752453Y-110406753D01*
X78752457Y-110406765D01*
X78761066Y-110427550D01*
X78768533Y-110497019D01*
X78761066Y-110522450D01*
X78752457Y-110543234D01*
X78752455Y-110543239D01*
X78737000Y-110660638D01*
X78737000Y-110939363D01*
X78752453Y-111056753D01*
X78752457Y-111056765D01*
X78761066Y-111077550D01*
X78768533Y-111147019D01*
X78761066Y-111172450D01*
X78752457Y-111193234D01*
X78752455Y-111193239D01*
X78737000Y-111310638D01*
X78737000Y-111589363D01*
X78752453Y-111706753D01*
X78752457Y-111706765D01*
X78761066Y-111727550D01*
X78768533Y-111797019D01*
X78761066Y-111822450D01*
X78752457Y-111843234D01*
X78752455Y-111843239D01*
X78737000Y-111960638D01*
X78737000Y-111998500D01*
X78717315Y-112065539D01*
X78664511Y-112111294D01*
X78613000Y-112122500D01*
X76026165Y-112122500D01*
X75959126Y-112102815D01*
X75913371Y-112050011D01*
X75903427Y-111980853D01*
X75923063Y-111929609D01*
X75988644Y-111831459D01*
X75988644Y-111831458D01*
X75988648Y-111831453D01*
X76049354Y-111684897D01*
X76080301Y-111529315D01*
X76080301Y-111459307D01*
X76080565Y-111454605D01*
X76080565Y-111445403D01*
X76080301Y-111440696D01*
X76080301Y-111370683D01*
X76080300Y-111370679D01*
X76067486Y-111306257D01*
X76049354Y-111215102D01*
X75988648Y-111068547D01*
X75988645Y-111068543D01*
X75988644Y-111068540D01*
X75900518Y-110936651D01*
X75900515Y-110936647D01*
X75788352Y-110824484D01*
X75788348Y-110824481D01*
X75656459Y-110736355D01*
X75656449Y-110736350D01*
X75509898Y-110675646D01*
X75509890Y-110675644D01*
X75354320Y-110644699D01*
X75354316Y-110644699D01*
X75284306Y-110644699D01*
X75279605Y-110644435D01*
X75270395Y-110644435D01*
X75265694Y-110644699D01*
X75195680Y-110644699D01*
X75040110Y-110675644D01*
X75040102Y-110675646D01*
X74893550Y-110736350D01*
X74893540Y-110736355D01*
X74761651Y-110824481D01*
X74761647Y-110824484D01*
X74309553Y-111276581D01*
X74248230Y-111310066D01*
X74221872Y-111312900D01*
X69146628Y-111312900D01*
X69079589Y-111293215D01*
X69058947Y-111276581D01*
X67216558Y-109434192D01*
X67216538Y-109434170D01*
X67100052Y-109317684D01*
X67100048Y-109317681D01*
X66968159Y-109229555D01*
X66968146Y-109229548D01*
X66821600Y-109168848D01*
X66821598Y-109168847D01*
X66821597Y-109168847D01*
X66818254Y-109168182D01*
X66782375Y-109161045D01*
X66666017Y-109137899D01*
X66666015Y-109137899D01*
X66507385Y-109137899D01*
X66501271Y-109137899D01*
X66501251Y-109137900D01*
X64928128Y-109137900D01*
X64861089Y-109118215D01*
X64840447Y-109101581D01*
X58559219Y-102820353D01*
X58525734Y-102759030D01*
X58522900Y-102732672D01*
X58522900Y-93739983D01*
X63624500Y-93739983D01*
X63624500Y-94940001D01*
X63624501Y-94940018D01*
X63635000Y-95042796D01*
X63635001Y-95042799D01*
X63690185Y-95209331D01*
X63690187Y-95209336D01*
X63714120Y-95248137D01*
X63782288Y-95358656D01*
X63906344Y-95482712D01*
X64055666Y-95574814D01*
X64222203Y-95629999D01*
X64324991Y-95640500D01*
X64742500Y-95640499D01*
X64809539Y-95660183D01*
X64855294Y-95712987D01*
X64866500Y-95764499D01*
X64866500Y-100415500D01*
X64846815Y-100482539D01*
X64794011Y-100528294D01*
X64742500Y-100539500D01*
X64324998Y-100539500D01*
X64324980Y-100539501D01*
X64222203Y-100550000D01*
X64222200Y-100550001D01*
X64055668Y-100605185D01*
X64055663Y-100605187D01*
X63906342Y-100697289D01*
X63782289Y-100821342D01*
X63690187Y-100970663D01*
X63690185Y-100970668D01*
X63675501Y-101014983D01*
X63635001Y-101137203D01*
X63635001Y-101137204D01*
X63635000Y-101137204D01*
X63624500Y-101239983D01*
X63624500Y-102440001D01*
X63624501Y-102440018D01*
X63635000Y-102542796D01*
X63635001Y-102542799D01*
X63675841Y-102666045D01*
X63690186Y-102709334D01*
X63782288Y-102858656D01*
X63906344Y-102982712D01*
X64055666Y-103074814D01*
X64222203Y-103129999D01*
X64324991Y-103140500D01*
X67425008Y-103140499D01*
X67527797Y-103129999D01*
X67694334Y-103074814D01*
X67843656Y-102982712D01*
X67967712Y-102858656D01*
X68059814Y-102709334D01*
X68114999Y-102542797D01*
X68125500Y-102440009D01*
X68125499Y-101239992D01*
X68125433Y-101239350D01*
X68114999Y-101137203D01*
X68114998Y-101137200D01*
X68059814Y-100970666D01*
X67967712Y-100821344D01*
X67843656Y-100697288D01*
X67701737Y-100609752D01*
X67694336Y-100605187D01*
X67694331Y-100605185D01*
X67692862Y-100604698D01*
X67527797Y-100550001D01*
X67527795Y-100550000D01*
X67425016Y-100539500D01*
X67425009Y-100539500D01*
X67007500Y-100539500D01*
X66940461Y-100519815D01*
X66894706Y-100467011D01*
X66883500Y-100415500D01*
X66883500Y-95764499D01*
X66903185Y-95697460D01*
X66955989Y-95651705D01*
X67007500Y-95640499D01*
X67425002Y-95640499D01*
X67425008Y-95640499D01*
X67426477Y-95640349D01*
X67442895Y-95638671D01*
X67527797Y-95629999D01*
X67694334Y-95574814D01*
X67843656Y-95482712D01*
X67967712Y-95358656D01*
X68059814Y-95209334D01*
X68105248Y-95072221D01*
X68145019Y-95014778D01*
X68209535Y-94987955D01*
X68278311Y-95000270D01*
X68327946Y-95045254D01*
X68338157Y-95061504D01*
X68371539Y-95114632D01*
X68378493Y-95125698D01*
X68397500Y-95191671D01*
X68397500Y-95586807D01*
X68421612Y-95708028D01*
X68421613Y-95708032D01*
X68421614Y-95708035D01*
X68439278Y-95750678D01*
X68453729Y-95785565D01*
X68453728Y-95785565D01*
X68453729Y-95785566D01*
X68468913Y-95822225D01*
X68468920Y-95822238D01*
X68530594Y-95914540D01*
X68530595Y-95914541D01*
X68537589Y-95925008D01*
X70352589Y-97740008D01*
X70400716Y-97788135D01*
X70439994Y-97827413D01*
X70439996Y-97827414D01*
X70542756Y-97896076D01*
X70542758Y-97896077D01*
X70542767Y-97896083D01*
X70577383Y-97910421D01*
X70577384Y-97910422D01*
X70577385Y-97910422D01*
X70656966Y-97943386D01*
X70731347Y-97958181D01*
X70778192Y-97967499D01*
X70778196Y-97967500D01*
X70778197Y-97967500D01*
X71974607Y-97967500D01*
X72041646Y-97987185D01*
X72080723Y-98027349D01*
X72094528Y-98050185D01*
X72094531Y-98050189D01*
X72214811Y-98170469D01*
X72214813Y-98170470D01*
X72214815Y-98170472D01*
X72360394Y-98258478D01*
X72522804Y-98309086D01*
X72593384Y-98315500D01*
X72593387Y-98315500D01*
X73106613Y-98315500D01*
X73106616Y-98315500D01*
X73177196Y-98309086D01*
X73339606Y-98258478D01*
X73456767Y-98187651D01*
X73524319Y-98169815D01*
X73590793Y-98191332D01*
X73635081Y-98245372D01*
X73643122Y-98314777D01*
X73639301Y-98330656D01*
X73605914Y-98437803D01*
X73599500Y-98508386D01*
X73599500Y-99171613D01*
X73605913Y-99242192D01*
X73605913Y-99242194D01*
X73605914Y-99242196D01*
X73656522Y-99404606D01*
X73736488Y-99536886D01*
X73744530Y-99550188D01*
X73864811Y-99670469D01*
X73864813Y-99670470D01*
X73864815Y-99670472D01*
X74010394Y-99758478D01*
X74172804Y-99809086D01*
X74243384Y-99815500D01*
X74243387Y-99815500D01*
X74670700Y-99815500D01*
X74737739Y-99835185D01*
X74783494Y-99887989D01*
X74794700Y-99939500D01*
X74794700Y-100215070D01*
X74775015Y-100282109D01*
X74758381Y-100302751D01*
X74719694Y-100341438D01*
X74658371Y-100374923D01*
X74593009Y-100371463D01*
X74452797Y-100325001D01*
X74452795Y-100325000D01*
X74350010Y-100314500D01*
X72999998Y-100314500D01*
X72999981Y-100314501D01*
X72897203Y-100325000D01*
X72897200Y-100325001D01*
X72730668Y-100380185D01*
X72730663Y-100380187D01*
X72581342Y-100472289D01*
X72517751Y-100535881D01*
X72456428Y-100569366D01*
X72430070Y-100572200D01*
X72419930Y-100572200D01*
X72352891Y-100552515D01*
X72332249Y-100535881D01*
X72268657Y-100472289D01*
X72268656Y-100472288D01*
X72168481Y-100410500D01*
X72119336Y-100380187D01*
X72119331Y-100380185D01*
X72103451Y-100374923D01*
X71952797Y-100325001D01*
X71952795Y-100325000D01*
X71850010Y-100314500D01*
X70499998Y-100314500D01*
X70499981Y-100314501D01*
X70397203Y-100325000D01*
X70397200Y-100325001D01*
X70230668Y-100380185D01*
X70230663Y-100380187D01*
X70081342Y-100472289D01*
X69957289Y-100596342D01*
X69865187Y-100745663D01*
X69865185Y-100745668D01*
X69853974Y-100779502D01*
X69810001Y-100912203D01*
X69810001Y-100912204D01*
X69810000Y-100912204D01*
X69799500Y-101014983D01*
X69799500Y-101740001D01*
X69799501Y-101740019D01*
X69810000Y-101842796D01*
X69810001Y-101842799D01*
X69865185Y-102009331D01*
X69865187Y-102009336D01*
X69886928Y-102044584D01*
X69957288Y-102158656D01*
X70081344Y-102282712D01*
X70230666Y-102374814D01*
X70397203Y-102429999D01*
X70499991Y-102440500D01*
X71850008Y-102440499D01*
X71952797Y-102429999D01*
X72119334Y-102374814D01*
X72268656Y-102282712D01*
X72332249Y-102219119D01*
X72393572Y-102185634D01*
X72419930Y-102182800D01*
X72430070Y-102182800D01*
X72497109Y-102202485D01*
X72517751Y-102219119D01*
X72581344Y-102282712D01*
X72730666Y-102374814D01*
X72897203Y-102429999D01*
X72999991Y-102440500D01*
X74350008Y-102440499D01*
X74452797Y-102429999D01*
X74541912Y-102400468D01*
X74611739Y-102398067D01*
X74671781Y-102433798D01*
X74702974Y-102496318D01*
X74704406Y-102529397D01*
X74699500Y-102583386D01*
X74699500Y-103096613D01*
X74705913Y-103167192D01*
X74705913Y-103167194D01*
X74705914Y-103167196D01*
X74756522Y-103329606D01*
X74804719Y-103409334D01*
X74844530Y-103475188D01*
X74964811Y-103595469D01*
X74964813Y-103595470D01*
X74964815Y-103595472D01*
X75110394Y-103683478D01*
X75272804Y-103734086D01*
X75343384Y-103740500D01*
X75343387Y-103740500D01*
X76006613Y-103740500D01*
X76006616Y-103740500D01*
X76077196Y-103734086D01*
X76239606Y-103683478D01*
X76385185Y-103595472D01*
X76505472Y-103475185D01*
X76593478Y-103329606D01*
X76644086Y-103167196D01*
X76650500Y-103096616D01*
X76650500Y-102583384D01*
X76644086Y-102512804D01*
X76593478Y-102350394D01*
X76505472Y-102204815D01*
X76505470Y-102204813D01*
X76501591Y-102198396D01*
X76503139Y-102197460D01*
X76480839Y-102141442D01*
X76480300Y-102129895D01*
X76480300Y-102060450D01*
X76480301Y-102060429D01*
X76480301Y-101895684D01*
X76480300Y-101895680D01*
X76461812Y-101802733D01*
X76449354Y-101740103D01*
X76388648Y-101593547D01*
X76388646Y-101593544D01*
X76388644Y-101593540D01*
X76300519Y-101461652D01*
X76243473Y-101404606D01*
X76176546Y-101337679D01*
X76143063Y-101276359D01*
X76148047Y-101206667D01*
X76176549Y-101162318D01*
X76225515Y-101113352D01*
X76225518Y-101113349D01*
X76313648Y-100981453D01*
X76374353Y-100834897D01*
X76385372Y-100779500D01*
X76398872Y-100711633D01*
X76405301Y-100679316D01*
X76405301Y-100515575D01*
X76405300Y-100515549D01*
X76405300Y-99584928D01*
X76424985Y-99517889D01*
X76441619Y-99497247D01*
X76583868Y-99354998D01*
X76729345Y-99209520D01*
X76790666Y-99176037D01*
X76860357Y-99181021D01*
X76864415Y-99182617D01*
X76935467Y-99212048D01*
X76935471Y-99212048D01*
X76935472Y-99212049D01*
X77110675Y-99246900D01*
X77110678Y-99246900D01*
X78924324Y-99246900D01*
X79042198Y-99223452D01*
X79099533Y-99212048D01*
X79264578Y-99143684D01*
X79413115Y-99044435D01*
X79539435Y-98918115D01*
X79638684Y-98769578D01*
X79707048Y-98604533D01*
X79726173Y-98508386D01*
X79741900Y-98429324D01*
X79741900Y-98250675D01*
X79707049Y-98075472D01*
X79707048Y-98075471D01*
X79707048Y-98075467D01*
X79638684Y-97910422D01*
X79638683Y-97910420D01*
X79638680Y-97910415D01*
X79539435Y-97761885D01*
X79539432Y-97761881D01*
X79413118Y-97635567D01*
X79413114Y-97635564D01*
X79264584Y-97536319D01*
X79264575Y-97536314D01*
X79099533Y-97467952D01*
X79099527Y-97467950D01*
X78924324Y-97433100D01*
X78924322Y-97433100D01*
X78798042Y-97433100D01*
X78731003Y-97413415D01*
X78685248Y-97360611D01*
X78674424Y-97299375D01*
X78675499Y-97285709D01*
X78675500Y-97285686D01*
X78675500Y-96854313D01*
X78675499Y-96854298D01*
X78674105Y-96836588D01*
X78672598Y-96817431D01*
X78651504Y-96744827D01*
X78626745Y-96659606D01*
X78626744Y-96659603D01*
X78626744Y-96659602D01*
X78543081Y-96518135D01*
X78543078Y-96518132D01*
X78538298Y-96511969D01*
X78540750Y-96510066D01*
X78514155Y-96461421D01*
X78519104Y-96391726D01*
X78539940Y-96359304D01*
X78538298Y-96358031D01*
X78543075Y-96351870D01*
X78543081Y-96351865D01*
X78626744Y-96210398D01*
X78672598Y-96052569D01*
X78675500Y-96015694D01*
X78675500Y-95584306D01*
X78672598Y-95547431D01*
X78661280Y-95508476D01*
X78626745Y-95389606D01*
X78626744Y-95389603D01*
X78626744Y-95389602D01*
X78543081Y-95248135D01*
X78543079Y-95248133D01*
X78543076Y-95248129D01*
X78426870Y-95131923D01*
X78426862Y-95131917D01*
X78307791Y-95061499D01*
X78285398Y-95048256D01*
X78285397Y-95048255D01*
X78285396Y-95048255D01*
X78285393Y-95048254D01*
X78127573Y-95002402D01*
X78127567Y-95002401D01*
X78090701Y-94999500D01*
X78090694Y-94999500D01*
X76309306Y-94999500D01*
X76309298Y-94999500D01*
X76272432Y-95002401D01*
X76211094Y-95020222D01*
X76141225Y-95020022D01*
X76082555Y-94982079D01*
X76053712Y-94918441D01*
X76052500Y-94901145D01*
X76052500Y-94728194D01*
X76028386Y-94606970D01*
X76028385Y-94606969D01*
X76028385Y-94606965D01*
X76017227Y-94580027D01*
X75981086Y-94492773D01*
X75981079Y-94492760D01*
X75912412Y-94389993D01*
X75868734Y-94346315D01*
X75825008Y-94302589D01*
X75611785Y-94089366D01*
X75385759Y-93863339D01*
X75355055Y-93812547D01*
X75343478Y-93775394D01*
X75318587Y-93734220D01*
X75300752Y-93666668D01*
X75322269Y-93600194D01*
X75376310Y-93555906D01*
X75400510Y-93548455D01*
X75419169Y-93544744D01*
X75602704Y-93468722D01*
X75767881Y-93358353D01*
X75908353Y-93217881D01*
X76018722Y-93052704D01*
X76094744Y-92869169D01*
X76095295Y-92866402D01*
X76127399Y-92704999D01*
X76133500Y-92674329D01*
X76133500Y-92614499D01*
X76153185Y-92547460D01*
X76205989Y-92501705D01*
X76257495Y-92490499D01*
X78325008Y-92490499D01*
X78427797Y-92479999D01*
X78594334Y-92424814D01*
X78743656Y-92332712D01*
X78867712Y-92208656D01*
X78959814Y-92059334D01*
X79014999Y-91892797D01*
X79025500Y-91790009D01*
X79025499Y-88889992D01*
X79024129Y-88876585D01*
X79014999Y-88787203D01*
X79014998Y-88787200D01*
X78972394Y-88658630D01*
X78959814Y-88620666D01*
X78867712Y-88471344D01*
X78743656Y-88347288D01*
X78597468Y-88257119D01*
X78594336Y-88255187D01*
X78594331Y-88255185D01*
X78542177Y-88237903D01*
X78427797Y-88200001D01*
X78427795Y-88200000D01*
X78325016Y-88189500D01*
X78325009Y-88189500D01*
X76602096Y-88189500D01*
X76535057Y-88169815D01*
X76514419Y-88153185D01*
X76417881Y-88056647D01*
X76417880Y-88056646D01*
X76417879Y-88056645D01*
X76252710Y-87946282D01*
X76252697Y-87946275D01*
X76180812Y-87916500D01*
X76180811Y-87916500D01*
X76069169Y-87870256D01*
X76069161Y-87870254D01*
X75874333Y-87831500D01*
X75874329Y-87831500D01*
X75164443Y-87831500D01*
X75097404Y-87811815D01*
X75058905Y-87772597D01*
X75054681Y-87765749D01*
X75042712Y-87746344D01*
X74918656Y-87622288D01*
X74769334Y-87530186D01*
X74602797Y-87475001D01*
X74602795Y-87475000D01*
X74500010Y-87464500D01*
X73774998Y-87464500D01*
X73774980Y-87464501D01*
X73672203Y-87475000D01*
X73672200Y-87475001D01*
X73505668Y-87530185D01*
X73505663Y-87530187D01*
X73356342Y-87622289D01*
X73232289Y-87746342D01*
X73140187Y-87895663D01*
X73140185Y-87895668D01*
X73123416Y-87946275D01*
X73085001Y-88062203D01*
X73085001Y-88062204D01*
X73085000Y-88062204D01*
X73074500Y-88164983D01*
X73074500Y-88788904D01*
X73054815Y-88855943D01*
X73002011Y-88901698D01*
X72932853Y-88911642D01*
X72869297Y-88882617D01*
X72862819Y-88876585D01*
X72311818Y-88325584D01*
X72278333Y-88264261D01*
X72275499Y-88237903D01*
X72275499Y-88164998D01*
X72275498Y-88164981D01*
X72264999Y-88062203D01*
X72264998Y-88062200D01*
X72263157Y-88056645D01*
X72209814Y-87895666D01*
X72117712Y-87746344D01*
X71993656Y-87622288D01*
X71844334Y-87530186D01*
X71677797Y-87475001D01*
X71677795Y-87475000D01*
X71575010Y-87464500D01*
X70849998Y-87464500D01*
X70849980Y-87464501D01*
X70747203Y-87475000D01*
X70747200Y-87475001D01*
X70580668Y-87530185D01*
X70580663Y-87530187D01*
X70431342Y-87622289D01*
X70307289Y-87746342D01*
X70215187Y-87895663D01*
X70215185Y-87895668D01*
X70198416Y-87946275D01*
X70160001Y-88062203D01*
X70160001Y-88062204D01*
X70160000Y-88062204D01*
X70149500Y-88164983D01*
X70149500Y-88753273D01*
X70129815Y-88820312D01*
X70077011Y-88866067D01*
X70007853Y-88876011D01*
X69944297Y-88846986D01*
X69906523Y-88788208D01*
X69903886Y-88777480D01*
X69869744Y-88605832D01*
X69793721Y-88422297D01*
X69793720Y-88422296D01*
X69793717Y-88422290D01*
X69683353Y-88257119D01*
X69683350Y-88257115D01*
X69542884Y-88116649D01*
X69542880Y-88116646D01*
X69377709Y-88006282D01*
X69377700Y-88006277D01*
X69194170Y-87930257D01*
X69194171Y-87930257D01*
X69194168Y-87930256D01*
X69194164Y-87930255D01*
X69194160Y-87930254D01*
X68999332Y-87891501D01*
X68999328Y-87891501D01*
X68800671Y-87891501D01*
X68800666Y-87891501D01*
X68605838Y-87930254D01*
X68605828Y-87930257D01*
X68422298Y-88006277D01*
X68422289Y-88006282D01*
X68257120Y-88116645D01*
X68244620Y-88129145D01*
X68232119Y-88141647D01*
X68192672Y-88181094D01*
X68091645Y-88282120D01*
X67981282Y-88447289D01*
X67981277Y-88447298D01*
X67905256Y-88630830D01*
X67905254Y-88630838D01*
X67866500Y-88825666D01*
X67866500Y-90870903D01*
X67846815Y-90937942D01*
X67830181Y-90958584D01*
X65785583Y-93003181D01*
X65724260Y-93036666D01*
X65697902Y-93039500D01*
X64324998Y-93039500D01*
X64324981Y-93039501D01*
X64222203Y-93050000D01*
X64222200Y-93050001D01*
X64055668Y-93105185D01*
X64055663Y-93105187D01*
X63906342Y-93197289D01*
X63782289Y-93321342D01*
X63690187Y-93470663D01*
X63690185Y-93470668D01*
X63680542Y-93499770D01*
X63635001Y-93637203D01*
X63635001Y-93637204D01*
X63635000Y-93637204D01*
X63624500Y-93739983D01*
X58522900Y-93739983D01*
X58522900Y-91634509D01*
X58522901Y-91634488D01*
X58522901Y-91469742D01*
X58503387Y-91371642D01*
X58491953Y-91314163D01*
X58491952Y-91314160D01*
X58491952Y-91314159D01*
X58489536Y-91308328D01*
X58489520Y-91308291D01*
X58431251Y-91167613D01*
X58431249Y-91167609D01*
X58431248Y-91167607D01*
X58431244Y-91167601D01*
X58343118Y-91035710D01*
X58227853Y-90920445D01*
X58227822Y-90920416D01*
X56253398Y-88945992D01*
X56253378Y-88945970D01*
X56136889Y-88829481D01*
X56004998Y-88741355D01*
X56004995Y-88741353D01*
X56004993Y-88741352D01*
X56004990Y-88741350D01*
X56004985Y-88741348D01*
X55910155Y-88702069D01*
X55856032Y-88658630D01*
X55803495Y-88583599D01*
X55803493Y-88583597D01*
X55803492Y-88583595D01*
X55636402Y-88416506D01*
X55636395Y-88416501D01*
X55442834Y-88280967D01*
X55442830Y-88280965D01*
X55391692Y-88257119D01*
X55228663Y-88181097D01*
X55228659Y-88181096D01*
X55228655Y-88181094D01*
X55000413Y-88119938D01*
X55000403Y-88119936D01*
X54765001Y-88099341D01*
X54764999Y-88099341D01*
X54529596Y-88119936D01*
X54529586Y-88119938D01*
X54301344Y-88181094D01*
X54301335Y-88181098D01*
X54087171Y-88280964D01*
X54087169Y-88280965D01*
X53893597Y-88416505D01*
X53726505Y-88583597D01*
X53596575Y-88769158D01*
X53541998Y-88812783D01*
X53472500Y-88819977D01*
X53410145Y-88788454D01*
X53393425Y-88769158D01*
X53263494Y-88583597D01*
X53096402Y-88416506D01*
X53096395Y-88416501D01*
X52902834Y-88280967D01*
X52902830Y-88280965D01*
X52851692Y-88257119D01*
X52688663Y-88181097D01*
X52688659Y-88181096D01*
X52688655Y-88181094D01*
X52460413Y-88119938D01*
X52460403Y-88119936D01*
X52225001Y-88099341D01*
X52224999Y-88099341D01*
X51989596Y-88119936D01*
X51989586Y-88119938D01*
X51761344Y-88181094D01*
X51761335Y-88181098D01*
X51547171Y-88280964D01*
X51547169Y-88280965D01*
X51353597Y-88416505D01*
X51186505Y-88583597D01*
X51050965Y-88777169D01*
X51050964Y-88777171D01*
X50951097Y-88991336D01*
X50925398Y-89087242D01*
X50893305Y-89142827D01*
X50712181Y-89323952D01*
X50650858Y-89357437D01*
X50581167Y-89352453D01*
X50525233Y-89310582D01*
X50500816Y-89245117D01*
X50500500Y-89236271D01*
X50500500Y-83477135D01*
X50874500Y-83477135D01*
X50874500Y-85272870D01*
X50874501Y-85272876D01*
X50880908Y-85332483D01*
X50931202Y-85467328D01*
X50931206Y-85467335D01*
X51017452Y-85582544D01*
X51017455Y-85582547D01*
X51132664Y-85668793D01*
X51132671Y-85668797D01*
X51267517Y-85719091D01*
X51267516Y-85719091D01*
X51274444Y-85719835D01*
X51327127Y-85725500D01*
X52636718Y-85725499D01*
X52703757Y-85745184D01*
X52724399Y-85761818D01*
X52987589Y-86025008D01*
X53074992Y-86112411D01*
X53074994Y-86112413D01*
X53074997Y-86112414D01*
X53177767Y-86181083D01*
X53211215Y-86194937D01*
X53291965Y-86228386D01*
X53413192Y-86252499D01*
X53413196Y-86252500D01*
X53413197Y-86252500D01*
X65088876Y-86252500D01*
X65088877Y-86252499D01*
X65210107Y-86228386D01*
X65290856Y-86194937D01*
X65324305Y-86181083D01*
X65427080Y-86112411D01*
X65514483Y-86025008D01*
X69641411Y-81898080D01*
X69655974Y-81876285D01*
X69692628Y-81821429D01*
X69710079Y-81795311D01*
X69710079Y-81795310D01*
X69710083Y-81795305D01*
X69739262Y-81724861D01*
X69741443Y-81719596D01*
X69757384Y-81681110D01*
X69757386Y-81681106D01*
X69781500Y-81559875D01*
X69781500Y-81436268D01*
X69781500Y-79962938D01*
X69801185Y-79895899D01*
X69853989Y-79850144D01*
X69918103Y-79839580D01*
X69922202Y-79839998D01*
X69922203Y-79839999D01*
X70024991Y-79850500D01*
X71375008Y-79850499D01*
X71477797Y-79839999D01*
X71591583Y-79802294D01*
X71630587Y-79796000D01*
X72382580Y-79796000D01*
X72415529Y-79801317D01*
X72415580Y-79801082D01*
X72420204Y-79802071D01*
X72421587Y-79802295D01*
X72422203Y-79802499D01*
X72524991Y-79813000D01*
X73495403Y-79812999D01*
X73562442Y-79832683D01*
X73583084Y-79849318D01*
X74273618Y-80539852D01*
X74292053Y-80563382D01*
X74344528Y-80650185D01*
X74344531Y-80650189D01*
X74464811Y-80770469D01*
X74464813Y-80770470D01*
X74464815Y-80770472D01*
X74610394Y-80858478D01*
X74615224Y-80859983D01*
X74647228Y-80875266D01*
X74697295Y-80908720D01*
X74697298Y-80908722D01*
X74738874Y-80925943D01*
X74880831Y-80984744D01*
X75056597Y-81019706D01*
X75075666Y-81023499D01*
X75075670Y-81023500D01*
X75075671Y-81023500D01*
X75274331Y-81023500D01*
X75274332Y-81023499D01*
X75469168Y-80984744D01*
X75652704Y-80908721D01*
X75702768Y-80875268D01*
X75734779Y-80859982D01*
X75734927Y-80859935D01*
X75739606Y-80858478D01*
X75885185Y-80770472D01*
X76005472Y-80650185D01*
X76093478Y-80504606D01*
X76144086Y-80342196D01*
X76144098Y-80342070D01*
X76148464Y-80294013D01*
X76150338Y-80281039D01*
X76152095Y-80272210D01*
X76183500Y-80114329D01*
X76183500Y-79915671D01*
X76183500Y-79915668D01*
X76150338Y-79748958D01*
X76148464Y-79735987D01*
X76147370Y-79723947D01*
X76144086Y-79687804D01*
X76144085Y-79687801D01*
X76144085Y-79687799D01*
X76144084Y-79687797D01*
X76093479Y-79525397D01*
X76093478Y-79525396D01*
X76093478Y-79525394D01*
X76005472Y-79379815D01*
X76005470Y-79379813D01*
X76005469Y-79379811D01*
X75885189Y-79259531D01*
X75885185Y-79259528D01*
X75798382Y-79207053D01*
X75774852Y-79188618D01*
X75520139Y-78933905D01*
X75486654Y-78872582D01*
X75491638Y-78802890D01*
X75520139Y-78758543D01*
X76760463Y-77518219D01*
X76821786Y-77484734D01*
X76848144Y-77481900D01*
X77110678Y-77481900D01*
X78449232Y-77481900D01*
X78496683Y-77491338D01*
X78510467Y-77497048D01*
X78510471Y-77497048D01*
X78510472Y-77497049D01*
X78685675Y-77531900D01*
X78685678Y-77531900D01*
X78864324Y-77531900D01*
X79016724Y-77501585D01*
X79039533Y-77497048D01*
X79204578Y-77428684D01*
X79353115Y-77329436D01*
X79479436Y-77203115D01*
X79578684Y-77054578D01*
X79647048Y-76889533D01*
X79675569Y-76746149D01*
X79681900Y-76714324D01*
X79681900Y-76535675D01*
X79647049Y-76360472D01*
X79647048Y-76360471D01*
X79647048Y-76360467D01*
X79578684Y-76195422D01*
X79479436Y-76046885D01*
X79479434Y-76046883D01*
X79479432Y-76046880D01*
X79479431Y-76046879D01*
X79303118Y-75870567D01*
X79303114Y-75870564D01*
X79154584Y-75771319D01*
X79154575Y-75771314D01*
X78989533Y-75702952D01*
X78989527Y-75702950D01*
X78814324Y-75668100D01*
X78814322Y-75668100D01*
X78798042Y-75668100D01*
X78731003Y-75648415D01*
X78685248Y-75595611D01*
X78674424Y-75534375D01*
X78675499Y-75520709D01*
X78675500Y-75520686D01*
X78675500Y-75089313D01*
X78675499Y-75089298D01*
X78674141Y-75072046D01*
X78672598Y-75052431D01*
X78626744Y-74894602D01*
X78543081Y-74753135D01*
X78543078Y-74753132D01*
X78538298Y-74746969D01*
X78540750Y-74745066D01*
X78514155Y-74696421D01*
X78519104Y-74626726D01*
X78539940Y-74594304D01*
X78538298Y-74593031D01*
X78543075Y-74586870D01*
X78543081Y-74586865D01*
X78626744Y-74445398D01*
X78662850Y-74321123D01*
X78672597Y-74287573D01*
X78672598Y-74287567D01*
X78673534Y-74275671D01*
X78675500Y-74250694D01*
X78675500Y-73819306D01*
X78675499Y-73819298D01*
X80674500Y-73819298D01*
X80674500Y-74250701D01*
X80677401Y-74287567D01*
X80677402Y-74287573D01*
X80723254Y-74445393D01*
X80723255Y-74445396D01*
X80806917Y-74586862D01*
X80811702Y-74593031D01*
X80809256Y-74594927D01*
X80835857Y-74643642D01*
X80830873Y-74713334D01*
X80810069Y-74745703D01*
X80811702Y-74746969D01*
X80806917Y-74753137D01*
X80723255Y-74894603D01*
X80723254Y-74894606D01*
X80677402Y-75052426D01*
X80677401Y-75052432D01*
X80674500Y-75089298D01*
X80674500Y-75520701D01*
X80677401Y-75557567D01*
X80677402Y-75557573D01*
X80723254Y-75715393D01*
X80723255Y-75715396D01*
X80723256Y-75715398D01*
X80756326Y-75771316D01*
X80806917Y-75856862D01*
X80811702Y-75863031D01*
X80809256Y-75864927D01*
X80835857Y-75913642D01*
X80830873Y-75983334D01*
X80810069Y-76015703D01*
X80811702Y-76016969D01*
X80806917Y-76023137D01*
X80723255Y-76164603D01*
X80723254Y-76164606D01*
X80677402Y-76322426D01*
X80677401Y-76322432D01*
X80674500Y-76359298D01*
X80674500Y-76790701D01*
X80677401Y-76827567D01*
X80677402Y-76827573D01*
X80723254Y-76985393D01*
X80723255Y-76985396D01*
X80806917Y-77126862D01*
X80811702Y-77133031D01*
X80809256Y-77134927D01*
X80835857Y-77183642D01*
X80830873Y-77253334D01*
X80810069Y-77285703D01*
X80811702Y-77286969D01*
X80806917Y-77293137D01*
X80723255Y-77434603D01*
X80723254Y-77434606D01*
X80677402Y-77592426D01*
X80677401Y-77592432D01*
X80674500Y-77629298D01*
X80674500Y-78060701D01*
X80677401Y-78097567D01*
X80677402Y-78097573D01*
X80723254Y-78255393D01*
X80723255Y-78255396D01*
X80806917Y-78396862D01*
X80806923Y-78396870D01*
X80923129Y-78513076D01*
X80923133Y-78513079D01*
X80923135Y-78513081D01*
X81064602Y-78596744D01*
X81106224Y-78608836D01*
X81222426Y-78642597D01*
X81222429Y-78642597D01*
X81222431Y-78642598D01*
X81259306Y-78645500D01*
X81616588Y-78645500D01*
X81683627Y-78665185D01*
X81704269Y-78681819D01*
X86036258Y-83013808D01*
X86051676Y-83032594D01*
X86054961Y-83037511D01*
X86054969Y-83037520D01*
X86345565Y-83328115D01*
X86431531Y-83414081D01*
X86471886Y-83454436D01*
X86620415Y-83553680D01*
X86620421Y-83553683D01*
X86620422Y-83553684D01*
X86785467Y-83622048D01*
X86785471Y-83622048D01*
X86785472Y-83622049D01*
X86960675Y-83656900D01*
X86960678Y-83656900D01*
X91379324Y-83656900D01*
X91497198Y-83633452D01*
X91554533Y-83622048D01*
X91719578Y-83553684D01*
X91868115Y-83454435D01*
X93039331Y-82283219D01*
X93100654Y-82249734D01*
X93127012Y-82246900D01*
X93514324Y-82246900D01*
X93650682Y-82219776D01*
X93689533Y-82212048D01*
X93854578Y-82143684D01*
X94003115Y-82044435D01*
X94673815Y-81373734D01*
X94735136Y-81340251D01*
X94748890Y-81338059D01*
X94827797Y-81329999D01*
X94994334Y-81274814D01*
X95143656Y-81182712D01*
X95267712Y-81058656D01*
X95359814Y-80909334D01*
X95414999Y-80742797D01*
X95425500Y-80640009D01*
X95425499Y-80039992D01*
X95414999Y-79937203D01*
X95359814Y-79770666D01*
X95267712Y-79621344D01*
X95143656Y-79497288D01*
X95041010Y-79433976D01*
X94994336Y-79405187D01*
X94994326Y-79405183D01*
X94993019Y-79404750D01*
X94992239Y-79404210D01*
X94987791Y-79402136D01*
X94988145Y-79401375D01*
X94935577Y-79364973D01*
X94908759Y-79300455D01*
X94921079Y-79231680D01*
X94967882Y-79180931D01*
X94985185Y-79170472D01*
X95105472Y-79050185D01*
X95193478Y-78904606D01*
X95244086Y-78742196D01*
X95250500Y-78671616D01*
X95250500Y-78473708D01*
X95252883Y-78449514D01*
X95256900Y-78429321D01*
X95256900Y-78250677D01*
X95252883Y-78230484D01*
X95250500Y-78206291D01*
X95250500Y-78008386D01*
X95244086Y-77937807D01*
X95244086Y-77937804D01*
X95193478Y-77775394D01*
X95114680Y-77645047D01*
X95096845Y-77577496D01*
X95118362Y-77511022D01*
X95172403Y-77466734D01*
X95220798Y-77456900D01*
X96472988Y-77456900D01*
X96540027Y-77476585D01*
X96560669Y-77493219D01*
X97185565Y-78118115D01*
X97257635Y-78190185D01*
X97311886Y-78244436D01*
X97460415Y-78343680D01*
X97460421Y-78343683D01*
X97460422Y-78343684D01*
X97625467Y-78412048D01*
X97625471Y-78412048D01*
X97625472Y-78412049D01*
X97800675Y-78446900D01*
X97800678Y-78446900D01*
X98114871Y-78446900D01*
X98181910Y-78466585D01*
X98227665Y-78519389D01*
X98237609Y-78588547D01*
X98208584Y-78652103D01*
X98202552Y-78658581D01*
X98191015Y-78670117D01*
X98191009Y-78670124D01*
X98049721Y-78854254D01*
X98049720Y-78854256D01*
X97933685Y-79055237D01*
X97933677Y-79055254D01*
X97844862Y-79269671D01*
X97784794Y-79493851D01*
X97754500Y-79723947D01*
X97754500Y-79956052D01*
X97775339Y-80114331D01*
X97784794Y-80186149D01*
X97788841Y-80201252D01*
X97844862Y-80410328D01*
X97933677Y-80624745D01*
X97933685Y-80624762D01*
X98049720Y-80825743D01*
X98049721Y-80825745D01*
X98191009Y-81009875D01*
X98191015Y-81009882D01*
X98355117Y-81173984D01*
X98355124Y-81173990D01*
X98539254Y-81315278D01*
X98539256Y-81315279D01*
X98740237Y-81431314D01*
X98740240Y-81431315D01*
X98740248Y-81431320D01*
X98954670Y-81520137D01*
X99178851Y-81580206D01*
X99408955Y-81610500D01*
X100845869Y-81610500D01*
X100912908Y-81630185D01*
X100924534Y-81638647D01*
X100996832Y-81697981D01*
X101037060Y-81724861D01*
X101124456Y-81771577D01*
X101143862Y-81779615D01*
X101165289Y-81791068D01*
X101205152Y-81817704D01*
X101210727Y-81821429D01*
X101229517Y-81836850D01*
X101353145Y-81960478D01*
X101368566Y-81979268D01*
X101398929Y-82024709D01*
X101410387Y-82046146D01*
X101418413Y-82065522D01*
X101418422Y-82065541D01*
X101465125Y-82152920D01*
X101465142Y-82152948D01*
X101492000Y-82193144D01*
X101492017Y-82193167D01*
X101554869Y-82269752D01*
X101554879Y-82269763D01*
X101554880Y-82269764D01*
X101606239Y-82321123D01*
X101606255Y-82321137D01*
X101606262Y-82321144D01*
X101646480Y-82357271D01*
X101646492Y-82357281D01*
X101646500Y-82357288D01*
X101667142Y-82373922D01*
X101711026Y-82405567D01*
X101841903Y-82465338D01*
X101908942Y-82485023D01*
X101908946Y-82485024D01*
X102051362Y-82505500D01*
X102051365Y-82505500D01*
X106448640Y-82505500D01*
X106458786Y-82504955D01*
X106502678Y-82502603D01*
X106502686Y-82502602D01*
X106502688Y-82502602D01*
X106502689Y-82502602D01*
X106509682Y-82501849D01*
X106529036Y-82499769D01*
X106529046Y-82499767D01*
X106529049Y-82499767D01*
X106538648Y-82498211D01*
X106582448Y-82491114D01*
X106717257Y-82440832D01*
X106778580Y-82407347D01*
X106821797Y-82374995D01*
X114764592Y-82374995D01*
X114764592Y-82375004D01*
X114784196Y-82636620D01*
X114784197Y-82636625D01*
X114842576Y-82892402D01*
X114842578Y-82892411D01*
X114842580Y-82892416D01*
X114938432Y-83136643D01*
X115069614Y-83363857D01*
X115181053Y-83503597D01*
X115233198Y-83568985D01*
X115404378Y-83727815D01*
X115425521Y-83747433D01*
X115642296Y-83895228D01*
X115642301Y-83895230D01*
X115642302Y-83895231D01*
X115642303Y-83895232D01*
X115767843Y-83955688D01*
X115878673Y-84009061D01*
X115878674Y-84009061D01*
X115878677Y-84009063D01*
X116129385Y-84086396D01*
X116388818Y-84125500D01*
X116651182Y-84125500D01*
X116910615Y-84086396D01*
X117161323Y-84009063D01*
X117364253Y-83911337D01*
X117397696Y-83895232D01*
X117397696Y-83895231D01*
X117397704Y-83895228D01*
X117614479Y-83747433D01*
X117806805Y-83568981D01*
X117970386Y-83363857D01*
X118101568Y-83136643D01*
X118197420Y-82892416D01*
X118255802Y-82636630D01*
X118256951Y-82621303D01*
X118275408Y-82375004D01*
X118275408Y-82374995D01*
X118255803Y-82113379D01*
X118255802Y-82113374D01*
X118255802Y-82113370D01*
X118197420Y-81857584D01*
X118101568Y-81613357D01*
X117970386Y-81386143D01*
X117806805Y-81181019D01*
X117806804Y-81181018D01*
X117806801Y-81181014D01*
X117614479Y-81002567D01*
X117588339Y-80984745D01*
X117397704Y-80854772D01*
X117397700Y-80854770D01*
X117397697Y-80854768D01*
X117397696Y-80854767D01*
X117161325Y-80740938D01*
X117161327Y-80740938D01*
X116910623Y-80663606D01*
X116910619Y-80663605D01*
X116910615Y-80663604D01*
X116773130Y-80642881D01*
X116651187Y-80624500D01*
X116651182Y-80624500D01*
X116388818Y-80624500D01*
X116388812Y-80624500D01*
X116227247Y-80648853D01*
X116129385Y-80663604D01*
X116129382Y-80663605D01*
X116129376Y-80663606D01*
X115878673Y-80740938D01*
X115642303Y-80854767D01*
X115642302Y-80854768D01*
X115425520Y-81002567D01*
X115233198Y-81181014D01*
X115069614Y-81386143D01*
X114938432Y-81613356D01*
X114842582Y-81857578D01*
X114842576Y-81857597D01*
X114784197Y-82113374D01*
X114784196Y-82113379D01*
X114764592Y-82374995D01*
X106821797Y-82374995D01*
X106893761Y-82321123D01*
X107321123Y-81893761D01*
X107357288Y-81853500D01*
X107373922Y-81832858D01*
X107405567Y-81788974D01*
X107465338Y-81658097D01*
X107485023Y-81591058D01*
X107485024Y-81591054D01*
X107505500Y-81448638D01*
X107505500Y-81132500D01*
X107525185Y-81065461D01*
X107577989Y-81019706D01*
X107629500Y-81008500D01*
X108133837Y-81008500D01*
X108200876Y-81028185D01*
X108204949Y-81030917D01*
X108347266Y-81130568D01*
X108553504Y-81226739D01*
X108773308Y-81285635D01*
X108935230Y-81299801D01*
X108999998Y-81305468D01*
X109000000Y-81305468D01*
X109000002Y-81305468D01*
X109056673Y-81300509D01*
X109226692Y-81285635D01*
X109446496Y-81226739D01*
X109652734Y-81130568D01*
X109839139Y-81000047D01*
X110000047Y-80839139D01*
X110130568Y-80652734D01*
X110137618Y-80637614D01*
X110183789Y-80585176D01*
X110250982Y-80566023D01*
X110317864Y-80586238D01*
X110362381Y-80637614D01*
X110369432Y-80652733D01*
X110369432Y-80652734D01*
X110499954Y-80839141D01*
X110660858Y-81000045D01*
X110688937Y-81019706D01*
X110847266Y-81130568D01*
X111053504Y-81226739D01*
X111273308Y-81285635D01*
X111435230Y-81299801D01*
X111499998Y-81305468D01*
X111500000Y-81305468D01*
X111500002Y-81305468D01*
X111556673Y-81300509D01*
X111726692Y-81285635D01*
X111946496Y-81226739D01*
X112152734Y-81130568D01*
X112295040Y-81030924D01*
X112361246Y-81008598D01*
X112366163Y-81008500D01*
X112949330Y-81008500D01*
X112949331Y-81008499D01*
X113144169Y-80969744D01*
X113327704Y-80893721D01*
X113492881Y-80783353D01*
X113633353Y-80642881D01*
X119632944Y-74643288D01*
X119694265Y-74609805D01*
X119763953Y-74614788D01*
X119842517Y-74644091D01*
X119902127Y-74650500D01*
X122897872Y-74650499D01*
X122957483Y-74644091D01*
X123092331Y-74593796D01*
X123207546Y-74507546D01*
X123293796Y-74392331D01*
X123344091Y-74257483D01*
X123350500Y-74197873D01*
X123350500Y-73344500D01*
X123370185Y-73277461D01*
X123422989Y-73231706D01*
X123474500Y-73220500D01*
X124712272Y-73220500D01*
X124779311Y-73240185D01*
X124825066Y-73292989D01*
X124835010Y-73362147D01*
X124824654Y-73396905D01*
X124798261Y-73453502D01*
X124798258Y-73453511D01*
X124739366Y-73673302D01*
X124739364Y-73673313D01*
X124719532Y-73899998D01*
X124719532Y-73900001D01*
X124739364Y-74126686D01*
X124739366Y-74126697D01*
X124798258Y-74346488D01*
X124798261Y-74346497D01*
X124894431Y-74552732D01*
X124894432Y-74552734D01*
X125024954Y-74739141D01*
X125036188Y-74750375D01*
X125069673Y-74811698D01*
X125064689Y-74881390D01*
X125023993Y-74936432D01*
X124855124Y-75066009D01*
X124855117Y-75066015D01*
X124691015Y-75230117D01*
X124691009Y-75230124D01*
X124549721Y-75414254D01*
X124549720Y-75414256D01*
X124433685Y-75615237D01*
X124433677Y-75615254D01*
X124344862Y-75829671D01*
X124284794Y-76053851D01*
X124254500Y-76283947D01*
X124254500Y-76516052D01*
X124284794Y-76746148D01*
X124344862Y-76970328D01*
X124433677Y-77184745D01*
X124433685Y-77184762D01*
X124549720Y-77385743D01*
X124549721Y-77385745D01*
X124691009Y-77569875D01*
X124691015Y-77569882D01*
X124855117Y-77733984D01*
X124855124Y-77733990D01*
X125039254Y-77875278D01*
X125039256Y-77875279D01*
X125240237Y-77991314D01*
X125240240Y-77991315D01*
X125240248Y-77991320D01*
X125454670Y-78080137D01*
X125678851Y-78140206D01*
X125908955Y-78170500D01*
X127115273Y-78170500D01*
X127182312Y-78190185D01*
X127202954Y-78206819D01*
X127693181Y-78697046D01*
X127726666Y-78758369D01*
X127729500Y-78784727D01*
X127729500Y-80040273D01*
X127709815Y-80107312D01*
X127693181Y-80127954D01*
X127252954Y-80568181D01*
X127191631Y-80601666D01*
X127165273Y-80604500D01*
X125609917Y-80604500D01*
X125609885Y-80604499D01*
X125606045Y-80604499D01*
X125373956Y-80604499D01*
X125373948Y-80604499D01*
X125143855Y-80634792D01*
X124980738Y-80678500D01*
X124919673Y-80694862D01*
X124919662Y-80694866D01*
X124862229Y-80718656D01*
X124862228Y-80718656D01*
X124705256Y-80783674D01*
X124705247Y-80783679D01*
X124682092Y-80797048D01*
X124590391Y-80849992D01*
X124575693Y-80858478D01*
X124504250Y-80899724D01*
X124320125Y-81041008D01*
X124238068Y-81123065D01*
X124156011Y-81205123D01*
X106375690Y-98985444D01*
X106314367Y-99018929D01*
X106244675Y-99013945D01*
X106200328Y-98985444D01*
X105393776Y-98178892D01*
X105393761Y-98178877D01*
X105393737Y-98178855D01*
X105353519Y-98142728D01*
X105353507Y-98142718D01*
X105332856Y-98126076D01*
X105288974Y-98094433D01*
X105158100Y-98034663D01*
X105091055Y-98014976D01*
X105043582Y-98008150D01*
X104948638Y-97994500D01*
X104948636Y-97994500D01*
X103260746Y-97994500D01*
X103193707Y-97974815D01*
X103173065Y-97958181D01*
X102932065Y-97717181D01*
X102898580Y-97655858D01*
X102903564Y-97586166D01*
X102945436Y-97530233D01*
X103010900Y-97505816D01*
X103019746Y-97505500D01*
X106933638Y-97505500D01*
X106950853Y-97503722D01*
X107036935Y-97494833D01*
X107086544Y-97484477D01*
X107185483Y-97452926D01*
X107249296Y-97413415D01*
X107307809Y-97377186D01*
X107307815Y-97377181D01*
X107361367Y-97332331D01*
X107361378Y-97332322D01*
X107457412Y-97225184D01*
X107480604Y-97190397D01*
X107933733Y-96510703D01*
X108399775Y-95811640D01*
X108402185Y-95807991D01*
X108403326Y-95806247D01*
X108405567Y-95802792D01*
X108465338Y-95671915D01*
X108485023Y-95604876D01*
X108485024Y-95604872D01*
X108505500Y-95462456D01*
X108505500Y-93051362D01*
X108502603Y-92997322D01*
X108499769Y-92970964D01*
X108499059Y-92966585D01*
X108491114Y-92917554D01*
X108491114Y-92917552D01*
X108440833Y-92782747D01*
X108440832Y-92782743D01*
X108407347Y-92721420D01*
X108321123Y-92606239D01*
X108321118Y-92606234D01*
X108321113Y-92606228D01*
X106893776Y-91178892D01*
X106893770Y-91178886D01*
X106893761Y-91178877D01*
X106893737Y-91178855D01*
X106853519Y-91142728D01*
X106853507Y-91142718D01*
X106832856Y-91126076D01*
X106788974Y-91094433D01*
X106658100Y-91034663D01*
X106591055Y-91014976D01*
X106543582Y-91008150D01*
X106448638Y-90994500D01*
X102551362Y-90994500D01*
X102551360Y-90994500D01*
X102497311Y-90997397D01*
X102497310Y-90997397D01*
X102470977Y-91000229D01*
X102470950Y-91000232D01*
X102417554Y-91008885D01*
X102417552Y-91008885D01*
X102282747Y-91059166D01*
X102221422Y-91092651D01*
X102106240Y-91178876D01*
X102106228Y-91178886D01*
X101237180Y-92047935D01*
X101175857Y-92081420D01*
X101106165Y-92076436D01*
X101050232Y-92034564D01*
X101025815Y-91969100D01*
X101025499Y-91960254D01*
X101025499Y-91588877D01*
X101025498Y-91588876D01*
X101022600Y-91546111D01*
X100976641Y-91361307D01*
X100926687Y-91260584D01*
X100892032Y-91190707D01*
X100892030Y-91190704D01*
X100772722Y-91042278D01*
X100772721Y-91042277D01*
X100624295Y-90922969D01*
X100624292Y-90922967D01*
X100453697Y-90838360D01*
X100268892Y-90792400D01*
X100247506Y-90790950D01*
X100226123Y-90789500D01*
X100226120Y-90789500D01*
X98823877Y-90789500D01*
X98823874Y-90789501D01*
X98781113Y-90792399D01*
X98781112Y-90792399D01*
X98596303Y-90838360D01*
X98425707Y-90922967D01*
X98425704Y-90922969D01*
X98277280Y-91042275D01*
X98277278Y-91042278D01*
X98241498Y-91086789D01*
X98184158Y-91126706D01*
X98144854Y-91133100D01*
X93260676Y-91133100D01*
X93085472Y-91167950D01*
X93085466Y-91167952D01*
X92920424Y-91236314D01*
X92920415Y-91236319D01*
X92771885Y-91335564D01*
X92771881Y-91335567D01*
X92262500Y-91844950D01*
X92096885Y-92010565D01*
X92059515Y-92047935D01*
X91970563Y-92136886D01*
X91970561Y-92136889D01*
X91871316Y-92285420D01*
X91871314Y-92285423D01*
X91841853Y-92356552D01*
X91798013Y-92410956D01*
X91731719Y-92433021D01*
X91727292Y-92433100D01*
X91630976Y-92433100D01*
X91563937Y-92413415D01*
X91543295Y-92396781D01*
X91493971Y-92347457D01*
X91493967Y-92347454D01*
X91350473Y-92260710D01*
X91350472Y-92260709D01*
X91350471Y-92260709D01*
X91190380Y-92210823D01*
X91190378Y-92210822D01*
X91190376Y-92210822D01*
X91141662Y-92206395D01*
X91120801Y-92204500D01*
X91120798Y-92204500D01*
X90629191Y-92204500D01*
X90559623Y-92210821D01*
X90559616Y-92210823D01*
X90392369Y-92262940D01*
X90391779Y-92261047D01*
X90332660Y-92269212D01*
X90269267Y-92239833D01*
X90237003Y-92195387D01*
X90221138Y-92158337D01*
X90099589Y-91978750D01*
X90099587Y-91978747D01*
X89946252Y-91825412D01*
X89766669Y-91703866D01*
X89766668Y-91703865D01*
X89766663Y-91703862D01*
X89766658Y-91703860D01*
X89766653Y-91703857D01*
X89567325Y-91618500D01*
X89567309Y-91618495D01*
X89355424Y-91572403D01*
X89355423Y-91572402D01*
X89355419Y-91572402D01*
X89306704Y-91569500D01*
X87733296Y-91569500D01*
X87684581Y-91572402D01*
X87684576Y-91572402D01*
X87684575Y-91572403D01*
X87472690Y-91618495D01*
X87472674Y-91618500D01*
X87273346Y-91703857D01*
X87273330Y-91703866D01*
X87093747Y-91825412D01*
X86940412Y-91978747D01*
X86818866Y-92158330D01*
X86818857Y-92158346D01*
X86733500Y-92357674D01*
X86733495Y-92357690D01*
X86687403Y-92569575D01*
X86687402Y-92569581D01*
X86684500Y-92618296D01*
X86684500Y-94061704D01*
X86687402Y-94110419D01*
X86687402Y-94110423D01*
X86687403Y-94110424D01*
X86733495Y-94322309D01*
X86733500Y-94322325D01*
X86818857Y-94521653D01*
X86818860Y-94521658D01*
X86818862Y-94521663D01*
X86818865Y-94521668D01*
X86818866Y-94521669D01*
X86940412Y-94701252D01*
X87093747Y-94854587D01*
X87093750Y-94854589D01*
X87273337Y-94976138D01*
X87273344Y-94976141D01*
X87273346Y-94976142D01*
X87472674Y-95061499D01*
X87472681Y-95061501D01*
X87472683Y-95061502D01*
X87472684Y-95061502D01*
X87472690Y-95061504D01*
X87558968Y-95080272D01*
X87684581Y-95107598D01*
X87733296Y-95110500D01*
X88319100Y-95110500D01*
X88386139Y-95130185D01*
X88431894Y-95182989D01*
X88443100Y-95234500D01*
X88443100Y-95929321D01*
X88447117Y-95949514D01*
X88449500Y-95973708D01*
X88449500Y-96039100D01*
X88429815Y-96106139D01*
X88377011Y-96151894D01*
X88325500Y-96163100D01*
X86605581Y-96163100D01*
X86538542Y-96143415D01*
X86492787Y-96090611D01*
X86482843Y-96021453D01*
X86487875Y-96000096D01*
X86492877Y-95985001D01*
X86539999Y-95842797D01*
X86550500Y-95740009D01*
X86550499Y-95014992D01*
X86549852Y-95008662D01*
X86539999Y-94912203D01*
X86539998Y-94912200D01*
X86521013Y-94854907D01*
X86484814Y-94745666D01*
X86392712Y-94596344D01*
X86268656Y-94472288D01*
X86119334Y-94380186D01*
X85952797Y-94325001D01*
X85952795Y-94325000D01*
X85850016Y-94314500D01*
X85850009Y-94314500D01*
X85105900Y-94314500D01*
X85038861Y-94294815D01*
X84993106Y-94242011D01*
X84981900Y-94190500D01*
X84981900Y-92614499D01*
X85001585Y-92547460D01*
X85054389Y-92501705D01*
X85105900Y-92490499D01*
X85125002Y-92490499D01*
X85125008Y-92490499D01*
X85227797Y-92479999D01*
X85394334Y-92424814D01*
X85543656Y-92332712D01*
X85667712Y-92208656D01*
X85759814Y-92059334D01*
X85814999Y-91892797D01*
X85825500Y-91790009D01*
X85825499Y-88889992D01*
X85824129Y-88876585D01*
X85814999Y-88787203D01*
X85814998Y-88787200D01*
X85772394Y-88658630D01*
X85759814Y-88620666D01*
X85667712Y-88471344D01*
X85543656Y-88347288D01*
X85397468Y-88257119D01*
X85394336Y-88255187D01*
X85394331Y-88255185D01*
X85342177Y-88237903D01*
X85227797Y-88200001D01*
X85227795Y-88200000D01*
X85125010Y-88189500D01*
X83024998Y-88189500D01*
X83024981Y-88189501D01*
X82922203Y-88200000D01*
X82922200Y-88200001D01*
X82755668Y-88255185D01*
X82755663Y-88255187D01*
X82606342Y-88347289D01*
X82482289Y-88471342D01*
X82390187Y-88620663D01*
X82390185Y-88620668D01*
X82386815Y-88630838D01*
X82335001Y-88787203D01*
X82335001Y-88787204D01*
X82335000Y-88787204D01*
X82324500Y-88889983D01*
X82324500Y-91790001D01*
X82324501Y-91790018D01*
X82335000Y-91892796D01*
X82335001Y-91892799D01*
X82390185Y-92059331D01*
X82390187Y-92059336D01*
X82403809Y-92081420D01*
X82482288Y-92208656D01*
X82606344Y-92332712D01*
X82755666Y-92424814D01*
X82922203Y-92479999D01*
X83024991Y-92490500D01*
X83044096Y-92490499D01*
X83111135Y-92510181D01*
X83156892Y-92562982D01*
X83168100Y-92614499D01*
X83168100Y-94512988D01*
X83148415Y-94580027D01*
X83131781Y-94600669D01*
X82774069Y-94958381D01*
X82712746Y-94991866D01*
X82686388Y-94994700D01*
X82070685Y-94994700D01*
X82058531Y-94997117D01*
X82034342Y-94999500D01*
X81259298Y-94999500D01*
X81222432Y-95002401D01*
X81222426Y-95002402D01*
X81064606Y-95048254D01*
X81064603Y-95048255D01*
X80923137Y-95131917D01*
X80923129Y-95131923D01*
X80806923Y-95248129D01*
X80806917Y-95248137D01*
X80723255Y-95389603D01*
X80723254Y-95389606D01*
X80677402Y-95547426D01*
X80677401Y-95547432D01*
X80674500Y-95584298D01*
X80674500Y-96015701D01*
X80677401Y-96052567D01*
X80677402Y-96052573D01*
X80723254Y-96210393D01*
X80723255Y-96210396D01*
X80806917Y-96351862D01*
X80811702Y-96358031D01*
X80809256Y-96359927D01*
X80835857Y-96408642D01*
X80830873Y-96478334D01*
X80810069Y-96510703D01*
X80811702Y-96511969D01*
X80806917Y-96518137D01*
X80723255Y-96659603D01*
X80723254Y-96659606D01*
X80677402Y-96817426D01*
X80677401Y-96817432D01*
X80674500Y-96854298D01*
X80674500Y-97285701D01*
X80677401Y-97322567D01*
X80677402Y-97322573D01*
X80723254Y-97480393D01*
X80723255Y-97480396D01*
X80723256Y-97480398D01*
X80756326Y-97536316D01*
X80806917Y-97621862D01*
X80811702Y-97628031D01*
X80809256Y-97629927D01*
X80835857Y-97678642D01*
X80830873Y-97748334D01*
X80810069Y-97780703D01*
X80811702Y-97781969D01*
X80806917Y-97788137D01*
X80723255Y-97929603D01*
X80723254Y-97929606D01*
X80677402Y-98087426D01*
X80677401Y-98087432D01*
X80674500Y-98124298D01*
X80674500Y-98555701D01*
X80677401Y-98592567D01*
X80677402Y-98592573D01*
X80723254Y-98750393D01*
X80723255Y-98750396D01*
X80723256Y-98750398D01*
X80757659Y-98808570D01*
X80806917Y-98891862D01*
X80811702Y-98898031D01*
X80809256Y-98899927D01*
X80835857Y-98948642D01*
X80830873Y-99018334D01*
X80810069Y-99050703D01*
X80811702Y-99051969D01*
X80806917Y-99058137D01*
X80723255Y-99199603D01*
X80723254Y-99199606D01*
X80677402Y-99357426D01*
X80677401Y-99357432D01*
X80674500Y-99394298D01*
X80674500Y-99825701D01*
X80677401Y-99862567D01*
X80677402Y-99862573D01*
X80723254Y-100020393D01*
X80723255Y-100020396D01*
X80806917Y-100161862D01*
X80806923Y-100161870D01*
X80923129Y-100278076D01*
X80923133Y-100278079D01*
X80923135Y-100278081D01*
X81064602Y-100361744D01*
X81081265Y-100366585D01*
X81222426Y-100407597D01*
X81222429Y-100407597D01*
X81222431Y-100407598D01*
X81259306Y-100410500D01*
X81688070Y-100410500D01*
X81735522Y-100419938D01*
X81885467Y-100482048D01*
X81885471Y-100482048D01*
X81885472Y-100482049D01*
X82060675Y-100516900D01*
X82060678Y-100516900D01*
X82842988Y-100516900D01*
X82910027Y-100536585D01*
X82930669Y-100553219D01*
X83231781Y-100854331D01*
X83265266Y-100915654D01*
X83268100Y-100942012D01*
X83268100Y-101525678D01*
X83268100Y-101704322D01*
X83268100Y-101704324D01*
X83268099Y-101704324D01*
X83302950Y-101879527D01*
X83302952Y-101879533D01*
X83371314Y-102044575D01*
X83371319Y-102044584D01*
X83470564Y-102193114D01*
X83470567Y-102193118D01*
X86471881Y-105194432D01*
X86471885Y-105194435D01*
X86620415Y-105293680D01*
X86620421Y-105293683D01*
X86620422Y-105293684D01*
X86785467Y-105362048D01*
X86785471Y-105362048D01*
X86785472Y-105362049D01*
X86960675Y-105396900D01*
X86960678Y-105396900D01*
X91814324Y-105396900D01*
X91932198Y-105373452D01*
X91989533Y-105362048D01*
X92154578Y-105293684D01*
X92303115Y-105194435D01*
X93214332Y-104283219D01*
X93275655Y-104249734D01*
X93302013Y-104246900D01*
X94014324Y-104246900D01*
X94146409Y-104220626D01*
X94189533Y-104212048D01*
X94354578Y-104143684D01*
X94503115Y-104044435D01*
X94673814Y-103873734D01*
X94735135Y-103840251D01*
X94748890Y-103838059D01*
X94827797Y-103829999D01*
X94994334Y-103774814D01*
X95143656Y-103682712D01*
X95267712Y-103558656D01*
X95359814Y-103409334D01*
X95414999Y-103242797D01*
X95425500Y-103140009D01*
X95425499Y-102539992D01*
X95414999Y-102437203D01*
X95359814Y-102270666D01*
X95267712Y-102121344D01*
X95143656Y-101997288D01*
X95035492Y-101930572D01*
X94994336Y-101905187D01*
X94994326Y-101905183D01*
X94993019Y-101904750D01*
X94992239Y-101904210D01*
X94987791Y-101902136D01*
X94988145Y-101901375D01*
X94935577Y-101864973D01*
X94908759Y-101800455D01*
X94921079Y-101731680D01*
X94967882Y-101680931D01*
X94985185Y-101670472D01*
X95105472Y-101550185D01*
X95193478Y-101404606D01*
X95244086Y-101242196D01*
X95250500Y-101171616D01*
X95250500Y-100973708D01*
X95252883Y-100949514D01*
X95254376Y-100942012D01*
X95256900Y-100929322D01*
X95256900Y-100892012D01*
X95276585Y-100824973D01*
X95293219Y-100804331D01*
X95714331Y-100383219D01*
X95775654Y-100349734D01*
X95802012Y-100346900D01*
X97960839Y-100346900D01*
X98027878Y-100366585D01*
X98071927Y-100415806D01*
X98157966Y-100589290D01*
X98157968Y-100589293D01*
X98157970Y-100589296D01*
X98228140Y-100676591D01*
X98254798Y-100741175D01*
X98242307Y-100809920D01*
X98219175Y-100841958D01*
X98191008Y-100870124D01*
X98049721Y-101054254D01*
X98049720Y-101054256D01*
X97933685Y-101255237D01*
X97933677Y-101255254D01*
X97844862Y-101469671D01*
X97784794Y-101693851D01*
X97754500Y-101923947D01*
X97754500Y-102156052D01*
X97771176Y-102282710D01*
X97784794Y-102386149D01*
X97799226Y-102440009D01*
X97844862Y-102610328D01*
X97933677Y-102824745D01*
X97933685Y-102824762D01*
X98049720Y-103025743D01*
X98049721Y-103025745D01*
X98191009Y-103209875D01*
X98191015Y-103209882D01*
X98355117Y-103373984D01*
X98355124Y-103373990D01*
X98539254Y-103515278D01*
X98539256Y-103515279D01*
X98740237Y-103631314D01*
X98740240Y-103631315D01*
X98740248Y-103631320D01*
X98954670Y-103720137D01*
X99178851Y-103780206D01*
X99408955Y-103810500D01*
X100395907Y-103810500D01*
X100462946Y-103830185D01*
X100508701Y-103882989D01*
X100516205Y-103904426D01*
X100516297Y-103904794D01*
X100519999Y-103934868D01*
X100519999Y-104474144D01*
X100522896Y-104528191D01*
X100522899Y-104528218D01*
X100525730Y-104554548D01*
X100534382Y-104607936D01*
X100534384Y-104607943D01*
X100534385Y-104607947D01*
X100584667Y-104742756D01*
X100618152Y-104804079D01*
X100704376Y-104919260D01*
X100704380Y-104919264D01*
X100704385Y-104919270D01*
X100979548Y-105194432D01*
X101106239Y-105321123D01*
X101106255Y-105321137D01*
X101106262Y-105321144D01*
X101146480Y-105357271D01*
X101146492Y-105357281D01*
X101146500Y-105357288D01*
X101167142Y-105373922D01*
X101211026Y-105405567D01*
X101341903Y-105465338D01*
X101408942Y-105485023D01*
X101408946Y-105485024D01*
X101551362Y-105505500D01*
X101551365Y-105505500D01*
X105448640Y-105505500D01*
X105458786Y-105504955D01*
X105502678Y-105502603D01*
X105502686Y-105502602D01*
X105502688Y-105502602D01*
X105502689Y-105502602D01*
X105509682Y-105501849D01*
X105529036Y-105499769D01*
X105529046Y-105499767D01*
X105529049Y-105499767D01*
X105538648Y-105498211D01*
X105582448Y-105491114D01*
X105717257Y-105440832D01*
X105778580Y-105407347D01*
X105893761Y-105321123D01*
X106821123Y-104393761D01*
X106857288Y-104353500D01*
X106873922Y-104332858D01*
X106905567Y-104288974D01*
X106916415Y-104265217D01*
X106950846Y-104220631D01*
X107036109Y-104151109D01*
X107164698Y-103993407D01*
X107258909Y-103813049D01*
X107314886Y-103617418D01*
X107325500Y-103498037D01*
X107325499Y-103094725D01*
X107345183Y-103027687D01*
X107361813Y-103007050D01*
X126187046Y-84181819D01*
X126248369Y-84148334D01*
X126274727Y-84145500D01*
X127830083Y-84145500D01*
X127830115Y-84145501D01*
X127833955Y-84145501D01*
X128066038Y-84145501D01*
X128066045Y-84145501D01*
X128296149Y-84115207D01*
X128520330Y-84055137D01*
X128734752Y-83966320D01*
X128829986Y-83911337D01*
X128935748Y-83850276D01*
X129119877Y-83708989D01*
X129283989Y-83544877D01*
X129289353Y-83539513D01*
X129289368Y-83539495D01*
X130664495Y-82164368D01*
X130664513Y-82164353D01*
X130833984Y-81994882D01*
X130833989Y-81994877D01*
X130975276Y-81810748D01*
X130984189Y-81795311D01*
X131015477Y-81741117D01*
X131091320Y-81609752D01*
X131180137Y-81395330D01*
X131197419Y-81330832D01*
X131240207Y-81171149D01*
X131270501Y-80941045D01*
X131270501Y-80708955D01*
X131270501Y-80705116D01*
X131270500Y-80705082D01*
X131270500Y-78120460D01*
X131270501Y-78120431D01*
X131270501Y-77880117D01*
X131270500Y-77880083D01*
X131270500Y-75383961D01*
X131270499Y-75383947D01*
X131264038Y-75334875D01*
X131240206Y-75153851D01*
X131180137Y-74929670D01*
X131091320Y-74715248D01*
X131091314Y-74715237D01*
X131000113Y-74557270D01*
X130983500Y-74495271D01*
X130983500Y-73950668D01*
X130957371Y-73819313D01*
X130950336Y-73783950D01*
X130948464Y-73770987D01*
X130945848Y-73742196D01*
X130944086Y-73722804D01*
X130944085Y-73722801D01*
X130944085Y-73722799D01*
X130944084Y-73722797D01*
X130893479Y-73560396D01*
X130884282Y-73545183D01*
X130805472Y-73414815D01*
X130805471Y-73414814D01*
X130801745Y-73408650D01*
X130783909Y-73341095D01*
X130805427Y-73274622D01*
X130859467Y-73230334D01*
X130907862Y-73220500D01*
X131815273Y-73220500D01*
X131882312Y-73240185D01*
X131902954Y-73256819D01*
X133718181Y-75072046D01*
X133751666Y-75133369D01*
X133754500Y-75159727D01*
X133754500Y-82210082D01*
X133754499Y-82210116D01*
X133754499Y-82446052D01*
X133779590Y-82636630D01*
X133784793Y-82676149D01*
X133841821Y-82888978D01*
X133842744Y-82892421D01*
X133844863Y-82900330D01*
X133933677Y-83114745D01*
X133933685Y-83114762D01*
X134049720Y-83315743D01*
X134049721Y-83315745D01*
X134191009Y-83499875D01*
X134191015Y-83499882D01*
X134358221Y-83667088D01*
X134358249Y-83667114D01*
X134400119Y-83708985D01*
X134400125Y-83708990D01*
X134531238Y-83809596D01*
X134584253Y-83850276D01*
X134584260Y-83850280D01*
X134785240Y-83966317D01*
X134785256Y-83966325D01*
X134999663Y-84055134D01*
X134999665Y-84055134D01*
X134999671Y-84055137D01*
X135223852Y-84115207D01*
X135453956Y-84145501D01*
X135453963Y-84145501D01*
X135686038Y-84145501D01*
X135686045Y-84145501D01*
X135916149Y-84115207D01*
X136140330Y-84055137D01*
X136354752Y-83966321D01*
X136555747Y-83850276D01*
X136739877Y-83708989D01*
X136903989Y-83544877D01*
X137045276Y-83360747D01*
X137161321Y-83159752D01*
X137250137Y-82945330D01*
X137310207Y-82721149D01*
X137340501Y-82491045D01*
X137340501Y-82258956D01*
X137310207Y-82028852D01*
X137301105Y-81994882D01*
X137299725Y-81989731D01*
X137295500Y-81957639D01*
X137295500Y-74495460D01*
X137295501Y-74495431D01*
X137295501Y-74258962D01*
X137295500Y-74258948D01*
X137290307Y-74219503D01*
X137265207Y-74028852D01*
X137215113Y-73841902D01*
X137205137Y-73804670D01*
X137193891Y-73777521D01*
X137158923Y-73693100D01*
X137158923Y-73693099D01*
X137116325Y-73590256D01*
X137116320Y-73590247D01*
X137037888Y-73454399D01*
X137000276Y-73389252D01*
X136858989Y-73205123D01*
X136858984Y-73205117D01*
X136692470Y-73038603D01*
X136692431Y-73038566D01*
X133937114Y-70283249D01*
X133937086Y-70283219D01*
X133769882Y-70116015D01*
X133769875Y-70116009D01*
X133585745Y-69974721D01*
X133585743Y-69974720D01*
X133384762Y-69858685D01*
X133384754Y-69858681D01*
X133384752Y-69858680D01*
X133382331Y-69857677D01*
X133170326Y-69769861D01*
X133170324Y-69769860D01*
X133135264Y-69760466D01*
X133135264Y-69760467D01*
X132946149Y-69709793D01*
X132946148Y-69709792D01*
X132946145Y-69709792D01*
X132716052Y-69679499D01*
X132716045Y-69679499D01*
X132483955Y-69679499D01*
X132480115Y-69679499D01*
X132480083Y-69679500D01*
X123474499Y-69679500D01*
X123407460Y-69659815D01*
X123361705Y-69607011D01*
X123350499Y-69555500D01*
X123350499Y-68702129D01*
X123350498Y-68702123D01*
X123350497Y-68702116D01*
X123344091Y-68642517D01*
X123341462Y-68635469D01*
X123293797Y-68507671D01*
X123293793Y-68507664D01*
X123207547Y-68392455D01*
X123207544Y-68392452D01*
X123092335Y-68306206D01*
X123092328Y-68306202D01*
X122957482Y-68255908D01*
X122957483Y-68255908D01*
X122897883Y-68249501D01*
X122897881Y-68249500D01*
X122897873Y-68249500D01*
X122897864Y-68249500D01*
X119902129Y-68249500D01*
X119902123Y-68249501D01*
X119842516Y-68255908D01*
X119707671Y-68306202D01*
X119707664Y-68306206D01*
X119592455Y-68392452D01*
X119592452Y-68392455D01*
X119506206Y-68507664D01*
X119506202Y-68507671D01*
X119455908Y-68642517D01*
X119451667Y-68681969D01*
X119449501Y-68702123D01*
X119449500Y-68702135D01*
X119449500Y-71922903D01*
X119429815Y-71989942D01*
X119413181Y-72010584D01*
X112468585Y-78955181D01*
X112407262Y-78988666D01*
X112380904Y-78991500D01*
X112366163Y-78991500D01*
X112299124Y-78971815D01*
X112295040Y-78969075D01*
X112275197Y-78955181D01*
X112152734Y-78869432D01*
X112069601Y-78830666D01*
X111946497Y-78773261D01*
X111946488Y-78773258D01*
X111726697Y-78714366D01*
X111726693Y-78714365D01*
X111726692Y-78714365D01*
X111726691Y-78714364D01*
X111726686Y-78714364D01*
X111500002Y-78694532D01*
X111499998Y-78694532D01*
X111273313Y-78714364D01*
X111273302Y-78714366D01*
X111053511Y-78773258D01*
X111053502Y-78773261D01*
X110847267Y-78869431D01*
X110847265Y-78869432D01*
X110660858Y-78999954D01*
X110499954Y-79160858D01*
X110369433Y-79347264D01*
X110369432Y-79347266D01*
X110362380Y-79362387D01*
X110316209Y-79414825D01*
X110249015Y-79433976D01*
X110182134Y-79413760D01*
X110137619Y-79362387D01*
X110130568Y-79347266D01*
X110000047Y-79160861D01*
X110000045Y-79160858D01*
X109839141Y-78999954D01*
X109652734Y-78869432D01*
X109652728Y-78869429D01*
X109615522Y-78852079D01*
X109572284Y-78831917D01*
X109519845Y-78785746D01*
X109500693Y-78718552D01*
X109520909Y-78651671D01*
X109537003Y-78631860D01*
X112664495Y-75504368D01*
X112664513Y-75504353D01*
X112833984Y-75334882D01*
X112833989Y-75334877D01*
X112975276Y-75150748D01*
X113023648Y-75066965D01*
X113091321Y-74949752D01*
X113180137Y-74735330D01*
X113213409Y-74611153D01*
X113249772Y-74551496D01*
X113258874Y-74543981D01*
X113307545Y-74507547D01*
X113307547Y-74507544D01*
X113393796Y-74392331D01*
X113444091Y-74257483D01*
X113450500Y-74197873D01*
X113450499Y-68702128D01*
X113444091Y-68642517D01*
X113441462Y-68635469D01*
X113393797Y-68507671D01*
X113393793Y-68507664D01*
X113307547Y-68392455D01*
X113307544Y-68392452D01*
X113192335Y-68306206D01*
X113192328Y-68306202D01*
X113057482Y-68255908D01*
X113057483Y-68255908D01*
X112997883Y-68249501D01*
X112997881Y-68249500D01*
X112997873Y-68249500D01*
X112997864Y-68249500D01*
X110002129Y-68249500D01*
X110002123Y-68249501D01*
X109942516Y-68255908D01*
X109807671Y-68306202D01*
X109807664Y-68306206D01*
X109692455Y-68392452D01*
X109692452Y-68392455D01*
X109606206Y-68507664D01*
X109606202Y-68507671D01*
X109555908Y-68642517D01*
X109551667Y-68681969D01*
X109549501Y-68702123D01*
X109549500Y-68702135D01*
X109549500Y-73560272D01*
X109529815Y-73627311D01*
X109513181Y-73647953D01*
X107696133Y-75465000D01*
X107634810Y-75498485D01*
X107565118Y-75493501D01*
X107509185Y-75451629D01*
X107492270Y-75420653D01*
X107491114Y-75417554D01*
X107491114Y-75417552D01*
X107440832Y-75282743D01*
X107407347Y-75221420D01*
X107321123Y-75106239D01*
X107321118Y-75106234D01*
X107321113Y-75106228D01*
X106928437Y-74713553D01*
X106894952Y-74652230D01*
X106899936Y-74582539D01*
X106941807Y-74526605D01*
X107002861Y-74502583D01*
X107029036Y-74499769D01*
X107029048Y-74499767D01*
X107029049Y-74499767D01*
X107038648Y-74498211D01*
X107082448Y-74491114D01*
X107217257Y-74440832D01*
X107278580Y-74407347D01*
X107393761Y-74321123D01*
X108321123Y-73393761D01*
X108357288Y-73353500D01*
X108373922Y-73332858D01*
X108405567Y-73288974D01*
X108465338Y-73158097D01*
X108485023Y-73091058D01*
X108485024Y-73091054D01*
X108505500Y-72948638D01*
X108505500Y-70029272D01*
X108505328Y-70027799D01*
X108493361Y-69925019D01*
X108491977Y-69913131D01*
X108478886Y-69857677D01*
X108439044Y-69747755D01*
X108413544Y-69696754D01*
X108413542Y-69696750D01*
X107986405Y-68842478D01*
X107910409Y-68730830D01*
X107866540Y-68681970D01*
X107856100Y-68673083D01*
X107763699Y-68594432D01*
X107632826Y-68534663D01*
X107565781Y-68514976D01*
X107514923Y-68507664D01*
X107423364Y-68494500D01*
X101576636Y-68494500D01*
X101560737Y-68496642D01*
X101442789Y-68512541D01*
X101379476Y-68529926D01*
X101379462Y-68529930D01*
X101255184Y-68582761D01*
X101255176Y-68582766D01*
X101143200Y-68673083D01*
X101143183Y-68673099D01*
X101097123Y-68722615D01*
X101095970Y-68723810D01*
X101095603Y-68724249D01*
X101095600Y-68724252D01*
X101095600Y-68724253D01*
X101029248Y-68819910D01*
X100974864Y-68863775D01*
X100905398Y-68871275D01*
X100842904Y-68840027D01*
X100830713Y-68826922D01*
X100772722Y-68754778D01*
X100772721Y-68754777D01*
X100624295Y-68635469D01*
X100624292Y-68635467D01*
X100453697Y-68550860D01*
X100268892Y-68504900D01*
X100243229Y-68503160D01*
X100226123Y-68502000D01*
X100226121Y-68502000D01*
X99585445Y-68502000D01*
X99518406Y-68482315D01*
X99516589Y-68481125D01*
X99463908Y-68445924D01*
X99427077Y-68421315D01*
X99262033Y-68352952D01*
X99262027Y-68352950D01*
X99086824Y-68318100D01*
X99086822Y-68318100D01*
X93564322Y-68318100D01*
X93385678Y-68318100D01*
X93385676Y-68318100D01*
X93210472Y-68352950D01*
X93210466Y-68352952D01*
X93045424Y-68421314D01*
X93045415Y-68421319D01*
X92896885Y-68520564D01*
X92896881Y-68520567D01*
X92264093Y-69153357D01*
X92096885Y-69320565D01*
X92051507Y-69365943D01*
X91970563Y-69446886D01*
X91899667Y-69552991D01*
X91846055Y-69597796D01*
X91796565Y-69608100D01*
X91110676Y-69608100D01*
X90935473Y-69642950D01*
X90935465Y-69642952D01*
X90809662Y-69695061D01*
X90762211Y-69704500D01*
X90629191Y-69704500D01*
X90559623Y-69710821D01*
X90559616Y-69710823D01*
X90392369Y-69762940D01*
X90391779Y-69761047D01*
X90332660Y-69769212D01*
X90269267Y-69739833D01*
X90237003Y-69695387D01*
X90221138Y-69658337D01*
X90099589Y-69478750D01*
X90099587Y-69478747D01*
X89946252Y-69325412D01*
X89766669Y-69203866D01*
X89766668Y-69203865D01*
X89766663Y-69203862D01*
X89766658Y-69203860D01*
X89766653Y-69203857D01*
X89567325Y-69118500D01*
X89567309Y-69118495D01*
X89355424Y-69072403D01*
X89355423Y-69072402D01*
X89355419Y-69072402D01*
X89306704Y-69069500D01*
X87733296Y-69069500D01*
X87684581Y-69072402D01*
X87684576Y-69072402D01*
X87684575Y-69072403D01*
X87472690Y-69118495D01*
X87472674Y-69118500D01*
X87273346Y-69203857D01*
X87273330Y-69203866D01*
X87093747Y-69325412D01*
X86940412Y-69478747D01*
X86818866Y-69658330D01*
X86818857Y-69658346D01*
X86733500Y-69857674D01*
X86733495Y-69857690D01*
X86687403Y-70069575D01*
X86687402Y-70069581D01*
X86684500Y-70118296D01*
X86684500Y-71561704D01*
X86687402Y-71610419D01*
X86687402Y-71610423D01*
X86687403Y-71610424D01*
X86733495Y-71822309D01*
X86733500Y-71822325D01*
X86818857Y-72021653D01*
X86818860Y-72021658D01*
X86818862Y-72021663D01*
X86818865Y-72021668D01*
X86818866Y-72021669D01*
X86940412Y-72201252D01*
X87093747Y-72354587D01*
X87093750Y-72354589D01*
X87273337Y-72476138D01*
X87273344Y-72476141D01*
X87273346Y-72476142D01*
X87472674Y-72561499D01*
X87472681Y-72561501D01*
X87472683Y-72561502D01*
X87472684Y-72561502D01*
X87472690Y-72561504D01*
X87558968Y-72580272D01*
X87684581Y-72607598D01*
X87733296Y-72610500D01*
X88319100Y-72610500D01*
X88386139Y-72630185D01*
X88431894Y-72682989D01*
X88443100Y-72734500D01*
X88443100Y-73429321D01*
X88447117Y-73449514D01*
X88449500Y-73473708D01*
X88449500Y-73671616D01*
X88450508Y-73682712D01*
X88455913Y-73742192D01*
X88455913Y-73742194D01*
X88455914Y-73742196D01*
X88506522Y-73904606D01*
X88579134Y-74024721D01*
X88594530Y-74050188D01*
X88714810Y-74170468D01*
X88720715Y-74175094D01*
X88719098Y-74177157D01*
X88757883Y-74219503D01*
X88769726Y-74288362D01*
X88742462Y-74352692D01*
X88684745Y-74392070D01*
X88646549Y-74398100D01*
X86666299Y-74398100D01*
X86599260Y-74378415D01*
X86553505Y-74325611D01*
X86542941Y-74261497D01*
X86543201Y-74258956D01*
X86550500Y-74187509D01*
X86550499Y-73462492D01*
X86550225Y-73459814D01*
X86539999Y-73359703D01*
X86539998Y-73359700D01*
X86537946Y-73353507D01*
X86484814Y-73193166D01*
X86392712Y-73043844D01*
X86268656Y-72919788D01*
X86140380Y-72840667D01*
X86119336Y-72827687D01*
X86119331Y-72827685D01*
X86117862Y-72827198D01*
X85952797Y-72772501D01*
X85952795Y-72772500D01*
X85850016Y-72762000D01*
X85850009Y-72762000D01*
X84970350Y-72762000D01*
X84903311Y-72742315D01*
X84857556Y-72689511D01*
X84847612Y-72620353D01*
X84867248Y-72569109D01*
X84903680Y-72514584D01*
X84903680Y-72514583D01*
X84903684Y-72514578D01*
X84972048Y-72349533D01*
X84979819Y-72310467D01*
X84998493Y-72216587D01*
X85006900Y-72174324D01*
X85006900Y-70524499D01*
X85026585Y-70457460D01*
X85079389Y-70411705D01*
X85130900Y-70400499D01*
X85150002Y-70400499D01*
X85150008Y-70400499D01*
X85252797Y-70389999D01*
X85419334Y-70334814D01*
X85568656Y-70242712D01*
X85692712Y-70118656D01*
X85784814Y-69969334D01*
X85839999Y-69802797D01*
X85850500Y-69700009D01*
X85850499Y-66799992D01*
X85844033Y-66736698D01*
X85839999Y-66697203D01*
X85839998Y-66697200D01*
X85800768Y-66578812D01*
X85784814Y-66530666D01*
X85692712Y-66381344D01*
X85568656Y-66257288D01*
X85419334Y-66165186D01*
X85252797Y-66110001D01*
X85252795Y-66110000D01*
X85150010Y-66099500D01*
X83049998Y-66099500D01*
X83049981Y-66099501D01*
X82947203Y-66110000D01*
X82947200Y-66110001D01*
X82780668Y-66165185D01*
X82780663Y-66165187D01*
X82631342Y-66257289D01*
X82507289Y-66381342D01*
X82415187Y-66530663D01*
X82415186Y-66530666D01*
X82360001Y-66697203D01*
X82360001Y-66697204D01*
X82360000Y-66697204D01*
X82349500Y-66799983D01*
X82349500Y-69700001D01*
X82349501Y-69700018D01*
X82360000Y-69802796D01*
X82360001Y-69802799D01*
X82415185Y-69969331D01*
X82415187Y-69969336D01*
X82450069Y-70025888D01*
X82507288Y-70118656D01*
X82631344Y-70242712D01*
X82780666Y-70334814D01*
X82947203Y-70389999D01*
X83049991Y-70400500D01*
X83069096Y-70400499D01*
X83136135Y-70420181D01*
X83181892Y-70472982D01*
X83193100Y-70524499D01*
X83193100Y-71657988D01*
X83173415Y-71725027D01*
X83156781Y-71745669D01*
X81704269Y-73198181D01*
X81642946Y-73231666D01*
X81616588Y-73234500D01*
X81259298Y-73234500D01*
X81222432Y-73237401D01*
X81222426Y-73237402D01*
X81064606Y-73283254D01*
X81064603Y-73283255D01*
X80923137Y-73366917D01*
X80923129Y-73366923D01*
X80806923Y-73483129D01*
X80806917Y-73483137D01*
X80723255Y-73624603D01*
X80723254Y-73624606D01*
X80677402Y-73782426D01*
X80677401Y-73782432D01*
X80674500Y-73819298D01*
X78675499Y-73819298D01*
X78672598Y-73782431D01*
X78671171Y-73777521D01*
X78626745Y-73624606D01*
X78626744Y-73624603D01*
X78626744Y-73624602D01*
X78543081Y-73483135D01*
X78543079Y-73483133D01*
X78543076Y-73483129D01*
X78426870Y-73366923D01*
X78426862Y-73366917D01*
X78304458Y-73294528D01*
X78285398Y-73283256D01*
X78285397Y-73283255D01*
X78285396Y-73283255D01*
X78285393Y-73283254D01*
X78127573Y-73237402D01*
X78127567Y-73237401D01*
X78090701Y-73234500D01*
X78090694Y-73234500D01*
X76309306Y-73234500D01*
X76309298Y-73234500D01*
X76272432Y-73237401D01*
X76272426Y-73237402D01*
X76114606Y-73283254D01*
X76114603Y-73283255D01*
X75973137Y-73366917D01*
X75973129Y-73366923D01*
X75968872Y-73371181D01*
X75907549Y-73404666D01*
X75881191Y-73407500D01*
X75503929Y-73407500D01*
X75436890Y-73387815D01*
X75391135Y-73335011D01*
X75385546Y-73320398D01*
X75343478Y-73185394D01*
X75264438Y-73054647D01*
X75246603Y-72987095D01*
X75265017Y-72925402D01*
X75337003Y-72808697D01*
X75390349Y-72647708D01*
X75400500Y-72548345D01*
X75400499Y-71951656D01*
X75397329Y-71920628D01*
X75390349Y-71852292D01*
X75390348Y-71852289D01*
X75389590Y-71850001D01*
X75337003Y-71691303D01*
X75336999Y-71691297D01*
X75336998Y-71691294D01*
X75248859Y-71548399D01*
X75230418Y-71481007D01*
X75251340Y-71414343D01*
X75304982Y-71369573D01*
X75306830Y-71368789D01*
X75427704Y-71318722D01*
X75592881Y-71208354D01*
X75733354Y-71067881D01*
X75843722Y-70902704D01*
X75919744Y-70719169D01*
X75933320Y-70650921D01*
X75951442Y-70559812D01*
X75958500Y-70524329D01*
X75958500Y-70499188D01*
X75978185Y-70432149D01*
X76030989Y-70386394D01*
X76100147Y-70376450D01*
X76121494Y-70381480D01*
X76147203Y-70389999D01*
X76249991Y-70400500D01*
X78350008Y-70400499D01*
X78452797Y-70389999D01*
X78619334Y-70334814D01*
X78768656Y-70242712D01*
X78892712Y-70118656D01*
X78984814Y-69969334D01*
X79039999Y-69802797D01*
X79050500Y-69700009D01*
X79050499Y-66799992D01*
X79044033Y-66736698D01*
X79039999Y-66697203D01*
X79039998Y-66697200D01*
X79000768Y-66578812D01*
X78984814Y-66530666D01*
X78892712Y-66381344D01*
X78768656Y-66257288D01*
X78619334Y-66165186D01*
X78452797Y-66110001D01*
X78452795Y-66110000D01*
X78350016Y-66099500D01*
X78350009Y-66099500D01*
X76627096Y-66099500D01*
X76560057Y-66079815D01*
X76539419Y-66063185D01*
X76476234Y-66000000D01*
X144894592Y-66000000D01*
X144914201Y-66286680D01*
X144972666Y-66568034D01*
X144972667Y-66568037D01*
X145068894Y-66838793D01*
X145068893Y-66838793D01*
X145201098Y-67093935D01*
X145366812Y-67328700D01*
X145451923Y-67419831D01*
X145562947Y-67538708D01*
X145754234Y-67694331D01*
X145785853Y-67720055D01*
X146031382Y-67869365D01*
X146218237Y-67950526D01*
X146294942Y-67983844D01*
X146571642Y-68061371D01*
X146821920Y-68095771D01*
X146856321Y-68100500D01*
X146856322Y-68100500D01*
X147143679Y-68100500D01*
X147174370Y-68096281D01*
X147428358Y-68061371D01*
X147705058Y-67983844D01*
X147869726Y-67912319D01*
X147968617Y-67869365D01*
X147968620Y-67869363D01*
X147968625Y-67869361D01*
X148214147Y-67720055D01*
X148437053Y-67538708D01*
X148633189Y-67328698D01*
X148798901Y-67093936D01*
X148931104Y-66838797D01*
X149027334Y-66568032D01*
X149085798Y-66286686D01*
X149105408Y-66000000D01*
X149085798Y-65713314D01*
X149027334Y-65431968D01*
X148931105Y-65161206D01*
X148931106Y-65161206D01*
X148798901Y-64906064D01*
X148633187Y-64671299D01*
X148542518Y-64574217D01*
X148437053Y-64461292D01*
X148214147Y-64279945D01*
X148214146Y-64279944D01*
X147968617Y-64130634D01*
X147705063Y-64016158D01*
X147705061Y-64016157D01*
X147705058Y-64016156D01*
X147575578Y-63979877D01*
X147428364Y-63938630D01*
X147428359Y-63938629D01*
X147428358Y-63938629D01*
X147236367Y-63912240D01*
X147143679Y-63899500D01*
X147143678Y-63899500D01*
X146856322Y-63899500D01*
X146856321Y-63899500D01*
X146571642Y-63938629D01*
X146571635Y-63938630D01*
X146363861Y-63996845D01*
X146294942Y-64016156D01*
X146294939Y-64016156D01*
X146294936Y-64016158D01*
X146294935Y-64016158D01*
X146031382Y-64130634D01*
X145785853Y-64279944D01*
X145562950Y-64461289D01*
X145366812Y-64671299D01*
X145201098Y-64906064D01*
X145068894Y-65161206D01*
X144972667Y-65431962D01*
X144972666Y-65431965D01*
X144914201Y-65713319D01*
X144894592Y-66000000D01*
X76476234Y-66000000D01*
X76442881Y-65966647D01*
X76442880Y-65966646D01*
X76442879Y-65966645D01*
X76277710Y-65856282D01*
X76277701Y-65856277D01*
X76094169Y-65780256D01*
X76094161Y-65780254D01*
X75899333Y-65741500D01*
X75899329Y-65741500D01*
X75164443Y-65741500D01*
X75097404Y-65721815D01*
X75058905Y-65682597D01*
X75054681Y-65675749D01*
X75042712Y-65656344D01*
X74918656Y-65532288D01*
X74769334Y-65440186D01*
X74602797Y-65385001D01*
X74602795Y-65385000D01*
X74500010Y-65374500D01*
X73774998Y-65374500D01*
X73774980Y-65374501D01*
X73672203Y-65385000D01*
X73672200Y-65385001D01*
X73505668Y-65440185D01*
X73505663Y-65440187D01*
X73356342Y-65532289D01*
X73232289Y-65656342D01*
X73140187Y-65805663D01*
X73140186Y-65805666D01*
X73085001Y-65972203D01*
X73085001Y-65972204D01*
X73085000Y-65972204D01*
X73074500Y-66074983D01*
X73074500Y-66623904D01*
X73054815Y-66690943D01*
X73002011Y-66736698D01*
X72932853Y-66746642D01*
X72869297Y-66717617D01*
X72862819Y-66711585D01*
X72311818Y-66160584D01*
X72278333Y-66099261D01*
X72276059Y-66078120D01*
X72275659Y-66078141D01*
X72275498Y-66074981D01*
X72264999Y-65972203D01*
X72264998Y-65972200D01*
X72263157Y-65966645D01*
X72209814Y-65805666D01*
X72117712Y-65656344D01*
X71993656Y-65532288D01*
X71844334Y-65440186D01*
X71677797Y-65385001D01*
X71677795Y-65385000D01*
X71575010Y-65374500D01*
X70849998Y-65374500D01*
X70849980Y-65374501D01*
X70747203Y-65385000D01*
X70747200Y-65385001D01*
X70580668Y-65440185D01*
X70580663Y-65440187D01*
X70431342Y-65532289D01*
X70307289Y-65656342D01*
X70215187Y-65805663D01*
X70215186Y-65805666D01*
X70160001Y-65972203D01*
X70160001Y-65972204D01*
X70160000Y-65972204D01*
X70149500Y-66074983D01*
X70149500Y-67425001D01*
X70149501Y-67425018D01*
X70160000Y-67527796D01*
X70160001Y-67527799D01*
X70163617Y-67538710D01*
X70215186Y-67694334D01*
X70266905Y-67778185D01*
X70307289Y-67843657D01*
X70375951Y-67912319D01*
X70409436Y-67973642D01*
X70404452Y-68043334D01*
X70375951Y-68087681D01*
X70307289Y-68156342D01*
X70307287Y-68156345D01*
X70291095Y-68182597D01*
X70239147Y-68229322D01*
X70185557Y-68241500D01*
X68750666Y-68241500D01*
X68555838Y-68280254D01*
X68555830Y-68280256D01*
X68372298Y-68356277D01*
X68372289Y-68356282D01*
X68207119Y-68466646D01*
X68207115Y-68466649D01*
X65785583Y-70888181D01*
X65724260Y-70921666D01*
X65697902Y-70924500D01*
X64324998Y-70924500D01*
X64324981Y-70924501D01*
X64222203Y-70935000D01*
X64222200Y-70935001D01*
X64055668Y-70990185D01*
X64055663Y-70990187D01*
X63906342Y-71082289D01*
X63782289Y-71206342D01*
X63690187Y-71355663D01*
X63690185Y-71355668D01*
X63680542Y-71384770D01*
X63635001Y-71522203D01*
X63635001Y-71522204D01*
X63635000Y-71522204D01*
X63624500Y-71624983D01*
X63624500Y-72825001D01*
X63624501Y-72825018D01*
X63635000Y-72927796D01*
X63635001Y-72927799D01*
X63673455Y-73043844D01*
X63690186Y-73094334D01*
X63782288Y-73243656D01*
X63906344Y-73367712D01*
X64055666Y-73459814D01*
X64222203Y-73514999D01*
X64324991Y-73525500D01*
X64742500Y-73525499D01*
X64809539Y-73545183D01*
X64855294Y-73597987D01*
X64866500Y-73649499D01*
X64866500Y-78275500D01*
X64846815Y-78342539D01*
X64794011Y-78388294D01*
X64742500Y-78399500D01*
X64324998Y-78399500D01*
X64324980Y-78399501D01*
X64222203Y-78410000D01*
X64222200Y-78410001D01*
X64055668Y-78465185D01*
X64055663Y-78465187D01*
X63906342Y-78557289D01*
X63782289Y-78681342D01*
X63690187Y-78830663D01*
X63690185Y-78830668D01*
X63677340Y-78869432D01*
X63635001Y-78997203D01*
X63635001Y-78997204D01*
X63635000Y-78997204D01*
X63624500Y-79099983D01*
X63624500Y-80300001D01*
X63624501Y-80300018D01*
X63635000Y-80402796D01*
X63635001Y-80402799D01*
X63683945Y-80550500D01*
X63690186Y-80569334D01*
X63782288Y-80718656D01*
X63906344Y-80842712D01*
X64055666Y-80934814D01*
X64222203Y-80989999D01*
X64324991Y-81000500D01*
X64656505Y-81000499D01*
X64723543Y-81020183D01*
X64769298Y-81072987D01*
X64779242Y-81142146D01*
X64771065Y-81171951D01*
X64705257Y-81330827D01*
X64705254Y-81330839D01*
X64666500Y-81525666D01*
X64666500Y-81724333D01*
X64705254Y-81919160D01*
X64705256Y-81919168D01*
X64781277Y-82102701D01*
X64781282Y-82102710D01*
X64891646Y-82267880D01*
X64891649Y-82267884D01*
X65032115Y-82408350D01*
X65032119Y-82408353D01*
X65197289Y-82518717D01*
X65197295Y-82518720D01*
X65197296Y-82518721D01*
X65380832Y-82594744D01*
X65514353Y-82621303D01*
X65575666Y-82633499D01*
X65575669Y-82633500D01*
X65575671Y-82633500D01*
X65774331Y-82633500D01*
X65774332Y-82633499D01*
X65969168Y-82594744D01*
X66152704Y-82518721D01*
X66284706Y-82430519D01*
X66351382Y-82409642D01*
X66418762Y-82428126D01*
X66465453Y-82480105D01*
X66476629Y-82549075D01*
X66448744Y-82613138D01*
X66441277Y-82621303D01*
X65351400Y-83711181D01*
X65290077Y-83744666D01*
X65263719Y-83747500D01*
X56038826Y-83747500D01*
X55971787Y-83727815D01*
X55937251Y-83694623D01*
X55803494Y-83503597D01*
X55636402Y-83336506D01*
X55636395Y-83336501D01*
X55442834Y-83200967D01*
X55442830Y-83200965D01*
X55442828Y-83200964D01*
X55228663Y-83101097D01*
X55228659Y-83101096D01*
X55228655Y-83101094D01*
X55000413Y-83039938D01*
X55000403Y-83039936D01*
X54765001Y-83019341D01*
X54764999Y-83019341D01*
X54529596Y-83039936D01*
X54529586Y-83039938D01*
X54301344Y-83101094D01*
X54301335Y-83101098D01*
X54087171Y-83200964D01*
X54087169Y-83200965D01*
X53893600Y-83336503D01*
X53771673Y-83458430D01*
X53710350Y-83491914D01*
X53640658Y-83486930D01*
X53584725Y-83445058D01*
X53567810Y-83414081D01*
X53518797Y-83282671D01*
X53518793Y-83282664D01*
X53432547Y-83167455D01*
X53432544Y-83167452D01*
X53317335Y-83081206D01*
X53317328Y-83081202D01*
X53182482Y-83030908D01*
X53182483Y-83030908D01*
X53122883Y-83024501D01*
X53122881Y-83024500D01*
X53122873Y-83024500D01*
X53122864Y-83024500D01*
X51327129Y-83024500D01*
X51327123Y-83024501D01*
X51267516Y-83030908D01*
X51132671Y-83081202D01*
X51132664Y-83081206D01*
X51017455Y-83167452D01*
X51017452Y-83167455D01*
X50931206Y-83282664D01*
X50931202Y-83282671D01*
X50880908Y-83417517D01*
X50874501Y-83477116D01*
X50874500Y-83477135D01*
X50500500Y-83477135D01*
X50500500Y-66003750D01*
X50500613Y-66000000D01*
X50894592Y-66000000D01*
X50914201Y-66286680D01*
X50972666Y-66568034D01*
X50972667Y-66568037D01*
X51068894Y-66838793D01*
X51068893Y-66838793D01*
X51201098Y-67093935D01*
X51366812Y-67328700D01*
X51451923Y-67419831D01*
X51562947Y-67538708D01*
X51754234Y-67694331D01*
X51785853Y-67720055D01*
X52031382Y-67869365D01*
X52218237Y-67950526D01*
X52294942Y-67983844D01*
X52571642Y-68061371D01*
X52821920Y-68095771D01*
X52856321Y-68100500D01*
X52856322Y-68100500D01*
X53143679Y-68100500D01*
X53174370Y-68096281D01*
X53428358Y-68061371D01*
X53705058Y-67983844D01*
X53869726Y-67912319D01*
X53968617Y-67869365D01*
X53968620Y-67869363D01*
X53968625Y-67869361D01*
X54214147Y-67720055D01*
X54437053Y-67538708D01*
X54633189Y-67328698D01*
X54798901Y-67093936D01*
X54931104Y-66838797D01*
X55027334Y-66568032D01*
X55085798Y-66286686D01*
X55105408Y-66000000D01*
X55085798Y-65713314D01*
X55027334Y-65431968D01*
X54931105Y-65161206D01*
X54931106Y-65161206D01*
X54798901Y-64906064D01*
X54633187Y-64671299D01*
X54542518Y-64574217D01*
X54437053Y-64461292D01*
X54214147Y-64279945D01*
X54214146Y-64279944D01*
X53968617Y-64130634D01*
X53705063Y-64016158D01*
X53705061Y-64016157D01*
X53705058Y-64016156D01*
X53575578Y-63979877D01*
X53428364Y-63938630D01*
X53428359Y-63938629D01*
X53428358Y-63938629D01*
X53236367Y-63912240D01*
X53143679Y-63899500D01*
X53143678Y-63899500D01*
X52856322Y-63899500D01*
X52856321Y-63899500D01*
X52571642Y-63938629D01*
X52571635Y-63938630D01*
X52363861Y-63996845D01*
X52294942Y-64016156D01*
X52294939Y-64016156D01*
X52294936Y-64016158D01*
X52294935Y-64016158D01*
X52031382Y-64130634D01*
X51785853Y-64279944D01*
X51562950Y-64461289D01*
X51366812Y-64671299D01*
X51201098Y-64906064D01*
X51068894Y-65161206D01*
X50972667Y-65431962D01*
X50972666Y-65431965D01*
X50914201Y-65713319D01*
X50894592Y-66000000D01*
X50500613Y-66000000D01*
X50500726Y-65996263D01*
X50509193Y-65856279D01*
X50518271Y-65706201D01*
X50520076Y-65691340D01*
X50526490Y-65656344D01*
X50571780Y-65409197D01*
X50575364Y-65394663D01*
X50581647Y-65374500D01*
X50660696Y-65120822D01*
X50665998Y-65106841D01*
X50783731Y-64845249D01*
X50790676Y-64832016D01*
X50939080Y-64586526D01*
X50947567Y-64574230D01*
X51124480Y-64348417D01*
X51134395Y-64337226D01*
X51337226Y-64134395D01*
X51348417Y-64124480D01*
X51574230Y-63947567D01*
X51586526Y-63939080D01*
X51832016Y-63790676D01*
X51845249Y-63783731D01*
X52106841Y-63665998D01*
X52120822Y-63660696D01*
X52394668Y-63575362D01*
X52409197Y-63571780D01*
X52691344Y-63520075D01*
X52706201Y-63518271D01*
X52996264Y-63500726D01*
X53003751Y-63500500D01*
X53065892Y-63500500D01*
X146934108Y-63500500D01*
X146996249Y-63500500D01*
X147003736Y-63500726D01*
G37*
%TD.AperFunction*%
%TD*%
%TA.AperFunction,Conductor*%
%TO.N,HV*%
G36*
X103943039Y-108519685D02*
G01*
X103988794Y-108572489D01*
X104000000Y-108624000D01*
X104000000Y-113376000D01*
X103980315Y-113443039D01*
X103927511Y-113488794D01*
X103876000Y-113500000D01*
X101051362Y-113500000D01*
X100984323Y-113480315D01*
X100963681Y-113463681D01*
X100036319Y-112536319D01*
X100002834Y-112474996D01*
X100000000Y-112448638D01*
X100000000Y-109551362D01*
X100019685Y-109484323D01*
X100036319Y-109463681D01*
X100963681Y-108536319D01*
X101025004Y-108502834D01*
X101051362Y-108500000D01*
X103876000Y-108500000D01*
X103943039Y-108519685D01*
G37*
%TD.AperFunction*%
%TD*%
%TA.AperFunction,Conductor*%
%TO.N,+24CH1*%
G36*
X99412383Y-115519685D02*
G01*
X99458138Y-115572489D01*
X99468082Y-115641647D01*
X99463050Y-115662999D01*
X99460953Y-115669329D01*
X99460000Y-115672205D01*
X99449500Y-115774983D01*
X99449500Y-116775001D01*
X99449501Y-116775019D01*
X99460000Y-116877796D01*
X99474422Y-116921316D01*
X99493706Y-116979513D01*
X99500000Y-117018515D01*
X99500000Y-117639056D01*
X99481539Y-117704152D01*
X99465187Y-117730662D01*
X99465186Y-117730666D01*
X99410001Y-117897203D01*
X99410001Y-117897204D01*
X99410000Y-117897204D01*
X99399500Y-117999983D01*
X99399500Y-119350001D01*
X99399501Y-119350018D01*
X99410000Y-119452796D01*
X99410001Y-119452799D01*
X99465185Y-119619331D01*
X99465189Y-119619340D01*
X99472664Y-119631458D01*
X99481537Y-119645844D01*
X99500000Y-119710941D01*
X99500000Y-120000000D01*
X99856484Y-120000000D01*
X99895488Y-120006294D01*
X99997203Y-120039999D01*
X100099991Y-120050500D01*
X100825008Y-120050499D01*
X100825016Y-120050498D01*
X100825019Y-120050498D01*
X100881302Y-120044748D01*
X100927797Y-120039999D01*
X101029512Y-120006294D01*
X101068516Y-120000000D01*
X101376000Y-120000000D01*
X101443039Y-120019685D01*
X101488794Y-120072489D01*
X101500000Y-120124000D01*
X101500000Y-123884500D01*
X101480315Y-123951539D01*
X101427511Y-123997294D01*
X101376000Y-124008500D01*
X101255649Y-124008500D01*
X101200995Y-124017156D01*
X101019888Y-124045841D01*
X101019887Y-124045841D01*
X100792863Y-124119606D01*
X100580180Y-124227973D01*
X100541221Y-124256279D01*
X100387067Y-124368279D01*
X100387065Y-124368281D01*
X100387064Y-124368281D01*
X100291665Y-124463681D01*
X100230342Y-124497166D01*
X100203984Y-124500000D01*
X99843070Y-124500000D01*
X99804067Y-124493706D01*
X99777801Y-124485002D01*
X99777798Y-124485001D01*
X99777797Y-124485001D01*
X99777793Y-124485000D01*
X99777790Y-124485000D01*
X99675010Y-124474500D01*
X95474998Y-124474500D01*
X95474981Y-124474501D01*
X95372203Y-124485000D01*
X95351982Y-124491701D01*
X95345932Y-124493706D01*
X95306929Y-124500000D01*
X93624000Y-124500000D01*
X93556961Y-124480315D01*
X93511206Y-124427511D01*
X93500000Y-124376000D01*
X93500000Y-119505226D01*
X93519685Y-119438187D01*
X93536315Y-119417549D01*
X96726995Y-116226868D01*
X96727013Y-116226853D01*
X96896484Y-116057382D01*
X96896489Y-116057377D01*
X97037776Y-115873248D01*
X97094504Y-115774991D01*
X97153821Y-115672252D01*
X97153825Y-115672243D01*
X97193463Y-115576548D01*
X97237303Y-115522144D01*
X97303598Y-115500079D01*
X97308024Y-115500000D01*
X99345344Y-115500000D01*
X99412383Y-115519685D01*
G37*
%TD.AperFunction*%
%TD*%
%TA.AperFunction,Conductor*%
%TO.N,HV2*%
G36*
X92515677Y-123519685D02*
G01*
X92536319Y-123536319D01*
X92963681Y-123963681D01*
X92997166Y-124025004D01*
X93000000Y-124051362D01*
X93000000Y-125000000D01*
X94500000Y-126500000D01*
X95157130Y-126500000D01*
X95198287Y-126509122D01*
X95198811Y-126507542D01*
X95205664Y-126509812D01*
X95205666Y-126509814D01*
X95372203Y-126564999D01*
X95474991Y-126575500D01*
X99524137Y-126575499D01*
X99591176Y-126595184D01*
X99611818Y-126611818D01*
X99963681Y-126963681D01*
X99997166Y-127025004D01*
X100000000Y-127051362D01*
X100000000Y-127448637D01*
X99980315Y-127515676D01*
X99963681Y-127536318D01*
X99661818Y-127838181D01*
X99600495Y-127871666D01*
X99574137Y-127874500D01*
X95474998Y-127874500D01*
X95474981Y-127874501D01*
X95372203Y-127885000D01*
X95372200Y-127885001D01*
X95296139Y-127910206D01*
X95257135Y-127916500D01*
X94314443Y-127916500D01*
X94247404Y-127896815D01*
X94208905Y-127857597D01*
X94196929Y-127838181D01*
X94192712Y-127831344D01*
X94068656Y-127707288D01*
X93919334Y-127615186D01*
X93752797Y-127560001D01*
X93752795Y-127560000D01*
X93650010Y-127549500D01*
X93024998Y-127549500D01*
X93024980Y-127549501D01*
X92922203Y-127560000D01*
X92922200Y-127560001D01*
X92755668Y-127615185D01*
X92755663Y-127615187D01*
X92606342Y-127707289D01*
X92482289Y-127831342D01*
X92390184Y-127980668D01*
X92349818Y-128102482D01*
X92311986Y-128158325D01*
X92025000Y-128399999D01*
X92001129Y-129450294D01*
X91979926Y-129516868D01*
X91964842Y-129535157D01*
X91536319Y-129963681D01*
X91474996Y-129997166D01*
X91448638Y-130000000D01*
X91051362Y-130000000D01*
X90984323Y-129980315D01*
X90963681Y-129963681D01*
X90536319Y-129536319D01*
X90502834Y-129474996D01*
X90500000Y-129448638D01*
X90500000Y-127000000D01*
X90036319Y-126536319D01*
X90002834Y-126474996D01*
X90000000Y-126448638D01*
X90000000Y-124051362D01*
X90019685Y-123984323D01*
X90036319Y-123963681D01*
X90463681Y-123536319D01*
X90525004Y-123502834D01*
X90551362Y-123500000D01*
X92448638Y-123500000D01*
X92515677Y-123519685D01*
G37*
%TD.AperFunction*%
%TD*%
%TA.AperFunction,Conductor*%
%TO.N,VP1CHX*%
G36*
X100210055Y-73611165D02*
G01*
X100265262Y-73624894D01*
X100290420Y-73634136D01*
X100338368Y-73657916D01*
X100360945Y-73672347D01*
X100402663Y-73705882D01*
X100421616Y-73724836D01*
X100455146Y-73766549D01*
X100469587Y-73789140D01*
X100484529Y-73819267D01*
X100484528Y-73819267D01*
X100488710Y-73827699D01*
X100493357Y-73837069D01*
X100502603Y-73862235D01*
X100522154Y-73940848D01*
X100522156Y-73940855D01*
X100524747Y-73951276D01*
X100526869Y-73961702D01*
X100534316Y-74008486D01*
X100545234Y-74051594D01*
X100545241Y-74051619D01*
X100575449Y-74137502D01*
X100653234Y-74258537D01*
X100653242Y-74258548D01*
X100698986Y-74311340D01*
X100698989Y-74311343D01*
X100698993Y-74311347D01*
X100807727Y-74405567D01*
X100807730Y-74405568D01*
X100807731Y-74405569D01*
X100884944Y-74440832D01*
X100938604Y-74465338D01*
X101005643Y-74485023D01*
X101005647Y-74485024D01*
X101148063Y-74505500D01*
X101148066Y-74505500D01*
X105954138Y-74505500D01*
X106021177Y-74525185D01*
X106041819Y-74541819D01*
X106963681Y-75463681D01*
X106997166Y-75525004D01*
X107000000Y-75551362D01*
X107000000Y-81448638D01*
X106980315Y-81515677D01*
X106963681Y-81536319D01*
X106536319Y-81963681D01*
X106474996Y-81997166D01*
X106448638Y-82000000D01*
X102051362Y-82000000D01*
X101984323Y-81980315D01*
X101963681Y-81963681D01*
X101912322Y-81912322D01*
X101885442Y-81872093D01*
X101853684Y-81795422D01*
X101754435Y-81646885D01*
X101754432Y-81646881D01*
X101543118Y-81435567D01*
X101543114Y-81435564D01*
X101394584Y-81336319D01*
X101394574Y-81336314D01*
X101317904Y-81304556D01*
X101277676Y-81277676D01*
X101036319Y-81036319D01*
X101002834Y-80974996D01*
X101000000Y-80948638D01*
X101000000Y-78139953D01*
X101003665Y-78110026D01*
X101022599Y-78033892D01*
X101022600Y-78033889D01*
X101025500Y-77991123D01*
X101025499Y-77088878D01*
X101022600Y-77046111D01*
X101003665Y-76969971D01*
X101000000Y-76940045D01*
X101000000Y-76500000D01*
X100999998Y-76499998D01*
X100000001Y-76000000D01*
X100000000Y-76000000D01*
X98551362Y-76000000D01*
X98484323Y-75980315D01*
X98463681Y-75963681D01*
X98036319Y-75536319D01*
X98002834Y-75474996D01*
X98000000Y-75448638D01*
X98000000Y-74051361D01*
X98019685Y-73984322D01*
X98036309Y-73963690D01*
X98188158Y-73811841D01*
X98249476Y-73778360D01*
X98280416Y-73775611D01*
X98395753Y-73779876D01*
X98395753Y-73779875D01*
X98395757Y-73779876D01*
X98535213Y-73744470D01*
X98599362Y-73717993D01*
X98599763Y-73717831D01*
X98599792Y-73717816D01*
X98599798Y-73717814D01*
X98599808Y-73717810D01*
X98642205Y-73692725D01*
X98650229Y-73688370D01*
X98650300Y-73688334D01*
X98650301Y-73688335D01*
X98759575Y-73634138D01*
X98784739Y-73624894D01*
X98797658Y-73621681D01*
X98839950Y-73611165D01*
X98869874Y-73607500D01*
X100180129Y-73607500D01*
X100210055Y-73611165D01*
G37*
%TD.AperFunction*%
%TD*%
%TA.AperFunction,Conductor*%
%TO.N,HV*%
G36*
X107490403Y-69019685D02*
G01*
X107534272Y-69068545D01*
X107961409Y-69922817D01*
X107986909Y-69973818D01*
X108000000Y-70029272D01*
X108000000Y-72948638D01*
X107980315Y-73015677D01*
X107963681Y-73036319D01*
X107036319Y-73963681D01*
X106974996Y-73997166D01*
X106948638Y-74000000D01*
X101148063Y-74000000D01*
X101081024Y-73980315D01*
X101035269Y-73927511D01*
X101024347Y-73884384D01*
X101022600Y-73858614D01*
X101022600Y-73858612D01*
X101012712Y-73818851D01*
X100976641Y-73673807D01*
X100937393Y-73594670D01*
X100892032Y-73503207D01*
X100892030Y-73503204D01*
X100772722Y-73354778D01*
X100772721Y-73354777D01*
X100624295Y-73235469D01*
X100624292Y-73235467D01*
X100453697Y-73150860D01*
X100268892Y-73104900D01*
X100247506Y-73103450D01*
X100226123Y-73102000D01*
X100226120Y-73102000D01*
X98823877Y-73102000D01*
X98823874Y-73102001D01*
X98781113Y-73104899D01*
X98781112Y-73104899D01*
X98596305Y-73150859D01*
X98425700Y-73235472D01*
X98406944Y-73250548D01*
X98342359Y-73277204D01*
X98273615Y-73264712D01*
X98241579Y-73241579D01*
X98036319Y-73036319D01*
X98002834Y-72974996D01*
X98000000Y-72948638D01*
X98000000Y-71551362D01*
X98019685Y-71484323D01*
X98036319Y-71463681D01*
X98463681Y-71036319D01*
X98525004Y-71002834D01*
X98551362Y-71000000D01*
X98775441Y-71000000D01*
X98783817Y-71000283D01*
X98823877Y-71003000D01*
X100226122Y-71002999D01*
X100248863Y-71001457D01*
X100266182Y-71000284D01*
X100274567Y-71000000D01*
X100499999Y-71000000D01*
X100500000Y-71000000D01*
X100527176Y-70945647D01*
X100574760Y-70894492D01*
X100582961Y-70890029D01*
X100624296Y-70869530D01*
X100772722Y-70750222D01*
X100892030Y-70601796D01*
X100976641Y-70431193D01*
X101022600Y-70246389D01*
X101025500Y-70203623D01*
X101025499Y-69978269D01*
X101038588Y-69922822D01*
X101465728Y-69068543D01*
X101513314Y-69017387D01*
X101576636Y-69000000D01*
X107423364Y-69000000D01*
X107490403Y-69019685D01*
G37*
%TD.AperFunction*%
%TD*%
%TA.AperFunction,Conductor*%
%TO.N,VP3CHX*%
G36*
X100515677Y-96019685D02*
G01*
X100536319Y-96036319D01*
X101000000Y-96500000D01*
X103000000Y-98500000D01*
X104948638Y-98500000D01*
X105015677Y-98519685D01*
X105036319Y-98536319D01*
X106463681Y-99963681D01*
X106497166Y-100025004D01*
X106500000Y-100051362D01*
X106500000Y-103948638D01*
X106480315Y-104015677D01*
X106463681Y-104036319D01*
X105536319Y-104963681D01*
X105474996Y-104997166D01*
X105448638Y-105000000D01*
X101551362Y-105000000D01*
X101484323Y-104980315D01*
X101463681Y-104963681D01*
X101061818Y-104561818D01*
X101028333Y-104500495D01*
X101025499Y-104474143D01*
X101025499Y-103888878D01*
X101022600Y-103846111D01*
X101003665Y-103769971D01*
X101000000Y-103740045D01*
X101000000Y-100339953D01*
X101003665Y-100310026D01*
X101022599Y-100233892D01*
X101022600Y-100233889D01*
X101025500Y-100191123D01*
X101025499Y-99288878D01*
X101022600Y-99246111D01*
X101003665Y-99169971D01*
X101000000Y-99140045D01*
X101000000Y-99000000D01*
X100902219Y-98902219D01*
X100893253Y-98892225D01*
X100772722Y-98742278D01*
X100772721Y-98742277D01*
X100622773Y-98621745D01*
X100612779Y-98612779D01*
X100500000Y-98500000D01*
X100314638Y-98500000D01*
X100284711Y-98496334D01*
X100268897Y-98492401D01*
X100268891Y-98492400D01*
X100268889Y-98492400D01*
X100226123Y-98489500D01*
X100226121Y-98489500D01*
X99040862Y-98489500D01*
X98973823Y-98469815D01*
X98953181Y-98453181D01*
X98536319Y-98036319D01*
X98502834Y-97974996D01*
X98500000Y-97948638D01*
X98500000Y-96124000D01*
X98519685Y-96056961D01*
X98572489Y-96011206D01*
X98624000Y-96000000D01*
X100448638Y-96000000D01*
X100515677Y-96019685D01*
G37*
%TD.AperFunction*%
%TD*%
%TA.AperFunction,Conductor*%
%TO.N,HV*%
G36*
X106515677Y-91519685D02*
G01*
X106536319Y-91536319D01*
X107963681Y-92963681D01*
X107997166Y-93025004D01*
X108000000Y-93051362D01*
X108000000Y-95462456D01*
X107980315Y-95529495D01*
X107979174Y-95531239D01*
X107036811Y-96944783D01*
X106983246Y-96989644D01*
X106933637Y-97000000D01*
X102551362Y-97000000D01*
X102484323Y-96980315D01*
X102463681Y-96963681D01*
X101000000Y-95500000D01*
X100607041Y-95500000D01*
X100551946Y-95487088D01*
X100453695Y-95438360D01*
X100453693Y-95438359D01*
X100379308Y-95419860D01*
X100268892Y-95392400D01*
X100247506Y-95390950D01*
X100226123Y-95389500D01*
X100226120Y-95389500D01*
X98823877Y-95389500D01*
X98823874Y-95389501D01*
X98781113Y-95392399D01*
X98781112Y-95392399D01*
X98596302Y-95438360D01*
X98570513Y-95451150D01*
X98501708Y-95463299D01*
X98437257Y-95436321D01*
X98427741Y-95427741D01*
X98036319Y-95036319D01*
X98002834Y-94974996D01*
X98000000Y-94948638D01*
X98000000Y-94051362D01*
X98019685Y-93984323D01*
X98036319Y-93963681D01*
X98463681Y-93536319D01*
X98525004Y-93502834D01*
X98551362Y-93500000D01*
X100500000Y-93500000D01*
X102463681Y-91536319D01*
X102525004Y-91502834D01*
X102551362Y-91500000D01*
X106448638Y-91500000D01*
X106515677Y-91519685D01*
G37*
%TD.AperFunction*%
%TD*%
M02*
