%TF.GenerationSoftware,KiCad,Pcbnew,8.0.3-8.0.3-0~ubuntu20.04.1*%
%TF.CreationDate,2025-01-28T06:06:14-03:00*%
%TF.ProjectId,hv_pulse_generator,68765f70-756c-4736-955f-67656e657261,rev?*%
%TF.SameCoordinates,Original*%
%TF.FileFunction,Copper,L2,Bot*%
%TF.FilePolarity,Positive*%
%FSLAX46Y46*%
G04 Gerber Fmt 4.6, Leading zero omitted, Abs format (unit mm)*
G04 Created by KiCad (PCBNEW 8.0.3-8.0.3-0~ubuntu20.04.1) date 2025-01-28 06:06:14*
%MOMM*%
%LPD*%
G01*
G04 APERTURE LIST*
G04 Aperture macros list*
%AMRoundRect*
0 Rectangle with rounded corners*
0 $1 Rounding radius*
0 $2 $3 $4 $5 $6 $7 $8 $9 X,Y pos of 4 corners*
0 Add a 4 corners polygon primitive as box body*
4,1,4,$2,$3,$4,$5,$6,$7,$8,$9,$2,$3,0*
0 Add four circle primitives for the rounded corners*
1,1,$1+$1,$2,$3*
1,1,$1+$1,$4,$5*
1,1,$1+$1,$6,$7*
1,1,$1+$1,$8,$9*
0 Add four rect primitives between the rounded corners*
20,1,$1+$1,$2,$3,$4,$5,0*
20,1,$1+$1,$4,$5,$6,$7,0*
20,1,$1+$1,$6,$7,$8,$9,0*
20,1,$1+$1,$8,$9,$2,$3,0*%
G04 Aperture macros list end*
%TA.AperFunction,ComponentPad*%
%ADD10RoundRect,0.250000X1.800000X-1.330000X1.800000X1.330000X-1.800000X1.330000X-1.800000X-1.330000X0*%
%TD*%
%TA.AperFunction,ComponentPad*%
%ADD11O,4.100000X3.160000*%
%TD*%
%TA.AperFunction,ComponentPad*%
%ADD12R,1.700000X1.700000*%
%TD*%
%TA.AperFunction,ComponentPad*%
%ADD13O,1.700000X1.700000*%
%TD*%
%TA.AperFunction,ComponentPad*%
%ADD14RoundRect,0.250000X-0.750000X0.600000X-0.750000X-0.600000X0.750000X-0.600000X0.750000X0.600000X0*%
%TD*%
%TA.AperFunction,ComponentPad*%
%ADD15O,2.000000X1.700000*%
%TD*%
%TA.AperFunction,ComponentPad*%
%ADD16C,2.500000*%
%TD*%
%TA.AperFunction,ComponentPad*%
%ADD17C,2.400000*%
%TD*%
%TA.AperFunction,ComponentPad*%
%ADD18O,2.400000X2.400000*%
%TD*%
%TA.AperFunction,ComponentPad*%
%ADD19C,1.600000*%
%TD*%
%TA.AperFunction,SMDPad,CuDef*%
%ADD20R,1.500000X1.000000*%
%TD*%
%TA.AperFunction,ViaPad*%
%ADD21C,0.600000*%
%TD*%
%TA.AperFunction,Conductor*%
%ADD22C,2.540000*%
%TD*%
%TA.AperFunction,Conductor*%
%ADD23C,1.016000*%
%TD*%
%TA.AperFunction,Conductor*%
%ADD24C,0.812800*%
%TD*%
%TA.AperFunction,Conductor*%
%ADD25C,0.254000*%
%TD*%
%TA.AperFunction,Conductor*%
%ADD26C,0.609600*%
%TD*%
G04 APERTURE END LIST*
D10*
%TO.P,J7,1,1*%
%TO.N,+24CH1*%
X55650000Y-113000000D03*
D11*
%TO.P,J7,2,2*%
%TO.N,GND1*%
X55650000Y-109040000D03*
%TD*%
D12*
%TO.P,J8,1,Pin_1*%
%TO.N,UxPWMxA'*%
X52225000Y-84375000D03*
D13*
%TO.P,J8,2,Pin_2*%
%TO.N,UxPWMxB'*%
X54765000Y-84375000D03*
%TO.P,J8,3,Pin_3*%
%TO.N,GND1*%
X52225000Y-86915000D03*
%TO.P,J8,4,Pin_4*%
X54765000Y-86915000D03*
%TO.P,J8,5,Pin_5*%
%TO.N,3.3V*%
X52225000Y-89455000D03*
%TO.P,J8,6,Pin_6*%
%TO.N,GND*%
X54765000Y-89455000D03*
%TO.P,J8,7,Pin_7*%
%TO.N,SCL*%
X52225000Y-91995000D03*
%TO.P,J8,8,Pin_8*%
%TO.N,SDA*%
X54765000Y-91995000D03*
%TD*%
D14*
%TO.P,J3,1,1*%
%TO.N,VSCH1*%
X146500000Y-97325000D03*
D15*
%TO.P,J3,2,2*%
%TO.N,PWRGND2*%
X146500000Y-99825000D03*
%TD*%
D16*
%TO.P,T1,1,AA*%
%TO.N,Net-(T1-AA)*%
X135570000Y-82375000D03*
%TO.P,T1,2,AB*%
%TO.N,VP3CHX*%
X127950000Y-82375000D03*
%TO.P,T1,3,SA*%
%TO.N,PWRGND2*%
X116520000Y-109045000D03*
%TO.P,T1,4,SB*%
%TO.N,HVCH1*%
X116520000Y-82375000D03*
%TO.P,T1,5*%
%TO.N,N/C*%
X135570000Y-109045000D03*
%TD*%
D17*
%TO.P,R11,1*%
%TO.N,VSCH1*%
X141915000Y-117600000D03*
D18*
%TO.P,R11,2*%
%TO.N,HVCH1*%
X113975000Y-117600000D03*
%TD*%
D14*
%TO.P,J1,1,1*%
%TO.N,HVCH1*%
X146500000Y-88350000D03*
D15*
%TO.P,J1,2,2*%
%TO.N,PWRGND2*%
X146500000Y-90850000D03*
%TD*%
D19*
%TO.P,C10,1*%
%TO.N,Net-(T1-AA)*%
X126025000Y-73900000D03*
%TO.P,C10,2*%
%TO.N,VP3CHX*%
X126025000Y-76400000D03*
%TD*%
%TO.P,C11,1*%
%TO.N,VP1CHX*%
X109000000Y-80000000D03*
%TO.P,C11,2*%
%TO.N,Net-(T1-AA)*%
X111500000Y-80000000D03*
%TD*%
D20*
%TO.P,JP2,1,A*%
%TO.N,GND*%
X83525000Y-111375000D03*
%TO.P,JP2,2,C*%
%TO.N,Net-(JP2-C)*%
X83525000Y-112675000D03*
%TO.P,JP2,3,B*%
%TO.N,Net-(JP2-B)*%
X83525000Y-113975000D03*
%TD*%
%TO.P,JP1,1,A*%
%TO.N,GND*%
X77925000Y-113300000D03*
%TO.P,JP1,2,C*%
%TO.N,Net-(JP1-C)*%
X77925000Y-112000000D03*
%TO.P,JP1,3,B*%
%TO.N,Net-(JP1-B)*%
X77925000Y-110700000D03*
%TD*%
D21*
%TO.N,+24CH1*%
X94500000Y-123000000D03*
X67450000Y-120100000D03*
X95225000Y-120100000D03*
X94500000Y-122000000D03*
X94500000Y-121000000D03*
%TO.N,+12V*%
X65675000Y-81625000D03*
X63775000Y-114900000D03*
X68900000Y-88900000D03*
%TO.N,Net-(U1-VDD)*%
X78835000Y-98340000D03*
X75125000Y-92575000D03*
%TO.N,Net-(U2-VDD)*%
X78775000Y-76625000D03*
X74950000Y-70425000D03*
%TO.N,HV*%
X103000000Y-109325000D03*
X103000000Y-112500000D03*
X104175000Y-70875000D03*
X103000000Y-92500000D03*
X103000000Y-111300000D03*
X103000000Y-94500000D03*
X103000000Y-110300000D03*
X103000000Y-93500000D03*
X102250000Y-70825000D03*
X103325000Y-70825000D03*
%TO.N,UxPWMxB'*%
X69025000Y-94650000D03*
%TO.N,UxPWMxA'*%
X71000000Y-95900000D03*
%TO.N,Net-(JP1-C)*%
X81475000Y-111125000D03*
%TO.N,Net-(JP1-B)*%
X76900000Y-108750000D03*
%TO.N,Net-(JP2-C)*%
X87275000Y-112500000D03*
%TO.N,Net-(JP2-B)*%
X87275000Y-114125000D03*
%TO.N,GND1*%
X102000000Y-117725000D03*
X69600000Y-118175000D03*
X71925000Y-82825000D03*
X60450000Y-92450000D03*
X72175000Y-93840000D03*
X78775000Y-99590000D03*
X72450000Y-105400000D03*
X77050000Y-118675000D03*
X78700000Y-77975000D03*
X101050000Y-82225000D03*
X57875000Y-121550000D03*
X96925000Y-81250000D03*
X96950000Y-103765000D03*
X72200000Y-72250000D03*
X61375000Y-99950000D03*
X97975000Y-104740000D03*
X96900000Y-78300000D03*
X71825000Y-99090000D03*
X81450000Y-118550000D03*
X112675000Y-128825000D03*
X76650000Y-104675000D03*
X64500000Y-125225000D03*
X86975000Y-125225000D03*
X58100000Y-72250000D03*
X75175000Y-82840000D03*
X58000000Y-79700000D03*
X71175000Y-76750000D03*
X96975000Y-100840000D03*
%TO.N,GND*%
X75275000Y-111450000D03*
X90000000Y-110075000D03*
X81575000Y-114375000D03*
%TD*%
D22*
%TO.N,+24CH1*%
X55650000Y-113000000D02*
X56250000Y-113000000D01*
X90575000Y-128775000D02*
X95225000Y-124125000D01*
X95225000Y-124125000D02*
X95225000Y-120100000D01*
X63350000Y-120100000D02*
X72025000Y-128775000D01*
X72025000Y-128775000D02*
X90575000Y-128775000D01*
X67450000Y-120100000D02*
X63350000Y-120100000D01*
X56250000Y-113000000D02*
X63350000Y-120100000D01*
D23*
%TO.N,+12V*%
X73750000Y-102674472D02*
X63775000Y-112649472D01*
X63775000Y-112649472D02*
X63775000Y-114900000D01*
X68900000Y-88900000D02*
X72950000Y-88900000D01*
X73750000Y-91975000D02*
X73750000Y-102674472D01*
X73750000Y-89700000D02*
X73750000Y-91975000D01*
X72950000Y-88900000D02*
X73175000Y-89125000D01*
X65675000Y-81625000D02*
X73750000Y-89700000D01*
D24*
%TO.N,Net-(U1-VDD)*%
X78835000Y-98340000D02*
X77915000Y-98340000D01*
X75125000Y-95550000D02*
X75125000Y-92575000D01*
X77915000Y-98340000D02*
X75125000Y-95550000D01*
%TO.N,Net-(U2-VDD)*%
X74950000Y-72800000D02*
X78775000Y-76625000D01*
X74950000Y-70425000D02*
X74950000Y-72800000D01*
D22*
%TO.N,HVCH1*%
X112000000Y-99300000D02*
X112000000Y-115625000D01*
X112000000Y-115625000D02*
X113975000Y-117600000D01*
X113000000Y-98300000D02*
X112000000Y-99300000D01*
X112000000Y-88895000D02*
X116520000Y-84375000D01*
X116520000Y-84375000D02*
X116520000Y-82375000D01*
X113975000Y-97325000D02*
X113000000Y-98300000D01*
X122950000Y-88350000D02*
X113975000Y-97325000D01*
X146275000Y-88350000D02*
X122950000Y-88350000D01*
X112000000Y-99300000D02*
X112000000Y-88895000D01*
%TO.N,HV*%
X106000000Y-98000000D02*
X103000000Y-95000000D01*
X103000000Y-109325000D02*
X106000000Y-106325000D01*
X106000000Y-106325000D02*
X106000000Y-101000000D01*
X106000000Y-73500000D02*
X103325000Y-70825000D01*
X103000000Y-95000000D02*
X103000000Y-92500000D01*
X106000000Y-101000000D02*
X106000000Y-73500000D01*
X103000000Y-109325000D02*
X103000000Y-112500000D01*
X103325000Y-70825000D02*
X102250000Y-70825000D01*
X106000000Y-101000000D02*
X106000000Y-98000000D01*
%TO.N,VSCH1*%
X144125000Y-97325000D02*
X141915000Y-99535000D01*
X146375000Y-97325000D02*
X144125000Y-97325000D01*
X141915000Y-99535000D02*
X141915000Y-117600000D01*
D25*
%TO.N,UxPWMxB'*%
X69025000Y-94650000D02*
X67000000Y-92625000D01*
X58067052Y-84375000D02*
X54765000Y-84375000D01*
X66317052Y-92625000D02*
X58067052Y-84375000D01*
X67000000Y-92625000D02*
X66317052Y-92625000D01*
%TO.N,UxPWMxA'*%
X58602000Y-85552000D02*
X53402000Y-85552000D01*
X71000000Y-95900000D02*
X68950000Y-95900000D01*
X68950000Y-95900000D02*
X58602000Y-85552000D01*
X53402000Y-85552000D02*
X52225000Y-84375000D01*
%TO.N,Net-(JP1-C)*%
X81475000Y-111125000D02*
X81475000Y-111175000D01*
X80650000Y-112000000D02*
X77925000Y-112000000D01*
X81475000Y-111175000D02*
X80650000Y-112000000D01*
%TO.N,Net-(JP1-B)*%
X76900000Y-108750000D02*
X76900000Y-109675000D01*
X76900000Y-109675000D02*
X77925000Y-110700000D01*
%TO.N,Net-(JP2-C)*%
X87275000Y-112500000D02*
X87100000Y-112675000D01*
X87100000Y-112675000D02*
X83525000Y-112675000D01*
%TO.N,Net-(JP2-B)*%
X87275000Y-114125000D02*
X87125000Y-113975000D01*
X87125000Y-113975000D02*
X83525000Y-113975000D01*
D26*
%TO.N,GND*%
X77325000Y-115325000D02*
X80625000Y-115325000D01*
X77925000Y-113300000D02*
X75300000Y-113300000D01*
X87725000Y-115325000D02*
X89300000Y-113750000D01*
X75275000Y-113275000D02*
X77325000Y-115325000D01*
X89300000Y-113750000D02*
X90000000Y-113050000D01*
X75300000Y-113300000D02*
X75275000Y-113275000D01*
X83525000Y-111375000D02*
X82565400Y-111375000D01*
X75275000Y-112525000D02*
X75275000Y-113275000D01*
X80625000Y-115325000D02*
X81575000Y-114375000D01*
X75275000Y-111450000D02*
X75275000Y-112525000D01*
X90000000Y-113050000D02*
X90000000Y-110075000D01*
X82565400Y-111375000D02*
X81575000Y-112365400D01*
X80625000Y-115325000D02*
X87725000Y-115325000D01*
X81575000Y-112365400D02*
X81575000Y-114375000D01*
%TD*%
%TA.AperFunction,Conductor*%
%TO.N,GND1*%
G36*
X54299075Y-86722007D02*
G01*
X54265000Y-86849174D01*
X54265000Y-86980826D01*
X54299075Y-87107993D01*
X54331988Y-87165000D01*
X52658012Y-87165000D01*
X52690925Y-87107993D01*
X52725000Y-86980826D01*
X52725000Y-86849174D01*
X52690925Y-86722007D01*
X52658012Y-86665000D01*
X54331988Y-86665000D01*
X54299075Y-86722007D01*
G37*
%TD.AperFunction*%
%TA.AperFunction,Conductor*%
G36*
X147003736Y-63500726D02*
G01*
X147293796Y-63518271D01*
X147308659Y-63520076D01*
X147590798Y-63571780D01*
X147605335Y-63575363D01*
X147879172Y-63660695D01*
X147893163Y-63666000D01*
X148154743Y-63783727D01*
X148167989Y-63790680D01*
X148413465Y-63939075D01*
X148425776Y-63947573D01*
X148513319Y-64016158D01*
X148651573Y-64124473D01*
X148662781Y-64134403D01*
X148865596Y-64337218D01*
X148875526Y-64348426D01*
X148995481Y-64501538D01*
X149052422Y-64574217D01*
X149060926Y-64586537D01*
X149112168Y-64671302D01*
X149209316Y-64832004D01*
X149216275Y-64845263D01*
X149333997Y-65106831D01*
X149339306Y-65120832D01*
X149424635Y-65394663D01*
X149428219Y-65409201D01*
X149479923Y-65691340D01*
X149481728Y-65706205D01*
X149499274Y-65996263D01*
X149499500Y-66003750D01*
X149499500Y-129996249D01*
X149499274Y-130003736D01*
X149481728Y-130293794D01*
X149479923Y-130308659D01*
X149428219Y-130590798D01*
X149424635Y-130605336D01*
X149339306Y-130879167D01*
X149333997Y-130893168D01*
X149216275Y-131154736D01*
X149209316Y-131167995D01*
X149060928Y-131413459D01*
X149052422Y-131425782D01*
X148875526Y-131651573D01*
X148865596Y-131662781D01*
X148662781Y-131865596D01*
X148651573Y-131875526D01*
X148425782Y-132052422D01*
X148413459Y-132060928D01*
X148167995Y-132209316D01*
X148154736Y-132216275D01*
X147893168Y-132333997D01*
X147879167Y-132339306D01*
X147605336Y-132424635D01*
X147590798Y-132428219D01*
X147308659Y-132479923D01*
X147293794Y-132481728D01*
X147003736Y-132499274D01*
X146996249Y-132499500D01*
X53003751Y-132499500D01*
X52996264Y-132499274D01*
X52706205Y-132481728D01*
X52691340Y-132479923D01*
X52409201Y-132428219D01*
X52394663Y-132424635D01*
X52120832Y-132339306D01*
X52106831Y-132333997D01*
X51845263Y-132216275D01*
X51832004Y-132209316D01*
X51586540Y-132060928D01*
X51574217Y-132052422D01*
X51348426Y-131875526D01*
X51337218Y-131865596D01*
X51134403Y-131662781D01*
X51124473Y-131651573D01*
X50947573Y-131425776D01*
X50939075Y-131413465D01*
X50790680Y-131167989D01*
X50783727Y-131154743D01*
X50666000Y-130893163D01*
X50660693Y-130879167D01*
X50648113Y-130838797D01*
X50575363Y-130605335D01*
X50571780Y-130590798D01*
X50520075Y-130308657D01*
X50518271Y-130293794D01*
X50500726Y-130003736D01*
X50500613Y-130000000D01*
X50894592Y-130000000D01*
X50914201Y-130286680D01*
X50914201Y-130286684D01*
X50914202Y-130286686D01*
X50935984Y-130391509D01*
X50972666Y-130568034D01*
X50972667Y-130568037D01*
X51068894Y-130838793D01*
X51068893Y-130838793D01*
X51201098Y-131093935D01*
X51366812Y-131328700D01*
X51445972Y-131413459D01*
X51562947Y-131538708D01*
X51701677Y-131651573D01*
X51785853Y-131720055D01*
X52031382Y-131869365D01*
X52218237Y-131950526D01*
X52294942Y-131983844D01*
X52571642Y-132061371D01*
X52821920Y-132095771D01*
X52856321Y-132100500D01*
X52856322Y-132100500D01*
X53143679Y-132100500D01*
X53174370Y-132096281D01*
X53428358Y-132061371D01*
X53705058Y-131983844D01*
X53818015Y-131934779D01*
X53968617Y-131869365D01*
X53968620Y-131869363D01*
X53968625Y-131869361D01*
X54214147Y-131720055D01*
X54437053Y-131538708D01*
X54633189Y-131328698D01*
X54798901Y-131093936D01*
X54931104Y-130838797D01*
X55027334Y-130568032D01*
X55085798Y-130286686D01*
X55105408Y-130000000D01*
X55085798Y-129713314D01*
X55027334Y-129431968D01*
X54931105Y-129161206D01*
X54931106Y-129161206D01*
X54798901Y-128906064D01*
X54633187Y-128671299D01*
X54554554Y-128587105D01*
X54437053Y-128461292D01*
X54214147Y-128279945D01*
X54214146Y-128279944D01*
X53968617Y-128130634D01*
X53705063Y-128016158D01*
X53705061Y-128016157D01*
X53705058Y-128016156D01*
X53575578Y-127979877D01*
X53428364Y-127938630D01*
X53428359Y-127938629D01*
X53428358Y-127938629D01*
X53286018Y-127919064D01*
X53143679Y-127899500D01*
X53143678Y-127899500D01*
X52856322Y-127899500D01*
X52856321Y-127899500D01*
X52571642Y-127938629D01*
X52571635Y-127938630D01*
X52363861Y-127996845D01*
X52294942Y-128016156D01*
X52294939Y-128016156D01*
X52294936Y-128016158D01*
X52294935Y-128016158D01*
X52031382Y-128130634D01*
X51785853Y-128279944D01*
X51562950Y-128461289D01*
X51366812Y-128671299D01*
X51201098Y-128906064D01*
X51068894Y-129161206D01*
X50972667Y-129431962D01*
X50972666Y-129431965D01*
X50914201Y-129713319D01*
X50894592Y-130000000D01*
X50500613Y-130000000D01*
X50500500Y-129996249D01*
X50500500Y-111619983D01*
X53099500Y-111619983D01*
X53099500Y-114380001D01*
X53099501Y-114380018D01*
X53110000Y-114482796D01*
X53110001Y-114482799D01*
X53115706Y-114500015D01*
X53165186Y-114649334D01*
X53257288Y-114798656D01*
X53381344Y-114922712D01*
X53530666Y-115014814D01*
X53697203Y-115069999D01*
X53799991Y-115080500D01*
X55775272Y-115080499D01*
X55842311Y-115100184D01*
X55862952Y-115116817D01*
X62016010Y-121269876D01*
X62016011Y-121269877D01*
X62180118Y-121433984D01*
X62183234Y-121437100D01*
X62183249Y-121437114D01*
X70688566Y-129942431D01*
X70688603Y-129942470D01*
X70855117Y-130108984D01*
X70855124Y-130108990D01*
X71039250Y-130250275D01*
X71062329Y-130263599D01*
X71102317Y-130286686D01*
X71240248Y-130366321D01*
X71391867Y-130429123D01*
X71454670Y-130455137D01*
X71514740Y-130471232D01*
X71678852Y-130515207D01*
X71908956Y-130545501D01*
X71908963Y-130545501D01*
X72144885Y-130545501D01*
X72144917Y-130545500D01*
X90455083Y-130545500D01*
X90455115Y-130545501D01*
X90458955Y-130545501D01*
X90691038Y-130545501D01*
X90691045Y-130545501D01*
X90921149Y-130515207D01*
X91145330Y-130455137D01*
X91359752Y-130366320D01*
X91461954Y-130307314D01*
X91560748Y-130250276D01*
X91744877Y-130108989D01*
X91853866Y-130000000D01*
X144894592Y-130000000D01*
X144914201Y-130286680D01*
X144914201Y-130286684D01*
X144914202Y-130286686D01*
X144935984Y-130391509D01*
X144972666Y-130568034D01*
X144972667Y-130568037D01*
X145068894Y-130838793D01*
X145068893Y-130838793D01*
X145201098Y-131093935D01*
X145366812Y-131328700D01*
X145445972Y-131413459D01*
X145562947Y-131538708D01*
X145701677Y-131651573D01*
X145785853Y-131720055D01*
X146031382Y-131869365D01*
X146218237Y-131950526D01*
X146294942Y-131983844D01*
X146571642Y-132061371D01*
X146821920Y-132095771D01*
X146856321Y-132100500D01*
X146856322Y-132100500D01*
X147143679Y-132100500D01*
X147174370Y-132096281D01*
X147428358Y-132061371D01*
X147705058Y-131983844D01*
X147818015Y-131934779D01*
X147968617Y-131869365D01*
X147968620Y-131869363D01*
X147968625Y-131869361D01*
X148214147Y-131720055D01*
X148437053Y-131538708D01*
X148633189Y-131328698D01*
X148798901Y-131093936D01*
X148931104Y-130838797D01*
X149027334Y-130568032D01*
X149085798Y-130286686D01*
X149105408Y-130000000D01*
X149085798Y-129713314D01*
X149027334Y-129431968D01*
X148931105Y-129161206D01*
X148931106Y-129161206D01*
X148798901Y-128906064D01*
X148633187Y-128671299D01*
X148554554Y-128587105D01*
X148437053Y-128461292D01*
X148214147Y-128279945D01*
X148214146Y-128279944D01*
X147968617Y-128130634D01*
X147705063Y-128016158D01*
X147705061Y-128016157D01*
X147705058Y-128016156D01*
X147575578Y-127979877D01*
X147428364Y-127938630D01*
X147428359Y-127938629D01*
X147428358Y-127938629D01*
X147286018Y-127919064D01*
X147143679Y-127899500D01*
X147143678Y-127899500D01*
X146856322Y-127899500D01*
X146856321Y-127899500D01*
X146571642Y-127938629D01*
X146571635Y-127938630D01*
X146363861Y-127996845D01*
X146294942Y-128016156D01*
X146294939Y-128016156D01*
X146294936Y-128016158D01*
X146294935Y-128016158D01*
X146031382Y-128130634D01*
X145785853Y-128279944D01*
X145562950Y-128461289D01*
X145366812Y-128671299D01*
X145201098Y-128906064D01*
X145068894Y-129161206D01*
X144972667Y-129431962D01*
X144972666Y-129431965D01*
X144914201Y-129713319D01*
X144894592Y-130000000D01*
X91853866Y-130000000D01*
X91908989Y-129944877D01*
X91914353Y-129939513D01*
X91914368Y-129939495D01*
X96389495Y-125464368D01*
X96389513Y-125464353D01*
X96558984Y-125294882D01*
X96558989Y-125294877D01*
X96700276Y-125110748D01*
X96816320Y-124909752D01*
X96905137Y-124695330D01*
X96965207Y-124471149D01*
X96995501Y-124241045D01*
X96995501Y-124008955D01*
X96995501Y-124005116D01*
X96995500Y-124005082D01*
X96995500Y-119983961D01*
X96995499Y-119983947D01*
X96993968Y-119972318D01*
X96965206Y-119753851D01*
X96905137Y-119529670D01*
X96816320Y-119315248D01*
X96796048Y-119280135D01*
X96700279Y-119114256D01*
X96700278Y-119114254D01*
X96558990Y-118930124D01*
X96558984Y-118930117D01*
X96394882Y-118766015D01*
X96394875Y-118766009D01*
X96210745Y-118624721D01*
X96210743Y-118624720D01*
X96009762Y-118508685D01*
X96009754Y-118508681D01*
X96009752Y-118508680D01*
X95795330Y-118419863D01*
X95795331Y-118419863D01*
X95795328Y-118419862D01*
X95653203Y-118381780D01*
X95571149Y-118359794D01*
X95542386Y-118356007D01*
X95341052Y-118329500D01*
X95341045Y-118329500D01*
X95108955Y-118329500D01*
X95108947Y-118329500D01*
X94878851Y-118359794D01*
X94654671Y-118419862D01*
X94440254Y-118508677D01*
X94440237Y-118508685D01*
X94239256Y-118624720D01*
X94239254Y-118624721D01*
X94055124Y-118766009D01*
X94055117Y-118766015D01*
X93891015Y-118930117D01*
X93891009Y-118930124D01*
X93749721Y-119114254D01*
X93749720Y-119114256D01*
X93633685Y-119315237D01*
X93633677Y-119315254D01*
X93544862Y-119529671D01*
X93484794Y-119753851D01*
X93454500Y-119983947D01*
X93454500Y-123340273D01*
X93434815Y-123407312D01*
X93418181Y-123427954D01*
X89877954Y-126968181D01*
X89816631Y-127001666D01*
X89790273Y-127004500D01*
X72809727Y-127004500D01*
X72742688Y-126984815D01*
X72722046Y-126968181D01*
X67788642Y-122034777D01*
X67755157Y-121973454D01*
X67760141Y-121903762D01*
X67802013Y-121847829D01*
X67844224Y-121827324D01*
X68020330Y-121780137D01*
X68234752Y-121691320D01*
X68435748Y-121575276D01*
X68619877Y-121433989D01*
X68783989Y-121269877D01*
X68925276Y-121085748D01*
X69041320Y-120884752D01*
X69130137Y-120670330D01*
X69190206Y-120446149D01*
X69220500Y-120216045D01*
X69220500Y-119983955D01*
X69190206Y-119753851D01*
X69130137Y-119529670D01*
X69041320Y-119315248D01*
X69021048Y-119280135D01*
X68925279Y-119114256D01*
X68925278Y-119114254D01*
X68783990Y-118930124D01*
X68783984Y-118930117D01*
X68619882Y-118766015D01*
X68619875Y-118766009D01*
X68435745Y-118624721D01*
X68435743Y-118624720D01*
X68234762Y-118508685D01*
X68234754Y-118508681D01*
X68234752Y-118508680D01*
X68020330Y-118419863D01*
X68020331Y-118419863D01*
X68020328Y-118419862D01*
X67878203Y-118381780D01*
X67796149Y-118359794D01*
X67767386Y-118356007D01*
X67566052Y-118329500D01*
X67566045Y-118329500D01*
X64134728Y-118329500D01*
X64067689Y-118309815D01*
X64047047Y-118293181D01*
X58304004Y-112550138D01*
X62766500Y-112550138D01*
X62766500Y-114999333D01*
X62805254Y-115194161D01*
X62805256Y-115194169D01*
X62881277Y-115377701D01*
X62881282Y-115377710D01*
X62991646Y-115542880D01*
X62991649Y-115542884D01*
X63132115Y-115683350D01*
X63132119Y-115683353D01*
X63297289Y-115793717D01*
X63297295Y-115793720D01*
X63297296Y-115793721D01*
X63480831Y-115869744D01*
X63675666Y-115908499D01*
X63675670Y-115908500D01*
X63675671Y-115908500D01*
X63874330Y-115908500D01*
X63874331Y-115908499D01*
X64069169Y-115869744D01*
X64252704Y-115793721D01*
X64417881Y-115683353D01*
X64558353Y-115542881D01*
X64668721Y-115377704D01*
X64744744Y-115194169D01*
X64783500Y-114999329D01*
X64783500Y-113118568D01*
X64803185Y-113051529D01*
X64819819Y-113030887D01*
X66405304Y-111445402D01*
X74469435Y-111445402D01*
X74469435Y-111454600D01*
X74469700Y-111459319D01*
X74469700Y-113190549D01*
X74469699Y-113190575D01*
X74469699Y-113354317D01*
X74493606Y-113474500D01*
X74493606Y-113474501D01*
X74500645Y-113509890D01*
X74500648Y-113509901D01*
X74561348Y-113656446D01*
X74561355Y-113656459D01*
X74649480Y-113788347D01*
X74649481Y-113788348D01*
X74649482Y-113788349D01*
X74674482Y-113813349D01*
X74736518Y-113875385D01*
X74790981Y-113929848D01*
X74790992Y-113929858D01*
X76696356Y-115835222D01*
X76696385Y-115835253D01*
X76811647Y-115950515D01*
X76811655Y-115950521D01*
X76904579Y-116012611D01*
X76904581Y-116012612D01*
X76943538Y-116038643D01*
X76943553Y-116038651D01*
X77090098Y-116099351D01*
X77090103Y-116099353D01*
X77090107Y-116099353D01*
X77090108Y-116099354D01*
X77245682Y-116130301D01*
X77245685Y-116130301D01*
X77410430Y-116130301D01*
X77410450Y-116130300D01*
X80539551Y-116130300D01*
X80539571Y-116130301D01*
X80545685Y-116130301D01*
X80710429Y-116130301D01*
X80710449Y-116130300D01*
X87639551Y-116130300D01*
X87639571Y-116130301D01*
X87645685Y-116130301D01*
X87804317Y-116130301D01*
X87908982Y-116109480D01*
X87959897Y-116099353D01*
X88106453Y-116038648D01*
X88106458Y-116038644D01*
X88106461Y-116038643D01*
X88145419Y-116012612D01*
X88145421Y-116012611D01*
X88207478Y-115971145D01*
X88238349Y-115950518D01*
X88350518Y-115838349D01*
X88350519Y-115838347D01*
X88357585Y-115831281D01*
X88357587Y-115831277D01*
X89925517Y-114263349D01*
X90513345Y-113675520D01*
X90513349Y-113675518D01*
X90625518Y-113563349D01*
X90713648Y-113431453D01*
X90774353Y-113284897D01*
X90775649Y-113278385D01*
X90805300Y-113129316D01*
X90805300Y-112970685D01*
X90805300Y-110084319D01*
X90805565Y-110079600D01*
X90805565Y-110070402D01*
X90805300Y-110065686D01*
X90805300Y-109995684D01*
X90805299Y-109995680D01*
X90774355Y-109840110D01*
X90774352Y-109840101D01*
X90713651Y-109693553D01*
X90713644Y-109693540D01*
X90625518Y-109561651D01*
X90625515Y-109561647D01*
X90513352Y-109449484D01*
X90513348Y-109449481D01*
X90381459Y-109361355D01*
X90381446Y-109361348D01*
X90234898Y-109300647D01*
X90234889Y-109300644D01*
X90079319Y-109269700D01*
X90079315Y-109269700D01*
X90009315Y-109269700D01*
X90004596Y-109269435D01*
X89995404Y-109269435D01*
X89990685Y-109269700D01*
X89920680Y-109269700D01*
X89765110Y-109300644D01*
X89765101Y-109300647D01*
X89618553Y-109361348D01*
X89618540Y-109361355D01*
X89486651Y-109449481D01*
X89486647Y-109449484D01*
X89374484Y-109561647D01*
X89374481Y-109561651D01*
X89286355Y-109693540D01*
X89286348Y-109693553D01*
X89225647Y-109840101D01*
X89225644Y-109840110D01*
X89194700Y-109995680D01*
X89194700Y-110065686D01*
X89194435Y-110070402D01*
X89194435Y-110079600D01*
X89194700Y-110084319D01*
X89194700Y-112665072D01*
X89175015Y-112732111D01*
X89158381Y-112752753D01*
X88786651Y-113124483D01*
X88162779Y-113748353D01*
X88101456Y-113781838D01*
X88031764Y-113776854D01*
X87975831Y-113734982D01*
X87970110Y-113726653D01*
X87904816Y-113622738D01*
X87777262Y-113495184D01*
X87653618Y-113417493D01*
X87607328Y-113365159D01*
X87596680Y-113296106D01*
X87625055Y-113232257D01*
X87653619Y-113207506D01*
X87672432Y-113195685D01*
X87777262Y-113129816D01*
X87904816Y-113002262D01*
X88000789Y-112849522D01*
X88060368Y-112679255D01*
X88061966Y-112665072D01*
X88080565Y-112500003D01*
X88080565Y-112499996D01*
X88060369Y-112320750D01*
X88060368Y-112320745D01*
X88008239Y-112171770D01*
X88000789Y-112150478D01*
X87904816Y-111997738D01*
X87777262Y-111870184D01*
X87770793Y-111866119D01*
X87624523Y-111774211D01*
X87454254Y-111714631D01*
X87454249Y-111714630D01*
X87275004Y-111694435D01*
X87274996Y-111694435D01*
X87095750Y-111714630D01*
X87095745Y-111714631D01*
X86925476Y-111774211D01*
X86772737Y-111870184D01*
X86645183Y-111997738D01*
X86642724Y-112000822D01*
X86640631Y-112002290D01*
X86640260Y-112002662D01*
X86640194Y-112002596D01*
X86585532Y-112040957D01*
X86545784Y-112047500D01*
X84899500Y-112047500D01*
X84832461Y-112027815D01*
X84786706Y-111975011D01*
X84775500Y-111923500D01*
X84775499Y-110827129D01*
X84775498Y-110827123D01*
X84775214Y-110824484D01*
X84769091Y-110767517D01*
X84764943Y-110756396D01*
X84718797Y-110632671D01*
X84718793Y-110632664D01*
X84632547Y-110517455D01*
X84632544Y-110517452D01*
X84517335Y-110431206D01*
X84517328Y-110431202D01*
X84382482Y-110380908D01*
X84382483Y-110380908D01*
X84322883Y-110374501D01*
X84322881Y-110374500D01*
X84322873Y-110374500D01*
X84322864Y-110374500D01*
X82727129Y-110374500D01*
X82727123Y-110374501D01*
X82667516Y-110380908D01*
X82532671Y-110431202D01*
X82532664Y-110431206D01*
X82417457Y-110517451D01*
X82417449Y-110517459D01*
X82386647Y-110558604D01*
X82334834Y-110598852D01*
X82231843Y-110641512D01*
X82162374Y-110648981D01*
X82099895Y-110617706D01*
X82096710Y-110614632D01*
X81977262Y-110495184D01*
X81824523Y-110399211D01*
X81654254Y-110339631D01*
X81654249Y-110339630D01*
X81475004Y-110319435D01*
X81474996Y-110319435D01*
X81295750Y-110339630D01*
X81295745Y-110339631D01*
X81125476Y-110399211D01*
X80972737Y-110495184D01*
X80845184Y-110622737D01*
X80749210Y-110775478D01*
X80689630Y-110945750D01*
X80678336Y-111045986D01*
X80651269Y-111110399D01*
X80642798Y-111119782D01*
X80426398Y-111336182D01*
X80365078Y-111369666D01*
X80338719Y-111372500D01*
X79299500Y-111372500D01*
X79232461Y-111352815D01*
X79186706Y-111300011D01*
X79175500Y-111248500D01*
X79175499Y-110152129D01*
X79175498Y-110152123D01*
X79169091Y-110092516D01*
X79118797Y-109957671D01*
X79118793Y-109957664D01*
X79032547Y-109842455D01*
X79032544Y-109842452D01*
X78917335Y-109756206D01*
X78917328Y-109756202D01*
X78782482Y-109705908D01*
X78782483Y-109705908D01*
X78722883Y-109699501D01*
X78722881Y-109699500D01*
X78722873Y-109699500D01*
X78722865Y-109699500D01*
X77863281Y-109699500D01*
X77796242Y-109679815D01*
X77775600Y-109663181D01*
X77563819Y-109451400D01*
X77530334Y-109390077D01*
X77527500Y-109363719D01*
X77527500Y-109291671D01*
X77546507Y-109225698D01*
X77557028Y-109208955D01*
X77625789Y-109099522D01*
X77685368Y-108929255D01*
X77705565Y-108750000D01*
X77692875Y-108637374D01*
X77685369Y-108570750D01*
X77685368Y-108570745D01*
X77625788Y-108400476D01*
X77586582Y-108338080D01*
X77529816Y-108247738D01*
X77402262Y-108120184D01*
X77398885Y-108118062D01*
X77249523Y-108024211D01*
X77079254Y-107964631D01*
X77079249Y-107964630D01*
X76900004Y-107944435D01*
X76899996Y-107944435D01*
X76720750Y-107964630D01*
X76720745Y-107964631D01*
X76550476Y-108024211D01*
X76397737Y-108120184D01*
X76270184Y-108247737D01*
X76174211Y-108400476D01*
X76114631Y-108570745D01*
X76114630Y-108570750D01*
X76094435Y-108749996D01*
X76094435Y-108750003D01*
X76114630Y-108929249D01*
X76114631Y-108929254D01*
X76174211Y-109099524D01*
X76253493Y-109225698D01*
X76272500Y-109291671D01*
X76272500Y-109736807D01*
X76296612Y-109858027D01*
X76296614Y-109858035D01*
X76329611Y-109937696D01*
X76343917Y-109972233D01*
X76385092Y-110033856D01*
X76411534Y-110073429D01*
X76412407Y-110074779D01*
X76412588Y-110075007D01*
X76638181Y-110300600D01*
X76671666Y-110361923D01*
X76674500Y-110388281D01*
X76674500Y-111247870D01*
X76674501Y-111247876D01*
X76680908Y-111307479D01*
X76682692Y-111315026D01*
X76681229Y-111315371D01*
X76685585Y-111376371D01*
X76681173Y-111391396D01*
X76680908Y-111392517D01*
X76674501Y-111452116D01*
X76674500Y-111452127D01*
X76674500Y-111923500D01*
X76674501Y-112370700D01*
X76654817Y-112437739D01*
X76602013Y-112483494D01*
X76550501Y-112494700D01*
X76204300Y-112494700D01*
X76137261Y-112475015D01*
X76091506Y-112422211D01*
X76080300Y-112370700D01*
X76080300Y-111459319D01*
X76080565Y-111454600D01*
X76080565Y-111445402D01*
X76080300Y-111440686D01*
X76080300Y-111370684D01*
X76080299Y-111370680D01*
X76049355Y-111215110D01*
X76049352Y-111215101D01*
X75988651Y-111068553D01*
X75988644Y-111068540D01*
X75900518Y-110936651D01*
X75900515Y-110936647D01*
X75788352Y-110824484D01*
X75788348Y-110824481D01*
X75656459Y-110736355D01*
X75656446Y-110736348D01*
X75509898Y-110675647D01*
X75509889Y-110675644D01*
X75354319Y-110644700D01*
X75354315Y-110644700D01*
X75284315Y-110644700D01*
X75279596Y-110644435D01*
X75270404Y-110644435D01*
X75265685Y-110644700D01*
X75195680Y-110644700D01*
X75040110Y-110675644D01*
X75040101Y-110675647D01*
X74893553Y-110736348D01*
X74893540Y-110736355D01*
X74761651Y-110824481D01*
X74761647Y-110824484D01*
X74649484Y-110936647D01*
X74649481Y-110936651D01*
X74561355Y-111068540D01*
X74561348Y-111068553D01*
X74500647Y-111215101D01*
X74500644Y-111215110D01*
X74469700Y-111370680D01*
X74469700Y-111440686D01*
X74469435Y-111445402D01*
X66405304Y-111445402D01*
X74533350Y-103317356D01*
X74533353Y-103317353D01*
X74643721Y-103152176D01*
X74719744Y-102968641D01*
X74758500Y-102773801D01*
X74758500Y-102575143D01*
X74758500Y-96765412D01*
X74778185Y-96698373D01*
X74830989Y-96652618D01*
X74900147Y-96642674D01*
X74963703Y-96671699D01*
X74970181Y-96677731D01*
X77336881Y-99044432D01*
X77336885Y-99044435D01*
X77485415Y-99143680D01*
X77485421Y-99143683D01*
X77485422Y-99143684D01*
X77650467Y-99212048D01*
X77650471Y-99212048D01*
X77650472Y-99212049D01*
X77825675Y-99246900D01*
X77825678Y-99246900D01*
X78924324Y-99246900D01*
X79042198Y-99223452D01*
X79099533Y-99212048D01*
X79264578Y-99143684D01*
X79413115Y-99044435D01*
X79539435Y-98918115D01*
X79638684Y-98769578D01*
X79707048Y-98604533D01*
X79729927Y-98489513D01*
X79741900Y-98429324D01*
X79741900Y-98250675D01*
X79707049Y-98075472D01*
X79707048Y-98075471D01*
X79707048Y-98075467D01*
X79638684Y-97910422D01*
X79638683Y-97910421D01*
X79638680Y-97910415D01*
X79539435Y-97761885D01*
X79539432Y-97761881D01*
X79413118Y-97635567D01*
X79413114Y-97635564D01*
X79264584Y-97536319D01*
X79264575Y-97536314D01*
X79099533Y-97467952D01*
X79099527Y-97467950D01*
X78924324Y-97433100D01*
X78924322Y-97433100D01*
X78342012Y-97433100D01*
X78274973Y-97413415D01*
X78254331Y-97396781D01*
X76068219Y-95210669D01*
X76034734Y-95149346D01*
X76031900Y-95122988D01*
X76031900Y-92485675D01*
X75997049Y-92310472D01*
X75997048Y-92310471D01*
X75997048Y-92310467D01*
X75937724Y-92167246D01*
X75928685Y-92145424D01*
X75928680Y-92145415D01*
X75829435Y-91996885D01*
X75829432Y-91996881D01*
X75703118Y-91870567D01*
X75703114Y-91870564D01*
X75554584Y-91771319D01*
X75554575Y-91771314D01*
X75389533Y-91702952D01*
X75389527Y-91702950D01*
X75214324Y-91668100D01*
X75214322Y-91668100D01*
X75035678Y-91668100D01*
X75035673Y-91668100D01*
X74906691Y-91693756D01*
X74837099Y-91687529D01*
X74781922Y-91644665D01*
X74758678Y-91578776D01*
X74758500Y-91572139D01*
X74758500Y-89600670D01*
X74758499Y-89600666D01*
X74719745Y-89405838D01*
X74719744Y-89405831D01*
X74663205Y-89269334D01*
X74643722Y-89222297D01*
X74641917Y-89219596D01*
X74533357Y-89057123D01*
X74533351Y-89057115D01*
X66317884Y-80841649D01*
X66317880Y-80841646D01*
X66152710Y-80731282D01*
X66152701Y-80731277D01*
X65969168Y-80655256D01*
X65969160Y-80655254D01*
X65774332Y-80616500D01*
X65774329Y-80616500D01*
X65575671Y-80616500D01*
X65575668Y-80616500D01*
X65380839Y-80655254D01*
X65380831Y-80655256D01*
X65197298Y-80731277D01*
X65197289Y-80731282D01*
X65032119Y-80841646D01*
X65032115Y-80841649D01*
X64891649Y-80982115D01*
X64891646Y-80982119D01*
X64781282Y-81147289D01*
X64781277Y-81147298D01*
X64705256Y-81330831D01*
X64705254Y-81330839D01*
X64666500Y-81525666D01*
X64666500Y-81724333D01*
X64705254Y-81919160D01*
X64705256Y-81919168D01*
X64781277Y-82102701D01*
X64781282Y-82102710D01*
X64891646Y-82267880D01*
X64891649Y-82267884D01*
X70303584Y-87679819D01*
X70337069Y-87741142D01*
X70332085Y-87810834D01*
X70290213Y-87866767D01*
X70224749Y-87891184D01*
X70215903Y-87891500D01*
X68800666Y-87891500D01*
X68605838Y-87930254D01*
X68605830Y-87930256D01*
X68422298Y-88006277D01*
X68422289Y-88006282D01*
X68257119Y-88116646D01*
X68257115Y-88116649D01*
X68116649Y-88257115D01*
X68116646Y-88257119D01*
X68006282Y-88422289D01*
X68006277Y-88422298D01*
X67930256Y-88605830D01*
X67930254Y-88605838D01*
X67891500Y-88800666D01*
X67891500Y-88999333D01*
X67930254Y-89194161D01*
X67930256Y-89194169D01*
X68006277Y-89377701D01*
X68006282Y-89377710D01*
X68116646Y-89542880D01*
X68116649Y-89542884D01*
X68257115Y-89683350D01*
X68257119Y-89683353D01*
X68422289Y-89793717D01*
X68422295Y-89793720D01*
X68422296Y-89793721D01*
X68605831Y-89869744D01*
X68800666Y-89908499D01*
X68800670Y-89908500D01*
X68800671Y-89908500D01*
X72480903Y-89908500D01*
X72547942Y-89928185D01*
X72568579Y-89944814D01*
X72705182Y-90081416D01*
X72738666Y-90142737D01*
X72741500Y-90169096D01*
X72741500Y-102205376D01*
X72721815Y-102272415D01*
X72705181Y-102293057D01*
X63132119Y-111866119D01*
X63075365Y-111922873D01*
X62991645Y-112006592D01*
X62881282Y-112171761D01*
X62881277Y-112171770D01*
X62805256Y-112355302D01*
X62805254Y-112355310D01*
X62766500Y-112550138D01*
X58304004Y-112550138D01*
X58236818Y-112482952D01*
X58203333Y-112421629D01*
X58200499Y-112395271D01*
X58200499Y-111619998D01*
X58200498Y-111619981D01*
X58189999Y-111517203D01*
X58189998Y-111517200D01*
X58168509Y-111452351D01*
X58134814Y-111350666D01*
X58042712Y-111201344D01*
X57918656Y-111077288D01*
X57769334Y-110985186D01*
X57602797Y-110930001D01*
X57602795Y-110930000D01*
X57500016Y-110919500D01*
X57452654Y-110919500D01*
X57385615Y-110899815D01*
X57339860Y-110847011D01*
X57329916Y-110777853D01*
X57358941Y-110714297D01*
X57377167Y-110697125D01*
X57494382Y-110607181D01*
X57494391Y-110607174D01*
X57687174Y-110414391D01*
X57687181Y-110414382D01*
X57853168Y-110198066D01*
X57989496Y-109961937D01*
X57989500Y-109961927D01*
X58093840Y-109710029D01*
X58164411Y-109446655D01*
X58185035Y-109290000D01*
X56466480Y-109290000D01*
X56467335Y-109287936D01*
X56500000Y-109123718D01*
X56500000Y-108956282D01*
X56467335Y-108792064D01*
X56466480Y-108790000D01*
X58185034Y-108790000D01*
X58164411Y-108633344D01*
X58093840Y-108369970D01*
X57989500Y-108118072D01*
X57989496Y-108118062D01*
X57853168Y-107881933D01*
X57687181Y-107665617D01*
X57687174Y-107665609D01*
X57494391Y-107472826D01*
X57494382Y-107472818D01*
X57278066Y-107306831D01*
X57041937Y-107170503D01*
X57041927Y-107170499D01*
X56790029Y-107066159D01*
X56526655Y-106995588D01*
X56256331Y-106960000D01*
X55900000Y-106960000D01*
X55900000Y-108223519D01*
X55897936Y-108222665D01*
X55733718Y-108190000D01*
X55566282Y-108190000D01*
X55402064Y-108222665D01*
X55400000Y-108223519D01*
X55400000Y-106960000D01*
X55043669Y-106960000D01*
X54773344Y-106995588D01*
X54509970Y-107066159D01*
X54258072Y-107170499D01*
X54258062Y-107170503D01*
X54021933Y-107306831D01*
X53805617Y-107472818D01*
X53612818Y-107665617D01*
X53446831Y-107881933D01*
X53310503Y-108118062D01*
X53310499Y-108118072D01*
X53206159Y-108369970D01*
X53135588Y-108633344D01*
X53114965Y-108790000D01*
X54833520Y-108790000D01*
X54832665Y-108792064D01*
X54800000Y-108956282D01*
X54800000Y-109123718D01*
X54832665Y-109287936D01*
X54833520Y-109290000D01*
X53114965Y-109290000D01*
X53135588Y-109446655D01*
X53206159Y-109710029D01*
X53310499Y-109961927D01*
X53310503Y-109961937D01*
X53446831Y-110198066D01*
X53612818Y-110414382D01*
X53612826Y-110414391D01*
X53805608Y-110607173D01*
X53922834Y-110697124D01*
X53964036Y-110753552D01*
X53968191Y-110823298D01*
X53933979Y-110884219D01*
X53872261Y-110916971D01*
X53847349Y-110919500D01*
X53800000Y-110919500D01*
X53799980Y-110919501D01*
X53697203Y-110930000D01*
X53697200Y-110930001D01*
X53530668Y-110985185D01*
X53530663Y-110985187D01*
X53381342Y-111077289D01*
X53257289Y-111201342D01*
X53165187Y-111350663D01*
X53165185Y-111350668D01*
X53158552Y-111370685D01*
X53110001Y-111517203D01*
X53110001Y-111517204D01*
X53110000Y-111517204D01*
X53099500Y-111619983D01*
X50500500Y-111619983D01*
X50500500Y-89454999D01*
X50869341Y-89454999D01*
X50869341Y-89455000D01*
X50889936Y-89690403D01*
X50889938Y-89690413D01*
X50951094Y-89918655D01*
X50951096Y-89918659D01*
X50951097Y-89918663D01*
X51026989Y-90081414D01*
X51050965Y-90132830D01*
X51050967Y-90132834D01*
X51141514Y-90262147D01*
X51186501Y-90326396D01*
X51186506Y-90326402D01*
X51353597Y-90493493D01*
X51353603Y-90493498D01*
X51539158Y-90623425D01*
X51582783Y-90678002D01*
X51589977Y-90747500D01*
X51558454Y-90809855D01*
X51539158Y-90826575D01*
X51353597Y-90956505D01*
X51186505Y-91123597D01*
X51050965Y-91317169D01*
X51050964Y-91317171D01*
X50951098Y-91531335D01*
X50951094Y-91531344D01*
X50889938Y-91759586D01*
X50889936Y-91759596D01*
X50869341Y-91994999D01*
X50869341Y-91995000D01*
X50889936Y-92230403D01*
X50889938Y-92230413D01*
X50951094Y-92458655D01*
X50951096Y-92458659D01*
X50951097Y-92458663D01*
X51031004Y-92630023D01*
X51050965Y-92672830D01*
X51050967Y-92672834D01*
X51159281Y-92827521D01*
X51186505Y-92866401D01*
X51353599Y-93033495D01*
X51450384Y-93101265D01*
X51547165Y-93169032D01*
X51547167Y-93169033D01*
X51547170Y-93169035D01*
X51761337Y-93268903D01*
X51989592Y-93330063D01*
X52177918Y-93346539D01*
X52224999Y-93350659D01*
X52225000Y-93350659D01*
X52225001Y-93350659D01*
X52264234Y-93347226D01*
X52460408Y-93330063D01*
X52688663Y-93268903D01*
X52902830Y-93169035D01*
X53096401Y-93033495D01*
X53263495Y-92866401D01*
X53393425Y-92680842D01*
X53448002Y-92637217D01*
X53517500Y-92630023D01*
X53579855Y-92661546D01*
X53596575Y-92680842D01*
X53726500Y-92866395D01*
X53726505Y-92866401D01*
X53893599Y-93033495D01*
X53990384Y-93101265D01*
X54087165Y-93169032D01*
X54087167Y-93169033D01*
X54087170Y-93169035D01*
X54301337Y-93268903D01*
X54529592Y-93330063D01*
X54717918Y-93346539D01*
X54764999Y-93350659D01*
X54765000Y-93350659D01*
X54765001Y-93350659D01*
X54804234Y-93347226D01*
X55000408Y-93330063D01*
X55228663Y-93268903D01*
X55442830Y-93169035D01*
X55636401Y-93033495D01*
X55803495Y-92866401D01*
X55939035Y-92672830D01*
X56038903Y-92458663D01*
X56100063Y-92230408D01*
X56120659Y-91995000D01*
X56119155Y-91977815D01*
X56101089Y-91771319D01*
X56100063Y-91759592D01*
X56038903Y-91531337D01*
X55939035Y-91317171D01*
X55933425Y-91309158D01*
X55803494Y-91123597D01*
X55636402Y-90956506D01*
X55636396Y-90956501D01*
X55450842Y-90826575D01*
X55407217Y-90771998D01*
X55400023Y-90702500D01*
X55431546Y-90640145D01*
X55450842Y-90623425D01*
X55473026Y-90607891D01*
X55636401Y-90493495D01*
X55803495Y-90326401D01*
X55939035Y-90132830D01*
X56038903Y-89918663D01*
X56100063Y-89690408D01*
X56120659Y-89455000D01*
X56100063Y-89219592D01*
X56041227Y-89000009D01*
X56038905Y-88991344D01*
X56038904Y-88991343D01*
X56038903Y-88991337D01*
X55939035Y-88777171D01*
X55933425Y-88769158D01*
X55803494Y-88583597D01*
X55636402Y-88416506D01*
X55636401Y-88416505D01*
X55450405Y-88286269D01*
X55406781Y-88231692D01*
X55399588Y-88162193D01*
X55431110Y-88099839D01*
X55450405Y-88083119D01*
X55636082Y-87953105D01*
X55803105Y-87786082D01*
X55938600Y-87592578D01*
X56038429Y-87378492D01*
X56038432Y-87378486D01*
X56095636Y-87165000D01*
X55198012Y-87165000D01*
X55230925Y-87107993D01*
X55265000Y-86980826D01*
X55265000Y-86849174D01*
X55230925Y-86722007D01*
X55198012Y-86665000D01*
X56095636Y-86665000D01*
X56095635Y-86664999D01*
X56038432Y-86451513D01*
X56038429Y-86451507D01*
X55993850Y-86355905D01*
X55983358Y-86286827D01*
X56011878Y-86223043D01*
X56070354Y-86184804D01*
X56106232Y-86179500D01*
X58290719Y-86179500D01*
X58357758Y-86199185D01*
X58378400Y-86215819D01*
X68462589Y-96300008D01*
X68549992Y-96387411D01*
X68549994Y-96387413D01*
X68549996Y-96387414D01*
X68652761Y-96456079D01*
X68652767Y-96456083D01*
X68686215Y-96469937D01*
X68766965Y-96503386D01*
X68888192Y-96527499D01*
X68888196Y-96527500D01*
X68888197Y-96527500D01*
X69011803Y-96527500D01*
X70458328Y-96527500D01*
X70524299Y-96546505D01*
X70650478Y-96625789D01*
X70698733Y-96642674D01*
X70820745Y-96685368D01*
X70820750Y-96685369D01*
X70999996Y-96705565D01*
X71000000Y-96705565D01*
X71000004Y-96705565D01*
X71179249Y-96685369D01*
X71179252Y-96685368D01*
X71179255Y-96685368D01*
X71349522Y-96625789D01*
X71502262Y-96529816D01*
X71629816Y-96402262D01*
X71725789Y-96249522D01*
X71785368Y-96079255D01*
X71785369Y-96079249D01*
X71805565Y-95900003D01*
X71805565Y-95899996D01*
X71785369Y-95720750D01*
X71785368Y-95720745D01*
X71756877Y-95639322D01*
X71725789Y-95550478D01*
X71629816Y-95397738D01*
X71502262Y-95270184D01*
X71475700Y-95253494D01*
X71349523Y-95174211D01*
X71179254Y-95114631D01*
X71179249Y-95114630D01*
X71000004Y-95094435D01*
X70999996Y-95094435D01*
X70820750Y-95114630D01*
X70820745Y-95114631D01*
X70650476Y-95174211D01*
X70524300Y-95253494D01*
X70458328Y-95272500D01*
X69803627Y-95272500D01*
X69736588Y-95252815D01*
X69690833Y-95200011D01*
X69680889Y-95130853D01*
X69698633Y-95082528D01*
X69750788Y-94999523D01*
X69750789Y-94999522D01*
X69810368Y-94829255D01*
X69820975Y-94735118D01*
X69830565Y-94650003D01*
X69830565Y-94649996D01*
X69810369Y-94470750D01*
X69810368Y-94470745D01*
X69750788Y-94300476D01*
X69654815Y-94147737D01*
X69527262Y-94020184D01*
X69374521Y-93924210D01*
X69204249Y-93864630D01*
X69160361Y-93859685D01*
X69095947Y-93832617D01*
X69086565Y-93824146D01*
X67400011Y-92137591D01*
X67400006Y-92137587D01*
X67334086Y-92093542D01*
X67334085Y-92093541D01*
X67297230Y-92068915D01*
X67297228Y-92068914D01*
X67263785Y-92055062D01*
X67183035Y-92021614D01*
X67183027Y-92021612D01*
X67061807Y-91997500D01*
X67061803Y-91997500D01*
X66628333Y-91997500D01*
X66561294Y-91977815D01*
X66540652Y-91961181D01*
X58467063Y-83887591D01*
X58467059Y-83887588D01*
X58364291Y-83818920D01*
X58364278Y-83818913D01*
X58329893Y-83804671D01*
X58250087Y-83771614D01*
X58250079Y-83771612D01*
X58128859Y-83747500D01*
X58128855Y-83747500D01*
X56038826Y-83747500D01*
X55971787Y-83727815D01*
X55937251Y-83694623D01*
X55803494Y-83503597D01*
X55636402Y-83336506D01*
X55636395Y-83336501D01*
X55442834Y-83200967D01*
X55442830Y-83200965D01*
X55442828Y-83200964D01*
X55228663Y-83101097D01*
X55228659Y-83101096D01*
X55228655Y-83101094D01*
X55000413Y-83039938D01*
X55000403Y-83039936D01*
X54765001Y-83019341D01*
X54764999Y-83019341D01*
X54529596Y-83039936D01*
X54529586Y-83039938D01*
X54301344Y-83101094D01*
X54301335Y-83101098D01*
X54087171Y-83200964D01*
X54087169Y-83200965D01*
X53893600Y-83336503D01*
X53771673Y-83458430D01*
X53710350Y-83491914D01*
X53640658Y-83486930D01*
X53584725Y-83445058D01*
X53567810Y-83414081D01*
X53518797Y-83282671D01*
X53518793Y-83282664D01*
X53432547Y-83167455D01*
X53432544Y-83167452D01*
X53317335Y-83081206D01*
X53317328Y-83081202D01*
X53182482Y-83030908D01*
X53182483Y-83030908D01*
X53122883Y-83024501D01*
X53122881Y-83024500D01*
X53122873Y-83024500D01*
X53122864Y-83024500D01*
X51327129Y-83024500D01*
X51327123Y-83024501D01*
X51267516Y-83030908D01*
X51132671Y-83081202D01*
X51132664Y-83081206D01*
X51017455Y-83167452D01*
X51017452Y-83167455D01*
X50931206Y-83282664D01*
X50931202Y-83282671D01*
X50880908Y-83417517D01*
X50874501Y-83477116D01*
X50874500Y-83477135D01*
X50874500Y-85272870D01*
X50874501Y-85272876D01*
X50880908Y-85332483D01*
X50931202Y-85467328D01*
X50931206Y-85467335D01*
X51017452Y-85582544D01*
X51017455Y-85582547D01*
X51132664Y-85668793D01*
X51132671Y-85668797D01*
X51194902Y-85692007D01*
X51264598Y-85718002D01*
X51320531Y-85759873D01*
X51344949Y-85825337D01*
X51330098Y-85893610D01*
X51308947Y-85921865D01*
X51186886Y-86043926D01*
X51051400Y-86237420D01*
X51051399Y-86237422D01*
X50951570Y-86451507D01*
X50951567Y-86451513D01*
X50894364Y-86664999D01*
X50894364Y-86665000D01*
X51791988Y-86665000D01*
X51759075Y-86722007D01*
X51725000Y-86849174D01*
X51725000Y-86980826D01*
X51759075Y-87107993D01*
X51791988Y-87165000D01*
X50894364Y-87165000D01*
X50951567Y-87378486D01*
X50951570Y-87378492D01*
X51051399Y-87592578D01*
X51186894Y-87786082D01*
X51353917Y-87953105D01*
X51539595Y-88083119D01*
X51583219Y-88137696D01*
X51590412Y-88207195D01*
X51558890Y-88269549D01*
X51539595Y-88286269D01*
X51353594Y-88416508D01*
X51186505Y-88583597D01*
X51050965Y-88777169D01*
X51050964Y-88777171D01*
X50951098Y-88991335D01*
X50951094Y-88991344D01*
X50889938Y-89219586D01*
X50889936Y-89219596D01*
X50869341Y-89454999D01*
X50500500Y-89454999D01*
X50500500Y-72889324D01*
X74043099Y-72889324D01*
X74077950Y-73064527D01*
X74077952Y-73064533D01*
X74146314Y-73229575D01*
X74146319Y-73229584D01*
X74245564Y-73378114D01*
X74245567Y-73378118D01*
X78196881Y-77329432D01*
X78196885Y-77329435D01*
X78345415Y-77428680D01*
X78345421Y-77428683D01*
X78345422Y-77428684D01*
X78510467Y-77497048D01*
X78510471Y-77497048D01*
X78510472Y-77497049D01*
X78685675Y-77531900D01*
X78685678Y-77531900D01*
X78864324Y-77531900D01*
X78982198Y-77508452D01*
X79039533Y-77497048D01*
X79204578Y-77428684D01*
X79353115Y-77329435D01*
X79479435Y-77203115D01*
X79578684Y-77054578D01*
X79647048Y-76889533D01*
X79681900Y-76714322D01*
X79681900Y-76535678D01*
X79681900Y-76535675D01*
X79647049Y-76360472D01*
X79647048Y-76360471D01*
X79647048Y-76360467D01*
X79578684Y-76195422D01*
X79578683Y-76195421D01*
X79578680Y-76195415D01*
X79479435Y-76046885D01*
X79479432Y-76046881D01*
X75893219Y-72460668D01*
X75859734Y-72399345D01*
X75856900Y-72372987D01*
X75856900Y-70708947D01*
X100479500Y-70708947D01*
X100479500Y-70941052D01*
X100509794Y-71171148D01*
X100569862Y-71395328D01*
X100658677Y-71609745D01*
X100658685Y-71609762D01*
X100774720Y-71810743D01*
X100774721Y-71810745D01*
X100916009Y-71994875D01*
X100916015Y-71994882D01*
X101080117Y-72158984D01*
X101080124Y-72158990D01*
X101264254Y-72300278D01*
X101264256Y-72300279D01*
X101465237Y-72416314D01*
X101465240Y-72416315D01*
X101465248Y-72416320D01*
X101679670Y-72505137D01*
X101903851Y-72565206D01*
X102133955Y-72595500D01*
X102540273Y-72595500D01*
X102607312Y-72615185D01*
X102627954Y-72631819D01*
X104193181Y-74197046D01*
X104226666Y-74258369D01*
X104229500Y-74284727D01*
X104229500Y-90960314D01*
X104209815Y-91027353D01*
X104157011Y-91073108D01*
X104087853Y-91083052D01*
X104030014Y-91058690D01*
X103985745Y-91024721D01*
X103985743Y-91024720D01*
X103784762Y-90908685D01*
X103784754Y-90908681D01*
X103784752Y-90908680D01*
X103784745Y-90908677D01*
X103570328Y-90819862D01*
X103391695Y-90771998D01*
X103346149Y-90759794D01*
X103317386Y-90756007D01*
X103116052Y-90729500D01*
X103116045Y-90729500D01*
X102883955Y-90729500D01*
X102883947Y-90729500D01*
X102653851Y-90759794D01*
X102429671Y-90819862D01*
X102215254Y-90908677D01*
X102215237Y-90908685D01*
X102014256Y-91024720D01*
X102014254Y-91024721D01*
X101830124Y-91166009D01*
X101830117Y-91166015D01*
X101666015Y-91330117D01*
X101666009Y-91330124D01*
X101524721Y-91514254D01*
X101524720Y-91514256D01*
X101408685Y-91715237D01*
X101408677Y-91715254D01*
X101319862Y-91929671D01*
X101259794Y-92153851D01*
X101229500Y-92383947D01*
X101229500Y-94880082D01*
X101229499Y-94880116D01*
X101229499Y-95116052D01*
X101259792Y-95346145D01*
X101301016Y-95499992D01*
X101319863Y-95570330D01*
X101408677Y-95784745D01*
X101408685Y-95784762D01*
X101524720Y-95985743D01*
X101524721Y-95985745D01*
X101666009Y-96169875D01*
X101666015Y-96169882D01*
X101833219Y-96337086D01*
X101833249Y-96337114D01*
X104193181Y-98697046D01*
X104226666Y-98758369D01*
X104229500Y-98784727D01*
X104229500Y-105540272D01*
X104209815Y-105607311D01*
X104193181Y-105627953D01*
X102925805Y-106895329D01*
X101830127Y-107991007D01*
X101830123Y-107991011D01*
X101764991Y-108056143D01*
X101666008Y-108155125D01*
X101524721Y-108339254D01*
X101524720Y-108339256D01*
X101409062Y-108539585D01*
X101409044Y-108539617D01*
X101408686Y-108540235D01*
X101408679Y-108540250D01*
X101319863Y-108754669D01*
X101259792Y-108978854D01*
X101229499Y-109208947D01*
X101229499Y-109445431D01*
X101229500Y-109445460D01*
X101229500Y-112616052D01*
X101259794Y-112846148D01*
X101319862Y-113070328D01*
X101408677Y-113284745D01*
X101408685Y-113284762D01*
X101524720Y-113485743D01*
X101524721Y-113485745D01*
X101666009Y-113669875D01*
X101666015Y-113669882D01*
X101830117Y-113833984D01*
X101830124Y-113833990D01*
X102014254Y-113975278D01*
X102014256Y-113975279D01*
X102215237Y-114091314D01*
X102215240Y-114091315D01*
X102215248Y-114091320D01*
X102429670Y-114180137D01*
X102653851Y-114240206D01*
X102883955Y-114270500D01*
X102883962Y-114270500D01*
X103116038Y-114270500D01*
X103116045Y-114270500D01*
X103346149Y-114240206D01*
X103570330Y-114180137D01*
X103784752Y-114091320D01*
X103985748Y-113975276D01*
X104169877Y-113833989D01*
X104333989Y-113669877D01*
X104475276Y-113485748D01*
X104591320Y-113284752D01*
X104680137Y-113070330D01*
X104740206Y-112846149D01*
X104770500Y-112616045D01*
X104770500Y-110109726D01*
X104790185Y-110042687D01*
X104806814Y-110022050D01*
X107164495Y-107664368D01*
X107164513Y-107664353D01*
X107333984Y-107494882D01*
X107333989Y-107494877D01*
X107475276Y-107310748D01*
X107517751Y-107237178D01*
X107591321Y-107109752D01*
X107680137Y-106895329D01*
X107740207Y-106671148D01*
X107770501Y-106441044D01*
X107770501Y-106208955D01*
X107770501Y-106205116D01*
X107770500Y-106205082D01*
X107770500Y-98120460D01*
X107770501Y-98120431D01*
X107770501Y-97880117D01*
X107770500Y-97880083D01*
X107770500Y-88778947D01*
X110229499Y-88778947D01*
X110229499Y-89015431D01*
X110229500Y-89015460D01*
X110229500Y-99180082D01*
X110229499Y-99180116D01*
X110229499Y-99420431D01*
X110229500Y-99420460D01*
X110229500Y-115505082D01*
X110229499Y-115505116D01*
X110229499Y-115741052D01*
X110259792Y-115971145D01*
X110319863Y-116195330D01*
X110408677Y-116409745D01*
X110408685Y-116409762D01*
X110524720Y-116610743D01*
X110524721Y-116610745D01*
X110666009Y-116794875D01*
X110666015Y-116794882D01*
X110833219Y-116962086D01*
X110833249Y-116962114D01*
X112805118Y-118933984D01*
X112805124Y-118933989D01*
X112989253Y-119075276D01*
X112989260Y-119075280D01*
X113190240Y-119191317D01*
X113190245Y-119191319D01*
X113190248Y-119191321D01*
X113404670Y-119280137D01*
X113628852Y-119340207D01*
X113831618Y-119366902D01*
X113858939Y-119370499D01*
X113858955Y-119370501D01*
X113858962Y-119370501D01*
X114091038Y-119370501D01*
X114091045Y-119370501D01*
X114321149Y-119340207D01*
X114545330Y-119280137D01*
X114759752Y-119191321D01*
X114960747Y-119075276D01*
X115144877Y-118933989D01*
X115308989Y-118769877D01*
X115450276Y-118585747D01*
X115566321Y-118384752D01*
X115655137Y-118170330D01*
X115715207Y-117946149D01*
X115745501Y-117716045D01*
X115745501Y-117483955D01*
X115715207Y-117253852D01*
X115655137Y-117029670D01*
X115566321Y-116815248D01*
X115566319Y-116815245D01*
X115566317Y-116815240D01*
X115450280Y-116614260D01*
X115450276Y-116614253D01*
X115308989Y-116430124D01*
X115308984Y-116430118D01*
X113806819Y-114927953D01*
X113773334Y-114866630D01*
X113770500Y-114840272D01*
X113770500Y-109044995D01*
X114764592Y-109044995D01*
X114764592Y-109045004D01*
X114784196Y-109306620D01*
X114784197Y-109306625D01*
X114842576Y-109562402D01*
X114842578Y-109562411D01*
X114842580Y-109562416D01*
X114938432Y-109806643D01*
X115069614Y-110033857D01*
X115116394Y-110092517D01*
X115233198Y-110238985D01*
X115405882Y-110399211D01*
X115425521Y-110417433D01*
X115642296Y-110565228D01*
X115642301Y-110565230D01*
X115642302Y-110565231D01*
X115642303Y-110565232D01*
X115751268Y-110617706D01*
X115878673Y-110679061D01*
X115878674Y-110679061D01*
X115878677Y-110679063D01*
X116129385Y-110756396D01*
X116388818Y-110795500D01*
X116651182Y-110795500D01*
X116910615Y-110756396D01*
X117161323Y-110679063D01*
X117397704Y-110565228D01*
X117614479Y-110417433D01*
X117806805Y-110238981D01*
X117970386Y-110033857D01*
X118101568Y-109806643D01*
X118197420Y-109562416D01*
X118255802Y-109306630D01*
X118255803Y-109306620D01*
X118275408Y-109045004D01*
X118275408Y-109044995D01*
X133814592Y-109044995D01*
X133814592Y-109045004D01*
X133834196Y-109306620D01*
X133834197Y-109306625D01*
X133892576Y-109562402D01*
X133892578Y-109562411D01*
X133892580Y-109562416D01*
X133988432Y-109806643D01*
X134119614Y-110033857D01*
X134166394Y-110092517D01*
X134283198Y-110238985D01*
X134455882Y-110399211D01*
X134475521Y-110417433D01*
X134692296Y-110565228D01*
X134692301Y-110565230D01*
X134692302Y-110565231D01*
X134692303Y-110565232D01*
X134801268Y-110617706D01*
X134928673Y-110679061D01*
X134928674Y-110679061D01*
X134928677Y-110679063D01*
X135179385Y-110756396D01*
X135438818Y-110795500D01*
X135701182Y-110795500D01*
X135960615Y-110756396D01*
X136211323Y-110679063D01*
X136447704Y-110565228D01*
X136664479Y-110417433D01*
X136856805Y-110238981D01*
X137020386Y-110033857D01*
X137151568Y-109806643D01*
X137247420Y-109562416D01*
X137305802Y-109306630D01*
X137305803Y-109306620D01*
X137325408Y-109045004D01*
X137325408Y-109044995D01*
X137305803Y-108783379D01*
X137305802Y-108783374D01*
X137305802Y-108783370D01*
X137247420Y-108527584D01*
X137151568Y-108283357D01*
X137020386Y-108056143D01*
X136856805Y-107851019D01*
X136856804Y-107851018D01*
X136856801Y-107851014D01*
X136664479Y-107672567D01*
X136654285Y-107665617D01*
X136447704Y-107524772D01*
X136447700Y-107524770D01*
X136447697Y-107524768D01*
X136447696Y-107524767D01*
X136211325Y-107410938D01*
X136211327Y-107410938D01*
X135960623Y-107333606D01*
X135960619Y-107333605D01*
X135960615Y-107333604D01*
X135835823Y-107314794D01*
X135701187Y-107294500D01*
X135701182Y-107294500D01*
X135438818Y-107294500D01*
X135438812Y-107294500D01*
X135277247Y-107318853D01*
X135179385Y-107333604D01*
X135179382Y-107333605D01*
X135179376Y-107333606D01*
X134928673Y-107410938D01*
X134692303Y-107524767D01*
X134692302Y-107524768D01*
X134475520Y-107672567D01*
X134283198Y-107851014D01*
X134119614Y-108056143D01*
X133988432Y-108283356D01*
X133892582Y-108527578D01*
X133892576Y-108527597D01*
X133834197Y-108783374D01*
X133834196Y-108783379D01*
X133814592Y-109044995D01*
X118275408Y-109044995D01*
X118255803Y-108783379D01*
X118255802Y-108783374D01*
X118255802Y-108783370D01*
X118197420Y-108527584D01*
X118101568Y-108283357D01*
X117970386Y-108056143D01*
X117806805Y-107851019D01*
X117806804Y-107851018D01*
X117806801Y-107851014D01*
X117614479Y-107672567D01*
X117604285Y-107665617D01*
X117397704Y-107524772D01*
X117397700Y-107524770D01*
X117397697Y-107524768D01*
X117397696Y-107524767D01*
X117161325Y-107410938D01*
X117161327Y-107410938D01*
X116910623Y-107333606D01*
X116910619Y-107333605D01*
X116910615Y-107333604D01*
X116785823Y-107314794D01*
X116651187Y-107294500D01*
X116651182Y-107294500D01*
X116388818Y-107294500D01*
X116388812Y-107294500D01*
X116227247Y-107318853D01*
X116129385Y-107333604D01*
X116129382Y-107333605D01*
X116129376Y-107333606D01*
X115878673Y-107410938D01*
X115642303Y-107524767D01*
X115642302Y-107524768D01*
X115425520Y-107672567D01*
X115233198Y-107851014D01*
X115069614Y-108056143D01*
X114938432Y-108283356D01*
X114842582Y-108527578D01*
X114842576Y-108527597D01*
X114784197Y-108783374D01*
X114784196Y-108783379D01*
X114764592Y-109044995D01*
X113770500Y-109044995D01*
X113770500Y-100084727D01*
X113790185Y-100017688D01*
X113806819Y-99997046D01*
X114384918Y-99418947D01*
X140144499Y-99418947D01*
X140144499Y-99655431D01*
X140144500Y-99655460D01*
X140144500Y-117716052D01*
X140171007Y-117917386D01*
X140174793Y-117946145D01*
X140174794Y-117946148D01*
X140234862Y-118170328D01*
X140323677Y-118384745D01*
X140323685Y-118384762D01*
X140439720Y-118585743D01*
X140439721Y-118585745D01*
X140581009Y-118769875D01*
X140581015Y-118769882D01*
X140745117Y-118933984D01*
X140745124Y-118933990D01*
X140929254Y-119075278D01*
X140929256Y-119075279D01*
X141130237Y-119191314D01*
X141130240Y-119191315D01*
X141130248Y-119191320D01*
X141344670Y-119280137D01*
X141568851Y-119340206D01*
X141798955Y-119370500D01*
X141798962Y-119370500D01*
X142031038Y-119370500D01*
X142031045Y-119370500D01*
X142261149Y-119340206D01*
X142485330Y-119280137D01*
X142699752Y-119191320D01*
X142900748Y-119075276D01*
X143084877Y-118933989D01*
X143248989Y-118769877D01*
X143390276Y-118585748D01*
X143506320Y-118384752D01*
X143595137Y-118170330D01*
X143655206Y-117946149D01*
X143685500Y-117716045D01*
X143685500Y-100319727D01*
X143705185Y-100252688D01*
X143721819Y-100232046D01*
X144822046Y-99131819D01*
X144883369Y-99098334D01*
X144909727Y-99095500D01*
X145003648Y-99095500D01*
X145070687Y-99115185D01*
X145116442Y-99167989D01*
X145126386Y-99237147D01*
X145114132Y-99275796D01*
X145098444Y-99306583D01*
X145032753Y-99508760D01*
X144999500Y-99718713D01*
X144999500Y-99931286D01*
X145023802Y-100084727D01*
X145032754Y-100141243D01*
X145090747Y-100319727D01*
X145098444Y-100343414D01*
X145194951Y-100532820D01*
X145319890Y-100704786D01*
X145470213Y-100855109D01*
X145642179Y-100980048D01*
X145642181Y-100980049D01*
X145642184Y-100980051D01*
X145831588Y-101076557D01*
X146033757Y-101142246D01*
X146243713Y-101175500D01*
X146243714Y-101175500D01*
X146756286Y-101175500D01*
X146756287Y-101175500D01*
X146966243Y-101142246D01*
X147168412Y-101076557D01*
X147357816Y-100980051D01*
X147490082Y-100883955D01*
X147529786Y-100855109D01*
X147529788Y-100855106D01*
X147529792Y-100855104D01*
X147680104Y-100704792D01*
X147680106Y-100704788D01*
X147680109Y-100704786D01*
X147805048Y-100532820D01*
X147805047Y-100532820D01*
X147805051Y-100532816D01*
X147901557Y-100343412D01*
X147967246Y-100141243D01*
X148000500Y-99931287D01*
X148000500Y-99718713D01*
X147967246Y-99508757D01*
X147901557Y-99306588D01*
X147805051Y-99117184D01*
X147805049Y-99117181D01*
X147805048Y-99117179D01*
X147680109Y-98945213D01*
X147557062Y-98822166D01*
X147523577Y-98760843D01*
X147528561Y-98691151D01*
X147557059Y-98646806D01*
X147623594Y-98580270D01*
X147646170Y-98562420D01*
X147718656Y-98517712D01*
X147842712Y-98393656D01*
X147934814Y-98244334D01*
X147989999Y-98077797D01*
X147991571Y-98062401D01*
X148000365Y-98027557D01*
X148055137Y-97895330D01*
X148115206Y-97671149D01*
X148145500Y-97441045D01*
X148145500Y-97208955D01*
X148115206Y-96978851D01*
X148055137Y-96754670D01*
X148000368Y-96622447D01*
X147991571Y-96587594D01*
X147989999Y-96572203D01*
X147989998Y-96572200D01*
X147975186Y-96527500D01*
X147934814Y-96405666D01*
X147842712Y-96256344D01*
X147718656Y-96132288D01*
X147718652Y-96132285D01*
X147646171Y-96087578D01*
X147623590Y-96069724D01*
X147544877Y-95991011D01*
X147544876Y-95991010D01*
X147544874Y-95991008D01*
X147360745Y-95849721D01*
X147360743Y-95849720D01*
X147159762Y-95733685D01*
X147159754Y-95733681D01*
X147159752Y-95733680D01*
X147159745Y-95733677D01*
X146945328Y-95644862D01*
X146803203Y-95606780D01*
X146721149Y-95584794D01*
X146692386Y-95581007D01*
X146491052Y-95554500D01*
X146491045Y-95554500D01*
X144244917Y-95554500D01*
X144244885Y-95554499D01*
X144241045Y-95554499D01*
X144008955Y-95554499D01*
X144008947Y-95554499D01*
X143778854Y-95584792D01*
X143575349Y-95639322D01*
X143575348Y-95639321D01*
X143554673Y-95644861D01*
X143340254Y-95733677D01*
X143340237Y-95733685D01*
X143139256Y-95849720D01*
X143139254Y-95849721D01*
X142955125Y-95991008D01*
X142876413Y-96069721D01*
X142791011Y-96155123D01*
X142791007Y-96155127D01*
X140745127Y-98201007D01*
X140745123Y-98201011D01*
X140701803Y-98244331D01*
X140581008Y-98365125D01*
X140439724Y-98549250D01*
X140358741Y-98689521D01*
X140358740Y-98689522D01*
X140323681Y-98750244D01*
X140323677Y-98750254D01*
X140234863Y-98964669D01*
X140174792Y-99188854D01*
X140144499Y-99418947D01*
X114384918Y-99418947D01*
X114392548Y-99411317D01*
X114392559Y-99411304D01*
X115308989Y-98494877D01*
X115308989Y-98494876D01*
X115314353Y-98489513D01*
X115314368Y-98489495D01*
X123647046Y-90156819D01*
X123708369Y-90123334D01*
X123734727Y-90120500D01*
X145003648Y-90120500D01*
X145070687Y-90140185D01*
X145116442Y-90192989D01*
X145126386Y-90262147D01*
X145114132Y-90300796D01*
X145098444Y-90331583D01*
X145032753Y-90533760D01*
X145002464Y-90725000D01*
X144999500Y-90743713D01*
X144999500Y-90956287D01*
X145032754Y-91166243D01*
X145095702Y-91359977D01*
X145098444Y-91368414D01*
X145194951Y-91557820D01*
X145319890Y-91729786D01*
X145470213Y-91880109D01*
X145642179Y-92005048D01*
X145642181Y-92005049D01*
X145642184Y-92005051D01*
X145831588Y-92101557D01*
X146033757Y-92167246D01*
X146243713Y-92200500D01*
X146243714Y-92200500D01*
X146756286Y-92200500D01*
X146756287Y-92200500D01*
X146966243Y-92167246D01*
X147168412Y-92101557D01*
X147357816Y-92005051D01*
X147395303Y-91977815D01*
X147529786Y-91880109D01*
X147529788Y-91880106D01*
X147529792Y-91880104D01*
X147680104Y-91729792D01*
X147680106Y-91729788D01*
X147680109Y-91729786D01*
X147805048Y-91557820D01*
X147805047Y-91557820D01*
X147805051Y-91557816D01*
X147901557Y-91368412D01*
X147967246Y-91166243D01*
X148000500Y-90956287D01*
X148000500Y-90743713D01*
X147967246Y-90533757D01*
X147901557Y-90331588D01*
X147805051Y-90142184D01*
X147805049Y-90142181D01*
X147805048Y-90142179D01*
X147680109Y-89970213D01*
X147541294Y-89831398D01*
X147507809Y-89770075D01*
X147512793Y-89700383D01*
X147554665Y-89644450D01*
X147563879Y-89638178D01*
X147569331Y-89634814D01*
X147569334Y-89634814D01*
X147718656Y-89542712D01*
X147842712Y-89418656D01*
X147934814Y-89269334D01*
X147989999Y-89102797D01*
X148000500Y-89000009D01*
X148000499Y-88767357D01*
X148004725Y-88735261D01*
X148015206Y-88696149D01*
X148045500Y-88466045D01*
X148045500Y-88233955D01*
X148015206Y-88003851D01*
X148004724Y-87964730D01*
X148000499Y-87932638D01*
X148000499Y-87699998D01*
X148000498Y-87699981D01*
X147989999Y-87597203D01*
X147989998Y-87597200D01*
X147978005Y-87561007D01*
X147934814Y-87430666D01*
X147842712Y-87281344D01*
X147718656Y-87157288D01*
X147569334Y-87065186D01*
X147569332Y-87065185D01*
X147569330Y-87065184D01*
X147569331Y-87065184D01*
X147482946Y-87036558D01*
X147446466Y-87017229D01*
X147260745Y-86874721D01*
X147260743Y-86874720D01*
X147059762Y-86758685D01*
X147059754Y-86758681D01*
X147059752Y-86758680D01*
X147059745Y-86758677D01*
X146845328Y-86669862D01*
X146703203Y-86631780D01*
X146621149Y-86609794D01*
X146592386Y-86606007D01*
X146391052Y-86579500D01*
X146391045Y-86579500D01*
X123069917Y-86579500D01*
X123069885Y-86579499D01*
X123066045Y-86579499D01*
X122833955Y-86579499D01*
X122833947Y-86579499D01*
X122603855Y-86609792D01*
X122379665Y-86669864D01*
X122165254Y-86758676D01*
X122165237Y-86758684D01*
X122037821Y-86832247D01*
X122037821Y-86832248D01*
X122008505Y-86849174D01*
X121964253Y-86874723D01*
X121964243Y-86874730D01*
X121780125Y-87016008D01*
X121730950Y-87065184D01*
X121616011Y-87180123D01*
X113982181Y-94813953D01*
X113920858Y-94847438D01*
X113851166Y-94842454D01*
X113795233Y-94800582D01*
X113770816Y-94735118D01*
X113770500Y-94726272D01*
X113770500Y-89679727D01*
X113790185Y-89612688D01*
X113806819Y-89592046D01*
X115818193Y-87580673D01*
X117853989Y-85544877D01*
X117913492Y-85467331D01*
X117995276Y-85360748D01*
X118046009Y-85272876D01*
X118111314Y-85159762D01*
X118111320Y-85159752D01*
X118200137Y-84945330D01*
X118245775Y-84775008D01*
X118260207Y-84721149D01*
X118290500Y-84491045D01*
X118290500Y-84258956D01*
X118290500Y-82374995D01*
X126194592Y-82374995D01*
X126194592Y-82375004D01*
X126214196Y-82636620D01*
X126214197Y-82636625D01*
X126272576Y-82892402D01*
X126272578Y-82892411D01*
X126272580Y-82892416D01*
X126368432Y-83136643D01*
X126499614Y-83363857D01*
X126601736Y-83491914D01*
X126663198Y-83568985D01*
X126758392Y-83657311D01*
X126855521Y-83747433D01*
X127072296Y-83895228D01*
X127072301Y-83895230D01*
X127072302Y-83895231D01*
X127072303Y-83895232D01*
X127197843Y-83955688D01*
X127308673Y-84009061D01*
X127308674Y-84009061D01*
X127308677Y-84009063D01*
X127559385Y-84086396D01*
X127818818Y-84125500D01*
X128081182Y-84125500D01*
X128340615Y-84086396D01*
X128591323Y-84009063D01*
X128827704Y-83895228D01*
X129044479Y-83747433D01*
X129236805Y-83568981D01*
X129400386Y-83363857D01*
X129531568Y-83136643D01*
X129627420Y-82892416D01*
X129685802Y-82636630D01*
X129705408Y-82375000D01*
X129705408Y-82374995D01*
X133814592Y-82374995D01*
X133814592Y-82375004D01*
X133834196Y-82636620D01*
X133834197Y-82636625D01*
X133892576Y-82892402D01*
X133892578Y-82892411D01*
X133892580Y-82892416D01*
X133988432Y-83136643D01*
X134119614Y-83363857D01*
X134221736Y-83491914D01*
X134283198Y-83568985D01*
X134378392Y-83657311D01*
X134475521Y-83747433D01*
X134692296Y-83895228D01*
X134692301Y-83895230D01*
X134692302Y-83895231D01*
X134692303Y-83895232D01*
X134817843Y-83955688D01*
X134928673Y-84009061D01*
X134928674Y-84009061D01*
X134928677Y-84009063D01*
X135179385Y-84086396D01*
X135438818Y-84125500D01*
X135701182Y-84125500D01*
X135960615Y-84086396D01*
X136211323Y-84009063D01*
X136447704Y-83895228D01*
X136664479Y-83747433D01*
X136856805Y-83568981D01*
X137020386Y-83363857D01*
X137151568Y-83136643D01*
X137247420Y-82892416D01*
X137305802Y-82636630D01*
X137325408Y-82375000D01*
X137316712Y-82258961D01*
X137305803Y-82113379D01*
X137305802Y-82113374D01*
X137305802Y-82113370D01*
X137247420Y-81857584D01*
X137151568Y-81613357D01*
X137020386Y-81386143D01*
X136856805Y-81181019D01*
X136856804Y-81181018D01*
X136856801Y-81181014D01*
X136664479Y-81002567D01*
X136634481Y-80982115D01*
X136447704Y-80854772D01*
X136447700Y-80854770D01*
X136447697Y-80854768D01*
X136447696Y-80854767D01*
X136211325Y-80740938D01*
X136211327Y-80740938D01*
X135960623Y-80663606D01*
X135960619Y-80663605D01*
X135960615Y-80663604D01*
X135835823Y-80644794D01*
X135701187Y-80624500D01*
X135701182Y-80624500D01*
X135438818Y-80624500D01*
X135438812Y-80624500D01*
X135277247Y-80648853D01*
X135179385Y-80663604D01*
X135179382Y-80663605D01*
X135179376Y-80663606D01*
X134928673Y-80740938D01*
X134692303Y-80854767D01*
X134692302Y-80854768D01*
X134475520Y-81002567D01*
X134283198Y-81181014D01*
X134119614Y-81386143D01*
X133988432Y-81613356D01*
X133892582Y-81857578D01*
X133892576Y-81857597D01*
X133834197Y-82113374D01*
X133834196Y-82113379D01*
X133814592Y-82374995D01*
X129705408Y-82374995D01*
X129696712Y-82258961D01*
X129685803Y-82113379D01*
X129685802Y-82113374D01*
X129685802Y-82113370D01*
X129627420Y-81857584D01*
X129531568Y-81613357D01*
X129400386Y-81386143D01*
X129236805Y-81181019D01*
X129236804Y-81181018D01*
X129236801Y-81181014D01*
X129044479Y-81002567D01*
X129014481Y-80982115D01*
X128827704Y-80854772D01*
X128827700Y-80854770D01*
X128827697Y-80854768D01*
X128827696Y-80854767D01*
X128591325Y-80740938D01*
X128591327Y-80740938D01*
X128340623Y-80663606D01*
X128340619Y-80663605D01*
X128340615Y-80663604D01*
X128215823Y-80644794D01*
X128081187Y-80624500D01*
X128081182Y-80624500D01*
X127818818Y-80624500D01*
X127818812Y-80624500D01*
X127657247Y-80648853D01*
X127559385Y-80663604D01*
X127559382Y-80663605D01*
X127559376Y-80663606D01*
X127308673Y-80740938D01*
X127072303Y-80854767D01*
X127072302Y-80854768D01*
X126855520Y-81002567D01*
X126663198Y-81181014D01*
X126499614Y-81386143D01*
X126368432Y-81613356D01*
X126272582Y-81857578D01*
X126272576Y-81857597D01*
X126214197Y-82113374D01*
X126214196Y-82113379D01*
X126194592Y-82374995D01*
X118290500Y-82374995D01*
X118290500Y-82258955D01*
X118260206Y-82028851D01*
X118200137Y-81804670D01*
X118111320Y-81590248D01*
X118074034Y-81525666D01*
X117995279Y-81389256D01*
X117995278Y-81389254D01*
X117853990Y-81205124D01*
X117853984Y-81205117D01*
X117689882Y-81041015D01*
X117689875Y-81041009D01*
X117505745Y-80899721D01*
X117505743Y-80899720D01*
X117304762Y-80783685D01*
X117304754Y-80783681D01*
X117304752Y-80783680D01*
X117304745Y-80783677D01*
X117090328Y-80694862D01*
X116933098Y-80652733D01*
X116866149Y-80634794D01*
X116837386Y-80631007D01*
X116636052Y-80604500D01*
X116636045Y-80604500D01*
X116403955Y-80604500D01*
X116403947Y-80604500D01*
X116173851Y-80634794D01*
X115949671Y-80694862D01*
X115735254Y-80783677D01*
X115735237Y-80783685D01*
X115534256Y-80899720D01*
X115534254Y-80899721D01*
X115350124Y-81041009D01*
X115350117Y-81041015D01*
X115186015Y-81205117D01*
X115186009Y-81205124D01*
X115044721Y-81389254D01*
X115044720Y-81389256D01*
X114928685Y-81590237D01*
X114928677Y-81590254D01*
X114839862Y-81804671D01*
X114779794Y-82028851D01*
X114749500Y-82258947D01*
X114749500Y-83590272D01*
X114729815Y-83657311D01*
X114713181Y-83677953D01*
X110830127Y-87561007D01*
X110830123Y-87561011D01*
X110748065Y-87643068D01*
X110666008Y-87725125D01*
X110524724Y-87909250D01*
X110492694Y-87964730D01*
X110470110Y-88003849D01*
X110470109Y-88003850D01*
X110470108Y-88003851D01*
X110408681Y-88110244D01*
X110408677Y-88110254D01*
X110319863Y-88324669D01*
X110259792Y-88548854D01*
X110229499Y-88778947D01*
X107770500Y-88778947D01*
X107770500Y-80904724D01*
X107790185Y-80837685D01*
X107842989Y-80791930D01*
X107912147Y-80781986D01*
X107975703Y-80811011D01*
X107996076Y-80833602D01*
X107999955Y-80839142D01*
X108160858Y-81000045D01*
X108160861Y-81000047D01*
X108347266Y-81130568D01*
X108553504Y-81226739D01*
X108773308Y-81285635D01*
X108935230Y-81299801D01*
X108999998Y-81305468D01*
X109000000Y-81305468D01*
X109000002Y-81305468D01*
X109056673Y-81300509D01*
X109226692Y-81285635D01*
X109446496Y-81226739D01*
X109652734Y-81130568D01*
X109839139Y-81000047D01*
X110000047Y-80839139D01*
X110130568Y-80652734D01*
X110137618Y-80637614D01*
X110183789Y-80585176D01*
X110250982Y-80566023D01*
X110317864Y-80586238D01*
X110362381Y-80637614D01*
X110369432Y-80652733D01*
X110369432Y-80652734D01*
X110499954Y-80839141D01*
X110660858Y-81000045D01*
X110660861Y-81000047D01*
X110847266Y-81130568D01*
X111053504Y-81226739D01*
X111273308Y-81285635D01*
X111435230Y-81299801D01*
X111499998Y-81305468D01*
X111500000Y-81305468D01*
X111500002Y-81305468D01*
X111556673Y-81300509D01*
X111726692Y-81285635D01*
X111946496Y-81226739D01*
X112152734Y-81130568D01*
X112339139Y-81000047D01*
X112500047Y-80839139D01*
X112630568Y-80652734D01*
X112726739Y-80446496D01*
X112785635Y-80226692D01*
X112805468Y-80000000D01*
X112785635Y-79773308D01*
X112726739Y-79553504D01*
X112630568Y-79347266D01*
X112500047Y-79160861D01*
X112500046Y-79160860D01*
X112500045Y-79160858D01*
X112339141Y-78999954D01*
X112152734Y-78869432D01*
X112152732Y-78869431D01*
X111946497Y-78773261D01*
X111946488Y-78773258D01*
X111726697Y-78714366D01*
X111726693Y-78714365D01*
X111726692Y-78714365D01*
X111726691Y-78714364D01*
X111726686Y-78714364D01*
X111500002Y-78694532D01*
X111499998Y-78694532D01*
X111273313Y-78714364D01*
X111273302Y-78714366D01*
X111053511Y-78773258D01*
X111053502Y-78773261D01*
X110847267Y-78869431D01*
X110847265Y-78869432D01*
X110660858Y-78999954D01*
X110499954Y-79160858D01*
X110369433Y-79347264D01*
X110369432Y-79347266D01*
X110362380Y-79362387D01*
X110316209Y-79414825D01*
X110249015Y-79433976D01*
X110182134Y-79413760D01*
X110137619Y-79362387D01*
X110130568Y-79347266D01*
X110000047Y-79160861D01*
X110000046Y-79160860D01*
X110000045Y-79160858D01*
X109839141Y-78999954D01*
X109652734Y-78869432D01*
X109652732Y-78869431D01*
X109446497Y-78773261D01*
X109446488Y-78773258D01*
X109226697Y-78714366D01*
X109226693Y-78714365D01*
X109226692Y-78714365D01*
X109226691Y-78714364D01*
X109226686Y-78714364D01*
X109000002Y-78694532D01*
X108999998Y-78694532D01*
X108773313Y-78714364D01*
X108773302Y-78714366D01*
X108553511Y-78773258D01*
X108553502Y-78773261D01*
X108347267Y-78869431D01*
X108347265Y-78869432D01*
X108160858Y-78999954D01*
X107999952Y-79160860D01*
X107996072Y-79166402D01*
X107941494Y-79210025D01*
X107871995Y-79217216D01*
X107809642Y-79185691D01*
X107774230Y-79125460D01*
X107770500Y-79095275D01*
X107770500Y-73899998D01*
X124719532Y-73899998D01*
X124719532Y-73900001D01*
X124739364Y-74126686D01*
X124739366Y-74126697D01*
X124798258Y-74346488D01*
X124798261Y-74346497D01*
X124894431Y-74552732D01*
X124894432Y-74552734D01*
X125024954Y-74739141D01*
X125185858Y-74900045D01*
X125185861Y-74900047D01*
X125372266Y-75030568D01*
X125387387Y-75037619D01*
X125439825Y-75083791D01*
X125458976Y-75150985D01*
X125438760Y-75217866D01*
X125387387Y-75262380D01*
X125372266Y-75269432D01*
X125372264Y-75269433D01*
X125185858Y-75399954D01*
X125024954Y-75560858D01*
X124894432Y-75747265D01*
X124894431Y-75747267D01*
X124798261Y-75953502D01*
X124798258Y-75953511D01*
X124739366Y-76173302D01*
X124739364Y-76173313D01*
X124719532Y-76399998D01*
X124719532Y-76400001D01*
X124739364Y-76626686D01*
X124739366Y-76626697D01*
X124798258Y-76846488D01*
X124798261Y-76846497D01*
X124894431Y-77052732D01*
X124894432Y-77052734D01*
X125024954Y-77239141D01*
X125185858Y-77400045D01*
X125185861Y-77400047D01*
X125372266Y-77530568D01*
X125578504Y-77626739D01*
X125798308Y-77685635D01*
X125960230Y-77699801D01*
X126024998Y-77705468D01*
X126025000Y-77705468D01*
X126025002Y-77705468D01*
X126081673Y-77700509D01*
X126251692Y-77685635D01*
X126471496Y-77626739D01*
X126677734Y-77530568D01*
X126864139Y-77400047D01*
X127025047Y-77239139D01*
X127155568Y-77052734D01*
X127251739Y-76846496D01*
X127310635Y-76626692D01*
X127330468Y-76400000D01*
X127310635Y-76173308D01*
X127251739Y-75953504D01*
X127155568Y-75747266D01*
X127025047Y-75560861D01*
X127025045Y-75560858D01*
X126864141Y-75399954D01*
X126677734Y-75269432D01*
X126662614Y-75262381D01*
X126610176Y-75216211D01*
X126591023Y-75149018D01*
X126611238Y-75082136D01*
X126662614Y-75037618D01*
X126677734Y-75030568D01*
X126864139Y-74900047D01*
X127025047Y-74739139D01*
X127155568Y-74552734D01*
X127251739Y-74346496D01*
X127310635Y-74126692D01*
X127330468Y-73900000D01*
X127310635Y-73673308D01*
X127251739Y-73453504D01*
X127155568Y-73247266D01*
X127025047Y-73060861D01*
X127025045Y-73060858D01*
X126864141Y-72899954D01*
X126677734Y-72769432D01*
X126677732Y-72769431D01*
X126471497Y-72673261D01*
X126471488Y-72673258D01*
X126251697Y-72614366D01*
X126251693Y-72614365D01*
X126251692Y-72614365D01*
X126251691Y-72614364D01*
X126251686Y-72614364D01*
X126025002Y-72594532D01*
X126024998Y-72594532D01*
X125798313Y-72614364D01*
X125798302Y-72614366D01*
X125578511Y-72673258D01*
X125578502Y-72673261D01*
X125372267Y-72769431D01*
X125372265Y-72769432D01*
X125185858Y-72899954D01*
X125024954Y-73060858D01*
X124894432Y-73247265D01*
X124894431Y-73247267D01*
X124798261Y-73453502D01*
X124798258Y-73453511D01*
X124739366Y-73673302D01*
X124739364Y-73673313D01*
X124719532Y-73899998D01*
X107770500Y-73899998D01*
X107770500Y-73383959D01*
X107770499Y-73383950D01*
X107769731Y-73378115D01*
X107769731Y-73378112D01*
X107752505Y-73247266D01*
X107740207Y-73153851D01*
X107708120Y-73034106D01*
X107680137Y-72929670D01*
X107591320Y-72715248D01*
X107567079Y-72673261D01*
X107475279Y-72514256D01*
X107475278Y-72514254D01*
X107333991Y-72330125D01*
X107304142Y-72300276D01*
X107169877Y-72166011D01*
X107169876Y-72166010D01*
X104662113Y-69658248D01*
X104662086Y-69658219D01*
X104494882Y-69491015D01*
X104494875Y-69491009D01*
X104310745Y-69349721D01*
X104310743Y-69349720D01*
X104109762Y-69233685D01*
X104109754Y-69233681D01*
X104109752Y-69233680D01*
X103895330Y-69144863D01*
X103671149Y-69084793D01*
X103671148Y-69084792D01*
X103671145Y-69084792D01*
X103441052Y-69054499D01*
X103441045Y-69054499D01*
X103208955Y-69054499D01*
X103205115Y-69054499D01*
X103205083Y-69054500D01*
X102133947Y-69054500D01*
X101903851Y-69084794D01*
X101679671Y-69144862D01*
X101465254Y-69233677D01*
X101465237Y-69233685D01*
X101264256Y-69349720D01*
X101264254Y-69349721D01*
X101080124Y-69491009D01*
X101080117Y-69491015D01*
X100916015Y-69655117D01*
X100916009Y-69655124D01*
X100774721Y-69839254D01*
X100774720Y-69839256D01*
X100658685Y-70040237D01*
X100658677Y-70040254D01*
X100569862Y-70254671D01*
X100509794Y-70478851D01*
X100479500Y-70708947D01*
X75856900Y-70708947D01*
X75856900Y-70335675D01*
X75822049Y-70160472D01*
X75822048Y-70160471D01*
X75822048Y-70160467D01*
X75753684Y-69995422D01*
X75753683Y-69995421D01*
X75753680Y-69995415D01*
X75654435Y-69846885D01*
X75654432Y-69846881D01*
X75528118Y-69720567D01*
X75528114Y-69720564D01*
X75379584Y-69621319D01*
X75379575Y-69621314D01*
X75214533Y-69552952D01*
X75214527Y-69552950D01*
X75039324Y-69518100D01*
X75039322Y-69518100D01*
X74860678Y-69518100D01*
X74860676Y-69518100D01*
X74685472Y-69552950D01*
X74685466Y-69552952D01*
X74520424Y-69621314D01*
X74520415Y-69621319D01*
X74371885Y-69720564D01*
X74371881Y-69720567D01*
X74245567Y-69846881D01*
X74245564Y-69846885D01*
X74146319Y-69995415D01*
X74146314Y-69995424D01*
X74077952Y-70160466D01*
X74077950Y-70160472D01*
X74043100Y-70335675D01*
X74043100Y-70335678D01*
X74043100Y-72710678D01*
X74043100Y-72889322D01*
X74043100Y-72889324D01*
X74043099Y-72889324D01*
X50500500Y-72889324D01*
X50500500Y-66003750D01*
X50500613Y-66000000D01*
X50894592Y-66000000D01*
X50914201Y-66286680D01*
X50972666Y-66568034D01*
X50972667Y-66568037D01*
X51068894Y-66838793D01*
X51068893Y-66838793D01*
X51201098Y-67093935D01*
X51366812Y-67328700D01*
X51451923Y-67419831D01*
X51562947Y-67538708D01*
X51785853Y-67720055D01*
X52031382Y-67869365D01*
X52218237Y-67950526D01*
X52294942Y-67983844D01*
X52571642Y-68061371D01*
X52821920Y-68095771D01*
X52856321Y-68100500D01*
X52856322Y-68100500D01*
X53143679Y-68100500D01*
X53174370Y-68096281D01*
X53428358Y-68061371D01*
X53705058Y-67983844D01*
X53818015Y-67934779D01*
X53968617Y-67869365D01*
X53968620Y-67869363D01*
X53968625Y-67869361D01*
X54214147Y-67720055D01*
X54437053Y-67538708D01*
X54633189Y-67328698D01*
X54798901Y-67093936D01*
X54931104Y-66838797D01*
X55027334Y-66568032D01*
X55085798Y-66286686D01*
X55105408Y-66000000D01*
X144894592Y-66000000D01*
X144914201Y-66286680D01*
X144972666Y-66568034D01*
X144972667Y-66568037D01*
X145068894Y-66838793D01*
X145068893Y-66838793D01*
X145201098Y-67093935D01*
X145366812Y-67328700D01*
X145451923Y-67419831D01*
X145562947Y-67538708D01*
X145785853Y-67720055D01*
X146031382Y-67869365D01*
X146218237Y-67950526D01*
X146294942Y-67983844D01*
X146571642Y-68061371D01*
X146821920Y-68095771D01*
X146856321Y-68100500D01*
X146856322Y-68100500D01*
X147143679Y-68100500D01*
X147174370Y-68096281D01*
X147428358Y-68061371D01*
X147705058Y-67983844D01*
X147818015Y-67934779D01*
X147968617Y-67869365D01*
X147968620Y-67869363D01*
X147968625Y-67869361D01*
X148214147Y-67720055D01*
X148437053Y-67538708D01*
X148633189Y-67328698D01*
X148798901Y-67093936D01*
X148931104Y-66838797D01*
X149027334Y-66568032D01*
X149085798Y-66286686D01*
X149105408Y-66000000D01*
X149085798Y-65713314D01*
X149027334Y-65431968D01*
X148931105Y-65161206D01*
X148931106Y-65161206D01*
X148798901Y-64906064D01*
X148633187Y-64671299D01*
X148542518Y-64574217D01*
X148437053Y-64461292D01*
X148214147Y-64279945D01*
X148214146Y-64279944D01*
X147968617Y-64130634D01*
X147705063Y-64016158D01*
X147705061Y-64016157D01*
X147705058Y-64016156D01*
X147575578Y-63979877D01*
X147428364Y-63938630D01*
X147428359Y-63938629D01*
X147428358Y-63938629D01*
X147236367Y-63912240D01*
X147143679Y-63899500D01*
X147143678Y-63899500D01*
X146856322Y-63899500D01*
X146856321Y-63899500D01*
X146571642Y-63938629D01*
X146571635Y-63938630D01*
X146363861Y-63996845D01*
X146294942Y-64016156D01*
X146294939Y-64016156D01*
X146294936Y-64016158D01*
X146294935Y-64016158D01*
X146031382Y-64130634D01*
X145785853Y-64279944D01*
X145562950Y-64461289D01*
X145366812Y-64671299D01*
X145201098Y-64906064D01*
X145068894Y-65161206D01*
X144972667Y-65431962D01*
X144972666Y-65431965D01*
X144914201Y-65713319D01*
X144894592Y-66000000D01*
X55105408Y-66000000D01*
X55085798Y-65713314D01*
X55027334Y-65431968D01*
X54931105Y-65161206D01*
X54931106Y-65161206D01*
X54798901Y-64906064D01*
X54633187Y-64671299D01*
X54542518Y-64574217D01*
X54437053Y-64461292D01*
X54214147Y-64279945D01*
X54214146Y-64279944D01*
X53968617Y-64130634D01*
X53705063Y-64016158D01*
X53705061Y-64016157D01*
X53705058Y-64016156D01*
X53575578Y-63979877D01*
X53428364Y-63938630D01*
X53428359Y-63938629D01*
X53428358Y-63938629D01*
X53236367Y-63912240D01*
X53143679Y-63899500D01*
X53143678Y-63899500D01*
X52856322Y-63899500D01*
X52856321Y-63899500D01*
X52571642Y-63938629D01*
X52571635Y-63938630D01*
X52363861Y-63996845D01*
X52294942Y-64016156D01*
X52294939Y-64016156D01*
X52294936Y-64016158D01*
X52294935Y-64016158D01*
X52031382Y-64130634D01*
X51785853Y-64279944D01*
X51562950Y-64461289D01*
X51366812Y-64671299D01*
X51201098Y-64906064D01*
X51068894Y-65161206D01*
X50972667Y-65431962D01*
X50972666Y-65431965D01*
X50914201Y-65713319D01*
X50894592Y-66000000D01*
X50500613Y-66000000D01*
X50500726Y-65996263D01*
X50518271Y-65706205D01*
X50520076Y-65691340D01*
X50567609Y-65431965D01*
X50571780Y-65409197D01*
X50575364Y-65394663D01*
X50660696Y-65120822D01*
X50665998Y-65106841D01*
X50783731Y-64845249D01*
X50790676Y-64832016D01*
X50939080Y-64586526D01*
X50947567Y-64574230D01*
X51124480Y-64348417D01*
X51134395Y-64337226D01*
X51337226Y-64134395D01*
X51348417Y-64124480D01*
X51574230Y-63947567D01*
X51586526Y-63939080D01*
X51832016Y-63790676D01*
X51845249Y-63783731D01*
X52106841Y-63665998D01*
X52120822Y-63660696D01*
X52394668Y-63575362D01*
X52409197Y-63571780D01*
X52691344Y-63520075D01*
X52706201Y-63518271D01*
X52996264Y-63500726D01*
X53003751Y-63500500D01*
X53065892Y-63500500D01*
X146934108Y-63500500D01*
X146996249Y-63500500D01*
X147003736Y-63500726D01*
G37*
%TD.AperFunction*%
%TD*%
M02*
